<svg width="33" height="33" viewBox="0 0 33 33" fill="none" xmlns="http://www.w3.org/2000/svg">
<path d="M32.889 29.1872C32.9146 29.0835 32.8745 28.9463 33 28.875C33 20.6466 33 12.4181 33 4.18969C32.8242 3.69381 32.7483 3.16698 32.4956 2.69369C31.6158 1.04607 30.2497 0.151619 28.39 0.00770273C28.2724 -0.00139436 28.1538 0.000572587 28.0357 0.000567666C20.3451 0.000267705 12.6544 -0.000725598 4.96381 0.000941384C2.74876 0.00142329 0.956728 1.26625 0.251517 3.3191C0.0756904 3.83094 0.000416819 4.35916 0.000468923 4.89996C0.00119223 12.6337 -0.00225882 20.3675 0.00289325 28.1012C0.00447167 30.4654 1.53728 32.3607 3.84471 32.8976C3.93772 32.9192 4.067 32.8742 4.1258 33C7.60617 33 11.0865 33 14.5669 33C14.5669 29.2191 14.5638 25.4383 14.5736 21.6574C14.5743 21.3909 14.5143 21.3225 14.2448 21.3268C13.1495 21.3443 12.0537 21.3282 10.9583 21.3392C10.7482 21.3413 10.6938 21.2864 10.6948 21.076C10.7036 19.3145 10.7037 17.5529 10.6948 15.7914C10.6938 15.5809 10.7483 15.5262 10.9583 15.5282C12.0752 15.5391 13.1924 15.5274 14.3093 15.5386C14.5209 15.5407 14.5738 15.4834 14.5719 15.2744C14.5616 14.093 14.565 12.9114 14.5673 11.7299C14.574 8.35074 17.1157 5.80758 20.4942 5.8016C22.3094 5.79839 24.1246 5.80583 25.9398 5.79512C26.1758 5.79372 26.2409 5.84345 26.2392 6.08914C26.2268 7.82911 26.2275 9.56925 26.2386 11.3092C26.2401 11.5459 26.1892 11.61 25.9442 11.6083C24.1827 11.5961 22.4212 11.6068 20.6597 11.5957C20.4224 11.5943 20.3576 11.6459 20.3609 11.8906C20.376 13.0074 20.3753 14.1247 20.3613 15.2416C20.3583 15.4802 20.4134 15.5415 20.6568 15.5398C22.3967 15.5277 24.1368 15.5333 25.8768 15.5333C25.9835 15.5333 26.0903 15.5333 26.2295 15.5333C26.0918 16.3723 25.9583 17.1913 25.8227 18.01C25.6579 19.0044 25.4873 19.9979 25.3286 20.9933C25.2912 21.2276 25.2411 21.3493 24.9427 21.3445C23.5146 21.3213 22.0858 21.3407 20.6573 21.3277C20.415 21.3255 20.3611 21.386 20.3616 21.6252C20.37 25.4168 20.3675 29.2084 20.3675 33C23.1604 33 25.9533 33 28.7462 33C29.0484 32.9203 29.3577 32.8608 29.6515 32.7574C31.3721 32.1522 32.4524 30.9623 32.889 29.1872Z" fill="white"/>
</svg>
