<svg width="39" height="27" viewBox="0 0 39 27" fill="none" xmlns="http://www.w3.org/2000/svg">
<path d="M19.4986 27C19.4953 27 19.4917 27 19.4882 27C18.3114 26.9923 7.90796 26.9014 4.96047 26.1377C2.90056 25.6072 1.27446 24.0511 0.719244 22.0774C-0.0519964 19.3035 -0.00290127 13.9629 0.00245455 13.5365C-0.00260373 13.112 -0.0522939 7.72732 0.716863 4.93063C0.717756 4.92806 0.718351 4.92521 0.719244 4.92264C1.26822 2.97143 2.93091 1.36713 4.95541 0.835216C4.96047 0.833791 4.96583 0.832651 4.97088 0.831225C7.88505 0.0974895 18.309 0.00769653 19.4882 0H19.5093C20.6891 0.00769655 31.1201 0.0986295 34.0406 0.863437C36.0951 1.3925 37.72 2.94663 38.2767 4.9178C39.0768 7.71648 39.0027 13.1129 38.9947 13.5684C39.0004 14.0171 39.0471 19.3097 38.2803 22.0976C38.2797 22.1004 38.2788 22.103 38.2782 22.1056C37.7227 24.0793 36.0969 25.6354 34.0346 26.1665C34.0319 26.1673 34.029 26.1679 34.0263 26.1688C31.1124 26.9022 20.6882 26.992 19.5093 27C19.5057 27 19.5022 27 19.4986 27ZM3.66198 5.67918C2.98476 8.14777 3.04873 13.4638 3.04933 13.5174V13.5559C3.0291 15.0302 3.10021 19.2998 3.66228 21.322C3.93483 22.2903 4.73671 23.0574 5.75373 23.3193C7.92849 23.8829 16.4017 24.0602 19.4986 24.081C22.6035 24.0602 31.0892 23.8878 33.2479 23.3467C34.2616 23.0839 35.0609 22.3194 35.3352 21.3499C35.8978 19.2981 35.9684 15.0493 35.9478 13.5844C35.9478 13.569 35.9478 13.5536 35.9481 13.5382C35.9761 12.0462 35.9211 7.72675 35.3379 5.68831C35.3373 5.68631 35.3367 5.68432 35.3364 5.68232C35.0626 4.70971 34.2605 3.94262 33.2434 3.68065C31.0898 3.11652 22.6029 2.93979 19.4986 2.91898C16.3958 2.93979 7.91838 3.11196 5.75313 3.65243C4.75546 3.91753 3.93542 4.71199 3.66198 5.67918ZM15.6153 19.4107V7.58906L26.2794 13.5L15.6153 19.4107Z" fill="white"/>
</svg>
