<svg width="136" height="109" viewBox="0 0 136 109" fill="none" xmlns="http://www.w3.org/2000/svg">
<g filter="url(#filter0_d_641_1037)">
<path d="M96.1654 87.6458C95.6328 87.6181 95.0909 87.5996 94.5583 87.572C94.0532 87.5443 93.6491 87.7196 93.3001 88.1069C91.9777 89.601 90.7562 91.178 89.4889 92.7182C89.0297 93.2716 88.5797 93.8434 87.9276 94.1938C86.9174 94.7472 85.8613 94.8025 84.7776 94.4613C82.9868 93.8895 81.1867 93.3546 79.3408 93.0041C78.8265 92.9027 78.3122 92.8473 77.798 92.8197C76.4755 92.7643 75.3459 93.1609 74.4459 94.1938C72.9214 95.9369 70.9469 96.8961 68.706 97.3111C67.3009 97.5693 66.006 97.2004 64.8121 96.435C63.407 95.5311 62.0295 94.572 60.8172 93.4284C60.1284 92.7736 59.3845 92.6629 58.5396 92.8105C56.5559 93.1701 54.6274 93.7696 52.6988 94.3691C51.6243 94.7011 50.5406 94.9409 49.411 94.6089C48.8324 94.4336 48.2906 94.1938 47.813 93.8249C46.1875 92.5614 44.6905 91.1504 43.8273 89.2597C43.1293 87.7196 41.9354 87.24 40.4293 87.1385C39.3272 87.0647 38.2344 87.1385 37.1507 87.3783C35.3323 87.7841 33.7986 87.1662 32.5129 85.8935C30.7221 84.1227 29.7945 81.9185 29.4547 79.4468C29.3812 78.9304 29.3537 78.4047 29.2802 77.8882C29.1792 77.1412 28.7935 76.5878 28.1231 76.2189C26.8282 75.518 25.4598 74.9923 24.0455 74.5865C22.4659 74.1346 21.1067 73.2953 19.9679 72.124C18.6454 70.7591 18.1312 69.1359 18.6914 67.2637C19.1597 65.6866 19.3434 64.0819 19.1965 62.4403C19.0954 61.3151 18.5628 60.5127 17.4975 60.0793C16.2393 59.5628 15.0822 58.8895 14.1546 57.8658C13.4107 57.045 12.7127 56.1873 12.3454 55.1175C11.9138 53.8909 11.9964 52.7011 12.777 51.5944C13.5025 50.5615 14.1821 49.5101 14.8342 48.4311C16.0556 46.3744 15.8995 44.5299 14.4117 42.6577C13.2913 41.2558 12.5934 39.6603 12.4832 37.8619C12.3821 36.3217 13.0066 35.0767 14.2005 34.1267C15.4219 33.1491 16.7444 32.3191 18.1954 31.7288C19.1046 31.3599 19.6281 30.7328 19.9404 29.8013C20.4546 28.2796 20.5097 26.7025 20.7393 25.1346C20.8495 24.3599 20.9322 23.5852 21.0883 22.8105C21.3363 21.547 22.071 20.6801 23.2281 20.1821C24.771 19.518 26.3873 19.2414 28.068 19.3981C29.2986 19.5088 30.4833 19.352 31.6404 18.9647C32.6874 18.6142 33.5323 17.9963 34.166 17.074C34.9741 15.8935 35.9017 14.8145 36.8476 13.7354C38.2344 12.1676 41.5864 11.4206 43.763 13.1913C44.8926 14.1136 46.0773 14.9621 47.3263 15.6999C48.7038 16.5115 50.1916 16.8988 51.7804 16.9449C53.4059 16.991 55.0223 16.8804 56.6386 16.7974C57.2264 16.7697 57.8049 16.7605 58.3743 16.8896C59.5498 17.1663 60.3396 17.9225 60.7896 19.02C61.4233 20.5879 61.855 22.2203 62.2499 23.8619C62.9019 26.5641 64.8856 28.2058 67.6775 28.2888C68.706 28.3257 69.7254 28.2703 70.7265 28.0213C72.9673 27.468 73.8398 26.5365 74.1979 24.2493C74.3632 23.2071 74.4734 22.1465 74.6571 21.1043C74.8224 20.1544 75.2081 19.2875 75.7132 18.4759C76.549 17.1386 77.7888 16.4561 79.3408 16.3916C81.3704 16.3086 83.3725 16.5852 85.3378 17.0556C86.2378 17.2677 87.0368 17.1294 87.799 16.6959C88.9011 16.0688 89.9848 15.3863 90.9491 14.5563C92.2256 13.4495 93.7134 12.8132 95.3848 12.6564C96.7073 12.5273 97.9104 12.887 98.8471 13.8922C99.7379 14.8422 100.61 15.8105 101.464 16.7974C103.375 18.9924 105.818 19.7302 108.628 19.5642C110.712 19.435 112.457 20.2005 113.881 21.713C114.753 22.6445 115.121 23.7789 115.029 25.0516C114.928 26.4535 115.066 27.8461 115.231 29.2295C115.332 30.0595 115.69 30.6775 116.434 31.1201C117.839 31.9594 119.189 32.8909 120.585 33.7486C122.863 35.1689 123.533 36.8659 123.092 39.7433C122.844 41.3481 122.275 42.8421 121.265 44.1056C120.374 45.2308 120.374 46.3652 120.934 47.5918C121.421 48.6524 121.99 49.6853 122.743 50.5707C124.8 53.0055 123.974 57.7644 121.191 59.3876C120.153 59.987 119.29 60.771 118.546 61.7024C117.591 62.8829 117.224 64.1926 117.573 65.7051C118.023 67.6511 117.83 69.5878 117.27 71.4785C116.792 73.1016 115.736 74.1807 114.074 74.5865C112.54 74.9646 111.052 75.4534 109.592 76.0529C108.462 76.514 107.709 77.2518 107.416 78.5153C107.011 80.24 106.249 81.8355 105.496 83.431C104.532 85.4877 102.934 86.6958 100.721 87.1385C99.2144 87.4521 97.7083 87.6827 96.1654 87.6458Z" fill="white"/>
<path d="M96.1654 87.6458C95.6328 87.6181 95.0909 87.5996 94.5583 87.572C94.0532 87.5443 93.6491 87.7196 93.3001 88.1069C91.9777 89.601 90.7562 91.178 89.4889 92.7182C89.0297 93.2716 88.5797 93.8434 87.9276 94.1938C86.9174 94.7472 85.8613 94.8025 84.7776 94.4613C82.9868 93.8895 81.1867 93.3546 79.3408 93.0041C78.8265 92.9027 78.3122 92.8473 77.798 92.8197C76.4755 92.7643 75.3459 93.1609 74.4459 94.1938C72.9214 95.9369 70.9469 96.8961 68.706 97.3111C67.3009 97.5693 66.006 97.2004 64.8121 96.435C63.407 95.5311 62.0295 94.572 60.8172 93.4284C60.1284 92.7736 59.3845 92.6629 58.5396 92.8105C56.5559 93.1701 54.6274 93.7696 52.6988 94.3691C51.6243 94.7011 50.5406 94.9409 49.411 94.6089C48.8324 94.4336 48.2906 94.1938 47.813 93.8249C46.1875 92.5614 44.6905 91.1504 43.8273 89.2597C43.1293 87.7196 41.9354 87.24 40.4293 87.1385C39.3272 87.0647 38.2344 87.1385 37.1507 87.3783C35.3323 87.7841 33.7986 87.1662 32.5129 85.8935C30.7221 84.1227 29.7945 81.9185 29.4547 79.4468C29.3812 78.9304 29.3537 78.4047 29.2802 77.8882C29.1792 77.1412 28.7935 76.5878 28.1231 76.2189C26.8282 75.518 25.4598 74.9923 24.0455 74.5865C22.4659 74.1346 21.1067 73.2953 19.9679 72.124C18.6454 70.7591 18.1312 69.1359 18.6914 67.2637C19.1597 65.6866 19.3434 64.0819 19.1965 62.4403C19.0954 61.3151 18.5628 60.5127 17.4975 60.0793C16.2393 59.5628 15.0822 58.8895 14.1546 57.8658C13.4107 57.045 12.7127 56.1873 12.3454 55.1175C11.9138 53.8909 11.9964 52.7011 12.777 51.5944C13.5025 50.5615 14.1821 49.5101 14.8342 48.4311C16.0556 46.3744 15.8995 44.5299 14.4117 42.6577C13.2913 41.2558 12.5934 39.6603 12.4832 37.8619C12.3821 36.3217 13.0066 35.0767 14.2005 34.1267C15.4219 33.1491 16.7444 32.3191 18.1954 31.7288C19.1046 31.3599 19.6281 30.7328 19.9404 29.8013C20.4546 28.2796 20.5097 26.7025 20.7393 25.1346C20.8495 24.3599 20.9322 23.5852 21.0883 22.8105C21.3363 21.547 22.071 20.6801 23.2281 20.1821C24.771 19.518 26.3873 19.2414 28.068 19.3981C29.2986 19.5088 30.4833 19.352 31.6404 18.9647C32.6874 18.6142 33.5323 17.9963 34.166 17.074C34.9741 15.8935 35.9017 14.8145 36.8476 13.7354C38.2344 12.1676 41.5864 11.4206 43.763 13.1913C44.8926 14.1136 46.0773 14.9621 47.3263 15.6999C48.7038 16.5115 50.1916 16.8988 51.7804 16.9449C53.4059 16.991 55.0223 16.8804 56.6386 16.7974C57.2264 16.7697 57.8049 16.7605 58.3743 16.8896C59.5498 17.1663 60.3396 17.9225 60.7896 19.02C61.4233 20.5879 61.855 22.2203 62.2499 23.8619C62.9019 26.5641 64.8856 28.2058 67.6775 28.2888C68.706 28.3257 69.7254 28.2703 70.7265 28.0213C72.9673 27.468 73.8398 26.5365 74.1979 24.2493C74.3632 23.2071 74.4734 22.1465 74.6571 21.1043C74.8224 20.1544 75.2081 19.2875 75.7132 18.4759C76.549 17.1386 77.7888 16.4561 79.3408 16.3916C81.3704 16.3086 83.3725 16.5852 85.3378 17.0556C86.2378 17.2677 87.0368 17.1294 87.799 16.6959C88.9011 16.0688 89.9848 15.3863 90.9491 14.5563C92.2256 13.4495 93.7134 12.8132 95.3848 12.6564C96.7073 12.5273 97.9104 12.887 98.8471 13.8922C99.7379 14.8422 100.61 15.8105 101.464 16.7974C103.375 18.9924 105.818 19.7302 108.628 19.5642C110.712 19.435 112.457 20.2005 113.881 21.713C114.753 22.6445 115.121 23.7789 115.029 25.0516C114.928 26.4535 115.066 27.8461 115.231 29.2295C115.332 30.0595 115.69 30.6775 116.434 31.1201C117.839 31.9594 119.189 32.8909 120.585 33.7486C122.863 35.1689 123.533 36.8659 123.092 39.7433C122.844 41.3481 122.275 42.8421 121.265 44.1056C120.374 45.2308 120.374 46.3652 120.934 47.5918C121.421 48.6524 121.99 49.6853 122.743 50.5707C124.8 53.0055 123.974 57.7644 121.191 59.3876C120.153 59.987 119.29 60.771 118.546 61.7024C117.591 62.8829 117.224 64.1926 117.573 65.7051C118.023 67.6511 117.83 69.5878 117.27 71.4785C116.792 73.1016 115.736 74.1807 114.074 74.5865C112.54 74.9646 111.052 75.4534 109.592 76.0529C108.462 76.514 107.709 77.2518 107.416 78.5153C107.011 80.24 106.249 81.8355 105.496 83.431C104.532 85.4877 102.934 86.6958 100.721 87.1385C99.2144 87.4521 97.7083 87.6827 96.1654 87.6458Z" stroke="#C1C1C1" stroke-miterlimit="10"/>
</g>
<path d="M57.3086 41.7015V70.3522C57.3086 71.4891 58.6856 72.3987 59.8331 71.7165L80.4884 57.3912C81.4064 56.709 81.4064 55.5721 80.4884 54.8899L59.8331 40.5645C58.6856 39.655 57.3086 40.3371 57.3086 41.7015Z" fill="#46BA00"/>
<defs>
<filter id="filter0_d_641_1037" x="0.585938" y="0.666016" width="134.804" height="108.227" filterUnits="userSpaceOnUse" color-interpolation-filters="sRGB">
<feFlood flood-opacity="0" result="BackgroundImageFix"/>
<feColorMatrix in="SourceAlpha" type="matrix" values="0 0 0 0 0 0 0 0 0 0 0 0 0 0 0 0 0 0 127 0" result="hardAlpha"/>
<feOffset/>
<feGaussianBlur stdDeviation="5.5"/>
<feComposite in2="hardAlpha" operator="out"/>
<feColorMatrix type="matrix" values="0 0 0 0 0.329412 0 0 0 0 0.764706 0 0 0 0 0.176471 0 0 0 1 0"/>
<feBlend mode="normal" in2="BackgroundImageFix" result="effect1_dropShadow_641_1037"/>
<feBlend mode="normal" in="SourceGraphic" in2="effect1_dropShadow_641_1037" result="shape"/>
</filter>
</defs>
</svg>
