<svg width="74" height="76" viewBox="0 0 74 76" fill="none" xmlns="http://www.w3.org/2000/svg">
<g clip-path="url(#clip0_674_10274)">
<path d="M61.6696 8.73843C61.7009 11.1811 60.8248 13.2167 59.542 15.0956C58.5408 16.5362 57.2892 17.7262 55.7561 18.603C55.1304 18.9475 54.5046 19.292 53.8163 19.4173C53.3156 19.5112 52.9089 19.2607 52.7837 18.8223C52.6586 18.3838 52.8776 17.9141 53.3469 17.7575C56.0064 16.8493 57.7586 14.9704 59.0101 12.559C59.98 10.7114 60.1365 8.73843 59.6671 6.70287C59.3855 5.41891 58.8849 4.22889 58.1966 3.13282C57.915 2.66308 58.0402 2.16202 58.5095 1.88017C58.8849 1.66096 59.3855 1.78622 59.6671 2.19334C60.5745 3.57125 61.1377 5.10575 61.4506 6.70287C61.607 7.42315 61.7009 8.14342 61.6696 8.73843Z" fill="black"/>
<path d="M25.4062 17.2229C27.7841 17.2855 30.0995 16.8784 32.2896 15.9703C34.2608 15.156 36.0442 13.9973 37.6086 12.4942C38.0154 12.087 38.3283 12.0557 38.7037 12.2123C39.2669 12.4315 39.3608 13.2144 38.954 13.6215C38.1405 14.4358 37.2645 15.1247 36.3258 15.751C35.1369 16.5653 33.8853 17.2229 32.54 17.7553C31.1946 18.2563 29.7866 18.6321 28.3786 18.82C26.8768 19.0079 25.3437 19.0706 23.8105 18.9453C23.3412 18.914 22.9971 18.5695 23.0283 18.0998C23.0283 17.63 23.3725 17.2542 23.8418 17.2542C24.3737 17.2229 24.8743 17.2229 25.4062 17.2229Z" fill="black"/>
<path d="M15.3005 25.8049C15.3318 26.0868 15.3318 26.3686 15.2693 26.6818C15.2067 27.1202 14.7999 27.496 14.3932 27.4647C13.9552 27.4334 13.5797 27.0576 13.5484 26.6191C13.5484 26.0555 13.5484 25.5231 13.4545 24.9594C13.3607 24.4583 13.2355 24.0199 12.9539 23.6128C12.6411 23.143 11.9527 22.9552 11.2957 23.143C10.6386 23.3623 10.3257 23.7381 10.3257 24.4896C10.3257 24.9281 10.357 25.3665 10.4822 25.7736C10.6073 26.2747 10.3257 26.7444 9.91898 26.8384C9.29322 26.9636 8.88647 26.6505 8.76132 26.0868C8.63617 25.4604 8.5423 24.8028 8.60488 24.1452C8.76132 22.642 9.73125 21.5772 11.327 21.3893C12.6411 21.2328 13.7361 21.6086 14.4871 22.7359C14.9564 23.4249 15.1441 24.2078 15.2693 24.9907C15.3005 25.2726 15.3005 25.5231 15.3005 25.8049Z" fill="black"/>
<path d="M42.9281 5.85725C43.5851 5.79462 43.9606 6.51489 43.7728 6.98463C43.5538 7.54832 43.2722 8.0807 42.9593 8.61308C42.709 8.98887 42.1459 9.0515 41.7704 8.80097C41.4262 8.58176 41.3011 8.04938 41.5201 7.67359C41.7391 7.26648 41.9581 6.85937 42.1459 6.42094C42.271 6.04515 42.5213 5.79462 42.9281 5.85725Z" fill="black"/>
<path d="M20.3377 13.6544C20.0874 13.6231 19.7433 13.6544 19.4304 13.5917C18.9611 13.4978 18.6795 13.0907 18.7421 12.5896C18.8046 12.1512 19.1488 11.838 19.6181 11.8693C20.1813 11.9007 20.7132 11.9007 21.2764 11.932C21.6518 11.932 22.0273 12.3704 22.0273 12.7775C22.0273 13.2159 21.7144 13.5917 21.2451 13.6231C20.9635 13.6857 20.6819 13.6544 20.3377 13.6544Z" fill="black"/>
<path d="M24.2804 11.7148C24.7497 11.7148 25.1565 12.122 25.1565 12.5917C25.1565 13.0614 24.7497 13.4686 24.2491 13.4372C23.7485 13.4372 23.373 13.0301 23.373 12.5604C23.4043 12.0906 23.8111 11.7148 24.2804 11.7148Z" fill="black"/>
<path d="M40.5187 11.5271C40.0181 11.5271 39.6426 11.1513 39.6113 10.6815C39.6113 10.2118 40.0181 9.80469 40.4874 9.80469C40.9567 9.80469 41.3948 10.2118 41.3948 10.6502C41.3948 11.12 40.988 11.5271 40.5187 11.5271Z" fill="black"/>
<path d="M56.5694 6.98616C56.2252 6.61037 55.7246 6.57905 55.3179 6.92353C54.4731 7.6438 53.6909 8.45802 52.9713 9.30356C52.1265 10.3057 51.3443 11.3391 50.8749 12.5604C50.0927 14.6586 48.6222 16.1618 46.7762 17.3831C45.8375 18.0095 44.4609 18.8237 42.74 19.6379C40.894 20.5148 39.4235 20.9845 37.6713 21.5482C36.0443 22.0806 34.4174 22.519 32.7591 22.9261C31.8204 23.1453 30.8818 23.3645 29.9431 23.4585C28.0033 23.6777 26.0947 23.7717 24.1548 23.803C22.5278 23.803 20.8383 23.7403 19.2113 23.5524C18.9923 23.5211 18.8984 23.4585 18.8358 23.2393C18.6794 22.5503 18.4917 21.8927 18.2101 21.2664C17.6156 20.0137 16.8021 18.9803 15.5819 18.26C14.6119 17.6963 13.5794 17.3831 12.4843 17.2892C10.169 17.1013 8.16657 17.6963 6.69603 19.6066C5.75738 20.8279 5.31935 22.2058 5.10033 23.709C4.85002 25.4001 5.03775 27.0599 5.4445 28.7196C5.60094 29.4086 5.75738 30.0975 5.85125 30.8178C5.94511 31.8199 5.9764 32.8221 6.16413 33.7929C6.35186 34.701 6.63345 35.5779 7.2905 36.2982C8.01013 37.0811 8.98006 37.4255 10.0126 37.5195C10.9512 37.6134 11.8273 37.4882 12.6721 37.0184C13.7359 36.4234 14.4868 35.5152 15.269 34.6384C15.6132 34.2939 15.5193 33.6989 15.1751 33.4171C14.7997 33.1039 14.2991 33.1665 13.9236 33.5423C13.4856 33.9808 13.0475 34.4505 12.6095 34.8889C11.8586 35.6405 10.9512 35.985 9.88742 35.7658C8.94878 35.5466 8.3543 35.0768 8.07271 34.1373C7.79111 33.1665 7.75982 32.1331 7.66596 31.131C7.5721 30.536 7.41565 29.6278 7.19664 28.5317C6.97762 27.3104 6.97762 27.3417 6.94633 27.1225C6.82118 26.3083 6.63345 24.6485 7.10277 22.8635C7.41565 21.6735 7.94755 20.6087 8.98006 19.8571C10.1064 19.0429 11.358 18.8863 12.7034 19.0742C13.7984 19.2308 14.7997 19.6379 15.6132 20.4208C16.6144 21.4229 17.0211 22.6443 17.2714 23.9909C17.4592 25.0243 17.3653 26.0577 17.3653 27.0912C17.3653 27.6549 17.6469 28.0307 18.1788 28.062C18.6794 28.0933 19.0236 27.7488 19.0861 27.2164C19.1487 26.6841 19.18 26.183 19.18 25.6506C19.18 25.4001 19.2113 25.3062 19.4929 25.3375C19.9309 25.4001 20.4003 25.4627 20.8383 25.4627C23.2162 25.5254 25.5628 25.5567 27.9407 25.4001C30.2247 25.2435 32.4775 24.8677 34.699 24.2414C36.2321 23.8343 37.7339 23.3959 39.2357 22.8948C40.7376 22.3937 42.2081 21.8301 43.6161 21.1724C44.7737 20.64 45.9001 20.1077 46.9639 19.4187C47.6836 18.949 48.4032 18.4479 49.1854 17.8842C48.9977 18.6045 48.8099 19.2308 48.6535 19.8884C48.497 20.5461 48.278 21.2037 48.2467 21.8927C48.1529 23.3645 48.278 24.8364 48.5909 26.3083C48.9038 27.8115 49.248 29.3146 49.7173 30.7865C50.0302 31.8513 50.3743 32.8847 50.7185 33.9181C51.1878 35.3274 51.6884 36.7053 52.2516 38.0832C52.5645 38.8661 52.8461 39.649 52.7835 40.4945C52.7522 41.2148 52.3768 41.6532 51.7197 41.9038C51.0001 42.1856 50.2492 42.2482 49.467 42.2169C48.278 42.1543 47.1516 42.3735 46.1191 42.9998C44.8676 43.7827 44.2418 45.098 45.0553 46.5386C45.3995 47.1023 45.6185 47.6973 45.5247 48.3549C45.4308 48.8873 45.2118 49.451 44.4922 49.3257C44.3983 49.2944 44.2731 49.3257 44.148 49.3257C42.521 49.2631 40.8627 49.1691 39.2357 49.1378C38.7351 49.1065 38.4848 49.2944 38.2971 49.7328C38.1094 49.952 38.1094 50.1399 38.2971 50.3591C38.2971 50.4531 38.3597 50.5157 38.4222 50.5784C39.4548 51.7997 40.4873 52.9897 41.5198 54.211C41.5824 54.2737 41.6762 54.3363 41.6762 54.4616C41.7701 55.1818 41.5824 55.8395 41.113 56.4032C40.8627 56.685 40.5186 56.7163 40.2057 56.7477C39.7051 56.779 39.2357 56.7477 38.7664 56.9356C38.1094 57.1861 37.8903 57.7811 37.64 58.3761C37.0456 59.7853 36.4511 61.1632 35.6063 62.4472C34.9805 63.418 34.1358 64.0757 33.0094 64.2949C31.0695 64.6707 29.3174 64.1696 27.753 63.0422C26.7518 62.3219 25.907 61.3825 24.9996 60.5682C24.9058 60.5056 24.718 60.349 24.4677 60.1298C23.7794 59.5348 23.3413 59.0651 23.1849 58.9085C21.8395 57.5619 21.1825 57.0921 19.5868 55.6516C18.6481 54.806 17.7095 53.9605 16.7708 53.115C16.2389 52.6452 15.707 52.7705 15.3941 53.115C15.05 53.4908 15.1751 54.0231 15.6132 54.4303C16.3328 55.0879 17.0524 55.7455 17.772 56.4032C19.1174 57.6245 20.4628 58.8458 21.8395 60.0359C23.0285 61.2259 23.5604 61.6956 23.7794 61.8522C23.9984 62.0088 24.1548 62.2593 24.3739 62.4159C24.5929 62.5725 24.5616 62.7291 24.4364 62.917C23.5916 64.2322 22.9659 65.6415 22.4966 67.1446C21.9021 69.0236 21.6831 70.9339 21.7144 72.9068C21.7456 73.7211 21.7769 74.5353 21.9334 75.3182C22.0272 75.7879 22.4653 76.0385 22.872 75.9758C23.3413 75.9132 23.6542 75.5374 23.6229 75.0363C23.6229 74.7232 23.5604 74.4413 23.5291 74.1282C23.3726 72.7503 23.4039 71.3723 23.6229 70.0257C23.8107 68.7418 24.1548 67.5204 24.6242 66.3304C24.937 65.5788 25.3125 64.8586 25.7192 64.1383C25.7818 64.0443 25.8131 63.7312 26.0947 63.9504C27.2524 64.9212 28.5352 65.6415 30.0057 65.9546C31.3511 66.2365 32.6965 66.2365 34.0106 65.8294C35.4186 65.4222 36.4198 64.4828 37.1707 63.2928C38.0155 61.9775 38.6413 60.5369 39.2357 59.0964C39.3922 58.7206 39.5486 58.5014 40.0179 58.5014C40.7689 58.5014 41.5198 58.4074 42.1455 57.875C42.9277 57.1861 43.3345 56.2779 43.4909 55.2445C43.5848 54.5555 43.4909 53.8666 43.0529 53.3029C42.74 52.8958 42.3646 52.52 42.0204 52.1129C41.7388 51.7684 41.3633 51.4865 41.1443 51.0168C42.3646 51.0794 43.5535 51.1107 44.7425 51.1421C45.1805 51.1734 45.5872 51.0794 45.9627 50.8289C46.9013 50.2652 47.2142 49.3257 47.3081 48.3236C47.402 47.3841 47.0891 46.5699 46.5885 45.787C46.3694 45.4738 46.3382 45.1606 46.651 44.8788C47.2142 44.3777 47.84 44.0646 48.5909 44.0333C49.6547 43.9706 50.7185 44.0333 51.7823 43.7514C53.6909 43.2504 54.8173 41.528 54.4731 39.555C54.2854 38.5842 53.9412 37.7074 53.597 36.7992C52.6584 34.3879 51.8136 31.9452 51.1252 29.4399C50.5933 27.5296 50.124 25.588 49.9676 23.5838C49.905 22.8322 49.905 22.0493 50.0927 21.2977C50.5934 19.1369 51.2817 17.0387 51.97 14.9092C52.4706 13.3747 53.1277 11.9654 54.1289 10.7128C54.8798 9.77331 55.7246 8.95908 56.6007 8.14486C56.851 7.86301 56.8823 7.33064 56.5694 6.98616Z" fill="black"/>
<path d="M29.0977 10.0849C31.2878 9.17674 33.2277 7.83014 34.8547 6.07643C36.3252 4.51062 37.4516 2.72559 38.2338 0.721351C38.4528 0.188975 38.7031 0.0323936 39.1099 0.00107736C39.7044 -0.0302389 40.1424 0.627402 39.9234 1.15978C39.5166 2.22453 39.016 3.22665 38.4215 4.19745C37.6706 5.41879 36.7946 6.57749 35.7933 7.57961C34.7921 8.61304 33.6657 9.52121 32.4455 10.2728C31.1627 11.087 29.786 11.776 28.3468 12.277C27.9087 12.4336 27.4707 12.2457 27.2517 11.8386C27.0639 11.4315 27.2204 10.9304 27.6271 10.7112C28.1277 10.5233 28.6283 10.3041 29.0977 10.0849Z" fill="black"/>
<path class="hover-green" d="M12.3905 60.4826C12.3913 60.4812 12.3917 60.4805 12.3916 60.4805L12.3905 60.4826ZM12.3905 60.4826C12.3905 60.4826 12.3905 60.4826 12.3905 60.4826L12.3905 60.4826ZM6.79596 65.0712L7.06611 63.8544H5.81974H5.81479H5.80984H5.80489H5.79994H5.79499H5.79005H5.7851H5.78016H5.77522H5.77027H5.76533H5.76039H5.75545H5.75051H5.74557H5.74063H5.73569H5.73075H5.72582H5.72088H5.71594H5.71101H5.70607H5.70114H5.69621H5.69128H5.68635H5.68141H5.67648H5.67156H5.66663H5.6617H5.65677H5.65184H5.64692H5.64199H5.63707H5.63214H5.62722H5.6223H5.61738H5.61245H5.60753H5.60261H5.59769H5.59278H5.58786H5.58294H5.57802H5.57311H5.56819H5.56328H5.55836H5.55345H5.54854H5.54362H5.53871H5.5338H5.52889H5.52398H5.51907H5.51416H5.50926H5.50435H5.49944H5.49454H5.48963H5.48473H5.47982H5.47492H5.47002H5.46511H5.46021H5.45531H5.45041H5.44551H5.44061H5.43571H5.43081H5.42592H5.42102H5.41612H5.41123H5.40633H5.40144H5.39654H5.39165H5.38676H5.38187H5.37698H5.37209H5.3672H5.36231H5.35742H5.35253H5.34764H5.34275H5.33787H5.33298H5.32809H5.32321H5.31833H5.31344H5.30856H5.30368H5.29879H5.29391H5.28903H5.28415H5.27927H5.27439H5.26951H5.26463H5.25976H5.25488H5.25H5.24513H5.24025H5.23538H5.2305H5.22563H5.22076H5.21588H5.21101H5.20614H5.20127H5.1964H5.19153H5.18666H5.18179H5.17692H5.17205H5.16719H5.16232H5.15745H5.15259H5.14772H5.14286H5.13799H5.13313H5.12827H5.1234H5.11854H5.11368H5.10882H5.10396H5.0991H5.09424H5.08938H5.08452H5.07966H5.07481H5.06995H5.06509H5.06024H5.05538H5.05053H5.04567H5.04082H5.03596H5.03111H5.02626H5.02141H5.01656H5.0117H5.00685H5.002H4.99716H4.99231H4.98746H4.98261H4.97776H4.97291H4.96807H4.96322H4.95838H4.95353H4.94869H4.94384H4.939H4.93415H4.92931H4.92447H4.91963H4.91478H4.90994H4.9051H4.90026H4.89542H4.89058H4.88575H4.88091H4.87607H4.87123H4.86639H4.86156H4.85672H4.85189H4.84705H4.84222H4.83738H4.83255H4.82771H4.82288H4.81805H4.81322H4.80838H4.80355H4.79872H4.79389H4.78906H4.78423H4.7794H4.77457H4.76974H4.76492H4.76009H4.75526H4.75043H4.74561H4.74078H4.73596H4.73113H4.72631H4.72148H4.71666H4.71183H4.70701H4.70219H4.69737H4.69254H4.68772H4.6829H4.67808H4.67326H4.66844H4.66362H4.6588H4.65398H4.64916H4.64435H4.63953H4.63471H4.62989H4.62508H4.62026H4.61545H4.61063H4.60581H4.601H4.59619H4.59137H4.58656H4.58174H4.57693H4.57212H4.56731H4.5625H4.55768H4.55287H4.54806H4.54325H4.53844H4.53363H4.52882H4.52401H4.5192H4.5144H4.50959H4.50478H4.49997H4.49517H4.49036H4.48555H4.48075H4.47594H4.47114H4.46633H4.46153H4.45672H4.45192H4.44711H4.44231H4.43751H4.4327H4.4279H4.4231H4.4183H4.4135H4.4087H4.40389H4.39909H4.39429H4.38949H4.38469H4.3799H4.3751H4.3703H4.3655H4.3607H4.3559H4.35111H4.34631H4.34151H4.33671H4.33192H4.32712H4.32233H4.31753H4.31274H4.30794H4.30315H4.29835H4.29356H4.28876H4.28397H4.27918H4.27438H4.26959H4.2648H4.26001H4.25521H4.25042H4.24563H4.24084H4.23605H4.23126H4.22647H4.22168H4.21689H4.2121H4.20731H4.20252H4.19773H4.19294H4.18815H4.18337H4.17858H4.17379H4.169H4.16422H4.15943H4.15464H4.14986H4.14507H4.14028H4.1355H4.13071H4.12593H4.12114H4.11636H4.11157H4.10679H4.10201H4.09722H4.09244H4.08765H4.08287H4.07809H4.0733H4.06852H4.06374H4.05896H4.05418H4.04939H4.04461H4.03983H4.03505H4.03027H4.02549H4.02071H4.01593H4.01115H4.00637H4.00159H3.99681H3.99203H3.98725H3.98247H3.97769H3.97291H3.96813H3.96336H3.95858H3.9538H3.94902H3.94424H3.93947H3.93469H3.92991H3.92514H3.92036H3.91558H3.91081H3.90603H3.90125H3.89648H3.8917H3.88693H3.88215H3.87738H3.8726H3.86783H3.86305H3.85828H3.8535H3.84873H3.84395H3.83918H3.83441H3.82963H3.82486H3.82008H3.81531H3.81054H3.80576H3.80099H3.79622H3.79145H3.78667H3.7819H3.77713H3.77236H3.76759H3.76281H3.75804H3.75327H3.7485H3.74373H3.73896H3.73418H3.72941H3.72464H3.71987H3.7151H3.71033H3.70556H3.70079H3.69602H3.69125H3.68648H3.68171H3.67694H3.67217H3.6674H3.66263H3.65786H3.65309H3.64832H3.64355H3.63878H3.63401H3.62924H3.62447H3.61971H3.61494H3.61017H3.6054H3.60063H3.59586H3.59109H3.58633H3.58156H3.57679H3.57202H3.56725H3.56249H3.55772H3.55295H3.54818H3.54341H3.53865H3.53388H3.52911H3.52434H3.51958H3.51481H3.51004H3.50527H3.50051H3.49574H3.49097H3.4862H3.48144H3.47667H3.4719H3.46714H3.46237H3.4576H3.45284H3.44807H3.4433H3.43853H3.43377H3.429H3.42423H3.41947H3.4147H3.40993H3.40517H3.4004H3.39563H3.39087H3.3861H3.38133H3.37657H3.3718H3.36704H3.36227H3.3575H3.35274H3.34797C2.9045 63.8544 2.46734 63.8468 2.02014 63.8389L2.01628 63.8388C1.79785 63.835 1.577 63.8311 1.3538 63.8282C2.35579 62.4422 3.35792 61.0613 4.36068 59.6796L4.36117 59.6789C5.50262 58.106 6.64488 56.5321 7.78725 54.9501C7.78754 54.9497 7.78783 54.9493 7.78811 54.9489L8.05817 54.5773C7.90245 55.0672 7.74597 55.5571 7.58923 56.0478L7.58863 56.0496C7.22139 57.1993 6.85272 58.3534 6.49171 59.5159L6.48829 59.5269L6.48513 59.538C6.46673 59.6025 6.43181 59.729 6.42146 59.8719C6.41123 60.0133 6.41218 60.3335 6.64537 60.6336C6.87614 60.9305 7.18213 61.0109 7.31327 61.0364C7.44794 61.0625 7.57436 61.063 7.63445 61.063H7.64417H7.65388H7.6636H7.67332H7.68304H7.69276H7.70248H7.7122H7.72193H7.73165H7.74137H7.7511H7.76082H7.77055H7.78028H7.79H7.79973H7.80946H7.81919H7.82892H7.83865H7.84838H7.85811H7.86784H7.87758H7.88731H7.89705H7.90678H7.91652H7.92625H7.93599H7.94573H7.95547H7.96521H7.97494H7.98468H7.99442H8.00417H8.01391H8.02365H8.03339H8.04314H8.05288H8.06263H8.07237H8.08212H8.09187H8.10161H8.11136H8.12111H8.13086H8.14061H8.15036H8.16011H8.16986H8.17961H8.18936H8.19912H8.20887H8.21863H8.22838H8.23814H8.24789H8.25765H8.2674H8.27716H8.28692H8.29668H8.30644H8.3162H8.32596H8.33572H8.34548H8.35524H8.365H8.37476H8.38453H8.39429H8.40405H8.41382H8.42358H8.43335H8.44312H8.45288H8.46265H8.47242H8.48218H8.49195H8.50172H8.51149H8.52126H8.53103H8.5408H8.55057H8.56034H8.57012H8.57989H8.58966H8.59944H8.60921H8.61898H8.62876H8.63853H8.64831H8.65808H8.66786H8.67764H8.68742H8.69719H8.70697H8.71675H8.72653H8.73631H8.74609H8.75587H8.76565H8.77543H8.78521H8.79499H8.80477H8.81456H8.82434H8.83412H8.84391H8.85369H8.86347H8.87326H8.88304H8.89283H8.90262H8.9124H8.92219H8.93197H8.94176H8.95155H8.96134H8.97112H8.98091H8.9907H9.00049H9.01028H9.02007H9.02986H9.03965H9.04944H9.05923H9.06902H9.07882H9.08861H9.0984H9.10819H9.11799H9.12778H9.13757H9.14737H9.15716H9.16695H9.17675H9.18654H9.19634H9.20613H9.21593H9.22573H9.23552H9.24532H9.25511H9.26491H9.27471H9.28451H9.2943H9.3041H9.3139H9.3237H9.3335H9.3433H9.3531H9.36289H9.37269H9.38249H9.39229H9.40209H9.41189H9.42169H9.43149H9.4413H9.4511H9.4609H9.4707H9.4805H9.4903H9.50011H9.50991H9.51971H9.52951H9.53932H9.54912H9.55892H9.56873H9.57853H9.58833H9.59814H9.60794H9.61774H9.62755H9.63735H9.64716H9.65696H9.66677H9.67657H9.68638H9.69618H9.70599H9.71579H9.7256H9.7354H9.74521H9.75502H9.76482H9.77463H9.78443H9.79424H9.80405H9.81385H9.82366H9.83347H9.84327H9.85308H9.86289H9.87269H9.8825H9.89231H9.90212H9.91192H9.92173H9.93154H9.94135H9.95115H9.96096H9.97077H9.98058H9.99039H10.0002H10.01H10.0198H10.0296H10.0394H10.0492H10.059H10.0688H10.0787H10.0885H10.0983H10.1081H10.1179H10.1277H10.1375H10.1473H10.1571H10.1669H10.1767H10.1865H10.1964H10.2062H10.216H10.2258H10.2356H10.2454H10.2552H10.265H10.2748H10.2846H10.2944H10.3042H10.314H10.3239H10.3337H10.3435H10.3533H10.3631H10.3729H10.3827H10.3925H10.4023H10.4121H10.4219H10.4317H10.4415H10.4513H10.4612H10.471H10.4808H10.4906H10.5004H10.5102H10.52H10.5298H10.5396H10.5494H10.5592H10.569H10.5788H10.5886H10.5984H10.6082H10.618H10.6279H10.6377H10.6475H10.6573H10.6671H10.6769H10.6867H10.6965H10.7063H10.7161H10.7259H10.7357H10.7455H10.7553H10.7651H10.7749H10.7847H10.7945H10.8043H10.8141H10.8239H10.8337H10.8435H10.8533H10.8631H10.8729H10.8827H10.8925H10.9023H10.9121H10.9219H10.9317H10.9415H10.9513H10.9611H10.9709H10.9807H10.9905H11.0003H11.0101H11.0199H11.0297H11.0395H11.0493H11.0591H11.0689H11.0787H11.0885H11.0983H11.1081H11.1179H11.1276H11.1374H11.1472H11.157H11.1668H11.1766H11.1864H11.1962H11.206H11.2158H11.2256H11.2354H11.2451H11.2549H11.2647H11.2745H11.2843H11.2941H11.3039H11.3137H11.3235H11.3332H11.343H11.3528H11.3626H11.3724H11.3822H11.392H11.4018H11.4115H11.4213H11.4311H11.4409H11.4507H11.4605H11.4702H11.48H11.4898H11.4996H11.5094H11.5191H11.5289H11.5387H11.5485H11.5583H11.568H11.5778H11.5876H11.5974H11.6071H11.6169H11.6267H11.6365H11.6463H11.656H11.6658H11.6756H11.6853H11.6951H11.7049H11.7147H11.7244H11.7342H11.744H11.7537H11.7635H11.7733H11.7831H11.7928H11.8026H11.8124H11.8221H11.8319H11.8417H11.8514H11.8612H11.871H11.8807H11.8905H11.9002H11.91H11.9198H11.9295H11.9393H11.9491H11.9584C11.8107 61.2645 11.665 61.4655 11.5212 61.6639L11.518 61.6683C11.2275 62.0691 10.9446 62.4593 10.6552 62.8404L10.6503 62.8469L10.6455 62.8535C9.97418 63.768 9.30369 64.6842 8.63288 65.6008C7.46867 67.1917 6.30348 68.7838 5.13137 70.371C5.60221 68.8864 6.06926 67.3992 6.52172 65.9116C6.53247 65.8803 6.54847 65.8375 6.56765 65.7861C6.63425 65.6078 6.73921 65.3268 6.79596 65.0712ZM0.611034 63.8212C0.611048 63.8212 0.611629 63.8212 0.61274 63.8214L0.611034 63.8212ZM7.61256 59.0626C7.61266 59.0626 7.61448 59.0627 7.61781 59.0629L7.61256 59.0626ZM8.4033 60.1059C8.40324 60.106 8.40365 60.1041 8.40469 60.1001C8.40387 60.1039 8.40335 60.1058 8.4033 60.1059ZM3.83699 72.1169C3.83698 72.1169 3.83749 72.1163 3.83856 72.1152C3.83753 72.1164 3.837 72.117 3.83699 72.1169ZM0.92805 64.4189C0.92802 64.4189 0.9284 64.4182 0.929276 64.4167C0.928517 64.4182 0.92808 64.4189 0.92805 64.4189ZM9.31304 52.8533C9.31305 52.8534 9.31231 52.8542 9.31082 52.8557C9.31229 52.854 9.31304 52.8533 9.31304 52.8533ZM8.69127 52.5568C8.69133 52.5568 8.69118 52.5582 8.69065 52.561C8.69095 52.5583 8.69121 52.5569 8.69127 52.5568Z" fill="#000000" stroke="#000000" stroke-width="2"/>
</g>
<path class="hover-green" d="M72.8972 60.9911L72.9033 60.9829L72.9091 60.9744C73.4184 60.2228 73.1965 59.2908 72.4377 58.7725C70.9881 57.7659 62.4826 51.937 60.9836 50.938C60.7673 50.769 60.35 50.4742 59.7942 50.6361C59.455 50.6543 59.1608 50.7811 58.9373 51.0094C58.7189 51.2325 58.603 51.5167 58.5457 51.7931C58.4875 51.9636 58.4911 52.1344 58.512 52.2713C58.5363 52.4302 58.59 52.5856 58.6558 52.7253C58.7842 52.9979 58.9918 53.2796 59.2428 53.4649L59.2497 53.47L59.2569 53.4749C59.6245 53.727 60.486 54.3204 61.5832 55.0762C64.6582 57.1942 69.5842 60.5872 70.6747 61.3136C71.4078 61.846 72.3952 61.6703 72.8972 60.9911Z" fill="#000000" stroke="#000000"/>
<path class="hover-green" d="M59.1367 72.6769L59.1368 72.6768L49.9993 61.6201L50.3916 61.3101C50.3913 61.3096 50.3909 61.3092 50.3905 61.3087C50.3853 61.3021 50.3797 61.295 50.3738 61.2874C50.2295 61.1031 49.8855 60.6639 49.3169 60.6751C48.9657 60.5827 48.6465 60.6331 48.3719 60.7895C48.1011 60.9438 47.9079 61.1831 47.7721 61.3665L47.772 61.3664L47.7654 61.3759C47.5544 61.6749 47.53 62.0633 47.5628 62.3622C47.5972 62.6753 47.7074 63.0185 47.9025 63.2819L47.9025 63.282L47.9085 63.2898C48.2115 63.6826 48.9434 64.6381 49.8646 65.8409C52.2215 68.9182 55.8179 73.6137 56.6444 74.6447C57.1979 75.383 58.1997 75.522 58.901 75.0054L58.9125 74.997L58.9235 74.9879C59.638 74.3959 59.66 73.3834 59.1367 72.6769Z" fill="#000000" stroke="#000000"/>
<path class="hover-green" d="M67.8342 71.491L67.8342 71.4911L67.8426 71.4979C68.5829 72.0981 69.6329 72.0746 70.2536 71.4036C70.8869 70.7191 70.7796 69.6629 70.0191 69.0426C68.5643 67.81 59.9833 60.5899 58.4425 59.3239C58.1804 59.073 57.7603 58.7709 57.1836 58.8765C56.8075 58.8636 56.4971 58.9826 56.2481 59.1831C56.0025 59.3808 55.8363 59.6426 55.7139 59.8567C55.5118 60.2038 55.5755 60.6183 55.6738 60.9054C55.7804 61.2165 55.9786 61.5352 56.2433 61.7606L56.2442 61.7613C56.9695 62.3759 59.5042 64.5009 62.0373 66.6246L62.0412 66.6279C64.5774 68.7541 67.1112 70.8783 67.8342 71.491Z" fill="#000000" stroke="#000000"/>
<defs>
<clipPath id="clip0_674_10274">
<rect width="62.9518" height="75.9419" fill="white"/>
</clipPath>
</defs>
</svg>
