<svg width="27" height="24" viewBox="0 0 27 24" fill="none" xmlns="http://www.w3.org/2000/svg">
<path d="M3.5314 0.824925L3.4579 0.75H3.35294H2H1.40569L1.8213 1.17483L12.4736 12.0634L1.92553 22.825L1.50897 23.25H2.10407H3.45701H3.56213L3.63567 23.1749L13.2624 13.3406L13.2701 13.3326L13.2772 13.324L13.5 13.0518L13.7228 13.324L13.7299 13.3326L13.7376 13.3406L23.3643 23.1749L23.4379 23.25H23.543H24.8959H25.491L25.0745 22.825L14.5264 12.0634L25.1787 1.17483L25.5943 0.75H25H23.6471H23.5421L23.4686 0.824925L13.7378 10.744L13.7299 10.752L13.7228 10.7607L13.5 11.033L13.2772 10.7607L13.2701 10.752L13.2622 10.744L3.5314 0.824925Z" fill="black" stroke="black" stroke-width="0.5"/>
</svg>
