<svg preserveAspectRatio="none" width="1866" height="86" viewBox="0 0 1866 86" fill="none" xmlns="http://www.w3.org/2000/svg">
<path d="M16.834 0.516997C5.5455 0.516997 0.9035 8.53499 0.9035 19.1905L0.9035 56.9595C0.9035 67.615 5.5455 75.633 16.834 75.633C28.1225 75.633 32.7645 67.615 32.7645 56.9595V48.5195H28.1225V57.276C28.1225 65.1885 25.063 71.0965 16.9395 71.0965C8.816 71.0965 5.7565 65.1885 5.7565 57.276L5.7565 18.874C5.7565 10.9615 8.816 4.948 16.9395 4.948C25.063 4.948 28.1225 10.9615 28.1225 18.874V25.3095H32.7645V19.1905C32.7645 8.53499 28.1225 0.516997 16.834 0.516997ZM66.527 58.6475L70.2195 75H75.0725L58.6145 1.0445H51.546L35.4045 75H39.8355L43.528 58.6475H66.527ZM54.922 6.636L65.7885 54.4275H44.2665L54.922 6.636ZM118.385 9.379V75H123.027V1.14999H116.064L100.661 66.4545L85.1527 1.14999H78.1897V75H82.5152V9.59L98.1292 74.8945H102.982L118.385 9.379ZM126.918 56.9595C126.918 67.7205 131.877 75.633 143.06 75.633C154.454 75.633 159.412 67.7205 159.412 56.9595V19.1905C159.412 8.4295 154.454 0.516997 143.06 0.516997C131.877 0.516997 126.918 8.4295 126.918 19.1905V56.9595ZM131.771 18.874C131.771 10.856 134.936 4.948 143.06 4.948C151.289 4.948 154.559 10.856 154.559 18.874V57.276C154.559 65.294 151.289 71.202 143.06 71.202C134.936 71.202 131.771 65.294 131.771 57.276V18.874ZM195.9 5.58099V75H200.859V1.14999H173.323L171.108 57.065C170.897 64.45 170.369 70.6745 162.035 70.6745V75.1055H162.984C173.851 74.8945 175.539 66.982 175.961 56.9595L177.86 5.58099H195.9ZM205.235 1.14999V75H210.088V1.14999H205.235ZM244.584 75H249.648L227.176 35.543L248.276 1.14999H243.212L219.158 40.185V1.14999H214.305V75H219.158V48.3085L224.222 40.2905L244.584 75ZM290.508 1.14999H285.444L277.426 27.103L271.518 46.937L265.082 27.2085L256.431 1.14999H251.473L269.197 53.056L266.137 62.0235C264.344 67.826 261.917 70.78 255.165 70.6745V75C265.926 75.422 268.986 70.147 271.412 61.285L290.508 1.14999ZM293.439 1.14999V75H309.264C320.552 75 325.405 68.5645 325.405 57.909V51.4735C325.405 43.139 322.346 37.231 314.328 35.6485C321.818 34.066 324.034 29.1075 324.034 21.0895V16.8695C324.034 6.636 320.025 1.14999 308.947 1.14999L293.439 1.14999ZM298.292 33.7495V5.58099H308.842C316.754 5.58099 319.181 9.59 319.181 17.2915V22.039C319.181 31.4285 315.172 33.7495 306.521 33.7495H298.292ZM298.292 70.569V38.1805H307.47C316.227 38.1805 320.552 41.5565 320.552 51.157V57.8035C320.552 66.0325 317.387 70.569 309.264 70.569H298.292ZM359.158 58.6475L362.85 75H367.703L351.245 1.0445H344.177L328.035 75H332.466L336.159 58.6475H359.158ZM347.553 6.636L358.419 54.4275H336.897L347.553 6.636ZM398.672 40.2905V75H403.631V1.14999H398.672V35.8595L375.673 35.8595V1.14999H370.82V75H375.673V40.2905L398.672 40.2905ZM435.663 40.2905V75H440.622V1.14999H435.663V35.8595H412.664V1.14999H407.811V75H412.664V40.2905H435.663ZM472.232 41.9785V75H477.085V1.14999H461.682C450.394 1.14999 445.857 7.3745 445.857 17.819V24.2545C445.857 32.9055 449.233 37.864 456.513 39.552C448.917 41.24 445.857 46.6205 445.857 54.6385V66.138C445.857 69.1975 445.646 72.5735 444.064 75H449.128C450.394 72.7845 450.71 70.147 450.71 66.138V54.533C450.71 44.7215 456.091 41.9785 464.531 41.9785H472.232ZM472.232 5.58099V37.5475H464.425C455.774 37.5475 450.71 35.121 450.71 25.204V18.241C450.71 10.3285 453.77 5.58099 461.788 5.58099H472.232ZM533.635 9.379V75H538.277V1.14999H531.314L515.911 66.4545L500.402 1.14999H493.439V75H497.765V9.59L513.379 74.8945H518.232L533.635 9.379ZM542.168 56.9595C542.168 67.7205 547.126 75.633 558.309 75.633C569.703 75.633 574.662 67.7205 574.662 56.9595V19.1905C574.662 8.4295 569.703 0.516997 558.309 0.516997C547.126 0.516997 542.168 8.4295 542.168 19.1905V56.9595ZM547.021 18.874C547.021 10.856 550.186 4.948 558.309 4.948C566.538 4.948 569.809 10.856 569.809 18.874V57.276C569.809 65.294 566.538 71.202 558.309 71.202C550.186 71.202 547.021 65.294 547.021 57.276V18.874ZM631.934 75H636.892L617.797 33.433L636.154 1.14999H631.09L609.462 39.13V1.14999H604.609V39.13L582.982 1.14999H578.023L596.486 33.5385L577.179 75H582.243L599.756 38.075L604.609 46.4095V75H609.462V46.515L614.421 38.075L631.934 75ZM644.81 35.332V5.58099L669.075 5.58099V1.14999L639.957 1.14999V75H669.075V70.569H644.81V39.763H664.96V35.332H644.81ZM689.738 32.589V5.58099H714.741V1.14999L684.885 1.14999V75H701.132C712.631 75 717.484 68.5645 717.484 57.3815V49.047C717.484 37.231 711.682 32.589 700.288 32.589H689.738ZM689.738 70.569V37.1255H700.288C708.517 37.1255 712.631 39.6575 712.631 48.7305V57.698C712.631 66.0325 709.361 70.569 701.132 70.569H689.738ZM759.233 1.14999H754.169L746.151 27.103L740.243 46.937L733.807 27.2085L725.156 1.14999H720.198L737.922 53.056L734.862 62.0235C733.069 67.826 730.642 70.78 723.89 70.6745V75C734.651 75.422 737.711 70.147 740.137 61.285L759.233 1.14999ZM780.837 75V5.58099H795.923V1.14999L760.897 1.14999V5.58099H775.984V75H780.837ZM827.33 9.6955V75H831.761V1.14999H825.959L814.037 34.1715L803.276 64.3445V1.14999H798.845V75H804.12L816.253 40.2905L827.33 9.6955ZM847.998 1.14999V75H899.06V1.14999H894.207V70.569H875.955V1.14999H871.102V70.569H852.851V1.14999H847.998ZM933.606 75H938.67L916.198 35.543L937.298 1.14999H932.234L908.18 40.185V1.14999H903.327V75H908.18V48.3085L913.244 40.2905L933.606 75ZM941.761 1.14999V75H946.614V1.14999H941.761ZM994.719 85.2335V70.569H988.6V1.14999L961.592 1.14999L958.638 58.753C958.427 63.5005 957.9 67.5095 954.946 70.569H949.882V85.2335H954.629V75H989.866V85.2335H994.719ZM966.129 5.58099H983.642V70.569H959.904C962.647 67.615 963.069 63.817 963.386 58.753L966.129 5.58099ZM1030.93 5.58099V75H1035.89V1.14999H1008.36L1006.14 57.065C1005.93 64.45 1005.4 70.6745 997.067 70.6745V75.1055H998.017C1008.88 74.8945 1010.57 66.982 1010.99 56.9595L1012.89 5.58099H1030.93ZM1068.75 9.6955V75H1073.18V1.14999L1067.38 1.14999L1055.46 34.1715L1044.7 64.3445V1.14999H1040.27V75H1045.54L1057.67 40.2905L1068.75 9.6955ZM1077.26 1.14999V75H1093.08C1104.37 75 1109.22 68.5645 1109.22 57.909V51.4735C1109.22 43.139 1106.17 37.231 1098.15 35.6485C1105.64 34.066 1107.85 29.1075 1107.85 21.0895V16.8695C1107.85 6.636 1103.84 1.14999 1092.77 1.14999H1077.26ZM1082.11 33.7495V5.58099H1092.66C1100.57 5.58099 1103 9.59 1103 17.2915V22.039C1103 31.4285 1098.99 33.7495 1090.34 33.7495H1082.11ZM1082.11 70.569V38.1805H1091.29C1100.05 38.1805 1104.37 41.5565 1104.37 51.157V57.8035C1104.37 66.0325 1101.21 70.569 1093.08 70.569H1082.11ZM1141.39 9.6955V75H1145.83V1.14999H1140.02L1128.1 34.1715L1117.34 64.3445V1.14999H1112.91V75H1118.18L1130.32 40.2905L1141.39 9.6955ZM1190.1 9.379V75H1194.74V1.14999H1187.78L1172.37 66.4545L1156.86 1.14999H1149.9V75H1154.23V9.59L1169.84 74.8945H1174.69L1190.1 9.379ZM1255 85.2335V70.569H1248.88V1.14999L1221.87 1.14999L1218.91 58.753C1218.7 63.5005 1218.18 67.5095 1215.22 70.569H1210.16V85.2335H1214.91V75H1250.14V85.2335H1255ZM1226.4 5.58099H1243.92V70.569H1220.18C1222.92 67.615 1223.35 63.817 1223.66 58.753L1226.4 5.58099ZM1291.21 5.58099V75H1296.17V1.14999L1268.63 1.14999L1266.42 57.065C1266.21 64.45 1265.68 70.6745 1257.34 70.6745V75.1055H1258.29C1269.16 74.8945 1270.85 66.982 1271.27 56.9595L1273.17 5.58099H1291.21ZM1327.97 41.9785V75H1332.83V1.14999L1317.42 1.14999C1306.13 1.14999 1301.6 7.3745 1301.6 17.819V24.2545C1301.6 32.9055 1304.97 37.864 1312.25 39.552C1304.66 41.24 1301.6 46.6205 1301.6 54.6385V66.138C1301.6 69.1975 1301.39 72.5735 1299.8 75H1304.87C1306.13 72.7845 1306.45 70.147 1306.45 66.138V54.533C1306.45 44.7215 1311.83 41.9785 1320.27 41.9785H1327.97ZM1327.97 5.58099V37.5475H1320.17C1311.52 37.5475 1306.45 35.121 1306.45 25.204V18.241C1306.45 10.3285 1309.51 5.58099 1317.53 5.58099H1327.97ZM1349.18 1.14999V75H1365.01C1376.29 75 1381.15 68.5645 1381.15 57.909V51.4735C1381.15 43.139 1378.09 37.231 1370.07 35.6485C1377.56 34.066 1379.78 29.1075 1379.78 21.0895V16.8695C1379.78 6.636 1375.77 1.14999 1364.69 1.14999L1349.18 1.14999ZM1354.03 33.7495V5.58099H1364.58C1372.5 5.58099 1374.92 9.59 1374.92 17.2915V22.039C1374.92 31.4285 1370.91 33.7495 1362.26 33.7495H1354.03ZM1354.03 70.569V38.1805H1363.21C1371.97 38.1805 1376.29 41.5565 1376.29 51.157V57.8035C1376.29 66.0325 1373.13 70.569 1365.01 70.569H1354.03ZM1414.9 58.6475L1418.59 75H1423.44L1406.99 1.0445H1399.92L1383.78 75H1388.21L1391.9 58.6475L1414.9 58.6475ZM1403.29 6.636L1414.16 54.4275L1392.64 54.4275L1403.29 6.636ZM1426.56 1.14999V75H1477.62V1.14999H1472.77V70.569H1454.52V1.14999L1449.67 1.14999V70.569H1431.42V1.14999H1426.56ZM1481.58 56.9595C1481.58 67.7205 1486.53 75.633 1497.72 75.633C1509.11 75.633 1514.07 67.7205 1514.07 56.9595V19.1905C1514.07 8.4295 1509.11 0.516997 1497.72 0.516997C1486.53 0.516997 1481.58 8.4295 1481.58 19.1905V56.9595ZM1486.43 18.874C1486.43 10.856 1489.59 4.948 1497.72 4.948C1505.95 4.948 1509.22 10.856 1509.22 18.874V57.276C1509.22 65.294 1505.95 71.202 1497.72 71.202C1489.59 71.202 1486.43 65.294 1486.43 57.276V18.874ZM1546.23 5.58099V1.14999H1517.85V75H1522.71V5.58099H1546.23ZM1549.79 56.9595C1549.79 67.7205 1554.75 75.633 1565.93 75.633C1577.32 75.633 1582.28 67.7205 1582.28 56.9595V19.1905C1582.28 8.4295 1577.32 0.516997 1565.93 0.516997C1554.75 0.516997 1549.79 8.4295 1549.79 19.1905V56.9595ZM1554.64 18.874C1554.64 10.856 1557.81 4.948 1565.93 4.948C1574.16 4.948 1577.43 10.856 1577.43 18.874V57.276C1577.43 65.294 1574.16 71.202 1565.93 71.202C1557.81 71.202 1554.64 65.294 1554.64 57.276V18.874ZM1613.95 0.516997C1602.66 0.516997 1598.12 8.4295 1598.12 19.085V22.883H1602.55V18.874C1602.55 10.856 1605.72 4.948 1613.84 4.948C1621.96 4.948 1625.02 10.856 1625.02 19.296V22.039C1625.02 28.8965 1620.49 34.277 1613.95 34.277H1609.51V38.708H1613.63C1620.8 38.708 1625.02 43.6665 1625.02 51.157V56.854C1625.02 65.294 1621.96 71.202 1613.84 71.202C1605.72 71.202 1602.66 65.1885 1602.66 57.276V50.8405H1598.02V56.9595C1598.02 67.7205 1602.66 75.633 1613.95 75.633C1625.23 75.633 1629.88 67.7205 1629.88 56.9595V51.2625C1629.88 44.0885 1626.61 38.1805 1619.85 36.2815C1626.29 34.1715 1629.88 28.369 1629.88 21.0895V19.1905C1629.88 8.4295 1625.23 0.516997 1613.95 0.516997ZM1677.77 85.2335V70.569H1671.65V1.14999L1644.64 1.14999L1641.68 58.753C1641.47 63.5005 1640.95 67.5095 1637.99 70.569H1632.93V85.2335H1637.68V75H1672.91V85.2335H1677.77ZM1649.18 5.58099H1666.69V70.569H1642.95C1645.69 67.615 1646.12 63.817 1646.43 58.753L1649.18 5.58099ZM1680.96 56.9595C1680.96 67.7205 1685.92 75.633 1697.1 75.633C1708.49 75.633 1713.45 67.7205 1713.45 56.9595V19.1905C1713.45 8.4295 1708.49 0.516997 1697.1 0.516997C1685.92 0.516997 1680.96 8.4295 1680.96 19.1905V56.9595ZM1685.81 18.874C1685.81 10.856 1688.98 4.948 1697.1 4.948C1705.33 4.948 1708.6 10.856 1708.6 18.874V57.276C1708.6 65.294 1705.33 71.202 1697.1 71.202C1688.98 71.202 1685.81 65.294 1685.81 57.276V18.874ZM1717.24 1.14999V75H1722.09V44.616H1731.27C1742.98 44.616 1748.36 38.8135 1748.36 27.103V19.085C1748.36 8.324 1743.93 1.14999 1732.53 1.14999H1717.24ZM1722.09 40.185V5.58099H1732.53C1740.76 5.58099 1743.5 10.7505 1743.5 18.7685V27.4195C1743.5 36.387 1739.81 40.185 1731.27 40.185H1722.09ZM1751.13 56.9595C1751.13 67.7205 1756.09 75.633 1767.27 75.633C1778.66 75.633 1783.62 67.7205 1783.62 56.9595V19.1905C1783.62 8.4295 1778.66 0.516997 1767.27 0.516997C1756.09 0.516997 1751.13 8.4295 1751.13 19.1905V56.9595ZM1755.98 18.874C1755.98 10.856 1759.15 4.948 1767.27 4.948C1775.5 4.948 1778.77 10.856 1778.77 18.874V57.276C1778.77 65.294 1775.5 71.202 1767.27 71.202C1759.15 71.202 1755.98 65.294 1755.98 57.276V18.874ZM1787.41 1.14999V75L1803.23 75C1814.52 75 1819.37 68.5645 1819.37 57.909V51.4735C1819.37 43.139 1816.31 37.231 1808.29 35.6485C1815.78 34.066 1818 29.1075 1818 21.0895V16.8695C1818 6.636 1813.99 1.14999 1802.91 1.14999H1787.41ZM1792.26 33.7495V5.58099H1802.81C1810.72 5.58099 1813.15 9.59 1813.15 17.2915V22.039C1813.15 31.4285 1809.14 33.7495 1800.49 33.7495H1792.26ZM1792.26 70.569V38.1805H1801.44C1810.19 38.1805 1814.52 41.5565 1814.52 51.157V57.8035C1814.52 66.0325 1811.35 70.569 1803.23 70.569H1792.26ZM1828.75 10.012V1.14999H1824.11V10.434H1825.69L1823.58 18.452H1825.69L1828.75 10.012ZM1860.38 41.9785V75H1865.23V1.14999H1849.83C1838.54 1.14999 1834.01 7.3745 1834.01 17.819V24.2545C1834.01 32.9055 1837.38 37.864 1844.66 39.552C1837.07 41.24 1834.01 46.6205 1834.01 54.6385V66.138C1834.01 69.1975 1833.8 72.5735 1832.21 75H1837.28C1838.54 72.7845 1838.86 70.147 1838.86 66.138V54.533C1838.86 44.7215 1844.24 41.9785 1852.68 41.9785H1860.38ZM1860.38 5.58099V37.5475H1852.57C1843.92 37.5475 1838.86 35.121 1838.86 25.204V18.241C1838.86 10.3285 1841.92 5.58099 1849.94 5.58099H1860.38Z" fill="white"/>
</svg>
