<svg preserveAspectRatio="none" width="1840" height="31" viewBox="0 0 1840 31" fill="none" xmlns="http://www.w3.org/2000/svg">
<path d="M0.26 4.95L0.26 27H1.709L1.709 17.928H4.4495C7.946 17.928 9.5525 16.1955 9.5525 12.699V10.305C9.5525 7.092 8.2295 4.95 4.8275 4.95H0.26ZM1.709 16.605L1.709 6.273H4.8275C7.2845 6.273 8.1035 7.8165 8.1035 10.2105V12.7935C8.1035 15.471 7.001 16.605 4.4495 16.605H1.709ZM13.1831 15.156V6.273H20.4281V4.95L11.7341 4.95V27H20.4281V25.677H13.1831V16.479H19.1996V15.156H13.1831ZM31.8181 27H33.3301L26.6206 15.219L32.9206 4.95H31.4086L24.2266 16.605V4.95H22.7776V27H24.2266V19.0305L25.7386 16.6365L31.8181 27ZM45.2779 6.273V27H46.7584V4.95L38.5369 4.95L37.8754 21.645C37.8124 23.85 37.6549 25.7085 35.1664 25.7085V27.0315H35.4499C38.6944 26.9685 39.1984 24.606 39.3244 21.6135L39.8914 6.273H45.2779ZM58.3024 22.1175L59.4049 27H60.8539L55.9399 4.9185H53.8294L49.0099 27H50.3329L51.4354 22.1175H58.3024ZM54.8374 6.588L58.0819 20.8575H51.6559L54.8374 6.588ZM75.0462 7.407V27H76.4322V4.95H74.3532L69.7542 24.4485L65.1237 4.95H63.0447V27H64.3362V7.47L68.9982 26.9685H70.4472L75.0462 7.407ZM87.926 22.1175L89.0285 27H90.4775L85.5635 4.9185H83.453L78.6335 27H79.9565L81.059 22.1175H87.926ZM84.461 6.588L87.7055 20.8575H81.2795L84.461 6.588ZM107.324 6.273V27H108.805V4.95L100.583 4.95L99.9218 21.645C99.8588 23.85 99.7013 25.7085 97.2128 25.7085V27.0315H97.4963C100.741 26.9685 101.245 24.606 101.371 21.6135L101.938 6.273L107.324 6.273ZM111.371 4.95V27H112.82V4.95H111.371ZM124.38 27H125.892L119.183 15.219L125.483 4.95H123.971L116.789 16.605V4.95H115.34V27H116.789V19.0305L118.301 16.6365L124.38 27ZM137.052 22.1175L138.155 27H139.604L134.69 4.9185H132.579L127.76 27H129.083L130.185 22.1175H137.052ZM133.587 6.588L136.832 20.8575H130.406L133.587 6.588ZM141.795 4.95V27H143.244V17.928H145.984C149.481 17.928 151.087 16.1955 151.087 12.699V10.305C151.087 7.092 149.764 4.95 146.362 4.95H141.795ZM143.244 16.605V6.273H146.362C148.819 6.273 149.638 7.8165 149.638 10.2105V12.7935C149.638 15.471 148.536 16.605 145.984 16.605H143.244ZM157.931 4.761C154.56 4.761 153.174 7.155 153.174 10.3365V21.6135C153.174 24.795 154.56 27.189 157.931 27.189C161.301 27.189 162.687 24.795 162.687 21.6135V19.0935H161.301V21.708C161.301 24.0705 160.388 25.8345 157.962 25.8345C155.537 25.8345 154.623 24.0705 154.623 21.708V10.242C154.623 7.8795 155.537 6.084 157.962 6.084C160.388 6.084 161.301 7.8795 161.301 10.242V12.1635H162.687V10.3365C162.687 7.155 161.301 4.761 157.931 4.761ZM166.5 14.022V4.95H165.051V27H169.587C173.02 27 174.343 24.858 174.343 21.645V19.251C174.343 15.7545 172.737 14.022 169.209 14.022H166.5ZM166.5 25.677V15.345H169.209C171.76 15.345 172.894 16.479 172.894 19.1565V21.7395C172.894 24.1335 172.044 25.677 169.587 25.677H166.5ZM185.75 27H187.262L180.552 15.219L186.852 4.95H185.34L178.158 16.605V4.95H176.709V27H178.158V19.0305L179.67 16.6365L185.75 27ZM189.35 21.6135C189.35 24.8265 190.831 27.189 194.17 27.189C197.572 27.189 199.052 24.8265 199.052 21.6135V10.3365C199.052 7.1235 197.572 4.761 194.17 4.761C190.831 4.761 189.35 7.1235 189.35 10.3365V21.6135ZM190.799 10.242C190.799 7.848 191.744 6.084 194.17 6.084C196.627 6.084 197.603 7.848 197.603 10.242V21.708C197.603 24.102 196.627 25.866 194.17 25.866C191.744 25.866 190.799 24.102 190.799 21.708V10.242ZM209.915 6.273V4.95H201.442V27H202.891V6.273H209.915ZM212.237 21.6135C212.237 24.8265 213.717 27.189 217.056 27.189C220.458 27.189 221.939 24.8265 221.939 21.6135V10.3365C221.939 7.1235 220.458 4.761 217.056 4.761C213.717 4.761 212.237 7.1235 212.237 10.3365V21.6135ZM213.686 10.242C213.686 7.848 214.631 6.084 217.056 6.084C219.513 6.084 220.49 7.848 220.49 10.242V21.708C220.49 24.102 219.513 25.866 217.056 25.866C214.631 25.866 213.686 24.102 213.686 21.708V10.242ZM233.913 4.761C230.542 4.761 229.188 7.1235 229.188 10.305V11.439H230.511V10.242C230.511 7.848 231.456 6.084 233.881 6.084C236.307 6.084 237.22 7.848 237.22 10.368V11.187C237.22 13.2345 235.866 14.841 233.913 14.841H232.59V16.164H233.818C235.96 16.164 237.22 17.6445 237.22 19.881V21.582C237.22 24.102 236.307 25.866 233.881 25.866C231.456 25.866 230.542 24.0705 230.542 21.708V19.7865H229.156V21.6135C229.156 24.8265 230.542 27.189 233.913 27.189C237.283 27.189 238.669 24.8265 238.669 21.6135V19.9125C238.669 17.7705 237.693 16.0065 235.677 15.4395C237.598 14.8095 238.669 13.077 238.669 10.9035V10.3365C238.669 7.1235 237.283 4.761 233.913 4.761ZM250.102 22.1175L251.204 27H252.653L247.739 4.9185H245.629L240.809 27H242.132L243.235 22.1175H250.102ZM246.637 6.588L249.881 20.8575H243.455L246.637 6.588ZM259.506 4.761C256.135 4.761 254.749 7.155 254.749 10.3365V21.6135C254.749 24.795 256.135 27.189 259.506 27.189C262.876 27.189 264.262 24.795 264.262 21.6135V19.0935H262.876V21.708C262.876 24.0705 261.963 25.8345 259.537 25.8345C257.112 25.8345 256.198 24.0705 256.198 21.708V10.242C256.198 7.8795 257.112 6.084 259.537 6.084C261.963 6.084 262.876 7.8795 262.876 10.242V12.1635H264.262V10.3365C264.262 7.155 262.876 4.761 259.506 4.761ZM266.531 21.6135C266.531 24.8265 268.012 27.189 271.351 27.189C274.753 27.189 276.233 24.8265 276.233 21.6135V10.3365C276.233 7.1235 274.753 4.761 271.351 4.761C268.012 4.761 266.531 7.1235 266.531 10.3365V21.6135ZM267.98 10.242C267.98 7.848 268.925 6.084 271.351 6.084C273.808 6.084 274.784 7.848 274.784 10.242V21.708C274.784 24.102 273.808 25.866 271.351 25.866C268.925 25.866 267.98 24.102 267.98 21.708V10.242ZM280.072 14.337V6.273H287.537V4.95H278.623V27H283.474C286.907 27 288.356 25.0785 288.356 21.7395V19.251C288.356 15.723 286.624 14.337 283.222 14.337H280.072ZM280.072 25.677V15.6915H283.222C285.679 15.6915 286.907 16.4475 286.907 19.1565V21.834C286.907 24.3225 285.931 25.677 283.474 25.677H280.072ZM302.081 4.95H300.569L298.175 12.699L296.411 18.621L294.49 12.7305L291.907 4.95H290.426L295.718 20.448L294.805 23.1255C294.269 24.858 293.545 25.74 291.529 25.7085V27C294.742 27.126 295.655 25.551 296.38 22.905L302.081 4.95ZM304.217 24.228V27H305.634V24.228H304.217ZM321.361 6.273V27H322.842V4.95H313.045V27H314.494V6.273H321.361ZM326.799 15.156V6.273H334.044V4.95H325.35V27H334.044V25.677H326.799V16.479H332.815V15.156H326.799ZM336.393 4.95V27H337.842V17.928H340.583C344.079 17.928 345.686 16.1955 345.686 12.699V10.305C345.686 7.092 344.363 4.95 340.961 4.95L336.393 4.95ZM337.842 16.605V6.273H340.961C343.418 6.273 344.237 7.8165 344.237 10.2105V12.7935C344.237 15.471 343.134 16.605 340.583 16.605H337.842ZM349.316 15.156V6.273H356.561V4.95H347.867V27H356.561V25.677H349.316V16.479L355.333 16.479V15.156L349.316 15.156ZM372.015 30.0555V25.677H370.188V4.95L362.124 4.95L361.242 22.149C361.179 23.5665 361.021 24.7635 360.139 25.677H358.627V30.0555H360.045V27H370.566V30.0555H372.015ZM363.478 6.273H368.707V25.677H361.62C362.439 24.795 362.565 23.661 362.659 22.149L363.478 6.273ZM383.907 4.761C380.537 4.761 379.182 7.1235 379.182 10.305V11.439H380.505V10.242C380.505 7.848 381.45 6.084 383.876 6.084C386.301 6.084 387.215 7.848 387.215 10.368V11.187C387.215 13.2345 385.86 14.841 383.907 14.841H382.584V16.164H383.813C385.955 16.164 387.215 17.6445 387.215 19.881V21.582C387.215 24.102 386.301 25.866 383.876 25.866C381.45 25.866 380.537 24.0705 380.537 21.708V19.7865H379.151V21.6135C379.151 24.8265 380.537 27.189 383.907 27.189C387.278 27.189 388.664 24.8265 388.664 21.6135V19.9125C388.664 17.7705 387.687 16.0065 385.671 15.4395C387.593 14.8095 388.664 13.077 388.664 10.9035V10.3365C388.664 7.1235 387.278 4.761 383.907 4.761ZM400.096 22.1175L401.198 27H402.647L397.733 4.9185H395.623L390.803 27H392.126L393.229 22.1175H400.096ZM396.631 6.588L399.875 20.8575H393.449L396.631 6.588ZM409.5 4.761C406.13 4.761 404.744 7.155 404.744 10.3365V21.6135C404.744 24.795 406.13 27.189 409.5 27.189C412.871 27.189 414.257 24.795 414.257 21.6135V19.0935H412.871V21.708C412.871 24.0705 411.957 25.8345 409.532 25.8345C407.106 25.8345 406.193 24.0705 406.193 21.708V10.242C406.193 7.8795 407.106 6.084 409.532 6.084C411.957 6.084 412.871 7.8795 412.871 10.242V12.1635H414.257V10.3365C414.257 7.155 412.871 4.761 409.5 4.761ZM422.195 27V6.273L426.7 6.273V4.95H416.242V6.273H420.746V27H422.195ZM428.738 21.6135C428.738 24.8265 430.218 27.189 433.557 27.189C436.959 27.189 438.44 24.8265 438.44 21.6135V10.3365C438.44 7.1235 436.959 4.761 433.557 4.761C430.218 4.761 428.738 7.1235 428.738 10.3365V21.6135ZM430.187 10.242C430.187 7.848 431.132 6.084 433.557 6.084C436.014 6.084 436.991 7.848 436.991 10.242V21.708C436.991 24.102 436.014 25.866 433.557 25.866C431.132 25.866 430.187 24.102 430.187 21.708V10.242ZM445.491 4.761C442.121 4.761 440.735 7.155 440.735 10.3365V21.6135C440.735 24.795 442.121 27.189 445.491 27.189C448.862 27.189 450.248 24.795 450.248 21.6135V19.0935H448.862V21.708C448.862 24.0705 447.948 25.8345 445.523 25.8345C443.097 25.8345 442.184 24.0705 442.184 21.708V10.242C442.184 7.8795 443.097 6.084 445.523 6.084C447.948 6.084 448.862 7.8795 448.862 10.242V12.1635H450.248V10.3365C450.248 7.155 448.862 4.761 445.491 4.761ZM463.888 4.95H462.376L459.982 12.699L458.218 18.621L456.297 12.7305L453.714 4.95H452.233L457.525 20.448L456.612 23.1255C456.076 24.858 455.352 25.74 453.336 25.7085V27C456.549 27.126 457.462 25.551 458.187 22.905L463.888 4.95ZM466.023 4.95V27H470.748C474.119 27 475.568 25.0785 475.568 21.897V19.9755C475.568 17.487 474.654 15.723 472.26 15.2505C474.497 14.778 475.158 13.2975 475.158 10.9035V9.6435C475.158 6.588 473.961 4.95 470.654 4.95L466.023 4.95ZM467.472 14.6835V6.273H470.622C472.985 6.273 473.709 7.47 473.709 9.7695V11.187C473.709 13.9905 472.512 14.6835 469.929 14.6835H467.472ZM467.472 25.677V16.0065H470.213C472.827 16.0065 474.119 17.0145 474.119 19.881V21.8655C474.119 24.3225 473.174 25.677 470.748 25.677H467.472ZM486.905 22.1175L488.008 27H489.457L484.543 4.9185H482.432L477.613 27H478.936L480.038 22.1175H486.905ZM483.44 6.588L486.685 20.8575H480.259L483.44 6.588ZM499.964 16.6365V27H501.444V4.95H499.964V15.3135H493.097V4.95H491.648V27H493.097V16.6365H499.964ZM512.268 16.6365V27H513.749V4.95H512.268V15.3135H505.401V4.95H503.952V27H505.401V16.6365H512.268ZM524.447 17.1405V27H525.896V4.95H521.297C517.927 4.95 516.572 6.8085 516.572 9.927V11.8485C516.572 14.4315 517.58 15.912 519.754 16.416C517.486 16.92 516.572 18.5265 516.572 20.9205V24.354C516.572 25.2675 516.509 26.2755 516.037 27H517.549C517.927 26.3385 518.021 25.551 518.021 24.354V20.889C518.021 17.9595 519.628 17.1405 522.148 17.1405H524.447ZM524.447 6.273V15.8175H522.116C519.533 15.8175 518.021 15.093 518.021 12.132V10.053C518.021 7.6905 518.935 6.273 521.329 6.273H524.447ZM540.409 7.407V27H541.795V4.95H539.716L535.117 24.4485L530.487 4.95H528.408V27H529.699V7.47L534.361 26.9685H535.81L540.409 7.407ZM558.968 6.273V27H560.448V4.95L552.227 4.95L551.565 21.645C551.502 23.85 551.345 25.7085 548.856 25.7085V27.0315H549.14C552.384 26.9685 552.888 24.606 553.014 21.6135L553.581 6.273H558.968ZM563.015 4.95V27H564.464V4.95H563.015ZM576.024 27H577.536L570.826 15.219L577.126 4.95H575.614L568.432 16.605V4.95H566.983V27H568.432V19.0305L569.944 16.6365L576.024 27ZM588.696 22.1175L589.798 27H591.247L586.333 4.9185H584.223L579.403 27H580.726L581.829 22.1175H588.696ZM585.231 6.588L588.475 20.8575H582.049L585.231 6.588ZM593.438 4.95V27H594.887V17.928H597.628C601.124 17.928 602.731 16.1955 602.731 12.699V10.305C602.731 7.092 601.408 4.95 598.006 4.95L593.438 4.95ZM594.887 16.605V6.273H598.006C600.463 6.273 601.282 7.8165 601.282 10.2105V12.7935C601.282 15.471 600.179 16.605 597.628 16.605H594.887ZM609.574 4.761C606.204 4.761 604.818 7.155 604.818 10.3365V21.6135C604.818 24.795 606.204 27.189 609.574 27.189C612.945 27.189 614.331 24.795 614.331 21.6135V19.0935H612.945V21.708C612.945 24.0705 612.031 25.8345 609.606 25.8345C607.18 25.8345 606.267 24.0705 606.267 21.708V10.242C606.267 7.8795 607.18 6.084 609.606 6.084C612.031 6.084 612.945 7.8795 612.945 10.242V12.1635H614.331V10.3365C614.331 7.155 612.945 4.761 609.574 4.761ZM618.143 14.022V4.95H616.694V27H621.23C624.664 27 625.987 24.858 625.987 21.645V19.251C625.987 15.7545 624.38 14.022 620.852 14.022H618.143ZM618.143 25.677V15.345H620.852C623.404 15.345 624.538 16.479 624.538 19.1565V21.7395C624.538 24.1335 623.687 25.677 621.23 25.677H618.143ZM637.393 27H638.905L632.196 15.219L638.496 4.95H636.984L629.802 16.605V4.95H628.353V27H629.802V19.0305L631.314 16.6365L637.393 27ZM640.994 21.6135C640.994 24.8265 642.474 27.189 645.813 27.189C649.215 27.189 650.696 24.8265 650.696 21.6135V10.3365C650.696 7.1235 649.215 4.761 645.813 4.761C642.474 4.761 640.994 7.1235 640.994 10.3365V21.6135ZM642.443 10.242C642.443 7.848 643.388 6.084 645.813 6.084C648.27 6.084 649.247 7.848 649.247 10.242V21.708C649.247 24.102 648.27 25.866 645.813 25.866C643.388 25.866 642.443 24.102 642.443 21.708V10.242ZM661.559 6.273V4.95L653.085 4.95V27H654.534V6.273H661.559ZM663.88 21.6135C663.88 24.8265 665.361 27.189 668.7 27.189C672.102 27.189 673.582 24.8265 673.582 21.6135V10.3365C673.582 7.1235 672.102 4.761 668.7 4.761C665.361 4.761 663.88 7.1235 663.88 10.3365V21.6135ZM665.329 10.242C665.329 7.848 666.274 6.084 668.7 6.084C671.157 6.084 672.133 7.848 672.133 10.242V21.708C672.133 24.102 671.157 25.866 668.7 25.866C666.274 25.866 665.329 24.102 665.329 21.708V10.242ZM685.557 4.761C682.186 4.761 680.832 7.1235 680.832 10.305V11.439H682.155V10.242C682.155 7.848 683.1 6.084 685.525 6.084C687.951 6.084 688.864 7.848 688.864 10.368V11.187C688.864 13.2345 687.51 14.841 685.557 14.841H684.234V16.164H685.462C687.604 16.164 688.864 17.6445 688.864 19.881V21.582C688.864 24.102 687.951 25.866 685.525 25.866C683.1 25.866 682.186 24.0705 682.186 21.708V19.7865H680.8V21.6135C680.8 24.8265 682.186 27.189 685.557 27.189C688.927 27.189 690.313 24.8265 690.313 21.6135V19.9125C690.313 17.7705 689.337 16.0065 687.321 15.4395C689.242 14.8095 690.313 13.077 690.313 10.9035V10.3365C690.313 7.1235 688.927 4.761 685.557 4.761ZM701.745 22.1175L702.848 27L704.297 27L699.383 4.9185H697.272L692.453 27H693.776L694.878 22.1175H701.745ZM698.28 6.588L701.525 20.8575H695.099L698.28 6.588ZM711.15 4.761C707.779 4.761 706.393 7.155 706.393 10.3365V21.6135C706.393 24.795 707.779 27.189 711.15 27.189C714.52 27.189 715.906 24.795 715.906 21.6135V19.0935H714.52V21.708C714.52 24.0705 713.607 25.8345 711.181 25.8345C708.756 25.8345 707.842 24.0705 707.842 21.708V10.242C707.842 7.8795 708.756 6.084 711.181 6.084C713.607 6.084 714.52 7.8795 714.52 10.242V12.1635H715.906V10.3365C715.906 7.155 714.52 4.761 711.15 4.761ZM718.175 21.6135C718.175 24.8265 719.655 27.189 722.994 27.189C726.396 27.189 727.877 24.8265 727.877 21.6135V10.3365C727.877 7.1235 726.396 4.761 722.994 4.761C719.655 4.761 718.175 7.1235 718.175 10.3365V21.6135ZM719.624 10.242C719.624 7.848 720.569 6.084 722.994 6.084C725.451 6.084 726.428 7.848 726.428 10.242V21.708C726.428 24.102 725.451 25.866 722.994 25.866C720.569 25.866 719.624 24.102 719.624 21.708V10.242ZM731.715 14.337V6.273H739.181V4.95H730.266V27H735.117C738.551 27 740 25.0785 740 21.7395V19.251C740 15.723 738.267 14.337 734.865 14.337H731.715ZM731.715 25.677V15.6915H734.865C737.322 15.6915 738.551 16.4475 738.551 19.1565V21.834C738.551 24.3225 737.574 25.677 735.117 25.677H731.715ZM753.725 4.95H752.213L749.819 12.699L748.055 18.621L746.133 12.7305L743.55 4.95H742.07L747.362 20.448L746.448 23.1255C745.913 24.858 745.188 25.74 743.172 25.7085V27C746.385 27.126 747.299 25.551 748.023 22.905L753.725 4.95ZM760.657 21.6135C760.657 24.8265 762.137 27.189 765.476 27.189C768.878 27.189 770.359 24.8265 770.359 21.6135V10.3365C770.359 7.1235 768.878 4.761 765.476 4.761C762.137 4.761 760.657 7.1235 760.657 10.3365V21.6135ZM762.106 10.242C762.106 7.848 763.051 6.084 765.476 6.084C767.933 6.084 768.91 7.848 768.91 10.242V21.708C768.91 24.102 767.933 25.866 765.476 25.866C763.051 25.866 762.106 24.102 762.106 21.708V10.242ZM774.197 14.337V6.273H781.663V4.95H772.748V27H777.599C781.033 27 782.482 25.0785 782.482 21.7395V19.251C782.482 15.723 780.749 14.337 777.347 14.337H774.197ZM774.197 25.677V15.6915H777.347C779.804 15.6915 781.033 16.4475 781.033 19.1565V21.834C781.033 24.3225 780.056 25.677 777.599 25.677H774.197ZM784.835 21.6135C784.835 24.8265 786.316 27.189 789.655 27.189C793.057 27.189 794.537 24.8265 794.537 21.6135V10.3365C794.537 7.1235 793.057 4.761 789.655 4.761C786.316 4.761 784.835 7.1235 784.835 10.3365V21.6135ZM786.284 10.242C786.284 7.848 787.229 6.084 789.655 6.084C792.112 6.084 793.088 7.848 793.088 10.242V21.708C793.088 24.102 792.112 25.866 789.655 25.866C787.229 25.866 786.284 24.102 786.284 21.708V10.242ZM796.927 4.95V27H801.652C805.022 27 806.471 25.0785 806.471 21.897V19.9755C806.471 17.487 805.558 15.723 803.164 15.2505C805.4 14.778 806.062 13.2975 806.062 10.9035V9.6435C806.062 6.588 804.865 4.95 801.557 4.95H796.927ZM798.376 14.6835V6.273H801.526C803.888 6.273 804.613 7.47 804.613 9.7695V11.187C804.613 13.9905 803.416 14.6835 800.833 14.6835L798.376 14.6835ZM798.376 25.677V16.0065H801.116C803.731 16.0065 805.022 17.0145 805.022 19.881V21.8655C805.022 24.3225 804.077 25.677 801.652 25.677H798.376ZM810.533 7.596V4.95H809.147V7.722H809.619L808.989 10.116H809.619L810.533 7.596ZM821.236 17.1405V27H822.685V4.95H818.086C814.716 4.95 813.361 6.8085 813.361 9.927V11.8485C813.361 14.4315 814.369 15.912 816.543 16.416C814.275 16.92 813.361 18.5265 813.361 20.9205V24.354C813.361 25.2675 813.298 26.2755 812.826 27H814.338C814.716 26.3385 814.81 25.551 814.81 24.354V20.889C814.81 17.9595 816.417 17.1405 818.937 17.1405H821.236ZM821.236 6.273V15.8175H818.905C816.322 15.8175 814.81 15.093 814.81 12.132V10.053C814.81 7.6905 815.724 6.273 818.118 6.273H821.236ZM829.891 4.761C826.52 4.761 825.166 7.1235 825.166 10.305V11.439H826.489V10.242C826.489 7.848 827.434 6.084 829.859 6.084C832.285 6.084 833.198 7.848 833.198 10.368V11.187C833.198 13.2345 831.844 14.841 829.891 14.841H828.568V16.164H829.796C831.938 16.164 833.198 17.6445 833.198 19.881V21.582C833.198 24.102 832.285 25.866 829.859 25.866C827.434 25.866 826.52 24.0705 826.52 21.708V19.7865H825.134V21.6135C825.134 24.8265 826.52 27.189 829.891 27.189C833.261 27.189 834.647 24.8265 834.647 21.6135V19.9125C834.647 17.7705 833.671 16.0065 831.655 15.4395C833.576 14.8095 834.647 13.077 834.647 10.9035V10.3365C834.647 7.1235 833.261 4.761 829.891 4.761ZM846.142 27H847.654L840.945 15.219L847.245 4.95H845.733L838.551 16.605V4.95H837.102V27H838.551V19.0305L840.063 16.6365L846.142 27ZM849.743 21.6135C849.743 24.8265 851.223 27.189 854.562 27.189C857.964 27.189 859.445 24.8265 859.445 21.6135V10.3365C859.445 7.1235 857.964 4.761 854.562 4.761C851.223 4.761 849.743 7.1235 849.743 10.3365V21.6135ZM851.192 10.242C851.192 7.848 852.137 6.084 854.562 6.084C857.019 6.084 857.996 7.848 857.996 10.242V21.708C857.996 24.102 857.019 25.866 854.562 25.866C852.137 25.866 851.192 24.102 851.192 21.708V10.242ZM861.834 4.95V27H866.559C869.93 27 871.379 25.0785 871.379 21.897V19.9755C871.379 17.487 870.465 15.723 868.071 15.2505C870.308 14.778 870.969 13.2975 870.969 10.9035V9.6435C870.969 6.588 869.772 4.95 866.465 4.95H861.834ZM863.283 14.6835V6.273H866.433C868.796 6.273 869.52 7.47 869.52 9.7695V11.187C869.52 13.9905 868.323 14.6835 865.74 14.6835H863.283ZM863.283 25.677V16.0065H866.024C868.638 16.0065 869.93 17.0145 869.93 19.881V21.8655C869.93 24.3225 868.985 25.677 866.559 25.677H863.283ZM873.645 21.6135C873.645 24.8265 875.125 27.189 878.464 27.189C881.866 27.189 883.347 24.8265 883.347 21.6135V10.3365C883.347 7.1235 881.866 4.761 878.464 4.761C875.125 4.761 873.645 7.1235 873.645 10.3365V21.6135ZM875.094 10.242C875.094 7.848 876.039 6.084 878.464 6.084C880.921 6.084 881.898 7.848 881.898 10.242V21.708C881.898 24.102 880.921 25.866 878.464 25.866C876.039 25.866 875.094 24.102 875.094 21.708V10.242ZM890.533 21.6135C890.533 24.8265 892.013 27.189 895.352 27.189C898.754 27.189 900.235 24.8265 900.235 21.6135V10.3365C900.235 7.1235 898.754 4.761 895.352 4.761C892.013 4.761 890.533 7.1235 890.533 10.3365V21.6135ZM891.982 10.242C891.982 7.848 892.927 6.084 895.352 6.084C897.809 6.084 898.786 7.848 898.786 10.242V21.708C898.786 24.102 897.809 25.866 895.352 25.866C892.927 25.866 891.982 24.102 891.982 21.708V10.242ZM907.318 4.761C903.947 4.761 902.593 7.1235 902.593 10.305V11.439H903.916V10.242C903.916 7.848 904.861 6.084 907.286 6.084C909.712 6.084 910.625 7.848 910.625 10.368V11.187C910.625 13.2345 909.271 14.841 907.318 14.841H905.995V16.164H907.223C909.365 16.164 910.625 17.6445 910.625 19.881V21.582C910.625 24.102 909.712 25.866 907.286 25.866C904.861 25.866 903.947 24.0705 903.947 21.708V19.7865H902.561V21.6135C902.561 24.8265 903.947 27.189 907.318 27.189C910.688 27.189 912.074 24.8265 912.074 21.6135V19.9125C912.074 17.7705 911.098 16.0065 909.082 15.4395C911.003 14.8095 912.074 13.077 912.074 10.9035V10.3365C912.074 7.1235 910.688 4.761 907.318 4.761ZM922.845 16.6365V27H924.326V4.95H922.845V15.3135H915.978V4.95L914.529 4.95V27H915.978V16.6365H922.845ZM935.811 22.1175L936.914 27H938.363L933.449 4.9185H931.338L926.519 27H927.842L928.944 22.1175H935.811ZM932.346 6.588L935.591 20.8575H929.165L932.346 6.588ZM947.83 0.791999C947.767 2.0205 946.79 2.5245 945.625 2.5245C944.491 2.5245 943.514 2.0205 943.483 0.791999H942.475C942.506 2.493 943.829 3.4695 945.625 3.4695C947.452 3.4695 948.775 2.4615 948.806 0.791999H947.83ZM949.058 7.5015V27H950.381V4.95H948.649L944.743 15.786L941.876 23.8185V4.95H940.553V27H942.128L945.908 16.2585L949.058 7.5015ZM952.794 21.6135C952.794 24.8265 954.275 27.189 957.614 27.189C961.016 27.189 962.496 24.8265 962.496 21.6135V10.3365C962.496 7.1235 961.016 4.761 957.614 4.761C954.275 4.761 952.794 7.1235 952.794 10.3365V21.6135ZM954.243 10.242C954.243 7.848 955.188 6.084 957.614 6.084C960.071 6.084 961.047 7.848 961.047 10.242V21.708C961.047 24.102 960.071 25.866 957.614 25.866C955.188 25.866 954.243 24.102 954.243 21.708V10.242ZM976.887 7.407V27H978.273V4.95H976.194L971.595 24.4485L966.965 4.95H964.886V27H966.177V7.47L970.839 26.9685H972.288L976.887 7.407ZM986.365 27V6.273H990.87V4.95H980.412V6.273L984.916 6.273V27H986.365ZM994.451 15.156V6.273L1001.7 6.273V4.95H993.002V27H1001.7V25.677H994.451V16.479H1000.47V15.156H994.451ZM1008.71 4.761C1005.34 4.761 1003.95 7.155 1003.95 10.3365V21.6135C1003.95 24.795 1005.34 27.189 1008.71 27.189C1012.08 27.189 1013.46 24.795 1013.46 21.6135V19.0935H1012.08V21.708C1012.08 24.0705 1011.16 25.8345 1008.74 25.8345C1006.31 25.8345 1005.4 24.0705 1005.4 21.708V10.242C1005.4 7.8795 1006.31 6.084 1008.74 6.084C1011.16 6.084 1012.08 7.8795 1012.08 10.242V12.1635H1013.46V10.3365C1013.46 7.155 1012.08 4.761 1008.71 4.761ZM1017.28 14.022V4.95H1015.83V27H1020.36C1023.8 27 1025.12 24.858 1025.12 21.645V19.251C1025.12 15.7545 1023.51 14.022 1019.99 14.022H1017.28ZM1017.28 25.677V15.345H1019.99C1022.54 15.345 1023.67 16.479 1023.67 19.1565V21.7395C1023.67 24.1335 1022.82 25.677 1020.36 25.677H1017.28ZM1037.07 4.761C1033.7 4.761 1032.35 7.1235 1032.35 10.305V11.439H1033.67V10.242C1033.67 7.848 1034.61 6.084 1037.04 6.084C1039.46 6.084 1040.38 7.848 1040.38 10.368V11.187C1040.38 13.2345 1039.02 14.841 1037.07 14.841H1035.75V16.164H1036.98C1039.12 16.164 1040.38 17.6445 1040.38 19.881V21.582C1040.38 24.102 1039.46 25.866 1037.04 25.866C1034.61 25.866 1033.7 24.0705 1033.7 21.708V19.7865H1032.31V21.6135C1032.31 24.8265 1033.7 27.189 1037.07 27.189C1040.44 27.189 1041.83 24.8265 1041.83 21.6135V19.9125C1041.83 17.7705 1040.85 16.0065 1038.83 15.4395C1040.76 14.8095 1041.83 13.077 1041.83 10.9035V10.3365C1041.83 7.1235 1040.44 4.761 1037.07 4.761ZM1049.17 4.95V27H1050.62V4.95H1049.17ZM1061.46 16.6365V27H1062.94V4.95H1061.46V15.3135L1054.59 15.3135V4.95H1053.14V27H1054.59V16.6365H1061.46ZM1070.11 4.761C1066.74 4.761 1065.35 7.155 1065.35 10.3365V21.6135C1065.35 24.795 1066.74 27.189 1070.11 27.189C1073.48 27.189 1074.86 24.795 1074.86 21.6135V19.0935H1073.48V21.708C1073.48 24.0705 1072.57 25.8345 1070.14 25.8345C1067.71 25.8345 1066.8 24.0705 1066.8 21.708V10.242C1066.8 7.8795 1067.71 6.084 1070.14 6.084C1072.57 6.084 1073.48 7.8795 1073.48 10.242V12.1635H1074.86V10.3365C1074.86 7.155 1073.48 4.761 1070.11 4.761ZM1082.8 27V6.273H1087.31V4.95H1076.85V6.273H1081.35V27H1082.8ZM1089.44 4.95V27H1090.89V17.928H1093.63C1097.13 17.928 1098.73 16.1955 1098.73 12.699V10.305C1098.73 7.092 1097.41 4.95 1094.01 4.95H1089.44ZM1090.89 16.605V6.273H1094.01C1096.46 6.273 1097.28 7.8165 1097.28 10.2105V12.7935C1097.28 15.471 1096.18 16.605 1093.63 16.605H1090.89ZM1112.19 4.95H1110.68L1108.29 12.699L1106.52 18.621L1104.6 12.7305L1102.02 4.95H1100.54L1105.83 20.448L1104.91 23.1255C1104.38 24.858 1103.65 25.74 1101.64 25.7085V27C1104.85 27.126 1105.77 25.551 1106.49 22.905L1112.19 4.95ZM1123.37 27H1124.88L1118.17 15.219L1124.47 4.95H1122.96L1115.78 16.605V4.95H1114.33V27H1115.78V19.0305L1117.29 16.6365L1123.37 27ZM1139.06 29.961V25.677H1137.24V4.95H1135.76V25.677H1128.89V4.95H1127.47V27H1137.65V29.961H1139.06ZM1141.4 4.95V27H1142.85V4.95H1141.4ZM1149.96 4.761C1146.59 4.761 1145.24 7.155 1145.24 10.3365V11.7225H1146.59V10.242C1146.59 7.8795 1147.51 6.084 1149.9 6.084C1152.36 6.084 1153.27 7.8795 1153.27 10.242V14.9355H1148.77V16.2585H1153.27V21.708C1153.27 24.0705 1152.36 25.8345 1149.9 25.8345C1147.51 25.8345 1146.59 24.0705 1146.59 21.708V19.4715H1145.21V21.6135C1145.21 24.795 1146.59 27.189 1149.96 27.189C1153.3 27.189 1154.72 24.795 1154.72 21.6135V10.3365C1154.72 7.155 1153.3 4.761 1149.96 4.761ZM1167.26 4.761C1163.86 4.761 1162.41 7.1235 1162.41 10.3365V15.3135H1158.6V4.95H1157.15V27H1158.6V16.6365H1162.41V21.6135C1162.41 24.8265 1163.86 27.189 1167.26 27.189C1170.63 27.189 1172.11 24.8265 1172.11 21.6135V10.3365C1172.11 7.1235 1170.63 4.761 1167.26 4.761ZM1167.26 6.084C1169.68 6.084 1170.66 7.848 1170.66 10.242V21.708C1170.66 24.102 1169.68 25.866 1167.26 25.866C1164.8 25.866 1163.86 24.102 1163.86 21.708V10.242C1163.86 7.848 1164.8 6.084 1167.26 6.084ZM1192.52 30.0555V25.677H1190.7V4.95H1182.63L1181.75 22.149C1181.69 23.5665 1181.53 24.7635 1180.65 25.677H1179.13V30.0555H1180.55V27H1191.07V30.0555H1192.52ZM1183.99 6.273H1189.21V25.677H1182.13C1182.95 24.795 1183.07 23.661 1183.17 22.149L1183.99 6.273ZM1204.59 6.273V27H1206.08V4.95H1197.85L1197.19 21.645C1197.13 23.85 1196.97 25.7085 1194.48 25.7085V27.0315H1194.77C1198.01 26.9685 1198.52 24.606 1198.64 21.6135L1199.21 6.273H1204.59ZM1216.83 17.1405V27H1218.28V4.95H1213.68C1210.31 4.95 1208.96 6.8085 1208.96 9.927V11.8485C1208.96 14.4315 1209.96 15.912 1212.14 16.416C1209.87 16.92 1208.96 18.5265 1208.96 20.9205V24.354C1208.96 25.2675 1208.89 26.2755 1208.42 27H1209.93C1210.31 26.3385 1210.41 25.551 1210.41 24.354V20.889C1210.41 17.9595 1212.01 17.1405 1214.53 17.1405H1216.83ZM1216.83 6.273V15.8175H1214.5C1211.92 15.8175 1210.41 15.093 1210.41 12.132V10.053C1210.41 7.6905 1211.32 6.273 1213.71 6.273H1216.83ZM1237.69 7.407V27H1239.07V4.95H1236.99L1232.39 24.4485L1227.76 4.95H1225.68V27H1226.98V7.47L1231.64 26.9685H1233.09L1237.69 7.407ZM1243.04 15.156V6.273H1250.28V4.95H1241.59V27H1250.28V25.677H1243.04V16.479H1249.05V15.156L1243.04 15.156ZM1265.74 30.0555V25.677H1263.91V4.95L1255.84 4.95L1254.96 22.149C1254.9 23.5665 1254.74 24.7635 1253.86 25.677H1252.35V30.0555H1253.77V27H1264.29V30.0555H1265.74ZM1257.2 6.273H1262.43V25.677H1255.34C1256.16 24.795 1256.29 23.661 1256.38 22.149L1257.2 6.273ZM1276.55 7.5015V27H1277.87V4.95H1276.14L1272.58 14.8095L1269.37 23.8185V4.95H1268.04V27H1269.62L1273.24 16.6365L1276.55 7.5015ZM1288.57 27H1290.02V4.95H1288.57V14.4C1288.1 16.2585 1286.93 17.2665 1285.1 17.2665C1282.74 17.2665 1281.7 15.3765 1281.7 13.1085V4.95H1280.25V13.203C1280.25 16.164 1281.58 18.5895 1284.69 18.5895C1286.4 18.5895 1287.75 17.8335 1288.57 16.416V27ZM1300.85 16.6365V27H1302.33V4.95H1300.85V15.3135H1293.98V4.95H1292.53V27H1293.98V16.6365H1300.85ZM1304.74 21.6135C1304.74 24.8265 1306.22 27.189 1309.56 27.189C1312.96 27.189 1314.44 24.8265 1314.44 21.6135V10.3365C1314.44 7.1235 1312.96 4.761 1309.56 4.761C1306.22 4.761 1304.74 7.1235 1304.74 10.3365V21.6135ZM1306.19 10.242C1306.19 7.848 1307.13 6.084 1309.56 6.084C1312.02 6.084 1312.99 7.848 1312.99 10.242V21.708C1312.99 24.102 1312.02 25.866 1309.56 25.866C1307.13 25.866 1306.19 24.102 1306.19 21.708V10.242ZM1325.3 6.273V4.95L1316.83 4.95V27H1318.28V6.273L1325.3 6.273ZM1327.63 21.6135C1327.63 24.8265 1329.11 27.189 1332.45 27.189C1335.85 27.189 1337.33 24.8265 1337.33 21.6135V10.3365C1337.33 7.1235 1335.85 4.761 1332.45 4.761C1329.11 4.761 1327.63 7.1235 1327.63 10.3365V21.6135ZM1329.07 10.242C1329.07 7.848 1330.02 6.084 1332.45 6.084C1334.9 6.084 1335.88 7.848 1335.88 10.242V21.708C1335.88 24.102 1334.9 25.866 1332.45 25.866C1330.02 25.866 1329.07 24.102 1329.07 21.708V10.242ZM1349.3 4.761C1345.93 4.761 1344.58 7.1235 1344.58 10.305V11.439H1345.9V10.242C1345.9 7.848 1346.85 6.084 1349.27 6.084C1351.7 6.084 1352.61 7.848 1352.61 10.368V11.187C1352.61 13.2345 1351.26 14.841 1349.3 14.841H1347.98V16.164H1349.21C1351.35 16.164 1352.61 17.6445 1352.61 19.881V21.582C1352.61 24.102 1351.7 25.866 1349.27 25.866C1346.85 25.866 1345.93 24.0705 1345.93 21.708V19.7865H1344.55V21.6135C1344.55 24.8265 1345.93 27.189 1349.3 27.189C1352.67 27.189 1354.06 24.8265 1354.06 21.6135V19.9125C1354.06 17.7705 1353.08 16.0065 1351.07 15.4395C1352.99 14.8095 1354.06 13.077 1354.06 10.9035V10.3365C1354.06 7.1235 1352.67 4.761 1349.3 4.761ZM1365.49 22.1175L1366.59 27H1368.04L1363.13 4.9185L1361.02 4.9185L1356.2 27H1357.52L1358.62 22.1175H1365.49ZM1362.03 6.588L1365.27 20.8575H1358.84L1362.03 6.588ZM1374.9 4.761C1371.52 4.761 1370.14 7.155 1370.14 10.3365V21.6135C1370.14 24.795 1371.52 27.189 1374.9 27.189C1378.27 27.189 1379.65 24.795 1379.65 21.6135V19.0935H1378.27V21.708C1378.27 24.0705 1377.35 25.8345 1374.93 25.8345C1372.5 25.8345 1371.59 24.0705 1371.59 21.708V10.242C1371.59 7.8795 1372.5 6.084 1374.93 6.084C1377.35 6.084 1378.27 7.8795 1378.27 10.242V12.1635H1379.65V10.3365C1379.65 7.155 1378.27 4.761 1374.9 4.761ZM1387.59 27V6.273H1392.09V4.95L1381.64 4.95V6.273L1386.14 6.273V27H1387.59ZM1394.13 21.6135C1394.13 24.8265 1395.61 27.189 1398.95 27.189C1402.35 27.189 1403.83 24.8265 1403.83 21.6135V10.3365C1403.83 7.1235 1402.35 4.761 1398.95 4.761C1395.61 4.761 1394.13 7.1235 1394.13 10.3365V21.6135ZM1395.58 10.242C1395.58 7.848 1396.53 6.084 1398.95 6.084C1401.41 6.084 1402.39 7.848 1402.39 10.242V21.708C1402.39 24.102 1401.41 25.866 1398.95 25.866C1396.53 25.866 1395.58 24.102 1395.58 21.708V10.242ZM1410.89 4.761C1407.52 4.761 1406.13 7.155 1406.13 10.3365V21.6135C1406.13 24.795 1407.52 27.189 1410.89 27.189C1414.26 27.189 1415.64 24.795 1415.64 21.6135V19.0935H1414.26V21.708C1414.26 24.0705 1413.34 25.8345 1410.92 25.8345C1408.49 25.8345 1407.58 24.0705 1407.58 21.708V10.242C1407.58 7.8795 1408.49 6.084 1410.92 6.084C1413.34 6.084 1414.26 7.8795 1414.26 10.242V12.1635H1415.64V10.3365C1415.64 7.155 1414.26 4.761 1410.89 4.761ZM1429.28 4.95H1427.77L1425.38 12.699L1423.61 18.621L1421.69 12.7305L1419.11 4.95H1417.63L1422.92 20.448L1422.01 23.1255C1421.47 24.858 1420.75 25.74 1418.73 25.7085V27C1421.94 27.126 1422.86 25.551 1423.58 22.905L1429.28 4.95ZM1431.42 4.95V27H1436.14C1439.51 27 1440.96 25.0785 1440.96 21.897V19.9755C1440.96 17.487 1440.05 15.723 1437.66 15.2505C1439.89 14.778 1440.55 13.2975 1440.55 10.9035V9.6435C1440.55 6.588 1439.36 4.95 1436.05 4.95H1431.42ZM1432.87 14.6835V6.273H1436.02C1438.38 6.273 1439.1 7.47 1439.1 9.7695V11.187C1439.1 13.9905 1437.91 14.6835 1435.32 14.6835H1432.87ZM1432.87 25.677V16.0065H1435.61C1438.22 16.0065 1439.51 17.0145 1439.51 19.881V21.8655C1439.51 24.3225 1438.57 25.677 1436.14 25.677H1432.87ZM1452.3 22.1175L1453.4 27H1454.85L1449.94 4.9185H1447.83L1443.01 27H1444.33L1445.43 22.1175H1452.3ZM1448.84 6.588L1452.08 20.8575H1445.65L1448.84 6.588ZM1465.36 16.6365V27H1466.84V4.95H1465.36V15.3135H1458.49V4.95H1457.04V27H1458.49V16.6365H1465.36ZM1477.66 16.6365V27H1479.14V4.95H1477.66V15.3135H1470.8V4.95H1469.35V27H1470.8V16.6365H1477.66ZM1489.84 17.1405V27H1491.29V4.95L1486.69 4.95C1483.32 4.95 1481.97 6.8085 1481.97 9.927V11.8485C1481.97 14.4315 1482.98 15.912 1485.15 16.416C1482.88 16.92 1481.97 18.5265 1481.97 20.9205V24.354C1481.97 25.2675 1481.9 26.2755 1481.43 27H1482.94C1483.32 26.3385 1483.42 25.551 1483.42 24.354V20.889C1483.42 17.9595 1485.02 17.1405 1487.54 17.1405H1489.84ZM1489.84 6.273V15.8175H1487.51C1484.93 15.8175 1483.42 15.093 1483.42 12.132V10.053C1483.42 7.6905 1484.33 6.273 1486.72 6.273H1489.84ZM1504.27 27V6.273H1508.77V4.95H1498.32V6.273H1502.82V27H1504.27ZM1519.88 22.1175L1520.99 27H1522.44L1517.52 4.9185H1515.41L1510.59 27H1511.91L1513.02 22.1175H1519.88ZM1516.42 6.588L1519.66 20.8575H1513.24L1516.42 6.588ZM1537.83 6.273V27H1539.31V4.95H1529.52V27H1530.97V6.273H1537.83ZM1541.82 4.95V27H1543.27V17.928H1546.01C1549.51 17.928 1551.11 16.1955 1551.11 12.699V10.305C1551.11 7.092 1549.79 4.95 1546.39 4.95H1541.82ZM1543.27 16.605V6.273H1546.39C1548.85 6.273 1549.67 7.8165 1549.67 10.2105V12.7935C1549.67 15.471 1548.56 16.605 1546.01 16.605H1543.27ZM1553.2 21.6135C1553.2 24.8265 1554.68 27.189 1558.02 27.189C1561.42 27.189 1562.9 24.8265 1562.9 21.6135V10.3365C1562.9 7.1235 1561.42 4.761 1558.02 4.761C1554.68 4.761 1553.2 7.1235 1553.2 10.3365V21.6135ZM1554.65 10.242C1554.65 7.848 1555.6 6.084 1558.02 6.084C1560.48 6.084 1561.45 7.848 1561.45 10.242V21.708C1561.45 24.102 1560.48 25.866 1558.02 25.866C1555.6 25.866 1554.65 24.102 1554.65 21.708V10.242ZM1574.33 27H1575.85L1569.14 15.219L1575.44 4.95H1573.92L1566.74 16.605V4.95H1565.29V27H1566.74V19.0305L1568.25 16.6365L1574.33 27ZM1577.93 21.6135C1577.93 24.8265 1579.41 27.189 1582.75 27.189C1586.16 27.189 1587.64 24.8265 1587.64 21.6135V10.3365C1587.64 7.1235 1586.16 4.761 1582.75 4.761C1579.41 4.761 1577.93 7.1235 1577.93 10.3365V21.6135ZM1579.38 10.242C1579.38 7.848 1580.33 6.084 1582.75 6.084C1585.21 6.084 1586.19 7.848 1586.19 10.242V21.708C1586.19 24.102 1585.21 25.866 1582.75 25.866C1580.33 25.866 1579.38 24.102 1579.38 21.708V10.242ZM1598.34 16.6365V27L1599.82 27V4.95H1598.34V15.3135H1591.47V4.95H1590.03V27H1591.47V16.6365H1598.34ZM1606.99 4.761C1603.62 4.761 1602.24 7.155 1602.24 10.3365V21.6135C1602.24 24.795 1603.62 27.189 1606.99 27.189C1610.36 27.189 1611.75 24.795 1611.75 21.6135V19.0935H1610.36V21.708C1610.36 24.0705 1609.45 25.8345 1607.02 25.8345C1604.6 25.8345 1603.68 24.0705 1603.68 21.708V10.242C1603.68 7.8795 1604.6 6.084 1607.02 6.084C1609.45 6.084 1610.36 7.8795 1610.36 10.242V12.1635H1611.75V10.3365C1611.75 7.155 1610.36 4.761 1606.99 4.761ZM1625.39 4.95H1623.88L1621.48 12.699L1619.72 18.621L1617.8 12.7305L1615.21 4.95H1613.73L1619.03 20.448L1618.11 23.1255C1617.58 24.858 1616.85 25.74 1614.84 25.7085V27C1618.05 27.126 1618.96 25.551 1619.69 22.905L1625.39 4.95ZM1637.29 6.273V27H1638.77V4.95H1630.55L1629.89 21.645C1629.82 23.85 1629.67 25.7085 1627.18 25.7085V27.0315H1627.46C1630.71 26.9685 1631.21 24.606 1631.34 21.6135L1631.9 6.273H1637.29ZM1642.79 14.022V4.95H1641.34V27H1645.87C1649.31 27 1650.63 24.858 1650.63 21.645V19.251C1650.63 15.7545 1649.02 14.022 1645.49 14.022H1642.79ZM1642.79 25.677V15.345H1645.49C1648.05 15.345 1649.18 16.479 1649.18 19.1565V21.7395C1649.18 24.1335 1648.33 25.677 1645.87 25.677H1642.79ZM1658.57 27V6.273H1663.07V4.95H1652.62V6.273H1657.12V27H1658.57ZM1676.48 4.95H1674.97L1672.58 12.699L1670.81 18.621L1668.89 12.7305L1666.31 4.95H1664.83L1670.12 20.448L1669.21 23.1255C1668.67 24.858 1667.95 25.74 1665.93 25.7085V27C1669.14 27.126 1670.06 25.551 1670.78 22.905L1676.48 4.95ZM1685.9 0.791999C1685.83 2.0205 1684.86 2.5245 1683.69 2.5245C1682.56 2.5245 1681.58 2.0205 1681.55 0.791999H1680.54C1680.57 2.493 1681.9 3.4695 1683.69 3.4695C1685.52 3.4695 1686.84 2.4615 1686.87 0.791999H1685.9ZM1687.12 7.5015V27H1688.45V4.95H1686.71L1682.81 15.786L1679.94 23.8185V4.95H1678.62V27H1680.19L1683.97 16.2585L1687.12 7.5015ZM1696.53 27V6.273H1701.03V4.95H1690.58V6.273H1695.08V27H1696.53ZM1704.62 15.156V6.273H1711.86V4.95L1703.17 4.95V27H1711.86V25.677H1704.62V16.479H1710.63V15.156H1704.62ZM1718.87 4.761C1715.5 4.761 1714.12 7.155 1714.12 10.3365V21.6135C1714.12 24.795 1715.5 27.189 1718.87 27.189C1722.24 27.189 1723.63 24.795 1723.63 21.6135V19.0935H1722.24V21.708C1722.24 24.0705 1721.33 25.8345 1718.9 25.8345C1716.48 25.8345 1715.57 24.0705 1715.57 21.708V10.242C1715.57 7.8795 1716.48 6.084 1718.9 6.084C1721.33 6.084 1722.24 7.8795 1722.24 10.242V12.1635H1723.63V10.3365C1723.63 7.155 1722.24 4.761 1718.87 4.761ZM1727.44 14.022V4.95H1725.99V27L1730.53 27C1733.96 27 1735.28 24.858 1735.28 21.645V19.251C1735.28 15.7545 1733.68 14.022 1730.15 14.022H1727.44ZM1727.44 25.677V15.345H1730.15C1732.7 15.345 1733.84 16.479 1733.84 19.1565V21.7395C1733.84 24.1335 1732.99 25.677 1730.53 25.677H1727.44ZM1747.24 4.761C1743.87 4.761 1742.51 7.1235 1742.51 10.305V11.439H1743.83V10.242C1743.83 7.848 1744.78 6.084 1747.2 6.084C1749.63 6.084 1750.54 7.848 1750.54 10.368V11.187C1750.54 13.2345 1749.19 14.841 1747.24 14.841H1745.91V16.164H1747.14C1749.28 16.164 1750.54 17.6445 1750.54 19.881V21.582C1750.54 24.102 1749.63 25.866 1747.2 25.866C1744.78 25.866 1743.87 24.0705 1743.87 21.708V19.7865H1742.48V21.6135C1742.48 24.8265 1743.87 27.189 1747.24 27.189C1750.61 27.189 1751.99 24.8265 1751.99 21.6135V19.9125C1751.99 17.7705 1751.02 16.0065 1749 15.4395C1750.92 14.8095 1751.99 13.077 1751.99 10.9035V10.3365C1751.99 7.1235 1750.61 4.761 1747.24 4.761ZM1769.1 6.273V27H1770.58V4.95H1762.36L1761.7 21.645C1761.64 23.85 1761.48 25.7085 1758.99 25.7085V27.0315H1759.28C1762.52 26.9685 1763.02 24.606 1763.15 21.6135L1763.72 6.273L1769.1 6.273ZM1773.15 4.95V27H1774.6V4.95H1773.15ZM1786.16 27H1787.67L1780.96 15.219L1787.26 4.95H1785.75L1778.57 16.605V4.95H1777.12V27H1778.57V19.0305L1780.08 16.6365L1786.16 27ZM1798.83 22.1175L1799.93 27H1801.38L1796.47 4.9185H1794.36L1789.54 27H1790.86L1791.96 22.1175H1798.83ZM1795.37 6.588L1798.61 20.8575H1792.18L1795.37 6.588ZM1803.57 4.95V27H1805.02V17.928H1807.76C1811.26 17.928 1812.87 16.1955 1812.87 12.699V10.305C1812.87 7.092 1811.54 4.95 1808.14 4.95H1803.57ZM1805.02 16.605V6.273H1808.14C1810.6 6.273 1811.42 7.8165 1811.42 10.2105V12.7935C1811.42 15.471 1810.31 16.605 1807.76 16.605H1805.02ZM1816.5 15.156V6.273H1823.74V4.95H1815.05V27H1823.74V25.677H1816.5V16.479H1822.51V15.156H1816.5ZM1838.09 7.407V27H1839.48V4.95H1837.4L1832.8 24.4485L1828.17 4.95H1826.09V27H1827.38V7.47L1832.04 26.9685H1833.49L1838.09 7.407Z" fill="white"/>
</svg>
