<svg preserveAspectRatio="none" width="352" height="68" viewBox="0 0 352 68" fill="none" xmlns="http://www.w3.org/2000/svg">
<path d="M6.89891 0.759999C2.61891 0.759999 0.858906 3.8 0.858906 7.84L0.858906 22.16C0.858906 26.2 2.61891 29.24 6.89891 29.24C11.1789 29.24 12.9389 26.2 12.9389 22.16V18.96H11.1789V22.28C11.1789 25.28 10.0189 27.52 6.93891 27.52C3.85891 27.52 2.69891 25.28 2.69891 22.28V7.72C2.69891 4.72 3.85891 2.44 6.93891 2.44C10.0189 2.44 11.1789 4.72 11.1789 7.72V10.16H12.9389V7.84C12.9389 3.8 11.1789 0.759999 6.89891 0.759999ZM27.3398 22.8L28.7398 29H30.5798L24.3398 0.959999H21.6598L15.5398 29H17.2198L18.6198 22.8H27.3398ZM22.9398 3.08L27.0598 21.2H18.8998L22.9398 3.08ZM48.6017 4.12V29H50.3617V0.999998H47.7217L41.8817 25.76L36.0017 0.999998L33.3617 0.999998V29H35.0017V4.2L40.9217 28.96H42.7617L48.6017 4.12ZM53.437 22.16C53.437 26.24 55.317 29.24 59.557 29.24C63.877 29.24 65.757 26.24 65.757 22.16V7.84C65.757 3.76 63.877 0.759999 59.557 0.759999C55.317 0.759999 53.437 3.76 53.437 7.84V22.16ZM55.277 7.72C55.277 4.68 56.477 2.44 59.557 2.44C62.677 2.44 63.917 4.68 63.917 7.72V22.28C63.917 25.32 62.677 27.56 59.557 27.56C56.477 27.56 55.277 25.32 55.277 22.28V7.72ZM81.1914 2.68V29H83.0714V0.999998L72.6314 0.999998L71.7914 22.2C71.7114 25 71.5114 27.36 68.3514 27.36V29.04H68.7114C72.8314 28.96 73.4714 25.96 73.6314 22.16L74.3514 2.68H81.1914ZM86.3305 0.999998V29H88.1705V0.999998H86.3305ZM102.85 29H104.77L96.2495 14.04L104.25 0.999998H102.33L93.2095 15.8V0.999998H91.3695V29H93.2095V18.88L95.1295 15.84L102.85 29ZM121.861 0.999998H119.941L116.901 10.84L114.661 18.36L112.221 10.88L108.941 0.999998H107.061L113.781 20.68L112.621 24.08C111.941 26.28 111.021 27.4 108.461 27.36V29C112.541 29.16 113.701 27.16 114.621 23.8L121.861 0.999998ZM124.573 0.999998V29H130.573C134.853 29 136.693 26.56 136.693 22.52V20.08C136.693 16.92 135.533 14.68 132.493 14.08C135.333 13.48 136.173 11.6 136.173 8.56V6.96C136.173 3.08 134.653 0.999998 130.453 0.999998H124.573ZM126.413 13.36V2.68H130.413C133.413 2.68 134.333 4.2 134.333 7.12V8.92C134.333 12.48 132.813 13.36 129.533 13.36H126.413ZM126.413 27.32V15.04H129.893C133.213 15.04 134.853 16.32 134.853 19.96V22.48C134.853 25.6 133.653 27.32 130.573 27.32H126.413ZM151.09 22.8L152.49 29H154.33L148.09 0.959999L145.41 0.959999L139.29 29H140.97L142.37 22.8H151.09ZM146.69 3.08L150.81 21.2H142.65L146.69 3.08ZM167.672 15.84V29H169.552V0.999998H167.672V14.16L158.952 14.16V0.999998H157.112V29H158.952V15.84H167.672ZM183.297 15.84V29H185.177V0.999998H183.297V14.16H174.577V0.999998H172.737V29H174.577V15.84H183.297ZM198.762 16.48V29H200.602V0.999998L194.762 0.999998C190.482 0.999998 188.762 3.36 188.762 7.32V9.76C188.762 13.04 190.042 14.92 192.802 15.56C189.922 16.2 188.762 18.24 188.762 21.28V25.64C188.762 26.8 188.682 28.08 188.082 29H190.002C190.482 28.16 190.602 27.16 190.602 25.64V21.24C190.602 17.52 192.642 16.48 195.842 16.48H198.762ZM198.762 2.68V14.8H195.802C192.522 14.8 190.602 13.88 190.602 10.12V7.48C190.602 4.48 191.762 2.68 194.802 2.68H198.762ZM225.242 4.12V29H227.002V0.999998L224.362 0.999998L218.522 25.76L212.642 0.999998L210.002 0.999998V29H211.642V4.2L217.562 28.96H219.402L225.242 4.12ZM230.078 22.16C230.078 26.24 231.958 29.24 236.198 29.24C240.518 29.24 242.398 26.24 242.398 22.16V7.84C242.398 3.76 240.518 0.759999 236.198 0.759999C231.958 0.759999 230.078 3.76 230.078 7.84V22.16ZM231.918 7.72C231.918 4.68 233.118 2.44 236.198 2.44C239.318 2.44 240.558 4.68 240.558 7.72V22.28C240.558 25.32 239.318 27.56 236.198 27.56C233.118 27.56 231.918 25.32 231.918 22.28V7.72ZM265.712 29H267.592L260.352 13.24L267.312 0.999998L265.392 0.999998L257.192 15.4V0.999998H255.352V15.4L247.152 0.999998H245.272L252.272 13.28L244.952 29H246.872L253.512 15L255.352 18.16V29H257.192V18.2L259.072 15L265.712 29ZM272.194 13.96V2.68L281.394 2.68V0.999998L270.354 0.999998V29H281.394V27.32H272.194V15.64H279.834V13.96H272.194ZM292.428 12.92V2.68L301.908 2.68V0.999998L290.588 0.999998V29H296.748C301.108 29 302.948 26.56 302.948 22.32V19.16C302.948 14.68 300.748 12.92 296.428 12.92H292.428ZM292.428 27.32V14.64H296.428C299.548 14.64 301.108 15.6 301.108 19.04V22.44C301.108 25.6 299.868 27.32 296.748 27.32H292.428ZM320.377 0.999998H318.457L315.417 10.84L313.177 18.36L310.737 10.88L307.457 0.999998L305.577 0.999998L312.297 20.68L311.137 24.08C310.457 26.28 309.537 27.4 306.977 27.36V29C311.057 29.16 312.217 27.16 313.137 23.8L320.377 0.999998ZM330.168 29V2.68H335.888V0.999998L322.608 0.999998V2.68L328.328 2.68V29H330.168ZM349.396 4.24V29H351.076V0.999998H348.876L344.356 13.52L340.276 24.96V0.999998L338.596 0.999998V29H340.596L345.196 15.84L349.396 4.24ZM2.36855 39.5L2.36855 64H19.3086L19.3086 39.5H17.6986V62.53H11.6436V39.5H10.0336V62.53H3.97855L3.97855 39.5H2.36855ZM31.1194 64H32.7994L25.3444 50.91L32.3444 39.5H30.6644L22.6844 52.45V39.5H21.0744L21.0744 64H22.6844L22.6844 55.145L24.3644 52.485L31.1194 64ZM34.1748 39.5V64H35.7848V39.5H34.1748ZM52.094 67.395V62.53H50.064V39.5H41.104L40.124 58.61C40.054 60.185 39.879 61.515 38.899 62.53H37.219V67.395H38.794V64H50.484V67.395H52.094ZM42.609 40.97H48.419V62.53H40.544C41.454 61.55 41.594 60.29 41.699 58.61L42.609 40.97ZM64.458 40.97V64H66.103V39.5H56.968L56.233 58.05C56.163 60.5 55.988 62.565 53.223 62.565V64.035H53.538C57.143 63.965 57.703 61.34 57.843 58.015L58.473 40.97H64.458ZM77.3547 42.335V64H78.8247V39.5H76.8997L72.9447 50.455L69.3747 60.465V39.5H67.9047V64H69.6547L73.6797 52.485L77.3547 42.335ZM80.5266 39.5V64H85.7766C89.5216 64 91.1316 61.865 91.1316 58.33V56.195C91.1316 53.43 90.1166 51.47 87.4566 50.945C89.9416 50.42 90.6766 48.775 90.6766 46.115V44.715C90.6766 41.32 89.3466 39.5 85.6716 39.5H80.5266ZM82.1366 50.315V40.97H85.6366C88.2616 40.97 89.0666 42.3 89.0666 44.855V46.43C89.0666 49.545 87.7366 50.315 84.8666 50.315H82.1366ZM82.1366 62.53V51.785H85.1816C88.0866 51.785 89.5216 52.905 89.5216 56.09V58.295C89.5216 61.025 88.4716 62.53 85.7766 62.53H82.1366ZM102.154 42.335V64H103.624V39.5H101.699L97.7441 50.455L94.1741 60.465V39.5H92.7041V64H94.4541L98.4791 52.485L102.154 42.335ZM118.661 42.23V64H120.201V39.5H117.891L112.781 61.165L107.636 39.5H105.326V64H106.761V42.3L111.941 63.965H113.551L118.661 42.23ZM140.891 67.395V62.53H138.861V39.5H129.901L128.921 58.61C128.851 60.185 128.676 61.515 127.696 62.53L126.016 62.53V67.395H127.591V64H139.281V67.395H140.891ZM131.406 40.97H137.216V62.53H129.341C130.251 61.55 130.391 60.29 130.496 58.61L131.406 40.97ZM153.255 40.97V64H154.9V39.5H145.765L145.03 58.05C144.96 60.5 144.785 62.565 142.02 62.565V64.035H142.335C145.94 63.965 146.5 61.34 146.64 58.015L147.27 40.97H153.255ZM165.802 53.045V64H167.412V39.5H162.302C158.557 39.5 157.052 41.565 157.052 45.03V47.165C157.052 50.035 158.172 51.68 160.587 52.24C158.067 52.8 157.052 54.585 157.052 57.245V61.06C157.052 62.075 156.982 63.195 156.457 64H158.137C158.557 63.265 158.662 62.39 158.662 61.06V57.21C158.662 53.955 160.447 53.045 163.247 53.045H165.802ZM165.802 40.97V51.575H163.212C160.342 51.575 158.662 50.77 158.662 47.48V45.17C158.662 42.545 159.677 40.97 162.337 40.97H165.802ZM173.538 39.5V64H178.788C182.533 64 184.143 61.865 184.143 58.33V56.195C184.143 53.43 183.128 51.47 180.468 50.945C182.953 50.42 183.688 48.775 183.688 46.115V44.715C183.688 41.32 182.358 39.5 178.683 39.5H173.538ZM175.148 50.315V40.97H178.648C181.273 40.97 182.078 42.3 182.078 44.855V46.43C182.078 49.545 180.748 50.315 177.878 50.315H175.148ZM175.148 62.53V51.785H178.193C181.098 51.785 182.533 52.905 182.533 56.09V58.295C182.533 61.025 181.483 62.53 178.788 62.53H175.148ZM195.69 58.575L196.915 64H198.525L193.065 39.465H190.72L185.365 64H186.835L188.06 58.575H195.69ZM191.84 41.32L195.445 57.175H188.305L191.84 41.32ZM199.909 39.5V64H216.849V39.5H215.239V62.53H209.184V39.5H207.574V62.53H201.519V39.5H199.909ZM218.51 58.015C218.51 61.585 220.155 64.21 223.865 64.21C227.645 64.21 229.29 61.585 229.29 58.015V45.485C229.29 41.915 227.645 39.29 223.865 39.29C220.155 39.29 218.51 41.915 218.51 45.485V58.015ZM220.12 45.38C220.12 42.72 221.17 40.76 223.865 40.76C226.595 40.76 227.68 42.72 227.68 45.38V58.12C227.68 60.78 226.595 62.74 223.865 62.74C221.17 62.74 220.12 60.78 220.12 58.12V45.38ZM240.31 40.97V39.5H230.895V64H232.505V40.97H240.31ZM241.84 58.015C241.84 61.585 243.485 64.21 247.195 64.21C250.975 64.21 252.62 61.585 252.62 58.015V45.485C252.62 41.915 250.975 39.29 247.195 39.29C243.485 39.29 241.84 41.915 241.84 45.485V58.015ZM243.45 45.38C243.45 42.72 244.5 40.76 247.195 40.76C249.925 40.76 251.01 42.72 251.01 45.38V58.12C251.01 60.78 249.925 62.74 247.195 62.74C244.5 62.74 243.45 60.78 243.45 58.12V45.38ZM263.825 39.29C260.08 39.29 258.575 41.915 258.575 45.45V46.71H260.045V45.38C260.045 42.72 261.095 40.76 263.79 40.76C266.485 40.76 267.5 42.72 267.5 45.52V46.43C267.5 48.705 265.995 50.49 263.825 50.49H262.355V51.96H263.72C266.1 51.96 267.5 53.605 267.5 56.09V57.98C267.5 60.78 266.485 62.74 263.79 62.74C261.095 62.74 260.08 60.745 260.08 58.12V55.985H258.54V58.015C258.54 61.585 260.08 64.21 263.825 64.21C267.57 64.21 269.11 61.585 269.11 58.015V56.125C269.11 53.745 268.025 51.785 265.785 51.155C267.92 50.455 269.11 48.53 269.11 46.115V45.485C269.11 41.915 267.57 39.29 263.825 39.29ZM285.347 67.395V62.53H283.317V39.5H274.357L273.377 58.61C273.307 60.185 273.132 61.515 272.152 62.53H270.472V67.395H272.047V64H283.737V67.395H285.347ZM275.862 40.97H281.672V62.53H273.797C274.707 61.55 274.847 60.29 274.952 58.61L275.862 40.97ZM286.756 58.015C286.756 61.585 288.401 64.21 292.111 64.21C295.891 64.21 297.536 61.585 297.536 58.015V45.485C297.536 41.915 295.891 39.29 292.111 39.29C288.401 39.29 286.756 41.915 286.756 45.485V58.015ZM288.366 45.38C288.366 42.72 289.416 40.76 292.111 40.76C294.841 40.76 295.926 42.72 295.926 45.38V58.12C295.926 60.78 294.841 62.74 292.111 62.74C289.416 62.74 288.366 60.78 288.366 58.12V45.38ZM299.141 39.5V64H300.751V53.92H303.796C307.681 53.92 309.466 51.995 309.466 48.11V45.45C309.466 41.88 307.996 39.5 304.216 39.5H299.141ZM300.751 52.45V40.97H304.216C306.946 40.97 307.856 42.685 307.856 45.345V48.215C307.856 51.19 306.631 52.45 303.796 52.45H300.751ZM310.735 58.015C310.735 61.585 312.38 64.21 316.09 64.21C319.87 64.21 321.515 61.585 321.515 58.015V45.485C321.515 41.915 319.87 39.29 316.09 39.29C312.38 39.29 310.735 41.915 310.735 45.485V58.015ZM312.345 45.38C312.345 42.72 313.395 40.76 316.09 40.76C318.82 40.76 319.905 42.72 319.905 45.38V58.12C319.905 60.78 318.82 62.74 316.09 62.74C313.395 62.74 312.345 60.78 312.345 58.12V45.38ZM323.12 39.5V64H328.37C332.115 64 333.725 61.865 333.725 58.33V56.195C333.725 53.43 332.71 51.47 330.05 50.945C332.535 50.42 333.27 48.775 333.27 46.115V44.715C333.27 41.32 331.94 39.5 328.265 39.5H323.12ZM324.73 50.315V40.97H328.23C330.855 40.97 331.66 42.3 331.66 44.855V46.43C331.66 49.545 330.33 50.315 327.46 50.315H324.73ZM324.73 62.53V51.785H327.775C330.68 51.785 332.115 52.905 332.115 56.09V58.295C332.115 61.025 331.065 62.53 328.37 62.53H324.73ZM337.188 42.44V39.5H335.648V42.58H336.173L335.473 45.24H336.173L337.188 42.44ZM348.03 53.045V64H349.64V39.5H344.53C340.785 39.5 339.28 41.565 339.28 45.03V47.165C339.28 50.035 340.4 51.68 342.815 52.24C340.295 52.8 339.28 54.585 339.28 57.245V61.06C339.28 62.075 339.21 63.195 338.685 64H340.365C340.785 63.265 340.89 62.39 340.89 61.06V57.21C340.89 53.955 342.675 53.045 345.475 53.045H348.03ZM348.03 40.97V51.575H345.44C342.57 51.575 340.89 50.77 340.89 47.48V45.17C340.89 42.545 341.905 40.97 344.565 40.97H348.03Z" fill="white"/>
</svg>
