<svg preserveAspectRatio="none" width="340" height="39" viewBox="0 0 340 39" fill="none" xmlns="http://www.w3.org/2000/svg">
<path d="M2.64887 0.199999V10H3.29287V5.968H4.51087C6.06487 5.968 6.77887 5.198 6.77887 3.644V2.58C6.77887 1.152 6.19087 0.199999 4.67887 0.199999H2.64887ZM3.29287 5.38V0.787999H4.67887C5.77087 0.787999 6.13487 1.474 6.13487 2.538V3.686C6.13487 4.876 5.64487 5.38 4.51087 5.38H3.29287ZM8.39248 4.736V0.787999H11.6125V0.199999H7.74848V10H11.6125V9.412H8.39248V5.324L11.0665 5.324V4.736L8.39248 4.736ZM16.6747 10H17.3467L14.3647 4.764L17.1647 0.199999H16.4927L13.3007 5.38V0.199999H12.6567V10H13.3007V6.458L13.9727 5.394L16.6747 10ZM22.6568 0.787999V10H23.3148V0.199999L19.6608 0.199999L19.3668 7.62C19.3388 8.6 19.2688 9.426 18.1628 9.426V10.014H18.2888C19.7308 9.986 19.9548 8.936 20.0108 7.606L20.2628 0.787999H22.6568ZM28.4455 7.83L28.9355 10H29.5795L27.3955 0.186H26.4575L24.3155 10H24.9035L25.3935 7.83L28.4455 7.83ZM26.9055 0.928L28.3475 7.27L25.4915 7.27L26.9055 0.928ZM35.8872 1.292V10H36.5032V0.199999H35.5792L33.5352 8.866L31.4772 0.199999L30.5532 0.199999V10H31.1272V1.32L33.1992 9.986H33.8432L35.8872 1.292ZM41.6115 7.83L42.1015 10H42.7455L40.5615 0.186H39.6235L37.4815 10H38.0695L38.5595 7.83H41.6115ZM40.0715 0.928L41.5135 7.27H38.6575L40.0715 0.928ZM50.233 0.787999V10H50.891V0.199999H47.237L46.943 7.62C46.915 8.6 46.845 9.426 45.739 9.426V10.014H45.865C47.307 9.986 47.531 8.936 47.587 7.606L47.839 0.787999H50.233ZM52.0317 0.199999V10H52.6757V0.199999H52.0317ZM57.8134 10H58.4854L55.5034 4.764L58.3034 0.199999H57.6314L54.4394 5.38V0.199999H53.7954V10H54.4394V6.458L55.1114 5.394L57.8134 10ZM63.4455 7.83L63.9355 10H64.5795L62.3955 0.186H61.4575L59.3155 10H59.9035L60.3935 7.83H63.4455ZM61.9055 0.928L63.3475 7.27H60.4915L61.9055 0.928ZM65.5532 0.199999V10H66.1972V5.968H67.4152C68.9692 5.968 69.6832 5.198 69.6832 3.644V2.58C69.6832 1.152 69.0952 0.199999 67.5832 0.199999H65.5532ZM66.1972 5.38V0.787999H67.5832C68.6752 0.787999 69.0392 1.474 69.0392 2.538V3.686C69.0392 4.876 68.5492 5.38 67.4152 5.38H66.1972ZM72.7248 0.116C71.2268 0.116 70.6108 1.18 70.6108 2.594V7.606C70.6108 9.02 71.2268 10.084 72.7248 10.084C74.2228 10.084 74.8388 9.02 74.8388 7.606V6.486H74.2228V7.648C74.2228 8.698 73.8168 9.482 72.7388 9.482C71.6608 9.482 71.2548 8.698 71.2548 7.648V2.552C71.2548 1.502 71.6608 0.704 72.7388 0.704C73.8168 0.704 74.2228 1.502 74.2228 2.552V3.406H74.8388V2.594C74.8388 1.18 74.2228 0.116 72.7248 0.116ZM76.5331 4.232V0.199999H75.8891V10H77.9051C79.4311 10 80.0191 9.048 80.0191 7.62V6.556C80.0191 5.002 79.3051 4.232 77.7371 4.232H76.5331ZM76.5331 9.412V4.82H77.7371C78.8711 4.82 79.3751 5.324 79.3751 6.514V7.662C79.3751 8.726 78.9971 9.412 77.9051 9.412H76.5331ZM85.0887 10H85.7607L82.7787 4.764L85.5787 0.199999H84.9067L81.7147 5.38V0.199999H81.0707V10H81.7147V6.458L82.3867 5.394L85.0887 10ZM86.6889 7.606C86.6889 9.034 87.3469 10.084 88.8309 10.084C90.3429 10.084 91.0009 9.034 91.0009 7.606V2.594C91.0009 1.166 90.3429 0.116 88.8309 0.116C87.3469 0.116 86.6889 1.166 86.6889 2.594V7.606ZM87.3329 2.552C87.3329 1.488 87.7529 0.704 88.8309 0.704C89.9229 0.704 90.3569 1.488 90.3569 2.552V7.648C90.3569 8.712 89.9229 9.496 88.8309 9.496C87.7529 9.496 87.3329 8.712 87.3329 7.648V2.552ZM95.8289 0.787999V0.199999L92.0629 0.199999V10H92.7069V0.787999L95.8289 0.787999ZM96.8608 7.606C96.8608 9.034 97.5188 10.084 99.0028 10.084C100.515 10.084 101.173 9.034 101.173 7.606V2.594C101.173 1.166 100.515 0.116 99.0028 0.116C97.5188 0.116 96.8608 1.166 96.8608 2.594V7.606ZM97.5048 2.552C97.5048 1.488 97.9248 0.704 99.0028 0.704C100.095 0.704 100.529 1.488 100.529 2.552V7.648C100.529 8.712 100.095 9.496 99.0028 9.496C97.9248 9.496 97.5048 8.712 97.5048 7.648V2.552ZM106.495 0.116C104.997 0.116 104.395 1.166 104.395 2.58V3.084H104.983V2.552C104.983 1.488 105.403 0.704 106.481 0.704C107.559 0.704 107.965 1.488 107.965 2.608V2.972C107.965 3.882 107.363 4.596 106.495 4.596H105.907V5.184H106.453C107.405 5.184 107.965 5.842 107.965 6.836V7.592C107.965 8.712 107.559 9.496 106.481 9.496C105.403 9.496 104.997 8.698 104.997 7.648V6.794H104.381V7.606C104.381 9.034 104.997 10.084 106.495 10.084C107.993 10.084 108.609 9.034 108.609 7.606V6.85C108.609 5.898 108.175 5.114 107.279 4.862C108.133 4.582 108.609 3.812 108.609 2.846V2.594C108.609 1.166 107.993 0.116 106.495 0.116ZM113.69 7.83L114.18 10H114.824L112.64 0.186H111.702L109.56 10H110.148L110.638 7.83H113.69ZM112.15 0.928L113.592 7.27H110.736L112.15 0.928ZM117.869 0.116C116.371 0.116 115.755 1.18 115.755 2.594V7.606C115.755 9.02 116.371 10.084 117.869 10.084C119.367 10.084 119.983 9.02 119.983 7.606V6.486H119.367V7.648C119.367 8.698 118.961 9.482 117.883 9.482C116.805 9.482 116.399 8.698 116.399 7.648V2.552C116.399 1.502 116.805 0.704 117.883 0.704C118.961 0.704 119.367 1.502 119.367 2.552V3.406H119.983V2.594C119.983 1.18 119.367 0.116 117.869 0.116ZM120.992 7.606C120.992 9.034 121.65 10.084 123.134 10.084C124.646 10.084 125.304 9.034 125.304 7.606V2.594C125.304 1.166 124.646 0.116 123.134 0.116C121.65 0.116 120.992 1.166 120.992 2.594V7.606ZM121.636 2.552C121.636 1.488 122.056 0.704 123.134 0.704C124.226 0.704 124.66 1.488 124.66 2.552V7.648C124.66 8.712 124.226 9.496 123.134 9.496C122.056 9.496 121.636 8.712 121.636 7.648V2.552ZM127.01 4.372V0.787999H130.328V0.199999L126.366 0.199999V10H128.522C130.048 10 130.692 9.146 130.692 7.662V6.556C130.692 4.988 129.922 4.372 128.41 4.372H127.01ZM127.01 9.412V4.974H128.41C129.502 4.974 130.048 5.31 130.048 6.514V7.704C130.048 8.81 129.614 9.412 128.522 9.412H127.01ZM136.792 0.199999H136.12L135.056 3.644L134.272 6.276L133.418 3.658L132.27 0.199999H131.612L133.964 7.088L133.558 8.278C133.32 9.048 132.998 9.44 132.102 9.426V10C133.53 10.056 133.936 9.356 134.258 8.18L136.792 0.199999ZM137.741 8.768V10H138.371V8.768H137.741ZM145.36 0.787999V10H146.018V0.199999L141.664 0.199999V10H142.308V0.787999L145.36 0.787999ZM147.777 4.736V0.787999H150.997V0.199999H147.133V10H150.997V9.412H147.777V5.324H150.451V4.736H147.777ZM152.041 0.199999V10H152.685V5.968H153.903C155.457 5.968 156.171 5.198 156.171 3.644V2.58C156.171 1.152 155.583 0.199999 154.071 0.199999H152.041ZM152.685 5.38V0.787999H154.071C155.163 0.787999 155.527 1.474 155.527 2.538V3.686C155.527 4.876 155.037 5.38 153.903 5.38H152.685ZM157.785 4.736V0.787999L161.005 0.787999V0.199999L157.141 0.199999V10H161.005V9.412H157.785V5.324H160.459V4.736H157.785ZM167.873 11.358V9.412H167.061V0.199999L163.477 0.199999L163.085 7.844C163.057 8.474 162.987 9.006 162.595 9.412H161.923V11.358H162.553V10H167.229V11.358H167.873ZM164.079 0.787999H166.403V9.412H163.253C163.617 9.02 163.673 8.516 163.715 7.844L164.079 0.787999ZM173.159 0.116C171.661 0.116 171.059 1.166 171.059 2.58V3.084H171.647V2.552C171.647 1.488 172.067 0.704 173.145 0.704C174.223 0.704 174.629 1.488 174.629 2.608V2.972C174.629 3.882 174.027 4.596 173.159 4.596H172.571V5.184H173.117C174.069 5.184 174.629 5.842 174.629 6.836V7.592C174.629 8.712 174.223 9.496 173.145 9.496C172.067 9.496 171.661 8.698 171.661 7.648V6.794H171.045V7.606C171.045 9.034 171.661 10.084 173.159 10.084C174.657 10.084 175.273 9.034 175.273 7.606V6.85C175.273 5.898 174.839 5.114 173.943 4.862C174.797 4.582 175.273 3.812 175.273 2.846V2.594C175.273 1.166 174.657 0.116 173.159 0.116ZM180.354 7.83L180.844 10H181.488L179.304 0.186H178.366L176.224 10H176.812L177.302 7.83H180.354ZM178.814 0.928L180.256 7.27H177.4L178.814 0.928ZM184.533 0.116C183.035 0.116 182.419 1.18 182.419 2.594V7.606C182.419 9.02 183.035 10.084 184.533 10.084C186.031 10.084 186.647 9.02 186.647 7.606V6.486H186.031V7.648C186.031 8.698 185.625 9.482 184.547 9.482C183.469 9.482 183.063 8.698 183.063 7.648V2.552C183.063 1.502 183.469 0.704 184.547 0.704C185.625 0.704 186.031 1.502 186.031 2.552V3.406H186.647V2.594C186.647 1.18 186.031 0.116 184.533 0.116ZM190.176 10V0.787999L192.178 0.787999V0.199999L187.53 0.199999V0.787999H189.532V10H190.176ZM193.083 7.606C193.083 9.034 193.741 10.084 195.225 10.084C196.737 10.084 197.395 9.034 197.395 7.606V2.594C197.395 1.166 196.737 0.116 195.225 0.116C193.741 0.116 193.083 1.166 193.083 2.594V7.606ZM193.727 2.552C193.727 1.488 194.147 0.704 195.225 0.704C196.317 0.704 196.751 1.488 196.751 2.552V7.648C196.751 8.712 196.317 9.496 195.225 9.496C194.147 9.496 193.727 8.712 193.727 7.648V2.552ZM200.529 0.116C199.031 0.116 198.415 1.18 198.415 2.594V7.606C198.415 9.02 199.031 10.084 200.529 10.084C202.027 10.084 202.643 9.02 202.643 7.606V6.486H202.027V7.648C202.027 8.698 201.621 9.482 200.543 9.482C199.465 9.482 199.059 8.698 199.059 7.648V2.552C199.059 1.502 199.465 0.704 200.543 0.704C201.621 0.704 202.027 1.502 202.027 2.552V3.406H202.643V2.594C202.643 1.18 202.027 0.116 200.529 0.116ZM208.706 0.199999H208.034L206.97 3.644L206.186 6.276L205.332 3.658L204.184 0.199999H203.526L205.878 7.088L205.472 8.278C205.234 9.048 204.912 9.44 204.016 9.426V10C205.444 10.056 205.85 9.356 206.172 8.18L208.706 0.199999ZM209.655 0.199999V10H211.755C213.253 10 213.897 9.146 213.897 7.732V6.878C213.897 5.772 213.491 4.988 212.427 4.778C213.421 4.568 213.715 3.91 213.715 2.846V2.286C213.715 0.928 213.183 0.199999 211.713 0.199999H209.655ZM210.299 4.526V0.787999H211.699C212.749 0.787999 213.071 1.32 213.071 2.342V2.972C213.071 4.218 212.539 4.526 211.391 4.526H210.299ZM210.299 9.412V5.114H211.517C212.679 5.114 213.253 5.562 213.253 6.836V7.718C213.253 8.81 212.833 9.412 211.755 9.412H210.299ZM218.936 7.83L219.426 10H220.07L217.886 0.186H216.948L214.806 10H215.394L215.884 7.83H218.936ZM217.396 0.928L218.838 7.27H215.982L217.396 0.928ZM224.739 5.394V10H225.397V0.199999H224.739V4.806H221.687V0.199999H221.043V10H221.687V5.394H224.739ZM230.208 5.394V10H230.866V0.199999H230.208V4.806H227.156V0.199999H226.512V10H227.156V5.394H230.208ZM235.621 5.618V10H236.265V0.199999H234.221C232.723 0.199999 232.121 1.026 232.121 2.412V3.266C232.121 4.414 232.569 5.072 233.535 5.296C232.527 5.52 232.121 6.234 232.121 7.298V8.824C232.121 9.23 232.093 9.678 231.883 10H232.555C232.723 9.706 232.765 9.356 232.765 8.824V7.284C232.765 5.982 233.479 5.618 234.599 5.618L235.621 5.618ZM235.621 0.787999V5.03L234.585 5.03C233.437 5.03 232.765 4.708 232.765 3.392V2.468C232.765 1.418 233.171 0.787999 234.235 0.787999H235.621ZM242.715 1.292V10H243.331V0.199999H242.407L240.363 8.866L238.305 0.199999H237.381V10H237.955V1.32L240.027 9.986H240.671L242.715 1.292ZM250.963 0.787999V10H251.621V0.199999H247.967L247.673 7.62C247.645 8.6 247.575 9.426 246.469 9.426V10.014H246.595C248.037 9.986 248.261 8.936 248.317 7.606L248.569 0.787999H250.963ZM252.762 0.199999V10H253.406V0.199999H252.762ZM258.544 10H259.216L256.234 4.764L259.034 0.199999H258.362L255.17 5.38V0.199999L254.526 0.199999V10H255.17V6.458L255.842 5.394L258.544 10ZM264.176 7.83L264.666 10H265.31L263.126 0.186L262.188 0.186L260.046 10H260.634L261.124 7.83H264.176ZM262.636 0.928L264.078 7.27H261.222L262.636 0.928ZM266.284 0.199999V10H266.928V5.968L268.146 5.968C269.7 5.968 270.414 5.198 270.414 3.644V2.58C270.414 1.152 269.826 0.199999 268.314 0.199999H266.284ZM266.928 5.38V0.787999H268.314C269.406 0.787999 269.77 1.474 269.77 2.538V3.686C269.77 4.876 269.28 5.38 268.146 5.38L266.928 5.38ZM273.455 0.116C271.957 0.116 271.341 1.18 271.341 2.594V7.606C271.341 9.02 271.957 10.084 273.455 10.084C274.953 10.084 275.569 9.02 275.569 7.606V6.486H274.953V7.648C274.953 8.698 274.547 9.482 273.469 9.482C272.391 9.482 271.985 8.698 271.985 7.648V2.552C271.985 1.502 272.391 0.704 273.469 0.704C274.547 0.704 274.953 1.502 274.953 2.552V3.406H275.569V2.594C275.569 1.18 274.953 0.116 273.455 0.116ZM277.264 4.232V0.199999H276.62V10H278.636C280.162 10 280.75 9.048 280.75 7.62V6.556C280.75 5.002 280.036 4.232 278.468 4.232H277.264ZM277.264 9.412V4.82H278.468C279.602 4.82 280.106 5.324 280.106 6.514V7.662C280.106 8.726 279.728 9.412 278.636 9.412H277.264ZM285.819 10H286.491L283.509 4.764L286.309 0.199999H285.637L282.445 5.38V0.199999H281.801V10H282.445V6.458L283.117 5.394L285.819 10ZM287.419 7.606C287.419 9.034 288.077 10.084 289.561 10.084C291.073 10.084 291.731 9.034 291.731 7.606V2.594C291.731 1.166 291.073 0.116 289.561 0.116C288.077 0.116 287.419 1.166 287.419 2.594V7.606ZM288.063 2.552C288.063 1.488 288.483 0.704 289.561 0.704C290.653 0.704 291.087 1.488 291.087 2.552V7.648C291.087 8.712 290.653 9.496 289.561 9.496C288.483 9.496 288.063 8.712 288.063 7.648V2.552ZM296.559 0.787999V0.199999L292.793 0.199999V10H293.437V0.787999L296.559 0.787999ZM297.591 7.606C297.591 9.034 298.249 10.084 299.733 10.084C301.245 10.084 301.903 9.034 301.903 7.606V2.594C301.903 1.166 301.245 0.116 299.733 0.116C298.249 0.116 297.591 1.166 297.591 2.594V7.606ZM298.235 2.552C298.235 1.488 298.655 0.704 299.733 0.704C300.825 0.704 301.259 1.488 301.259 2.552V7.648C301.259 8.712 300.825 9.496 299.733 9.496C298.655 9.496 298.235 8.712 298.235 7.648V2.552ZM307.225 0.116C305.727 0.116 305.125 1.166 305.125 2.58V3.084H305.713V2.552C305.713 1.488 306.133 0.704 307.211 0.704C308.289 0.704 308.695 1.488 308.695 2.608V2.972C308.695 3.882 308.093 4.596 307.225 4.596H306.637V5.184H307.183C308.135 5.184 308.695 5.842 308.695 6.836V7.592C308.695 8.712 308.289 9.496 307.211 9.496C306.133 9.496 305.727 8.698 305.727 7.648V6.794H305.111V7.606C305.111 9.034 305.727 10.084 307.225 10.084C308.723 10.084 309.339 9.034 309.339 7.606V6.85C309.339 5.898 308.905 5.114 308.009 4.862C308.863 4.582 309.339 3.812 309.339 2.846V2.594C309.339 1.166 308.723 0.116 307.225 0.116ZM314.42 7.83L314.91 10H315.554L313.37 0.186H312.432L310.29 10H310.878L311.368 7.83H314.42ZM312.88 0.928L314.322 7.27H311.466L312.88 0.928ZM318.6 0.116C317.102 0.116 316.486 1.18 316.486 2.594V7.606C316.486 9.02 317.102 10.084 318.6 10.084C320.098 10.084 320.714 9.02 320.714 7.606V6.486H320.098V7.648C320.098 8.698 319.692 9.482 318.614 9.482C317.536 9.482 317.13 8.698 317.13 7.648V2.552C317.13 1.502 317.536 0.704 318.614 0.704C319.692 0.704 320.098 1.502 320.098 2.552V3.406H320.714V2.594C320.714 1.18 320.098 0.116 318.6 0.116ZM321.722 7.606C321.722 9.034 322.38 10.084 323.864 10.084C325.376 10.084 326.034 9.034 326.034 7.606V2.594C326.034 1.166 325.376 0.116 323.864 0.116C322.38 0.116 321.722 1.166 321.722 2.594V7.606ZM322.366 2.552C322.366 1.488 322.786 0.704 323.864 0.704C324.956 0.704 325.39 1.488 325.39 2.552V7.648C325.39 8.712 324.956 9.496 323.864 9.496C322.786 9.496 322.366 8.712 322.366 7.648V2.552ZM327.74 4.372V0.787999H331.058V0.199999H327.096V10H329.252C330.778 10 331.422 9.146 331.422 7.662V6.556C331.422 4.988 330.652 4.372 329.14 4.372H327.74ZM327.74 9.412V4.974H329.14C330.232 4.974 330.778 5.31 330.778 6.514V7.704C330.778 8.81 330.344 9.412 329.252 9.412H327.74ZM337.522 0.199999H336.85L335.786 3.644L335.002 6.276L334.148 3.658L333 0.199999H332.342L334.694 7.088L334.288 8.278C334.05 9.048 333.728 9.44 332.832 9.426V10C334.26 10.056 334.666 9.356 334.988 8.18L337.522 0.199999ZM0.768 21.606C0.768 23.034 1.426 24.084 2.91 24.084C4.422 24.084 5.08 23.034 5.08 21.606V16.594C5.08 15.166 4.422 14.116 2.91 14.116C1.426 14.116 0.768 15.166 0.768 16.594V21.606ZM1.412 16.552C1.412 15.488 1.832 14.704 2.91 14.704C4.002 14.704 4.436 15.488 4.436 16.552V21.648C4.436 22.712 4.002 23.496 2.91 23.496C1.832 23.496 1.412 22.712 1.412 21.648V16.552ZM6.78603 18.372V14.788H10.104V14.2H6.14203V24H8.29803C9.82403 24 10.468 23.146 10.468 21.662V20.556C10.468 18.988 9.69803 18.372 8.18603 18.372H6.78603ZM6.78603 23.412V18.974H8.18603C9.27803 18.974 9.82403 19.31 9.82403 20.514V21.704C9.82403 22.81 9.39003 23.412 8.29803 23.412H6.78603ZM11.5141 21.606C11.5141 23.034 12.1721 24.084 13.6561 24.084C15.1681 24.084 15.8261 23.034 15.8261 21.606V16.594C15.8261 15.166 15.1681 14.116 13.6561 14.116C12.1721 14.116 11.5141 15.166 11.5141 16.594V21.606ZM12.1581 16.552C12.1581 15.488 12.5781 14.704 13.6561 14.704C14.7481 14.704 15.1821 15.488 15.1821 16.552V21.648C15.1821 22.712 14.7481 23.496 13.6561 23.496C12.5781 23.496 12.1581 22.712 12.1581 21.648V16.552ZM16.8881 14.2V24H18.9881C20.4861 24 21.1301 23.146 21.1301 21.732V20.878C21.1301 19.772 20.7241 18.988 19.6601 18.778C20.6541 18.568 20.9481 17.91 20.9481 16.846V16.286C20.9481 14.928 20.4161 14.2 18.9461 14.2H16.8881ZM17.5321 18.526V14.788H18.9321C19.9821 14.788 20.3041 15.32 20.3041 16.342V16.972C20.3041 18.218 19.7721 18.526 18.6241 18.526H17.5321ZM17.5321 23.412V19.114H18.7501C19.9121 19.114 20.4861 19.562 20.4861 20.836V21.718C20.4861 22.81 20.0661 23.412 18.9881 23.412H17.5321ZM22.9351 15.376V14.2H22.3191V15.432H22.5291L22.2491 16.496H22.5291L22.9351 15.376ZM27.6922 19.618V24H28.3362V14.2L26.2922 14.2C24.7942 14.2 24.1922 15.026 24.1922 16.412V17.266C24.1922 18.414 24.6402 19.072 25.6062 19.296C24.5982 19.52 24.1922 20.234 24.1922 21.298V22.824C24.1922 23.23 24.1642 23.678 23.9542 24H24.6262C24.7942 23.706 24.8362 23.356 24.8362 22.824V21.284C24.8362 19.982 25.5502 19.618 26.6702 19.618H27.6922ZM27.6922 14.788V19.03H26.6562C25.5082 19.03 24.8362 18.708 24.8362 17.392V16.468C24.8362 15.418 25.2422 14.788 26.3062 14.788L27.6922 14.788ZM31.5386 14.116C30.0406 14.116 29.4386 15.166 29.4386 16.58V17.084H30.0266V16.552C30.0266 15.488 30.4466 14.704 31.5246 14.704C32.6026 14.704 33.0086 15.488 33.0086 16.608V16.972C33.0086 17.882 32.4066 18.596 31.5386 18.596H30.9506V19.184H31.4966C32.4486 19.184 33.0086 19.842 33.0086 20.836V21.592C33.0086 22.712 32.6026 23.496 31.5246 23.496C30.4466 23.496 30.0406 22.698 30.0406 21.648V20.794H29.4246V21.606C29.4246 23.034 30.0406 24.084 31.5386 24.084C33.0366 24.084 33.6526 23.034 33.6526 21.606V20.85C33.6526 19.898 33.2186 19.114 32.3226 18.862C33.1766 18.582 33.6526 17.812 33.6526 16.846V16.594C33.6526 15.166 33.0366 14.116 31.5386 14.116ZM38.7616 24H39.4336L36.4516 18.764L39.2516 14.2H38.5796L35.3876 19.38V14.2H34.7436V24H35.3876V20.458L36.0596 19.394L38.7616 24ZM40.3618 21.606C40.3618 23.034 41.0198 24.084 42.5038 24.084C44.0158 24.084 44.6738 23.034 44.6738 21.606V16.594C44.6738 15.166 44.0158 14.116 42.5038 14.116C41.0198 14.116 40.3618 15.166 40.3618 16.594V21.606ZM41.0058 16.552C41.0058 15.488 41.4258 14.704 42.5038 14.704C43.5958 14.704 44.0298 15.488 44.0298 16.552V21.648C44.0298 22.712 43.5958 23.496 42.5038 23.496C41.4258 23.496 41.0058 22.712 41.0058 21.648V16.552ZM45.7358 14.2V24H47.8358C49.3338 24 49.9778 23.146 49.9778 21.732V20.878C49.9778 19.772 49.5718 18.988 48.5078 18.778C49.5018 18.568 49.7958 17.91 49.7958 16.846V16.286C49.7958 14.928 49.2638 14.2 47.7938 14.2H45.7358ZM46.3798 18.526V14.788H47.7798C48.8298 14.788 49.1518 15.32 49.1518 16.342V16.972C49.1518 18.218 48.6198 18.526 47.4718 18.526H46.3798ZM46.3798 23.412V19.114H47.5978C48.7598 19.114 49.3338 19.562 49.3338 20.836V21.718C49.3338 22.81 48.9138 23.412 47.8358 23.412H46.3798ZM50.9848 21.606C50.9848 23.034 51.6428 24.084 53.1268 24.084C54.6388 24.084 55.2968 23.034 55.2968 21.606V16.594C55.2968 15.166 54.6388 14.116 53.1268 14.116C51.6428 14.116 50.9848 15.166 50.9848 16.594V21.606ZM51.6288 16.552C51.6288 15.488 52.0488 14.704 53.1268 14.704C54.2188 14.704 54.6528 15.488 54.6528 16.552V21.648C54.6528 22.712 54.2188 23.496 53.1268 23.496C52.0488 23.496 51.6288 22.712 51.6288 21.648V16.552ZM58.4907 21.606C58.4907 23.034 59.1487 24.084 60.6327 24.084C62.1447 24.084 62.8027 23.034 62.8027 21.606V16.594C62.8027 15.166 62.1447 14.116 60.6327 14.116C59.1487 14.116 58.4907 15.166 58.4907 16.594V21.606ZM59.1347 16.552C59.1347 15.488 59.5547 14.704 60.6327 14.704C61.7247 14.704 62.1587 15.488 62.1587 16.552V21.648C62.1587 22.712 61.7247 23.496 60.6327 23.496C59.5547 23.496 59.1347 22.712 59.1347 21.648V16.552ZM65.9507 14.116C64.4527 14.116 63.8507 15.166 63.8507 16.58V17.084H64.4387V16.552C64.4387 15.488 64.8587 14.704 65.9367 14.704C67.0147 14.704 67.4207 15.488 67.4207 16.608V16.972C67.4207 17.882 66.8187 18.596 65.9507 18.596H65.3627V19.184H65.9087C66.8607 19.184 67.4207 19.842 67.4207 20.836V21.592C67.4207 22.712 67.0147 23.496 65.9367 23.496C64.8587 23.496 64.4527 22.698 64.4527 21.648V20.794H63.8367V21.606C63.8367 23.034 64.4527 24.084 65.9507 24.084C67.4487 24.084 68.0647 23.034 68.0647 21.606V20.85C68.0647 19.898 67.6307 19.114 66.7347 18.862C67.5887 18.582 68.0647 17.812 68.0647 16.846V16.594C68.0647 15.166 67.4487 14.116 65.9507 14.116ZM72.8517 19.394V24H73.5097V14.2H72.8517V18.806H69.7997V14.2H69.1557V24H69.7997V19.394H72.8517ZM78.6145 21.83L79.1045 24H79.7485L77.5645 14.186H76.6265L74.4845 24H75.0725L75.5625 21.83H78.6145ZM77.0745 14.928L78.5165 21.27H75.6605L77.0745 14.928ZM83.9561 12.352C83.9281 12.898 83.4941 13.122 82.9761 13.122C82.4721 13.122 82.0381 12.898 82.0241 12.352H81.5761C81.5901 13.108 82.1781 13.542 82.9761 13.542C83.7881 13.542 84.3761 13.094 84.3901 12.352H83.9561ZM84.5021 15.334V24H85.0901V14.2H84.3201L82.5841 19.016L81.3101 22.586V14.2H80.7221V24H81.4221L83.1021 19.226L84.5021 15.334ZM86.1625 21.606C86.1625 23.034 86.8205 24.084 88.3045 24.084C89.8165 24.084 90.4745 23.034 90.4745 21.606V16.594C90.4745 15.166 89.8165 14.116 88.3045 14.116C86.8205 14.116 86.1625 15.166 86.1625 16.594V21.606ZM86.8065 16.552C86.8065 15.488 87.2265 14.704 88.3045 14.704C89.3965 14.704 89.8305 15.488 89.8305 16.552V21.648C89.8305 22.712 89.3965 23.496 88.3045 23.496C87.2265 23.496 86.8065 22.712 86.8065 21.648V16.552ZM96.8706 15.292V24H97.4866V14.2H96.5626L94.5186 22.866L92.4606 14.2H91.5366V24H92.1106V15.32L94.1826 23.986H94.8266L96.8706 15.292ZM101.083 24V14.788H103.085V14.2H98.4369V14.788H100.439V24H101.083ZM104.677 18.736V14.788H107.897V14.2H104.033V24H107.897V23.412H104.677V19.324H107.351V18.736H104.677ZM111.013 14.116C109.515 14.116 108.899 15.18 108.899 16.594V21.606C108.899 23.02 109.515 24.084 111.013 24.084C112.511 24.084 113.127 23.02 113.127 21.606V20.486H112.511V21.648C112.511 22.698 112.105 23.482 111.027 23.482C109.949 23.482 109.543 22.698 109.543 21.648V16.552C109.543 15.502 109.949 14.704 111.027 14.704C112.105 14.704 112.511 15.502 112.511 16.552V17.406H113.127V16.594C113.127 15.18 112.511 14.116 111.013 14.116ZM114.821 18.232V14.2H114.177V24H116.193C117.719 24 118.307 23.048 118.307 21.62V20.556C118.307 19.002 117.593 18.232 116.025 18.232H114.821ZM114.821 23.412V18.82H116.025C117.159 18.82 117.663 19.324 117.663 20.514V21.662C117.663 22.726 117.285 23.412 116.193 23.412H114.821ZM123.619 14.116C122.121 14.116 121.519 15.166 121.519 16.58V17.084H122.107V16.552C122.107 15.488 122.527 14.704 123.605 14.704C124.683 14.704 125.089 15.488 125.089 16.608V16.972C125.089 17.882 124.487 18.596 123.619 18.596H123.031V19.184H123.577C124.529 19.184 125.089 19.842 125.089 20.836V21.592C125.089 22.712 124.683 23.496 123.605 23.496C122.527 23.496 122.121 22.698 122.121 21.648V20.794H121.505V21.606C121.505 23.034 122.121 24.084 123.619 24.084C125.117 24.084 125.733 23.034 125.733 21.606V20.85C125.733 19.898 125.299 19.114 124.403 18.862C125.257 18.582 125.733 17.812 125.733 16.846V16.594C125.733 15.166 125.117 14.116 123.619 14.116ZM128.998 14.2V24H129.642V14.2H128.998ZM134.457 19.394V24H135.115V14.2H134.457V18.806H131.405V14.2H130.761V24H131.405V19.394H134.457ZM138.302 14.116C136.804 14.116 136.188 15.18 136.188 16.594V21.606C136.188 23.02 136.804 24.084 138.302 24.084C139.8 24.084 140.416 23.02 140.416 21.606V20.486H139.8V21.648C139.8 22.698 139.394 23.482 138.316 23.482C137.238 23.482 136.832 22.698 136.832 21.648V16.552C136.832 15.502 137.238 14.704 138.316 14.704C139.394 14.704 139.8 15.502 139.8 16.552V17.406H140.416V16.594C140.416 15.18 139.8 14.116 138.302 14.116ZM143.944 24V14.788H145.946V14.2H141.298V14.788H143.3V24H143.944ZM146.894 14.2V24H147.538V19.968H148.756C150.31 19.968 151.024 19.198 151.024 17.644V16.58C151.024 15.152 150.436 14.2 148.924 14.2H146.894ZM147.538 19.38V14.788H148.924C150.016 14.788 150.38 15.474 150.38 16.538V17.686C150.38 18.876 149.89 19.38 148.756 19.38H147.538ZM157.006 14.2H156.334L155.27 17.644L154.486 20.276L153.632 17.658L152.484 14.2H151.826L154.178 21.088L153.772 22.278C153.534 23.048 153.212 23.44 152.316 23.426V24C153.744 24.056 154.15 23.356 154.472 22.18L157.006 14.2ZM161.973 24H162.645L159.663 18.764L162.463 14.2H161.791L158.599 19.38V14.2H157.955V24H158.599V20.458L159.271 19.394L161.973 24ZM168.949 25.316V23.412H168.137V14.2H167.479V23.412H164.427V14.2H163.797V24H168.319V25.316H168.949ZM169.986 14.2V24H170.63V14.2H169.986ZM173.793 14.116C172.295 14.116 171.693 15.18 171.693 16.594V17.21H172.295V16.552C172.295 15.502 172.701 14.704 173.765 14.704C174.857 14.704 175.263 15.502 175.263 16.552V18.638H173.261V19.226H175.263V21.648C175.263 22.698 174.857 23.482 173.765 23.482C172.701 23.482 172.295 22.698 172.295 21.648V20.654H171.679V21.606C171.679 23.02 172.295 24.084 173.793 24.084C175.277 24.084 175.907 23.02 175.907 21.606V16.594C175.907 15.18 175.277 14.116 173.793 14.116ZM181.48 14.116C179.968 14.116 179.324 15.166 179.324 16.594V18.806H177.63V14.2H176.986V24H177.63V19.394H179.324V21.606C179.324 23.034 179.968 24.084 181.48 24.084C182.978 24.084 183.636 23.034 183.636 21.606V16.594C183.636 15.166 182.978 14.116 181.48 14.116ZM181.48 14.704C182.558 14.704 182.992 15.488 182.992 16.552V21.648C182.992 22.712 182.558 23.496 181.48 23.496C180.388 23.496 179.968 22.712 179.968 21.648V16.552C179.968 15.488 180.388 14.704 181.48 14.704ZM192.708 25.358V23.412H191.896V14.2H188.312L187.92 21.844C187.892 22.474 187.822 23.006 187.43 23.412L186.758 23.412V25.358L187.388 25.358V24H192.064V25.358H192.708ZM188.914 14.788H191.238V23.412H188.088C188.452 23.02 188.508 22.516 188.55 21.844L188.914 14.788ZM198.074 14.788V24H198.732V14.2H195.078L194.784 21.62C194.756 22.6 194.686 23.426 193.58 23.426V24.014H193.706C195.148 23.986 195.372 22.936 195.428 21.606L195.68 14.788H198.074ZM203.513 19.618V24H204.157V14.2H202.113C200.615 14.2 200.013 15.026 200.013 16.412V17.266C200.013 18.414 200.461 19.072 201.427 19.296C200.419 19.52 200.013 20.234 200.013 21.298V22.824C200.013 23.23 199.985 23.678 199.774 24H200.447C200.615 23.706 200.657 23.356 200.657 22.824V21.284C200.657 19.982 201.37 19.618 202.491 19.618H203.513ZM203.513 14.788V19.03H202.477C201.329 19.03 200.657 18.708 200.657 17.392V16.468C200.657 15.418 201.062 14.788 202.127 14.788H203.513ZM212.781 15.292V24H213.397V14.2H212.473L210.429 22.866L208.371 14.2H207.447V24H208.021V15.32L210.093 23.986H210.737L212.781 15.292ZM215.159 18.736V14.788H218.379V14.2H214.515V24H218.379V23.412H215.159V19.324H217.833V18.736H215.159ZM225.247 25.358V23.412H224.435V14.2H220.851L220.459 21.844C220.431 22.474 220.361 23.006 219.969 23.412H219.297V25.358H219.927V24H224.603V25.358H225.247ZM221.453 14.788H223.777V23.412H220.627C220.991 23.02 221.047 22.516 221.089 21.844L221.453 14.788ZM230.053 15.334V24H230.641V14.2H229.871L228.289 18.582L226.861 22.586V14.2H226.273V24H226.973L228.583 19.394L230.053 15.334ZM235.396 24H236.04V14.2H235.396V18.4C235.186 19.226 234.668 19.674 233.856 19.674C232.806 19.674 232.344 18.834 232.344 17.826V14.2H231.7V17.868C231.7 19.184 232.288 20.262 233.674 20.262C234.43 20.262 235.032 19.926 235.396 19.296V24ZM240.852 19.394V24H241.51V14.2H240.852V18.806H237.8V14.2H237.156V24H237.8V19.394H240.852ZM242.582 21.606C242.582 23.034 243.24 24.084 244.724 24.084C246.236 24.084 246.894 23.034 246.894 21.606V16.594C246.894 15.166 246.236 14.116 244.724 14.116C243.24 14.116 242.582 15.166 242.582 16.594V21.606ZM243.226 16.552C243.226 15.488 243.646 14.704 244.724 14.704C245.816 14.704 246.25 15.488 246.25 16.552V21.648C246.25 22.712 245.816 23.496 244.724 23.496C243.646 23.496 243.226 22.712 243.226 21.648V16.552ZM251.722 14.788V14.2H247.956V24H248.6V14.788H251.722ZM252.754 21.606C252.754 23.034 253.412 24.084 254.896 24.084C256.408 24.084 257.066 23.034 257.066 21.606V16.594C257.066 15.166 256.408 14.116 254.896 14.116C253.412 14.116 252.754 15.166 252.754 16.594V21.606ZM253.398 16.552C253.398 15.488 253.818 14.704 254.896 14.704C255.988 14.704 256.422 15.488 256.422 16.552V21.648C256.422 22.712 255.988 23.496 254.896 23.496C253.818 23.496 253.398 22.712 253.398 21.648V16.552ZM262.388 14.116C260.89 14.116 260.288 15.166 260.288 16.58V17.084H260.876V16.552C260.876 15.488 261.296 14.704 262.374 14.704C263.452 14.704 263.858 15.488 263.858 16.608V16.972C263.858 17.882 263.256 18.596 262.388 18.596H261.8V19.184H262.346C263.298 19.184 263.858 19.842 263.858 20.836V21.592C263.858 22.712 263.452 23.496 262.374 23.496C261.296 23.496 260.89 22.698 260.89 21.648V20.794H260.274V21.606C260.274 23.034 260.89 24.084 262.388 24.084C263.886 24.084 264.502 23.034 264.502 21.606V20.85C264.502 19.898 264.068 19.114 263.172 18.862C264.026 18.582 264.502 17.812 264.502 16.846V16.594C264.502 15.166 263.886 14.116 262.388 14.116ZM269.583 21.83L270.073 24H270.717L268.533 14.186H267.595L265.453 24H266.041L266.531 21.83H269.583ZM268.043 14.928L269.485 21.27H266.629L268.043 14.928ZM273.763 14.116C272.265 14.116 271.649 15.18 271.649 16.594V21.606C271.649 23.02 272.265 24.084 273.763 24.084C275.261 24.084 275.877 23.02 275.877 21.606V20.486H275.261V21.648C275.261 22.698 274.855 23.482 273.777 23.482C272.699 23.482 272.293 22.698 272.293 21.648V16.552C272.293 15.502 272.699 14.704 273.777 14.704C274.855 14.704 275.261 15.502 275.261 16.552V17.406H275.877V16.594C275.877 15.18 275.261 14.116 273.763 14.116ZM279.405 24V14.788H281.407V14.2H276.759V14.788H278.761V24H279.405ZM282.313 21.606C282.313 23.034 282.971 24.084 284.455 24.084C285.967 24.084 286.625 23.034 286.625 21.606V16.594C286.625 15.166 285.967 14.116 284.455 14.116C282.971 14.116 282.313 15.166 282.313 16.594V21.606ZM282.957 16.552C282.957 15.488 283.377 14.704 284.455 14.704C285.547 14.704 285.981 15.488 285.981 16.552V21.648C285.981 22.712 285.547 23.496 284.455 23.496C283.377 23.496 282.957 22.712 282.957 21.648V16.552ZM289.759 14.116C288.261 14.116 287.645 15.18 287.645 16.594V21.606C287.645 23.02 288.261 24.084 289.759 24.084C291.257 24.084 291.873 23.02 291.873 21.606V20.486H291.257V21.648C291.257 22.698 290.851 23.482 289.773 23.482C288.695 23.482 288.289 22.698 288.289 21.648V16.552C288.289 15.502 288.695 14.704 289.773 14.704C290.851 14.704 291.257 15.502 291.257 16.552V17.406H291.873V16.594C291.873 15.18 291.257 14.116 289.759 14.116ZM297.935 14.2H297.263L296.199 17.644L295.415 20.276L294.561 17.658L293.413 14.2H292.755L295.107 21.088L294.701 22.278C294.463 23.048 294.141 23.44 293.245 23.426V24C294.673 24.056 295.079 23.356 295.401 22.18L297.935 14.2ZM298.884 14.2V24H300.984C302.482 24 303.126 23.146 303.126 21.732V20.878C303.126 19.772 302.72 18.988 301.656 18.778C302.65 18.568 302.944 17.91 302.944 16.846V16.286C302.944 14.928 302.412 14.2 300.942 14.2H298.884ZM299.528 18.526V14.788H300.928C301.978 14.788 302.3 15.32 302.3 16.342V16.972C302.3 18.218 301.768 18.526 300.62 18.526H299.528ZM299.528 23.412V19.114H300.746C301.908 19.114 302.482 19.562 302.482 20.836V21.718C302.482 22.81 302.062 23.412 300.984 23.412H299.528ZM308.165 21.83L308.655 24H309.299L307.115 14.186H306.177L304.035 24H304.623L305.113 21.83H308.165ZM306.625 14.928L308.067 21.27H305.211L306.625 14.928ZM313.969 19.394V24H314.627V14.2H313.969V18.806H310.917V14.2H310.273V24H310.917V19.394H313.969ZM319.438 19.394V24H320.096V14.2H319.438V18.806H316.386V14.2H315.742V24H316.386V19.394H319.438ZM324.85 19.618V24H325.494V14.2H323.45C321.952 14.2 321.35 15.026 321.35 16.412V17.266C321.35 18.414 321.798 19.072 322.764 19.296C321.756 19.52 321.35 20.234 321.35 21.298V22.824C321.35 23.23 321.322 23.678 321.112 24H321.784C321.952 23.706 321.994 23.356 321.994 22.824V21.284C321.994 19.982 322.708 19.618 323.828 19.618H324.85ZM324.85 14.788V19.03H323.814C322.666 19.03 321.994 18.708 321.994 17.392V16.468C321.994 15.418 322.4 14.788 323.464 14.788H324.85ZM331.263 24V14.788H333.265V14.2H328.617V14.788H330.619V24H331.263ZM338.202 21.83L338.692 24H339.336L337.152 14.186H336.214L334.072 24H334.66L335.15 21.83H338.202ZM336.662 14.928L338.104 21.27H335.248L336.662 14.928ZM104.817 28.788V38H105.475V28.2H101.121V38H101.765V28.788H104.817ZM106.589 28.2V38H107.233V33.968H108.451C110.005 33.968 110.719 33.198 110.719 31.644V30.58C110.719 29.152 110.131 28.2 108.619 28.2H106.589ZM107.233 33.38V28.788H108.619C109.711 28.788 110.075 29.474 110.075 30.538V31.686C110.075 32.876 109.585 33.38 108.451 33.38H107.233ZM111.647 35.606C111.647 37.034 112.305 38.084 113.789 38.084C115.301 38.084 115.959 37.034 115.959 35.606V30.594C115.959 29.166 115.301 28.116 113.789 28.116C112.305 28.116 111.647 29.166 111.647 30.594V35.606ZM112.291 30.552C112.291 29.488 112.711 28.704 113.789 28.704C114.881 28.704 115.315 29.488 115.315 30.552V35.648C115.315 36.712 114.881 37.496 113.789 37.496C112.711 37.496 112.291 36.712 112.291 35.648V30.552ZM121.039 38H121.711L118.729 32.764L121.529 28.2H120.857L117.665 33.38V28.2H117.021V38H117.665V34.458L118.337 33.394L121.039 38ZM122.639 35.606C122.639 37.034 123.297 38.084 124.781 38.084C126.293 38.084 126.951 37.034 126.951 35.606V30.594C126.951 29.166 126.293 28.116 124.781 28.116C123.297 28.116 122.639 29.166 122.639 30.594V35.606ZM123.283 30.552C123.283 29.488 123.703 28.704 124.781 28.704C125.873 28.704 126.307 29.488 126.307 30.552V35.648C126.307 36.712 125.873 37.496 124.781 37.496C123.703 37.496 123.283 36.712 123.283 35.648V30.552ZM131.709 33.394V38H132.367V28.2H131.709V32.806H128.657V28.2H128.013V38H128.657V33.394H131.709ZM135.554 28.116C134.056 28.116 133.44 29.18 133.44 30.594V35.606C133.44 37.02 134.056 38.084 135.554 38.084C137.052 38.084 137.668 37.02 137.668 35.606V34.486H137.052V35.648C137.052 36.698 136.646 37.482 135.568 37.482C134.49 37.482 134.084 36.698 134.084 35.648V30.552C134.084 29.502 134.49 28.704 135.568 28.704C136.646 28.704 137.052 29.502 137.052 30.552V31.406H137.668V30.594C137.668 29.18 137.052 28.116 135.554 28.116ZM143.73 28.2H143.058L141.994 31.644L141.21 34.276L140.356 31.658L139.208 28.2H138.55L140.902 35.088L140.496 36.278C140.258 37.048 139.936 37.44 139.04 37.426V38C140.468 38.056 140.874 37.356 141.196 36.18L143.73 28.2ZM149.019 28.788V38H149.677V28.2H146.023L145.729 35.62C145.701 36.6 145.631 37.426 144.525 37.426V38.014H144.651C146.093 37.986 146.317 36.936 146.373 35.606L146.625 28.788H149.019ZM151.462 32.232V28.2H150.818V38H152.834C154.36 38 154.948 37.048 154.948 35.62V34.556C154.948 33.002 154.234 32.232 152.666 32.232H151.462ZM151.462 37.412V32.82H152.666C153.8 32.82 154.304 33.324 154.304 34.514V35.662C154.304 36.726 153.926 37.412 152.834 37.412H151.462ZM158.477 38V28.788H160.479V28.2H155.831V28.788H157.833V38H158.477ZM166.439 28.2H165.767L164.703 31.644L163.919 34.276L163.065 31.658L161.917 28.2H161.259L163.611 35.088L163.205 36.278C162.967 37.048 162.645 37.44 161.749 37.426V38C163.177 38.056 163.583 37.356 163.905 36.18L166.439 28.2ZM170.622 26.352C170.594 26.898 170.16 27.122 169.642 27.122C169.138 27.122 168.704 26.898 168.69 26.352H168.242C168.256 27.108 168.844 27.542 169.642 27.542C170.454 27.542 171.042 27.094 171.056 26.352H170.622ZM171.168 29.334V38H171.756V28.2H170.986L169.25 33.016L167.976 36.586V28.2H167.388V38H168.088L169.768 33.226L171.168 29.334ZM175.349 38V28.788H177.351V28.2H172.703V28.788H174.705V38H175.349ZM178.942 32.736V28.788H182.162V28.2H178.298V38H182.162V37.412H178.942V33.324H181.616V32.736H178.942ZM185.278 28.116C183.78 28.116 183.164 29.18 183.164 30.594V35.606C183.164 37.02 183.78 38.084 185.278 38.084C186.776 38.084 187.392 37.02 187.392 35.606V34.486H186.776V35.648C186.776 36.698 186.37 37.482 185.292 37.482C184.214 37.482 183.808 36.698 183.808 35.648V30.552C183.808 29.502 184.214 28.704 185.292 28.704C186.37 28.704 186.776 29.502 186.776 30.552V31.406H187.392V30.594C187.392 29.18 186.776 28.116 185.278 28.116ZM189.087 32.232V28.2H188.443V38H190.459C191.985 38 192.573 37.048 192.573 35.62V34.556C192.573 33.002 191.859 32.232 190.291 32.232H189.087ZM189.087 37.412V32.82H190.291C191.425 32.82 191.929 33.324 191.929 34.514V35.662C191.929 36.726 191.551 37.412 190.459 37.412H189.087ZM197.884 28.116C196.386 28.116 195.784 29.166 195.784 30.58V31.084H196.372V30.552C196.372 29.488 196.792 28.704 197.87 28.704C198.948 28.704 199.354 29.488 199.354 30.608V30.972C199.354 31.882 198.752 32.596 197.884 32.596H197.296V33.184H197.842C198.794 33.184 199.354 33.842 199.354 34.836V35.592C199.354 36.712 198.948 37.496 197.87 37.496C196.792 37.496 196.386 36.698 196.386 35.648V34.794H195.77V35.606C195.77 37.034 196.386 38.084 197.884 38.084C199.382 38.084 199.998 37.034 199.998 35.606V34.85C199.998 33.898 199.564 33.114 198.668 32.862C199.522 32.582 199.998 31.812 199.998 30.846V30.594C199.998 29.166 199.382 28.116 197.884 28.116ZM207.603 28.788V38H208.261V28.2H204.607L204.313 35.62C204.285 36.6 204.215 37.426 203.109 37.426V38.014H203.235C204.677 37.986 204.901 36.936 204.957 35.606L205.209 28.788H207.603ZM209.402 28.2V38H210.046V28.2H209.402ZM215.183 38H215.855L212.873 32.764L215.673 28.2H215.001L211.809 33.38V28.2H211.165V38H211.809V34.458L212.481 33.394L215.183 38ZM220.816 35.83L221.306 38H221.95L219.766 28.186H218.828L216.686 38H217.274L217.764 35.83H220.816ZM219.276 28.928L220.718 35.27H217.862L219.276 28.928ZM222.923 28.2V38H223.567V33.968H224.785C226.339 33.968 227.053 33.198 227.053 31.644V30.58C227.053 29.152 226.465 28.2 224.953 28.2H222.923ZM223.567 33.38V28.788H224.953C226.045 28.788 226.409 29.474 226.409 30.538V31.686C226.409 32.876 225.919 33.38 224.785 33.38H223.567ZM228.667 32.736V28.788H231.887V28.2H228.023V38H231.887V37.412H228.667V33.324H231.341V32.736H228.667ZM238.265 29.292V38H238.881V28.2H237.957L235.913 36.866L233.855 28.2H232.931V38H233.505V29.32L235.577 37.986H236.221L238.265 29.292Z" fill="white"/>
</svg>
