<svg width="64" height="75" viewBox="0 0 64 75" fill="none" xmlns="http://www.w3.org/2000/svg">
<g opacity="1">
<path d="M55.578 8.85881C55.6086 11.2396 54.7501 13.2236 53.493 15.0549C52.5118 16.459 51.2853 17.6188 49.7829 18.4735C49.1696 18.8092 48.5564 19.145 47.8818 19.2671C47.3912 19.3586 46.9926 19.1144 46.87 18.6871C46.7473 18.2598 46.9619 17.802 47.4219 17.6494C50.0282 16.7642 51.7452 14.9328 52.9717 12.5826C53.9222 10.7817 54.0755 8.85881 53.6156 6.87484C53.3397 5.62341 52.8491 4.46355 52.1745 3.39525C51.8985 2.93741 52.0212 2.44905 52.4811 2.17434C52.8491 1.96068 53.3397 2.08278 53.6156 2.47957C54.5048 3.82257 55.0567 5.31818 55.3633 6.87484C55.486 7.57686 55.6086 8.27888 55.578 8.85881Z" fill="black"/>
<path d="M20.0412 17.1328C22.3716 17.1938 24.6405 16.797 26.7869 15.9119C28.7186 15.1183 30.4663 13.989 31.9994 12.5239C32.3981 12.1271 32.7047 12.0966 33.0726 12.2492C33.6245 12.4628 33.7165 13.2259 33.3179 13.6227C32.5207 14.4163 31.6622 15.0878 30.7423 15.6982C29.5771 16.4918 28.3507 17.1328 27.0322 17.6517C25.7137 18.14 24.3339 18.5063 22.9541 18.6895C21.4824 18.8726 19.9799 18.9336 18.4775 18.8115C18.0175 18.781 17.6803 18.4453 17.7109 17.9874C17.7109 17.5296 18.0482 17.1633 18.5081 17.1633C18.9987 17.1328 19.52 17.1328 20.0412 17.1328Z" fill="black"/>
<path d="M10.1367 25.4961C10.1673 25.7708 10.1673 26.0455 10.106 26.3508C10.0447 26.7781 9.64607 27.1444 9.24746 27.1138C8.81819 27.0833 8.45025 26.717 8.41959 26.2897C8.41959 25.7403 8.41959 25.2214 8.3276 24.672C8.23562 24.1837 8.11297 23.7563 7.83701 23.3596C7.53039 22.9017 6.85582 22.7186 6.21192 22.9017C5.53736 23.0849 5.23073 23.4816 5.20007 24.1837C5.20007 24.611 5.23073 25.0383 5.35338 25.4351C5.47603 25.9235 5.20007 26.3813 4.80147 26.4729C4.18823 26.595 3.78962 26.2897 3.66697 25.7403C3.54432 25.1299 3.45234 24.4889 3.51366 23.8479C3.66697 22.3828 4.61749 21.3451 6.18126 21.1619C7.46906 21.0093 8.54224 21.3756 9.27813 22.4744C9.73806 23.1459 9.92203 23.909 10.0447 24.672C10.106 24.9773 10.106 25.2214 10.1367 25.4961Z" fill="black"/>
<path d="M37.2122 6.05232C37.8561 5.99127 38.224 6.69329 38.04 7.15113C37.8254 7.70054 37.5494 8.21943 37.2428 8.73832C36.9975 9.10459 36.4456 9.16563 36.0777 8.92145C35.7404 8.70779 35.6177 8.18891 35.8324 7.82263C36.047 7.42584 36.2616 7.02904 36.4456 6.60173C36.5683 6.23545 36.8135 5.99127 37.2122 6.05232Z" fill="black"/>
<path d="M15.0429 13.6521C14.7977 13.6215 14.4604 13.6521 14.1537 13.591C13.6938 13.4994 13.4179 13.1026 13.4792 12.6143C13.5405 12.187 13.8778 11.8817 14.3377 11.9123C14.8896 11.9428 15.4109 11.9428 15.9628 11.9733C16.3308 11.9733 16.6987 12.4006 16.6987 12.7974C16.6987 13.2247 16.3921 13.591 15.9321 13.6215C15.6869 13.6826 15.3802 13.6521 15.0429 13.6521Z" fill="black"/>
<path d="M18.9371 11.7578C19.397 11.7578 19.7956 12.1546 19.7956 12.6124C19.7956 13.0703 19.397 13.4671 18.9064 13.4366C18.4158 13.4366 18.0479 13.0398 18.0479 12.5819C18.0479 12.1241 18.4465 11.7578 18.9371 11.7578Z" fill="black"/>
<path d="M34.8199 11.5772C34.3293 11.5772 33.9613 11.2109 33.9307 10.7531C33.9307 10.2952 34.3293 9.89844 34.7892 9.89844C35.2491 9.89844 35.6784 10.2952 35.6784 10.7226C35.6784 11.1804 35.2798 11.5772 34.8199 11.5772Z" fill="black"/>
<path d="M50.5805 7.15037C50.2432 6.7841 49.7526 6.75357 49.354 7.08932C48.5262 7.79135 47.7596 8.58494 47.0544 9.40905C46.2265 10.3858 45.4599 11.393 45 12.5834C44.2335 14.6284 42.7924 16.0935 40.9833 17.2839C40.0634 17.8944 38.7143 18.6879 37.0279 19.4815C35.2188 20.3362 33.7777 20.794 32.0606 21.3434C30.4662 21.8623 28.8718 22.2896 27.2467 22.6864C26.3268 22.9001 25.407 23.1137 24.4871 23.2053C22.5861 23.419 20.7157 23.5105 18.8146 23.5411C17.1895 23.5411 15.5644 23.48 13.9394 23.2969C13.7247 23.2664 13.6327 23.2053 13.5714 22.9916C13.4181 22.3201 13.2341 21.6792 12.9582 21.0687C12.3756 19.8478 11.5784 18.8406 10.3826 18.1385C9.43203 17.5891 8.42018 17.2839 7.34701 17.1923C5.07802 17.0092 3.11564 17.5891 1.67453 19.451C0.754665 20.6414 0.325396 21.9844 0.110762 23.4495C-0.134535 25.0977 0.0494377 26.7154 0.448044 28.3331C0.601355 29.0046 0.754665 29.6761 0.846651 30.3781C0.938637 31.3549 0.969299 32.3316 1.15327 33.2778C1.33724 34.163 1.6132 35.0176 2.25711 35.7196C2.96233 36.4827 3.91286 36.8184 4.92471 36.91C5.84457 37.0016 6.7031 36.8795 7.53098 36.4216C8.57349 35.8417 9.30938 34.9565 10.0759 34.1019C10.4132 33.7662 10.3212 33.1862 9.98394 32.9115C9.616 32.6063 9.12541 32.6673 8.75746 33.0336C8.32819 33.4609 7.89892 33.9188 7.46966 34.3461C6.73377 35.0786 5.84457 35.4144 4.80206 35.2007C3.8822 34.9871 3.29962 34.5292 3.02366 33.6135C2.7477 32.6673 2.71704 31.6601 2.62505 30.6834C2.53306 30.1034 2.37975 29.2183 2.16512 28.15C1.95049 26.9596 1.95049 26.9901 1.91982 26.7765C1.76651 25.9829 1.58254 24.3652 2.04247 22.6254C2.34909 21.4655 2.87035 20.4277 3.8822 19.6952C4.98603 18.9016 6.21251 18.749 7.53098 18.9321C8.60415 19.0847 9.58534 19.4815 10.3826 20.2446C11.3637 21.2213 11.7623 22.4117 12.0076 23.7242C12.1916 24.7314 12.0996 25.7387 12.0996 26.7459C12.0996 27.2954 12.3756 27.6616 12.8968 27.6921C13.3874 27.7227 13.7247 27.3869 13.786 26.868C13.8474 26.3491 13.878 25.8608 13.878 25.3419C13.878 25.0977 13.9087 25.0061 14.1846 25.0367C14.6139 25.0977 15.0738 25.1588 15.5031 25.1588C17.8334 25.2198 20.1331 25.2503 22.4634 25.0977C24.7017 24.9451 26.9094 24.5788 29.0864 23.9684C30.5889 23.5716 32.0606 23.1443 33.5324 22.6559C35.0042 22.1675 36.4453 21.6181 37.8251 20.9771C38.9596 20.4583 40.0634 19.9394 41.1059 19.2679C41.8112 18.81 42.5164 18.3217 43.2829 17.7723C43.099 18.4743 42.915 19.0847 42.7617 19.7257C42.6084 20.3667 42.3937 21.0077 42.3631 21.6792C42.2711 23.1137 42.3937 24.5483 42.7004 25.9829C43.007 27.448 43.3443 28.9131 43.8042 30.3476C44.1108 31.3854 44.4481 32.3926 44.7854 33.3999C45.2453 34.7734 45.7359 36.1164 46.2878 37.4594C46.5944 38.2225 46.8704 38.9855 46.8091 39.8097C46.7784 40.5117 46.4105 40.939 45.7666 41.1832C45.0613 41.4579 44.3255 41.5189 43.5589 41.4884C42.3937 41.4274 41.2899 41.641 40.2781 42.2515C39.0516 43.0145 38.4383 44.2965 39.2355 45.7005C39.5728 46.2499 39.7875 46.8299 39.6955 47.4709C39.6035 47.9897 39.3889 48.5391 38.6836 48.4171C38.5916 48.3865 38.469 48.4171 38.3464 48.4171C36.7519 48.356 35.1268 48.2644 33.5324 48.2339C33.0418 48.2034 32.7965 48.3865 32.6125 48.8139C32.4286 49.0275 32.4286 49.2106 32.6125 49.4243C32.6125 49.5159 32.6739 49.5769 32.7352 49.638C33.747 50.8284 34.7589 51.9882 35.7707 53.1786C35.8321 53.2396 35.924 53.3007 35.924 53.4228C36.016 54.1248 35.8321 54.7658 35.3721 55.3152C35.1268 55.5899 34.7896 55.6204 34.4829 55.6509C33.9923 55.6815 33.5324 55.6509 33.0725 55.8341C32.4286 56.0783 32.2139 56.6582 31.9686 57.2381C31.3861 58.6116 30.8035 59.9546 29.9756 61.2061C29.3624 62.1523 28.5345 62.7932 27.4307 63.0069C25.5296 63.3732 23.8125 62.8848 22.2794 61.786C21.2982 61.084 20.4704 60.1683 19.5812 59.3747C19.4892 59.3137 19.3052 59.161 19.0599 58.9474C18.3853 58.3675 17.9561 57.9096 17.8028 57.757C16.4843 56.4445 15.8404 55.9867 14.2766 54.5826C13.3568 53.7585 12.4369 52.9344 11.517 52.1103C10.9958 51.6525 10.4745 51.7746 10.1679 52.1103C9.83063 52.4766 9.95328 52.9955 10.3826 53.3923C11.0878 54.0332 11.793 54.6742 12.4982 55.3152C13.8167 56.5056 15.1352 57.696 16.4843 58.8558C17.6495 60.0157 18.1707 60.4735 18.3853 60.6261C18.6 60.7788 18.7533 61.0229 18.9679 61.1755C19.1826 61.3282 19.1519 61.4808 19.0293 61.6639C18.2014 62.9459 17.5881 64.3194 17.1282 65.7845C16.5456 67.6158 16.331 69.4777 16.3617 71.4007C16.3923 72.1942 16.423 72.9878 16.5763 73.7509C16.6683 74.2087 17.0975 74.4529 17.4961 74.3919C17.9561 74.3308 18.2627 73.9646 18.232 73.4762C18.232 73.171 18.1707 72.8963 18.1401 72.591C17.9867 71.248 18.0174 69.905 18.232 68.5926C18.416 67.3411 18.7533 66.1507 19.2132 64.9909C19.5198 64.2583 19.8878 63.5563 20.2864 62.8543C20.3477 62.7627 20.3784 62.4575 20.6543 62.6712C21.7888 63.6174 23.046 64.3194 24.4871 64.6246C25.8056 64.8993 27.124 64.8993 28.4118 64.5025C29.7916 64.1057 30.7728 63.19 31.5087 62.0302C32.3366 60.7482 32.9498 59.3442 33.5324 57.9401C33.6857 57.5739 33.839 57.3602 34.299 57.3602C35.0348 57.3602 35.7707 57.2686 36.384 56.7498C37.1505 56.0783 37.5491 55.1931 37.7024 54.1858C37.7944 53.5143 37.7024 52.8428 37.2732 52.2934C36.9666 51.8966 36.5986 51.5304 36.2613 51.1336C35.9854 50.7978 35.6174 50.5231 35.4028 50.0653C36.5986 50.1263 37.7638 50.1569 38.9289 50.1874C39.3582 50.2179 39.7568 50.1263 40.1248 49.8821C41.0446 49.3327 41.3512 48.4171 41.4432 47.4403C41.5352 46.5247 41.2286 45.7311 40.738 44.968C40.5234 44.6628 40.4927 44.3575 40.7993 44.0828C41.3512 43.5945 41.9645 43.2892 42.7004 43.2587C43.7429 43.1977 44.7854 43.2587 45.8279 42.984C47.6983 42.4957 48.8021 40.8169 48.4648 38.894C48.2809 37.9478 47.9436 37.0931 47.6063 36.208C46.6864 33.8577 45.8586 31.477 45.184 29.0351C44.6627 27.1733 44.2028 25.2809 44.0495 23.3274C43.9882 22.5949 43.9882 21.8318 44.1721 21.0992C44.6627 18.9932 45.3373 16.9482 46.0119 14.8726C46.5025 13.377 47.1464 12.0035 48.1275 10.7826C48.8634 9.86689 49.6913 9.0733 50.5499 8.27971C50.8565 8.005 50.8565 7.48612 50.5805 7.15037Z" fill="black"/>
<path d="M23.6285 10.1731C25.7748 9.28795 27.6759 7.97548 29.2703 6.26621C30.7114 4.74007 31.8153 3.00028 32.5818 1.04682C32.7964 0.527936 33.0417 0.375323 33.4404 0.3448C34.0229 0.314277 34.4522 0.955254 34.2376 1.47414C33.839 2.51191 33.3484 3.48864 32.7658 4.43484C32.0299 5.62523 31.1714 6.75457 30.1902 7.7313C29.209 8.73854 28.1052 9.6237 26.9093 10.3562C25.6522 11.1498 24.3031 11.8213 22.8926 12.3097C22.4633 12.4623 22.0341 12.2792 21.8194 11.8824C21.6355 11.4856 21.7888 10.9972 22.1874 10.7836C22.7086 10.6004 23.1686 10.3868 23.6285 10.1731Z" fill="black"/>
<path d="M58.723 49.2741C60.8915 49.2363 62.6657 50.8625 62.7445 52.9427C62.7839 55.0228 61.0886 56.7247 58.9202 56.8003C56.7517 56.8382 48.9453 53.283 48.9453 53.283C48.9453 53.283 56.5546 49.3497 58.723 49.2741Z" fill="red"/>
<path d="M46.3878 68.8497C46.6924 70.795 45.5419 72.7015 43.8501 73.0516C42.1582 73.4018 40.5002 72.0789 40.1957 70.1336C39.8911 68.1883 41.8875 60.5625 41.8875 60.5625C41.8875 60.5625 46.0833 66.8654 46.3878 68.8497Z" fill="red"/>
<path d="M62.0602 64.0482C64.5632 66.3055 64.6439 70.0806 62.3024 72.4936C59.9609 74.9066 56.0449 74.9844 53.5419 72.7271C51.0388 70.4698 46.4365 58.0547 46.4365 58.0547C46.4365 58.0547 59.5975 61.7909 62.0602 64.0482Z" fill="red"/>
</g>
</svg>
