<svg width="71" height="54" viewBox="0 0 71 54" fill="none" xmlns="http://www.w3.org/2000/svg">
<g clip-path="url(#clip0_496_2546)">
<path d="M20.7562 4.84754V2.4162L20.6846 2.34866V2.75389L20.7562 4.84754Z" fill="#7E770B"/>
<path d="M23.6904 21.5297C23.9051 21.192 24.1914 20.8543 24.4062 20.5166L23.9767 4.71292L23.6904 21.5297Z" fill="#7E770B"/>
<path d="M23.2606 21.124L23.6185 3.63187C23.5469 3.63187 23.4753 3.63187 23.4038 3.63187L23.0459 13.4248L23.2606 21.124Z" fill="#7E770B"/>
<path d="M12.0242 23.8258L11.9526 10.3184L11.5947 14.4382L12.0242 23.8258Z" fill="#7E770B"/>
<path d="M11.4522 11.3986L11.8817 6.13074L11.8101 4.91507C11.7385 4.91507 11.5954 4.91507 11.5238 4.98261L11.3091 9.64267L11.4522 11.3986Z" fill="#7E770B"/>
<path d="M28.0564 15.9234L28.128 13.7622L27.9132 3.29398C27.8417 3.29398 27.6985 3.29398 27.627 3.29398L27.7701 16.3287C27.8417 16.1936 27.9848 16.0585 28.0564 15.9234Z" fill="#7E770B"/>
<path d="M26.3387 3.29398C26.2672 3.29398 26.1956 3.29398 26.124 3.29398L26.3387 10.6555V3.29398Z" fill="#7E770B"/>
<path d="M26.1955 18.1528L25.6945 3.42972C25.6229 3.42972 25.5513 3.42972 25.4082 3.49726L26.0524 18.3554C26.1239 18.2879 26.1955 18.2204 26.1955 18.1528Z" fill="#7E770B"/>
<path d="M6.72809 6.13089L5.72607 38.7514C6.65652 39.2241 7.94482 39.4943 8.94684 39.8995L9.01841 38.076L6.72809 6.13089Z" fill="#7E770B"/>
<path d="M16.8198 14.5732L15.9609 24.0284L15.603 30.2418L16.7482 17.4097L16.8198 14.5732Z" fill="#7E770B"/>
<path d="M14.6723 33.4162L14.3145 18.8282L13.8135 27.5405L14.1713 39.1568L14.6723 33.4162Z" fill="#7E770B"/>
<path d="M16.8193 7.34666L16.4614 13.5601L16.8193 10.0482V7.34666Z" fill="#7E770B"/>
<path d="M14.816 36.7256L14.6729 38.279C14.7444 38.1439 14.816 38.0088 14.816 37.8737V37.8062V36.7256Z" fill="#7E770B"/>
<path d="M10.1632 5.05081C10.0917 5.05081 9.94853 5.05081 9.87695 5.05081L9.94853 10.7915L10.1632 5.05081Z" fill="#7E770B"/>
<path d="M21.0419 23.6231L20.8987 16.7344L20.8271 16.3291L21.0419 23.6231Z" fill="#7E770B"/>
<path d="M19.1812 5.11819L18.1077 17.41L17.7498 23.1506L17.6782 31.3902C18.1077 30.5122 18.6087 29.6342 19.1097 28.7562L19.6107 7.54953L19.1812 5.11819Z" fill="#7E770B"/>
<path d="M20.0405 27C20.1837 26.7973 20.2552 26.5947 20.3984 26.3921L20.2552 18.4903L20.0405 27Z" fill="#7E770B"/>
<path d="M10.2349 25.919L10.3065 24.6358L10.9507 9.57498L10.7359 4.98245L10.0918 22.6772L10.2349 25.919Z" fill="#7E770B"/>
<path d="M20.8995 13.6949V13.4247L20.7563 11.3311V13.0871L20.8995 13.6949Z" fill="#7E770B"/>
<path d="M11.2371 14.0332L11.1655 15.1138L11.2371 14.3709V14.0332Z" fill="#7E770B"/>
<path d="M11.3799 17.4776L10.7358 24.7716L10.3779 32.876V33.1462L10.7358 41.4533C11.0221 42.0611 11.1652 42.7365 11.3799 43.4794L11.881 30.9175L11.3799 17.4776Z" fill="#7E770B"/>
<path d="M13.8139 3.69925L13.7423 3.76679L13.4561 10.8582L13.8139 3.69925Z" fill="#7E770B"/>
<path d="M32.136 9.91327C32.136 9.91327 32.0645 9.91327 32.0645 9.84573L32.136 10.5211V9.91327Z" fill="#7E770B"/>
<path d="M29.9171 5.25305V5.11797C29.9171 4.9829 29.8455 4.91536 29.7739 4.78029L29.8455 5.92842L29.9171 5.25305Z" fill="#7E770B"/>
<path d="M6.15485 6.06397L5.15283 37.5363L5.2244 38.4818L5.29598 38.5494L6.36957 5.86136C6.29799 5.9289 6.22642 5.99643 6.15485 6.06397Z" fill="#7E770B"/>
<path d="M15.3882 25.3795L15.5314 23.8936L16.7481 0.795929C16.1039 0.998541 15.6029 1.53884 15.1019 2.07914L14.8872 6.87428L15.3882 25.3795Z" fill="#7E770B"/>
<path d="M2.3623 15.586L2.57702 29.8363C3.07803 30.174 3.50747 30.5792 3.79376 30.9844L3.86533 29.6337L2.3623 15.586Z" fill="#7E770B"/>
<path d="M0.286571 15.6537C0.000280961 16.5992 0.644434 17.6798 1.21701 18.7604L1.43173 14.2354C0.859152 14.6406 0.429716 15.1134 0.286571 15.6537Z" fill="#7E770B"/>
<path d="M4.22256 36.928L4.29413 34.6992C4.15098 35.5097 4.07941 36.2526 4.22256 36.928Z" fill="#7E770B"/>
<path d="M4.93835 13.628L5.00992 11.4668C5.00992 11.5344 4.93835 11.6019 4.93835 11.6694C4.50892 12.4123 3.5069 12.9526 2.50488 13.5605L4.00791 27.4731L4.93835 13.628Z" fill="#7E770B"/>
<path d="M0.0717773 26.3251V27.2031C0.214923 27.6759 0.42964 28.0811 0.787503 28.4188L0.930648 24.2315C0.572785 24.9068 0.14335 25.6498 0.0717773 26.3251Z" fill="#7E770B"/>
<path d="M17.8218 4.03787V6.40167L18.0365 4.37555L18.2512 0.796083C18.1796 0.796083 18.1081 0.728546 18.1081 0.728546L17.8218 3.22742V4.03787Z" fill="#7E770B"/>
<path d="M1.43115 28.959C1.50272 29.0265 1.5743 29.0265 1.5743 29.094L1.50272 25.9873L1.43115 28.959Z" fill="#7E770B"/>
<path d="M29.0585 13.2897L29.3448 10.5882L29.13 3.83448C29.0585 3.76694 29.0585 3.76694 28.9869 3.6994C28.9153 3.63187 28.8438 3.63187 28.8438 3.63187L29.0585 13.2897Z" fill="#7E770B"/>
<path d="M19.6107 5.11774L19.6823 1.60581C19.6107 1.53827 19.5391 1.53827 19.5391 1.47073L19.396 3.36177L19.6107 5.11774Z" fill="#7E770B"/>
<path d="M1.35994 14.2354L1.2168 18.7604C1.28837 18.8954 1.35994 19.0981 1.50309 19.2331L1.35994 14.2354Z" fill="#C2BE0B"/>
<path d="M1.50255 23.2852C1.35941 23.6229 1.14469 23.893 1.00154 24.2307L0.858398 28.418C1.07312 28.6206 1.28783 28.8232 1.50255 28.9583L1.6457 25.9867L1.50255 23.2852Z" fill="#C2BE0B"/>
<path d="M10.1634 22.7456L10.8076 5.05081C10.5929 5.05081 10.3782 5.05081 10.1634 5.05081L9.94873 10.7915L10.1634 22.7456Z" fill="#C2BE0B"/>
<path d="M9.01835 38.0088L8.94678 39.8323C9.01835 39.8323 9.01835 39.8323 9.08992 39.8999L9.16149 39.3596L9.01835 38.0088Z" fill="#C2BE0B"/>
<path d="M20.756 11.3311L20.5413 7.48148L20.4697 10.7908L20.756 13.0871V11.3311Z" fill="#C2BE0B"/>
<path d="M20.8273 16.3296L20.3262 13.1553L20.1831 18.4907L20.3262 26.3926C20.541 26.0549 20.7557 25.7172 20.8988 25.4471V23.6236L20.8273 16.3296Z" fill="#C2BE0B"/>
<path d="M29.8451 5.99618L29.7735 4.84805C29.6304 4.44283 29.4157 4.0376 29.1294 3.83499L29.3441 10.5887L29.8451 5.99618Z" fill="#C2BE0B"/>
<path d="M8.87527 5.05081C8.5174 5.05081 8.23111 5.11835 7.94482 5.11835L9.23313 23.0832L8.87527 5.05081Z" fill="#DBEE08"/>
<path d="M10.5211 41.0474C10.5926 41.1825 10.6642 41.3175 10.7358 41.4526L10.3779 33.1455L10.5211 41.0474Z" fill="#DBEE08"/>
<path d="M23.0465 13.4248L22.9749 14.6405L22.9033 19.233L23.0465 22.2722C23.118 22.2047 23.1896 22.1371 23.1896 22.0021V21.0565L23.0465 13.4248Z" fill="#DBEE08"/>
<path d="M21.7583 6.87405V10.0483L21.8299 8.2248L21.7583 6.87405Z" fill="#DBEE08"/>
<path d="M30.4185 13.4251C30.49 13.3576 30.5616 13.2901 30.6332 13.155L30.5616 12.0069L30.4185 13.4251Z" fill="#DBEE08"/>
<path d="M13.0264 4.37503C12.9549 4.44257 12.8833 4.44257 12.8833 4.51011V7.9545L13.0264 4.37503Z" fill="#DBEE08"/>
<path d="M13.8132 27.5401L13.0259 42.8035V43.0736C13.3837 41.9255 13.7416 40.8449 14.0995 39.7643L14.171 39.1565L13.8132 27.5401Z" fill="#DBEE08"/>
<path d="M11.9524 5.92813V4.91507C11.9524 4.91507 11.9524 4.91507 11.8809 4.91507L11.9524 6.13074V5.92813Z" fill="#DBEE08"/>
<path d="M26.339 18.0179V10.7239L26.0527 3.36234C25.9095 3.36234 25.7664 3.42987 25.6948 3.42987L26.1958 18.2205C26.2674 18.0854 26.2674 18.0854 26.339 18.0179Z" fill="#988F0D"/>
<path d="M11.5951 14.4385L11.3804 17.4777L11.953 30.9851L12.0245 28.6213V23.8262L11.5951 14.4385Z" fill="#988F0D"/>
<path d="M11.451 11.3986L11.3795 9.64261L11.2363 14.0325V14.3702L11.451 11.3986Z" fill="#988F0D"/>
<path d="M11.2363 5.18589V5.05081C11.0931 5.05081 10.95 5.05081 10.8784 5.05081L11.0931 9.64334L11.2363 5.18589Z" fill="#988F0D"/>
<path d="M17.8218 3.22742L18.0365 0.796083C17.9649 0.796083 17.8933 0.728546 17.8218 0.728546V3.49757V3.22742Z" fill="#988F0D"/>
<path d="M15.5308 23.8936L15.3877 25.3794L15.4593 26.0548L15.5308 23.8936Z" fill="#988F0D"/>
<path d="M14.6717 33.416L14.1707 39.1567L14.0991 39.7645C14.2423 39.2918 14.457 38.819 14.6001 38.2787L14.7433 36.7254L14.6717 33.416Z" fill="#988F0D"/>
<path d="M16.8203 10.0479L16.4624 13.5598L15.9614 24.0281L16.8203 14.5729V10.0479Z" fill="#988F0D"/>
<path d="M6.65598 5.59085C6.58441 5.65839 6.44126 5.72593 6.36969 5.79346L5.36768 38.549C5.51082 38.6165 5.58239 38.6841 5.72554 38.7516L6.72755 6.13115L6.65598 5.59085Z" fill="#988F0D"/>
<path d="M3.86464 29.6336L4.00778 27.4049L2.50476 13.4922C2.43318 13.5598 2.36161 13.5598 2.29004 13.6273V15.5859L3.86464 29.6336Z" fill="#988F0D"/>
<path d="M5.15283 38.3458C5.2244 38.3458 5.2244 38.4133 5.29598 38.4133L5.2244 37.4678L5.15283 38.3458Z" fill="#988F0D"/>
<path d="M19.6116 5.1183L19.3968 3.36234L19.1821 5.1183L19.54 7.54964L19.6116 5.1183Z" fill="#988F0D"/>
<path d="M20.899 16.7343V13.6951L20.7558 13.0873L20.4695 10.791L20.3979 13.1548L20.8274 16.3291L20.899 16.7343Z" fill="#988F0D"/>
<path d="M15.4595 26.0548L15.6026 30.5798V30.2421L15.9605 24.0287L16.4615 13.5605L16.8194 7.34704V0.795929H16.7478L15.531 23.8936L15.4595 26.0548Z" fill="#988F0D"/>
<path d="M28.0562 15.9239C28.1277 15.8564 28.1277 15.8564 28.1993 15.7888L28.1277 13.7627L28.0562 15.9239Z" fill="#988F0D"/>
<path d="M2.3616 13.628C2.00373 13.8306 1.71744 14.0332 1.43115 14.2358V19.2335C1.78902 19.9765 2.14688 20.6518 2.14688 21.3272C2.14688 21.935 1.86059 22.6104 1.50272 23.2858L1.5743 25.9873L1.64587 29.094C1.93216 29.3641 2.29002 29.5667 2.57631 29.8369L2.3616 15.5865V13.628Z" fill="#DBEE08"/>
<path d="M27.7701 16.2611L27.6269 3.29398C27.4838 3.29398 27.4122 3.29398 27.269 3.29398V16.8689C27.4838 16.6663 27.6269 16.4637 27.7701 16.2611Z" fill="#DBEE08"/>
<path d="M26.1242 18.2879L25.48 3.42972C25.3369 3.42972 25.1221 3.49726 24.979 3.49726L25.4084 19.2334C25.5516 18.9633 25.8379 18.6256 26.1242 18.2879Z" fill="#DBEE08"/>
<path d="M23.0457 13.4248L23.4036 3.63187C23.332 3.63187 23.2604 3.63187 23.1173 3.63187L22.9741 14.6404L23.0457 13.4248Z" fill="#DBEE08"/>
<path d="M10.3785 32.876L10.2354 36.6581L10.5216 41.048L10.3785 33.1462V32.876Z" fill="#DBEE08"/>
<path d="M9.80565 31.12L10.2351 25.9872L10.1635 22.8129L9.94879 10.8589L9.87722 5.11819C9.59093 5.11819 9.23307 5.11819 8.94678 5.11819L9.30464 23.2182L9.80565 31.12Z" fill="#DBEE08"/>
<path d="M15.4596 26.0546V25.3792L14.887 6.87405L14.3145 18.8281L14.7439 33.4837L14.8155 36.793V37.8736V37.9412C14.887 37.8736 14.887 37.7385 14.9586 37.671L15.6028 30.7147L15.4596 26.0546Z" fill="#DBEE08"/>
<path d="M16.8198 10.0486V14.5736V17.4101L17.8218 6.40157V4.03777V3.42993V0.660906C17.6071 0.660906 17.464 0.593369 17.2493 0.660906C17.1061 0.660906 16.963 0.728444 16.8914 0.728444V7.27955L16.8198 10.0486Z" fill="#DBEE08"/>
<path d="M17.106 32.6056C17.3207 32.2004 17.4638 31.7952 17.6785 31.39L17.7501 23.1504L17.106 32.6056Z" fill="#DBEE08"/>
<path d="M19.5396 7.54959L19.0386 28.7563C19.3964 28.1484 19.6827 27.6081 20.0406 27.0003L20.2553 18.4906L20.3985 13.1552L20.47 10.7914L20.5416 7.48206L20.2553 2.07908C20.0406 1.87647 19.8974 1.80893 19.6827 1.67386L19.6112 5.18579L19.5396 7.54959Z" fill="#DBEE08"/>
<path d="M21.8297 8.2245V3.22675C21.7581 3.22675 21.6865 3.15921 21.6865 3.15921L21.7581 6.94129L21.8297 8.2245Z" fill="#C2BE0B"/>
<path d="M22.9033 22.5427C22.9749 22.4752 23.0465 22.3401 23.118 22.2726L22.9749 19.2334L22.9033 22.5427Z" fill="#C2BE0B"/>
<path d="M12.0238 28.6211L11.9522 30.9174L11.4512 43.4793C11.5227 43.817 11.5943 44.1547 11.7375 44.4924L12.0238 36.9957V28.6211Z" fill="#C2BE0B"/>
<path d="M12.9549 19.9088L13.4559 10.9264L13.7422 3.83499C13.5275 4.0376 13.3127 4.24021 13.098 4.44283L12.8833 7.95476L12.9549 19.9088Z" fill="#C2BE0B"/>
<path d="M4.07995 27.4055L3.93681 29.6343L3.86523 30.985C4.07995 31.1876 4.2231 31.4578 4.29467 31.6604C4.36624 31.7955 4.36624 31.9305 4.43781 32.0656L5.0104 13.628L4.07995 27.4055Z" fill="#C2BE0B"/>
<path d="M31.9927 11.8043L32.1359 10.5211L32.0643 9.84568C31.8496 9.71061 31.6348 9.57553 31.4917 9.44046V12.3446C31.6348 12.142 31.778 12.0069 31.9927 11.8043Z" fill="#DBEE08"/>
<path d="M30.9911 12.8171L31.0627 12.7495V9.03498C30.9911 8.89991 30.9195 8.83237 30.8479 8.6973L30.7764 9.77789L30.9911 12.8171Z" fill="#DBEE08"/>
<path d="M29.8454 5.99593L29.3444 10.5885L29.0581 13.2899V14.7758C29.4875 14.303 29.917 13.8978 30.3464 13.425L30.4896 12.0067L30.0601 5.86086C29.9886 5.65824 29.9886 5.45563 29.917 5.25302V5.32056L29.8454 5.99593Z" fill="#DBEE08"/>
<path d="M30.9198 8.63033C30.8482 8.42771 30.7767 8.2251 30.7051 8.02249L30.8482 9.77846L30.9198 8.63033Z" fill="#DBEE08"/>
<path d="M12.9546 19.9081L13.0262 42.8032L13.8135 27.5398L14.2429 18.76L14.887 6.80591L15.1018 2.01077C14.6723 2.55107 14.1713 3.09137 13.7419 3.63167L13.384 10.7906L12.9546 19.9081Z" fill="#DBEE08"/>
<path d="M12.0244 36.9951L11.6665 44.4918C11.8096 44.8295 11.9528 45.1671 12.0959 45.5048L12.0244 36.9951Z" fill="#DBEE08"/>
<path d="M9.44727 40.102C9.51884 40.1696 9.59041 40.1696 9.66198 40.2371L9.94827 34.3614L9.44727 40.102Z" fill="#DBEE08"/>
<path d="M9.01815 38.0087L9.08972 39.3594L9.80544 31.1199L9.23286 23.1505L7.94456 5.18558C7.44355 5.25311 7.01411 5.38819 6.65625 5.5908L6.72782 6.1311L9.01815 38.0087Z" fill="#DBEE08"/>
<path d="M10.02 40.5079C10.0916 40.5754 10.1632 40.6429 10.2347 40.6429C10.3779 40.778 10.4495 40.9131 10.521 41.0481L10.2347 36.6582L10.02 40.5079Z" fill="#DBEE08"/>
<path d="M17.8219 6.4013L16.7483 17.4099L15.6031 30.2419V30.5796L14.959 37.5359C15.3168 36.7255 15.6031 35.8475 15.961 35.0371L17.965 4.30765L17.8219 6.4013Z" fill="#DBEE08"/>
<path d="M19.182 5.1182L19.3251 3.42978L19.4683 1.53873C19.3251 1.4712 19.182 1.33612 19.1104 1.26859L18.1084 17.41L19.182 5.1182Z" fill="#DBEE08"/>
<path d="M21.7583 10.048L21.973 23.9607C22.2593 23.4879 22.6172 23.0151 22.9035 22.5424L22.975 19.2331L23.0466 14.6405L23.1898 3.63197C23.0466 3.63197 22.9035 3.56443 22.8319 3.56443C22.5456 3.4969 22.2593 3.36182 21.973 3.15921L21.9014 8.15696L21.7583 10.048Z" fill="#DBEE08"/>
<path d="M30.6331 13.1546C30.7763 13.0195 30.8478 12.8844 30.991 12.7493L30.7763 9.77769L30.6331 8.02173C30.4184 7.27882 30.2753 6.53591 30.0605 5.793L30.49 11.9389L30.6331 13.1546Z" fill="#988F0D"/>
<path d="M20.7557 11.3309L20.8988 13.4246L20.7557 4.84733L20.6125 2.75368V2.34846C20.4694 2.21338 20.3263 2.14585 20.1831 2.01077L20.4694 7.41375L20.7557 11.3309Z" fill="#988F0D"/>
<path d="M11.9531 10.3187V5.92874L11.8815 6.13135L11.4521 11.3993L11.2373 14.3709L11.1658 15.1138L10.7363 24.7716L11.3805 17.4776L11.5952 14.4384L11.9531 10.3187Z" fill="#988F0D"/>
<path d="M10.3777 24.6358L10.3061 25.919L9.87666 31.0518L9.16093 39.2913L9.08936 39.8316C9.2325 39.8992 9.37565 39.9667 9.44722 40.0343L9.94823 34.2936L10.3777 24.6358Z" fill="#988F0D"/>
<path d="M10.3776 32.8755L10.7354 24.771L11.1649 15.1132L11.2364 14.0326L11.4511 9.57514L11.6659 4.91507C11.5227 4.91507 11.3796 4.98261 11.308 4.98261V5.11768L11.0933 9.57514L10.4491 24.6359L10.0197 34.2937L9.7334 40.1695C9.87654 40.237 10.0197 40.3721 10.0913 40.4396L10.2344 36.59L10.3776 32.8755Z" fill="#988F0D"/>
<path d="M23.2612 22.0694C23.4044 21.8668 23.5475 21.7317 23.6907 21.5291L23.977 4.77984V3.69925C23.8338 3.69925 23.7622 3.69925 23.6191 3.69925L23.2612 21.1238V22.0694Z" fill="#988F0D"/>
<path d="M31.4204 12.3444V9.44032C31.3488 9.37278 31.2772 9.37278 31.2772 9.30524C31.2056 9.23771 31.1341 9.10263 31.0625 9.0351V12.7496C31.2056 12.6146 31.3488 12.4795 31.4204 12.3444Z" fill="#988F0D"/>
<path d="M28.1999 15.7884C28.4862 15.4507 28.844 15.113 29.1303 14.7753V13.2895L28.844 3.63166C28.5577 3.49659 28.1999 3.36151 27.9136 3.29398L28.1283 13.7622L28.1999 15.7884Z" fill="#DBEE08"/>
<path d="M20.8993 13.4246V13.6948L20.9709 16.7339L21.0424 23.6227V25.4462C21.3287 24.9735 21.6866 24.5007 21.9729 23.9604L21.7582 10.0477L21.6866 6.8735L21.615 3.09142C21.2572 2.88881 20.9709 2.68619 20.6846 2.41605V4.84738L20.8993 13.4246Z" fill="#DBEE08"/>
<path d="M11.9521 10.318L12.0237 23.7579V28.6206V36.9276V45.4373C12.0953 45.5724 12.1669 45.6399 12.2384 45.775C12.4532 44.897 12.7394 43.9515 13.0257 43.0735V42.8034L12.9542 19.9083L12.8826 7.95419V4.5098C12.811 4.57733 12.6679 4.64487 12.5963 4.71241C12.3816 4.77994 12.1669 4.84748 11.9521 4.91502V5.92808V10.318Z" fill="#DBEE08"/>
<path d="M6.1556 6.06345C5.15359 7.34665 5.79774 9.91307 5.01044 11.4664L4.93887 13.6276L4.36629 32.0653C4.58101 32.8757 4.43786 33.7537 4.29472 34.6992L4.22314 36.9279C4.29472 37.2656 4.36629 37.5358 4.50943 37.7384C4.65258 37.941 4.8673 38.1436 5.08201 38.3462V37.4682L6.1556 6.06345Z" fill="#DBEE08"/>
<path d="M15.9614 35.1048C16.3193 34.2944 16.6772 33.4164 17.1066 32.6059L17.7507 23.1507L18.1086 17.4101L19.1822 1.26869C18.8959 1.06608 18.538 0.931003 18.2517 0.795929L18.037 4.3754L15.9614 35.1048Z" fill="#DBEE08"/>
<path d="M31.9927 11.8042C32.3505 11.4665 32.6368 11.1963 32.9947 10.8586V10.2508C32.7084 10.1833 32.4221 10.0482 32.1358 9.91312L32.0642 10.521L31.9927 11.8042Z" fill="#DBEE08"/>
<path d="M33.4956 10.3861C33.3525 10.3185 33.2093 10.3185 32.9946 10.251V10.8588C33.1378 10.7238 33.2809 10.5212 33.4956 10.3861Z" fill="#DBEE08"/>
<path d="M26.3394 18.0171C26.6256 17.6119 26.9835 17.2742 27.2698 16.869V3.29398C26.9835 3.29398 26.6256 3.29398 26.3394 3.36151V10.7231V18.0171Z" fill="#DBEE08"/>
<path d="M24.4065 20.5163C24.6928 20.1111 25.0506 19.7059 25.3369 19.3006L24.9075 3.56448C24.5496 3.63202 24.2633 3.63202 23.9771 3.69956V4.78015L24.4065 20.5163Z" fill="#DBEE08"/>
<path d="M27.9849 18.7608C27.9134 18.8283 27.8418 18.8958 27.8418 18.9634L27.9134 22.5429L27.9849 18.7608Z" fill="#394D11"/>
<path d="M29.3447 23.4882L29.7026 37.9412L30.132 32.9434L29.7026 20.1114L29.3447 23.4882Z" fill="#394D11"/>
<path d="M26.3389 22.8131L26.2674 20.8545L26.1958 20.9221L26.3389 24.2314V22.8131Z" fill="#394D11"/>
<path d="M25.9807 43.074L26.1239 41.318L25.5513 27.8106L25.9807 43.074Z" fill="#394D11"/>
<path d="M35.5001 40.9802L36.5736 14.303L36.4305 11.7366C36.2158 11.534 36.0726 11.3314 35.8579 11.1963C35.7148 11.3314 35.5716 11.534 35.5001 11.7366C35.3569 11.534 35.2853 11.3989 35.1422 11.1963C34.999 11.3314 34.7843 11.534 34.6412 11.6691L34.498 14.2355L35.5001 40.9802Z" fill="#394D11"/>
<path d="M30.9908 39.4948V34.0918L30.8477 35.7803L30.9908 39.4948Z" fill="#394D11"/>
<path d="M28.3426 20.584L28.271 20.7866L28.3426 20.7191V20.584Z" fill="#394D11"/>
<path d="M32.4946 17.0716L32.6378 19.9082L32.7809 15.9235L32.7093 14.3701L32.4946 17.0716Z" fill="#394D11"/>
<path d="M30.8481 24.2986L30.4186 15.8565C30.347 15.924 30.2755 16.0591 30.1323 16.1266L30.4902 27.6755L30.8481 24.2986Z" fill="#394D11"/>
<path d="M31.3484 34.2266L31.2769 49.9628L31.3484 51.1784C31.42 51.246 31.4916 51.3135 31.5631 51.3135L31.8494 43.8844L31.3484 34.2266Z" fill="#394D11"/>
<path d="M29.8457 46.5859L29.9173 50.5706C30.132 50.6382 30.4183 50.7057 30.633 50.8408L30.3467 41.0479L29.8457 46.5859Z" fill="#394D11"/>
<path d="M23.691 32.7411L24.9793 41.4533L24.4783 23.4209C24.192 23.8262 23.9057 24.2989 23.6194 24.7041L23.5479 28.5538L23.691 32.7411Z" fill="#394D11"/>
<path d="M32.5654 51.7183V51.9884C32.7801 52.191 32.9949 52.3261 33.2812 52.5287L33.2096 51.5157L32.5654 51.7183Z" fill="#394D11"/>
<path d="M20.5415 29.7686C20.3268 30.1063 20.1836 30.444 20.0405 30.7816L19.6826 47.4633C20.1836 47.8686 20.5415 48.4089 20.9709 48.9491V48.2738L20.5415 29.7686Z" fill="#394D11"/>
<path d="M25.05 44.8302L23.7617 36.253L23.8333 38.9544L24.4059 51.719C24.6206 51.719 24.7637 51.6514 24.9784 51.6514L25.1216 50.3007L25.05 44.8302Z" fill="#394D11"/>
<path d="M22.6883 44.2891L22.6167 51.1779C22.6883 51.2454 22.6883 51.2454 22.7598 51.2454L22.8314 46.5854L22.6883 44.2891Z" fill="#394D11"/>
<path d="M28.5572 30.917L28.0562 35.7797L28.2709 50.7054C28.3424 50.7054 28.4856 50.6379 28.5572 50.6379L28.915 46.4506L28.5572 30.917Z" fill="#394D11"/>
<path d="M44.876 41.318L45.0191 43.074L45.4486 27.8106L44.876 41.318Z" fill="#394D11"/>
<path d="M47.3098 32.7409L47.4529 28.5536L47.3814 24.7715C47.0951 24.3663 46.8088 23.8935 46.5225 23.4883L46.0215 41.4532L47.3098 32.7409Z" fill="#394D11"/>
<path d="M41.2971 20.1114L40.8677 32.9434L41.2971 37.9412L41.655 23.4882L41.2971 20.1114Z" fill="#394D11"/>
<path d="M43.1578 19.0308C43.0862 18.9632 43.0146 18.8957 43.0146 18.8282L43.1578 22.5427V19.0308Z" fill="#394D11"/>
<path d="M44.6616 24.2985L44.8048 21.0567L44.7332 20.9892L44.6616 22.8127V24.2985Z" fill="#394D11"/>
<path d="M42.6572 20.584V20.7191L42.7288 20.7866L42.6572 20.584Z" fill="#394D11"/>
<path d="M33.7829 18.2875L33.7113 16.8692L33.4966 23.4203L33.7829 18.2875Z" fill="#394D11"/>
<path d="M17.6067 35.6445L17.5352 46.7881C17.893 46.7881 18.2509 46.8557 18.6087 46.9232L18.9666 32.6729C18.5372 33.6859 18.0362 34.699 17.6067 35.6445Z" fill="#394D11"/>
<path d="M16.1753 46.7883L16.2469 45.8428L16.1753 46.7883Z" fill="#394D11"/>
<path d="M16.5332 46.7886C16.6048 46.7886 16.6048 46.7886 16.5332 46.7886L16.6048 44.0196L16.5332 46.7886Z" fill="#394D11"/>
<path d="M40.4389 27.7427L40.7968 16.2614C40.7252 16.1939 40.6536 16.0588 40.5105 15.9912L40.0811 24.3658L40.4389 27.7427Z" fill="#394D11"/>
<path d="M38.506 17.0716L38.2913 14.3701L38.2197 15.9235L38.3629 19.9082L38.506 17.0716Z" fill="#394D11"/>
<path d="M37.2178 18.2875L37.5041 23.4203L37.2893 16.8692L37.2178 18.2875Z" fill="#394D11"/>
<path d="M37.2896 36.7249L37.5758 31.9298V31.0518L37.2896 36.7249Z" fill="#394D11"/>
<path d="M33.7101 36.7249L33.4238 31.0518V31.9298L33.7101 36.7249Z" fill="#394D11"/>
<path d="M40.0093 39.4948L40.1524 35.7803L40.0093 34.0918V39.4948Z" fill="#394D11"/>
<path d="M48.1685 46.5854L48.24 51.1779C48.3116 51.1779 48.3116 51.1103 48.3832 51.1103L48.3116 44.2891L48.1685 46.5854Z" fill="#394D11"/>
<path d="M40.653 40.9805L40.3667 50.7734C40.5814 50.6383 40.8677 50.5708 41.0824 50.5032L41.154 46.5861L40.653 40.9805Z" fill="#394D11"/>
<path d="M39.6509 34.2266L39.1499 43.952L39.4362 51.3135C39.5078 51.246 39.5793 51.1784 39.7225 51.1784L39.7941 49.9628L39.6509 34.2266Z" fill="#394D11"/>
<path d="M42.4428 30.917L42.085 46.4506L42.4428 50.6379C42.5144 50.6379 42.6575 50.7054 42.7291 50.7054L42.9438 35.7122L42.4428 30.917Z" fill="#394D11"/>
<path d="M47.2376 36.253L45.9493 44.8302L45.8062 50.3682L45.9493 51.719C46.164 51.7865 46.3072 51.7865 46.5219 51.7865L47.0945 39.022L47.2376 36.253Z" fill="#394D11"/>
<path d="M50.4589 29.9043L50.1011 48.2744V48.8823C50.5305 48.2744 50.8884 47.8017 51.3894 47.3965L51.0315 30.9174C50.8168 30.5797 50.6737 30.242 50.4589 29.9043Z" fill="#394D11"/>
<path d="M52.0332 32.876L52.3911 46.9913C52.7489 46.9237 53.1068 46.8562 53.4646 46.8562L53.3931 35.8476C52.9636 34.767 52.4626 33.8215 52.0332 32.876Z" fill="#394D11"/>
<path d="M37.8621 51.584L37.7905 52.5295C38.0052 52.3945 38.22 52.1918 38.5063 51.9892V51.7191L37.8621 51.584Z" fill="#394D11"/>
<path d="M37.0026 21.5967L36.7163 26.3243L35.8574 47.5985L36.2153 53.4067L37.2889 27.2698L37.0026 21.5967Z" fill="#394D11"/>
<path d="M34.2828 26.3243L33.9965 21.5967L33.6387 27.2698L34.7123 53.4067L35.0701 47.5985L34.2828 26.3243Z" fill="#394D11"/>
<path d="M21.1855 38.8865L21.0423 28.7559C20.8276 29.0936 20.6844 29.4313 20.4697 29.7689L20.8276 48.2741L21.1855 38.8865Z" fill="#668117"/>
<path d="M30.8477 35.7793L30.3467 41.0472L30.633 50.8401C30.7045 50.8401 30.7761 50.9076 30.8477 50.9752L30.9193 39.5614L30.8477 35.7793Z" fill="#668117"/>
<path d="M31.2769 51.1112C31.2769 51.1788 31.346 51.1788 31.2769 51.1112V49.8955V51.1112Z" fill="#668117"/>
<path d="M30.1316 32.9437L30.6326 27.6758L30.2747 16.127C30.2032 16.1945 30.2032 16.1945 30.1316 16.2621L29.7021 20.1117L30.1316 32.9437Z" fill="#668117"/>
<path d="M35.858 47.5985L36.7169 26.3242L35.7148 44.4242L35.858 47.5985Z" fill="#668117"/>
<path d="M35.1416 53.4742C35.2132 53.4742 35.2848 53.4742 35.3563 53.4742L35.2847 51.5157L35.1416 53.4742Z" fill="#668117"/>
<path d="M35.5 40.9799L36.7883 18.2875L36.5736 14.3028L35.5 40.9799Z" fill="#668117"/>
<path d="M37.1466 12.6819V12.4118C37.0751 12.3442 36.9319 12.2092 36.8604 12.1416L37.0035 14.9782L37.1466 12.6819Z" fill="#668117"/>
<path d="M46.522 51.7187C46.5935 51.7187 46.6651 51.7187 46.7367 51.7187L47.1661 38.9541L46.522 51.7187Z" fill="#668117"/>
<path d="M23.1895 46.586L23.4757 51.6513C23.6189 51.7189 23.6905 51.7189 23.8336 51.7189L23.3326 40.5752L23.1895 46.586Z" fill="#80C41C"/>
<path d="M23.9049 38.9544L23.7617 36.2529V35.8477L23.9049 38.9544Z" fill="#80C41C"/>
<path d="M23.5476 28.5537L23.4761 30.7825L23.5476 31.7955L23.6908 32.7411L23.5476 28.5537Z" fill="#80C41C"/>
<path d="M22.7603 38.7516L22.9034 41.6557L23.0466 34.7669L22.8318 30.377L22.7603 38.7516Z" fill="#80C41C"/>
<path d="M38.3628 19.9089L38.5059 25.2443L38.7207 19.7738L38.5059 17.0723L38.3628 19.9089Z" fill="#80C41C"/>
<path d="M38.0049 38.2784L37.647 31.8623L37.3607 36.725L36.645 53.2041C36.7882 53.1365 37.0029 53.0015 37.146 52.9339L37.7186 45.1672L38.0049 38.2784Z" fill="#80C41C"/>
<path d="M42.6576 20.7188L42.4429 30.9169L42.9439 35.712L43.0154 30.8494L42.7292 20.7863L42.6576 20.7188Z" fill="#80C41C"/>
<path d="M41.6547 23.4877L41.7979 17.4093C41.6547 17.2742 41.5116 17.0716 41.3684 16.9366L41.2969 20.1108L41.6547 23.4877Z" fill="#80C41C"/>
<path d="M45.0198 43.0734L44.8766 41.3174L44.5903 47.1256V51.2454L44.8766 49.3543L45.0198 43.0734Z" fill="#80C41C"/>
<path d="M45.8062 51.6514C45.8777 51.6514 45.9493 51.6514 45.9493 51.7189L45.8062 50.3682V51.6514Z" fill="#80C41C"/>
<path d="M56.0413 43.0059L55.9697 46.788C56.1129 46.788 56.1844 46.788 56.3276 46.788L56.1129 43.2085C56.0413 43.141 56.0413 43.0734 56.0413 43.0059Z" fill="#80C41C"/>
<path d="M56.6853 45.1678C56.6853 45.0327 56.6138 44.9652 56.6138 44.8301L56.6853 46.0458V45.1678Z" fill="#80C41C"/>
<path d="M48.7409 36.8605L48.3115 44.3571L48.3831 51.1783C48.4547 51.1108 48.5978 51.0433 48.6694 50.9082L48.8125 38.9541L48.7409 36.8605Z" fill="#80C41C"/>
<path d="M31.0626 22.61V18.963L30.7763 15.5186C30.6332 15.6537 30.5616 15.7887 30.4185 15.8563L30.8479 24.2984L31.0626 22.61Z" fill="#80C41C"/>
<path d="M33.138 51.5834L32.9233 45.7076L32.8517 44.627L32.7801 43.7491L32.5654 51.7184L33.138 51.5834Z" fill="#80C41C"/>
<path d="M31.3491 29.634V34.2265L31.8501 43.9518L32.1364 34.6317L31.6354 27L31.3491 29.634Z" fill="#80C41C"/>
<path d="M13.8853 46.7206C13.9568 46.7206 14.0284 46.7206 14.1 46.7206L14.2431 45.5049C14.1 45.9101 13.9568 46.3154 13.8853 46.7206Z" fill="#80C41C"/>
<path d="M16.676 38.8194L16.2466 45.8432V46.7888C16.3897 46.7888 16.5329 46.7888 16.6044 46.7888L16.676 44.0197V38.8194Z" fill="#455D15"/>
<path d="M33.1385 51.5838L33.2101 52.5968C33.2817 52.5968 33.2817 52.6644 33.3533 52.6644L32.9238 45.708L33.1385 51.5838Z" fill="#455D15"/>
<path d="M26.3382 20.8545L26.2666 20.9221L26.3382 22.8806V20.8545Z" fill="#455D15"/>
<path d="M37.1465 52.9348C37.2181 52.8672 37.2896 52.8672 37.3612 52.7997L37.6475 45.168L37.1465 52.9348Z" fill="#455D15"/>
<path d="M48.1685 45.9777V46.5855L48.3116 44.2893L48.741 36.8602L48.5979 32.6729V33.0106L48.1685 45.9777Z" fill="#455D15"/>
<path d="M47.5951 25.0417C47.5235 24.9741 47.4519 24.8391 47.3804 24.7715L47.4519 28.5536L47.5951 25.0417Z" fill="#455D15"/>
<path d="M48.1681 45.9776L48.0249 51.3805C48.0965 51.313 48.2396 51.2455 48.3112 51.1779L48.2396 46.5854L48.1681 45.9776Z" fill="#455D15"/>
<path d="M37.0024 21.5974L37.3603 27.2706L37.5034 23.4209L37.2172 18.2881L37.0024 21.5974Z" fill="#455D15"/>
<path d="M37.5752 31.052V31.9299L38.0046 38.2784V38.0083L37.6468 28.418L37.5752 31.052Z" fill="#455D15"/>
<path d="M36.788 18.2875L37.0028 14.9781L36.8596 12.1416C36.7165 12.0065 36.5733 11.8714 36.4302 11.7364L36.5733 14.3028L36.788 18.2875Z" fill="#455D15"/>
<path d="M32.7801 15.9239L32.8516 13.3575L32.7801 13.425L32.7085 14.3705L32.7801 15.9239Z" fill="#455D15"/>
<path d="M33.4238 31.0526L33.6385 36.7933L34.6406 53.4074H34.7121L33.6385 27.2705L33.4238 31.0526Z" fill="#455D15"/>
<path d="M39.7945 31.3897L39.6514 34.2262L39.7229 49.9624L40.0092 39.4941V34.0912L39.7945 31.3897Z" fill="#455D15"/>
<path d="M33.8536 16.8692L33.782 14.708L33.7104 16.8692L33.782 18.2875L33.8536 16.8692Z" fill="#455D15"/>
<path d="M33.9971 21.5966L34.2834 26.3242L34.0686 20.7862L33.9971 21.5966Z" fill="#455D15"/>
<path d="M35.7148 44.4248V45.0327L36.0727 53.4748C36.1443 53.4748 36.2159 53.4748 36.2874 53.4073L35.9296 47.5991L35.7148 44.4248Z" fill="#455D15"/>
<path d="M23.5479 31.795L23.7626 35.8472V36.2524L25.0509 44.8296L24.9793 41.4528L23.691 32.7405L23.5479 31.795Z" fill="#455D15"/>
<path d="M27.9134 24.7038L28.3428 20.7867V20.5841L28.2712 18.4229C28.1997 18.558 28.0565 18.6255 27.9849 18.7606L27.8418 22.5427L27.9134 24.7038Z" fill="#455D15"/>
<path d="M27.3403 42.3304V46.9905L27.4835 50.9077C27.6982 50.8401 27.9845 50.7726 28.1992 50.7051L27.9845 35.7793L27.3403 42.3304Z" fill="#80C41C"/>
<path d="M27.9129 24.7036V22.5424L27.8413 18.9629C27.6982 19.1655 27.4835 19.3681 27.3403 19.6383V30.1741L27.9129 24.7036Z" fill="#80C41C"/>
<path d="M41.0112 50.5705C41.0828 50.5705 41.0828 50.5705 41.0828 50.5705C41.226 50.5705 41.2975 50.5705 41.4407 50.5705L41.0828 46.6534L41.0112 50.5705Z" fill="#80C41C"/>
<path d="M41.2969 37.9415L42.0842 46.4512L42.442 30.9176L42.6567 20.7195V20.5844L42.5852 18.3557C42.2989 18.018 42.0842 17.7479 41.7979 17.4102L41.6547 23.4885L41.2969 37.9415Z" fill="#80C41C"/>
<path d="M49.8863 28.8232C49.7431 28.553 49.6 28.2829 49.3853 28.0127L49.6715 36.7926L49.8863 28.8232Z" fill="#80C41C"/>
<path d="M48.6689 50.8408C48.8837 50.6382 49.0268 50.4356 49.2415 50.1655L48.8837 38.8867L48.6689 50.8408Z" fill="#80C41C"/>
<path d="M54.6104 38.8194L54.8251 45.8432L54.8966 46.7888C54.9682 46.7888 54.9682 46.7888 55.0398 46.7888L55.2545 40.3727C54.9682 39.8324 54.7535 39.2921 54.6104 38.8194Z" fill="#80C41C"/>
<path d="M39.7939 31.3903L40.0087 34.0918L40.1518 35.7802L40.4381 27.7433L40.1518 24.2989L39.7939 31.3903Z" fill="#80C41C"/>
<path d="M41.2973 37.9411L40.8678 32.9434L40.5815 40.9803L41.0826 46.5859L41.4404 50.5031C41.7267 50.5031 42.0846 50.5706 42.4424 50.6381L42.0846 46.4508L41.2973 37.9411Z" fill="#80C41C"/>
<path d="M38.5062 17.0724L38.7209 19.7738L38.9356 14.3033C38.7209 14.1007 38.5062 13.8306 38.2915 13.628V14.3709L38.5062 17.0724Z" fill="#80C41C"/>
<path d="M38.792 51.7865C39.0067 51.6514 39.2214 51.4488 39.4361 51.3137L39.1499 43.9522L38.792 51.7865Z" fill="#80C41C"/>
<path d="M38.5063 51.9889C38.5779 51.9214 38.6495 51.8539 38.7926 51.7863L38.5063 51.7188V51.9889Z" fill="#80C41C"/>
<path d="M38.2196 15.9239L37.647 28.4183L38.0048 38.0086L38.5058 25.2441L38.3627 19.9086L38.2196 15.9239Z" fill="#80C41C"/>
<path d="M37.5043 23.4208L37.9337 13.2226C37.7906 13.0876 37.6474 12.9525 37.5043 12.8174L37.2896 16.9372L37.5043 23.4208Z" fill="#80C41C"/>
<path d="M44.4468 28.7558L44.6615 24.2983V22.8125L44.4468 28.7558Z" fill="#80C41C"/>
<path d="M44.5897 47.1261L44.375 51.2458C44.4466 51.2458 44.5181 51.3134 44.5181 51.3134V51.2458L44.5897 47.1261Z" fill="#80C41C"/>
<path d="M44.3754 20.5163C44.3039 20.4487 44.2323 20.3137 44.1607 20.2461L44.0176 31.6599L44.3754 20.5163Z" fill="#80C41C"/>
<path d="M45.9498 44.8301L44.9478 51.4488C45.234 51.5163 45.4488 51.5838 45.7351 51.6514V50.3682L45.9498 44.8301Z" fill="#80C41C"/>
<path d="M45.0191 43.0738L44.876 49.3547L46.0211 41.3854L46.5221 23.488C46.2358 23.0828 45.9496 22.7451 45.6633 22.3399L45.4486 27.8104L45.0191 43.0738Z" fill="#80C41C"/>
<path d="M26.1239 41.3179L26.3386 39.0216V24.2985L26.1955 20.9892C25.9092 21.3269 25.6229 21.7321 25.4082 22.0698L25.5513 27.7429L26.1239 41.3179Z" fill="#80C41C"/>
<path d="M27.3403 50.9086C27.4119 50.9086 27.4835 50.841 27.4835 50.841L27.3403 46.9239V50.9086Z" fill="#80C41C"/>
<path d="M21.1852 38.8867L20.8989 48.2744V48.9498C21.0421 49.1524 21.1852 49.4225 21.3999 49.6251V49.1524L21.1852 38.8867Z" fill="#80C41C"/>
<path d="M16.7483 37.8058L16.6768 38.8188V43.9516V46.7207C17.0346 46.7207 17.3209 46.7207 17.6072 46.7207V35.6446C17.3209 36.3875 17.0346 37.1304 16.7483 37.8058Z" fill="#80C41C"/>
<path d="M18.9663 32.7408L18.6084 46.9912C18.7515 47.0587 18.9663 47.1262 19.1094 47.1938C19.2526 47.2613 19.3957 47.3964 19.5388 47.4639L19.8967 30.7823C19.6104 31.4576 19.3241 32.0655 18.9663 32.7408Z" fill="#80C41C"/>
<path d="M50.1013 48.274L50.4592 29.9039C50.2445 29.5662 50.0297 29.161 49.815 28.8233L49.6719 36.7927L50.1013 48.274Z" fill="#668117"/>
<path d="M40.8684 32.9434L41.2978 20.1114L41.3694 16.9371C41.1547 16.7345 40.94 16.4644 40.7252 16.2617L40.3674 27.7431L40.0811 35.78L39.9379 39.5621L39.5801 49.9628L39.6517 51.1785C39.8664 51.0434 40.0811 50.9083 40.2958 50.8408L40.5821 41.0479L40.8684 32.9434Z" fill="#668117"/>
<path d="M35.2856 51.516L35.3572 53.4746C35.4288 53.4746 35.4288 53.4746 35.5004 53.4746C35.6435 53.4746 35.8582 53.4746 36.0014 53.407L35.6435 44.9649L35.2856 51.516Z" fill="#668117"/>
<path d="M34.4257 14.3028L34.0679 20.7863L34.2826 26.3244L35.1415 47.5986L35.4993 41.0475V40.9799L34.4257 14.3028Z" fill="#668117"/>
<path d="M33.8538 16.8692L34.1401 12.1416C34.0685 12.2092 33.9254 12.3442 33.8538 12.4118L33.7822 14.708L33.8538 16.8692Z" fill="#668117"/>
<path d="M23.7622 35.8475L23.5475 31.7953L23.4759 30.7823L23.2612 40.5751L23.7622 51.7188C23.977 51.7188 24.1917 51.7188 24.4064 51.7188L23.8338 38.9543L23.7622 35.8475Z" fill="#668117"/>
<path d="M23.0465 34.7668L23.1897 25.3116C23.0465 25.5142 22.975 25.6492 22.8318 25.8519L22.7603 30.4444L23.0465 34.7668Z" fill="#668117"/>
<path d="M48.5982 33.0109V32.5382L48.455 27.8106L47.2383 36.2527L47.1667 38.9542L46.7373 51.7187C47.0236 51.7187 47.2383 51.7187 47.5246 51.5837C47.7393 51.5161 47.8825 51.4486 48.0256 51.3135L48.1688 45.9105L48.5982 33.0109Z" fill="#80C41C"/>
<path d="M47.3096 32.7403L48.24 26.1892C48.0253 25.784 47.739 25.4463 47.5243 25.041L47.3811 28.553L47.3096 32.7403Z" fill="#80C41C"/>
<path d="M31.778 14.5059C31.7064 14.641 31.5633 14.7085 31.4917 14.8436V18.1529L31.778 14.5059Z" fill="#80C41C"/>
<path d="M31.8501 24.5689L32.2795 30.9849L32.6374 19.9089L32.4943 17.0723L31.8501 24.5689Z" fill="#80C41C"/>
<path d="M32.9236 45.7076L33.3531 52.6639L33.4246 52.7314L32.8521 44.627L32.9236 45.7076Z" fill="#80C41C"/>
<path d="M33.4241 31.9297L32.9946 39.2237V40.1017L33.9251 53.0013C34.2114 53.1364 34.4977 53.2715 34.7839 53.4065L33.7819 36.7924L33.4241 31.9297Z" fill="#80C41C"/>
<path d="M25.0503 51.6506C25.1219 51.6506 25.1934 51.6506 25.1934 51.583V50.2998L25.0503 51.6506Z" fill="#80C41C"/>
<path d="M26.4104 39.0216L26.1957 41.3179L25.981 43.0738L26.1957 51.3134C26.2672 51.3134 26.3388 51.2458 26.4104 51.2458V39.0216Z" fill="#80C41C"/>
<path d="M29.7032 20.1112L30.1326 16.3291C29.8463 16.6668 29.56 17.0045 29.2021 17.3421L29.3453 23.488L29.7032 20.1112Z" fill="#80C41C"/>
<path d="M28.2708 20.7863L27.9129 24.7035L27.3403 30.1065V42.3307L28.0561 35.712L28.5571 30.9169L28.3423 20.7188L28.2708 20.7863Z" fill="#80C41C"/>
<path d="M14.1715 45.5055L14.0283 46.7212C14.3862 46.7887 14.744 46.7887 15.1019 46.7887L15.4598 40.9805C15.0303 42.5339 14.6009 44.0197 14.1715 45.5055Z" fill="#80C41C"/>
<path d="M22.1157 34.6319L22.3304 50.9083C22.402 50.9759 22.5452 51.1109 22.6167 51.1785L22.6883 44.3572L22.1157 34.6319Z" fill="#80C41C"/>
<path d="M22.8314 30.3767L22.903 25.7842C22.6167 26.257 22.3304 26.6622 22.1157 27.135L22.8314 38.8189V30.3767Z" fill="#80C41C"/>
<path d="M39.6516 34.2264L39.7948 31.3899L40.1526 24.2985L40.5821 15.9239C40.1526 15.5186 39.7948 15.0459 39.3653 14.6407L37.8623 51.5835L38.5065 51.7861L38.7927 51.8536C38.7927 51.8536 38.7927 51.8536 38.8643 51.8536L39.2222 44.0193L39.6516 34.2264Z" fill="#80C41C"/>
<path d="M56.6138 46.046L56.6853 46.7889C56.8285 46.7889 56.9716 46.7889 57.1148 46.7214C56.9716 46.1811 56.8285 45.7083 56.6853 45.168L56.6138 46.046Z" fill="#80C41C"/>
<path d="M54.61 38.819C54.5384 38.6164 54.4669 38.3462 54.3237 38.1436V44.0194L54.3953 46.7884C54.5384 46.7884 54.6816 46.7884 54.7532 46.7884V45.8429L54.61 38.819Z" fill="#455D15"/>
<path d="M39.3653 14.6406C39.2221 14.5055 39.1506 14.3705 39.0074 14.2354L38.7927 19.7059L38.578 25.1764L38.077 37.9409V38.2111L37.7907 45.0999L37.5044 52.7316C37.6475 52.664 37.7907 52.529 37.9338 52.4614L38.0054 51.5159L39.3653 14.6406Z" fill="#455D15"/>
<path d="M43.8022 43.2091L44.4464 28.8237L44.6611 22.8804L44.7327 20.9894C44.5895 20.8543 44.518 20.6517 44.3748 20.5166L44.017 31.6603L43.8022 43.2091Z" fill="#455D15"/>
<path d="M31.0627 15.2481C30.9911 15.3156 30.9195 15.4507 30.7764 15.5182L30.9911 18.9626L31.0627 15.2481Z" fill="#455D15"/>
<path d="M31.6348 26.9997L32.1358 34.6314L32.2789 30.9844L31.8495 24.5684L31.6348 26.9997Z" fill="#455D15"/>
<path d="M32.7803 43.7496L32.8518 44.6276L33.4244 52.732C33.5676 52.7996 33.7107 52.9346 33.8539 53.0022L32.9234 40.1026L32.7803 43.7496Z" fill="#455D15"/>
<path d="M23.1187 51.5162C23.2618 51.5837 23.4049 51.6513 23.4765 51.6513L23.1902 46.586L23.1187 51.5162Z" fill="#455D15"/>
<path d="M22.6879 44.2894L22.831 46.5856L22.9026 41.5879L22.7595 38.7513L22.0437 27.0674C22.0437 27.0674 22.0437 27.135 21.9722 27.135L22.0437 34.564L22.6879 44.2894Z" fill="#455D15"/>
<path d="M23.3328 40.5754L23.5476 30.7825L23.6191 28.5538L23.6907 24.7041C23.5476 24.9067 23.4044 25.1094 23.2613 25.312L23.1181 34.7672L22.9034 41.656L22.8318 46.6537L22.7603 51.3138C22.9034 51.3813 22.975 51.5164 23.1181 51.5839L23.1897 46.6537L23.3328 40.5754Z" fill="#455D15"/>
<path d="M33.7827 18.2876L33.4964 23.4204L32.9238 39.1566L33.3533 31.8626L33.4248 30.9846L33.6396 27.2025L33.9974 21.5294L34.069 20.719L34.4269 14.2354L34.57 11.669C34.4269 11.8041 34.2837 11.9391 34.1406 12.0742L33.8543 16.8018L33.7827 18.2876Z" fill="#455D15"/>
<path d="M37.5749 31.0527L37.7181 28.4187L38.2191 15.8568L38.2906 14.3034V13.5605C38.1475 13.4255 38.0759 13.2904 37.9328 13.1553L37.5034 23.3534L37.3602 27.203L36.2866 53.3399C36.4298 53.2724 36.5729 53.2724 36.6445 53.2049L37.3602 36.7258L37.5749 31.0527Z" fill="#455D15"/>
<path d="M31.3487 34.2263V29.6338L30.9192 34.1588V39.5618L30.8477 50.9756C30.9908 51.0431 31.1339 51.1106 31.2055 51.1782V49.9625L31.3487 34.2263Z" fill="#455D15"/>
<path d="M31.0625 22.6097L31.4919 18.0847V14.7754C31.3488 14.9105 31.2056 15.0456 31.1341 15.1806V18.8952L31.0625 22.6097Z" fill="#455D15"/>
<path d="M35.6431 44.9651V44.3572L36.7166 26.2573L37.0029 21.5297L37.2176 18.2203L37.2892 16.8696L37.5039 12.7498C37.3608 12.6148 37.2892 12.5472 37.1461 12.4121V12.6823L37.0029 14.911L36.7882 18.2203L35.4999 40.9804V41.0479L35.142 47.599L34.7842 53.4072C34.9273 53.4748 35.0705 53.4748 35.142 53.4748L35.2852 51.5162L35.6431 44.9651Z" fill="#455D15"/>
<path d="M47.2382 36.2526L48.455 27.878L48.3834 26.3246C48.3834 26.2571 48.3118 26.1896 48.3118 26.1896L47.3814 32.7407L46.0931 41.453L44.9479 49.4224L44.6616 51.3134C44.8048 51.3809 44.9479 51.3809 45.0195 51.4485L46.0215 44.8298L47.2382 36.2526Z" fill="#455D15"/>
<path d="M56.5425 44.8299C56.3994 44.2896 56.2562 43.7493 56.0415 43.209L56.2562 46.7885C56.3994 46.7885 56.5425 46.7885 56.6141 46.7885L56.5425 46.0456V44.8299Z" fill="#455D15"/>
<path d="M42.7288 20.787L43.0867 30.7825L43.2298 22.4754L43.0867 18.7609C42.9435 18.6258 42.8004 18.4232 42.6572 18.2881L42.7288 20.5168V20.787Z" fill="#455D15"/>
<path d="M43.8021 43.2086L43.9452 31.6598L44.0884 20.246C43.8021 19.8408 43.4442 19.4355 43.1579 19.0303L43.0864 22.5422L42.9432 30.8493V35.712L42.7285 50.6377C42.9432 50.7052 43.2295 50.7728 43.4442 50.8403L43.8021 43.2086Z" fill="#80C41C"/>
<path d="M29.5601 50.5033C29.6316 50.5033 29.7748 50.5033 29.8464 50.5033C29.9179 50.5033 29.9179 50.5033 29.9895 50.5033L29.9179 46.5186L29.5601 50.5033Z" fill="#80C41C"/>
<path d="M28.3426 20.7187L28.5573 30.9168L28.9151 46.4504L29.7024 37.9407L29.3446 23.4877L29.2014 17.3418C28.9151 17.6795 28.5573 18.0847 28.271 18.4224L28.3426 20.5836V20.7187Z" fill="#80C41C"/>
<path d="M22.0442 27.2022C21.7579 27.7425 21.4001 28.2828 21.1138 28.8231L21.2569 38.9537L21.3285 49.1518V49.6245C21.6148 50.0973 21.9726 50.5025 22.3305 50.8402L22.1158 34.5637L22.0442 27.2022Z" fill="#80C41C"/>
<path d="M16.6771 38.8188L16.7486 37.8057C16.3192 38.8863 15.9613 39.8993 15.6035 40.9799L15.2456 46.7881C15.5319 46.7881 15.8898 46.7881 16.1761 46.7881L16.2476 45.8426L16.6771 38.8188Z" fill="#80C41C"/>
<path d="M30.3469 40.9802L30.8479 35.7123L30.9911 34.0914L31.4205 29.5664L31.6352 26.9324L31.85 24.5011L32.4941 17.0045L32.7088 14.303L32.7804 13.3575C32.4225 13.6951 32.0647 14.1004 31.7068 14.438L31.4205 18.0851L30.9911 22.61L30.8479 24.2985L30.5617 27.6753L30.1322 32.9432L29.7028 37.8734L28.9155 46.3831L28.5576 50.5704C28.9155 50.5029 29.2018 50.4354 29.5596 50.5029L29.9175 46.5857L30.3469 40.9802Z" fill="#80C41C"/>
<path d="M32.7802 43.7492L32.9234 40.1022V39.2243L33.4959 23.4881L33.7107 16.937L33.7822 14.7758L33.8538 12.4795C33.4959 12.8172 33.2096 13.0874 32.8518 13.425L32.7802 15.9915L32.6371 19.9762L32.2792 31.1198L32.1361 34.7668L31.8498 44.0194L31.5635 51.4485C31.8498 51.6511 32.2076 51.9212 32.4939 52.1239V51.8537L32.7802 43.7492Z" fill="#80C41C"/>
<path d="M27.3411 42.3313V30.1071V19.5713C27.0548 19.9765 26.6969 20.3818 26.4106 20.787V22.8131V24.2989V39.022V51.2462C26.6969 51.1112 27.0548 51.0436 27.3411 50.9086V46.9239V42.3313Z" fill="#80C41C"/>
<path d="M25.5511 27.8109L25.408 22.1377C25.1217 22.5429 24.7638 23.0157 24.4775 23.4209L24.9785 41.4534L25.0501 44.8302L25.1933 50.3683V51.6515C25.4796 51.5839 25.8374 51.5164 26.1237 51.3813L25.9806 43.0743L25.5511 27.8109Z" fill="#80C41C"/>
<path d="M44.8761 41.3177L45.4487 27.8102L45.6634 22.3397C45.3771 21.9345 45.0908 21.5293 44.7329 21.1241L44.5898 24.3658L44.3751 28.8233L43.7309 43.2762L43.373 50.9079C43.6593 51.043 44.0172 51.1106 44.3035 51.2456L44.5182 47.1259L44.8761 41.3177Z" fill="#80C41C"/>
<path d="M49.7424 36.7925L49.4561 28.0127C49.0983 27.4724 48.812 26.9321 48.4541 26.3242L48.5257 27.8776L48.6688 32.6052V32.7403L48.812 36.8601L48.8835 38.9537L49.2414 50.2324C49.5277 49.8272 49.814 49.3544 50.1718 48.8817V48.2738L49.7424 36.7925Z" fill="#80C41C"/>
<path d="M55.1825 40.3721L54.9678 46.7881C55.3256 46.7881 55.6119 46.7881 55.8982 46.7881L55.9698 43.0061C55.7551 42.1281 55.4688 41.2501 55.1825 40.3721Z" fill="#80C41C"/>
<path d="M54.3235 38.1431C54.0372 37.3327 53.6794 36.5898 53.3931 35.7793L53.4646 46.7879C53.7509 46.7879 54.1088 46.7879 54.3951 46.7879V44.0189L54.3235 38.1431Z" fill="#80C41C"/>
<path d="M51.0312 30.917L51.3891 47.4636C51.5323 47.3286 51.6754 47.261 51.8185 47.1935C51.9617 47.1259 52.1764 47.0584 52.3196 46.9909L51.9617 32.8756C51.6754 32.2002 51.3891 31.5249 51.0312 30.917Z" fill="#80C41C"/>
<path d="M55.6128 25.3796L56.1138 6.87443L55.8991 2.14683C55.3981 1.53899 54.8255 0.998695 54.2529 0.728546L55.4697 23.8938L55.6128 25.3796Z" fill="#CF0600"/>
<path d="M59.5489 11.3988L59.6204 9.64283L59.4057 4.91522C59.3341 4.91522 59.191 4.91522 59.1194 4.84769L59.0479 6.13089L59.5489 11.3988Z" fill="#CF0600"/>
<path d="M57.2586 3.83515L57.187 3.76761L57.5449 10.859L57.2586 3.83515Z" fill="#CF0600"/>
<path d="M56.3281 33.4162L56.8291 39.1568L57.187 27.5405L56.686 18.8282L56.3281 33.4162Z" fill="#CF0600"/>
<path d="M54.1812 14.5733L54.2527 17.4098L55.3979 30.2419L55.04 24.0285L54.1812 14.5733Z" fill="#CF0600"/>
<path d="M54.1812 7.34671V10.0482L54.4674 13.5601L54.1812 7.34671Z" fill="#CF0600"/>
<path d="M51.6044 3.36239L51.3897 1.2012C51.3182 1.2012 51.3182 1.26874 51.2466 1.26874L51.3182 5.05082L51.6044 3.36239Z" fill="#CF0600"/>
<path d="M53.1792 6.401V4.0372V3.22675L52.9644 0.592804C52.8929 0.592804 52.8929 0.592804 52.8213 0.660341L53.036 4.44242L53.1792 6.401Z" fill="#CF0600"/>
<path d="M61.1237 4.98245C61.0521 4.98245 60.909 4.98245 60.8374 4.98245L61.0521 10.7906L61.1237 4.98245Z" fill="#CF0600"/>
<path d="M45.3067 3.22659L44.8057 18.2198C44.8057 18.2874 44.8772 18.2874 44.8772 18.3549L45.5214 3.22659C45.4498 3.22659 45.3782 3.22659 45.3067 3.22659Z" fill="#CF0600"/>
<path d="M43.0871 3.0917L42.8008 13.8301L42.8724 16.0588C42.9439 16.1939 43.0871 16.2614 43.1586 16.3965L43.3734 3.0917C43.3018 3.02416 43.2302 3.02416 43.0871 3.0917Z" fill="#CF0600"/>
<path d="M44.9481 3.15921C44.8766 3.15921 44.805 3.15921 44.7334 3.15921V10.7234L44.9481 3.15921Z" fill="#CF0600"/>
<path d="M60.6222 24.6358L60.7653 25.919L60.8369 22.7447L60.1927 4.98245L59.978 9.64252L60.6222 24.6358Z" fill="#CF0600"/>
<path d="M58.9761 23.8258L59.4055 14.4382L59.0476 10.3184L58.9761 23.8258Z" fill="#CF0600"/>
<path d="M59.7632 14.0332V14.3709L59.8348 15.1138L59.7632 14.0332Z" fill="#CF0600"/>
<path d="M49.958 23.6231L50.1727 16.3291L50.1012 16.7343L49.958 23.6231Z" fill="#CF0600"/>
<path d="M61.9829 38.0084L62.0545 39.832C63.0565 39.4267 64.3448 39.1566 65.2753 38.6838L64.2732 6.13089L61.9829 38.0084Z" fill="#CF0600"/>
<path d="M60.6224 32.8762L60.2646 24.7717L59.6204 17.4102L59.0479 30.9176L59.5489 43.412C59.692 42.7366 59.9067 41.9937 60.193 41.3859L60.5509 33.0788L60.6224 32.8762Z" fill="#CF0600"/>
<path d="M69.4258 29.094C69.4974 29.0265 69.5689 29.0265 69.5689 28.959L69.4258 25.9873V29.094Z" fill="#CF0600"/>
<path d="M67.1353 29.6337L67.2068 30.9844C67.5647 30.5792 67.9941 30.2415 68.4235 29.8363L68.6383 15.586L67.1353 29.6337Z" fill="#CF0600"/>
<path d="M70.929 27.1354V26.46C70.8574 25.7847 70.428 25.0418 69.9985 24.2989L70.1417 28.4862C70.5711 28.0134 70.8574 27.6082 70.929 27.1354Z" fill="#CF0600"/>
<path d="M70.7142 15.5861C70.5711 15.0458 70.1416 14.6406 69.6406 14.2354L69.8553 18.6928C70.3564 17.6122 70.9289 16.5316 70.7142 15.5861Z" fill="#CF0600"/>
<path d="M64.8456 6.19889C64.774 6.13135 64.7024 5.99628 64.6309 5.92874L65.6329 38.4817L65.7044 38.4141L65.776 37.4686L64.8456 6.19889Z" fill="#CF0600"/>
<path d="M50.5312 26.4598C50.6744 26.6624 50.746 26.865 50.8891 27.0676L50.6744 18.4229L50.5312 26.4598Z" fill="#CF0600"/>
<path d="M66.9215 27.4053L68.4245 13.4926C67.4225 12.8848 66.4204 12.3445 65.9194 11.6016L65.991 13.6277L66.9215 27.4053Z" fill="#CF0600"/>
<path d="M50.2442 11.3311L50.1011 13.4247V13.6949L50.2442 13.0871V11.3311Z" fill="#CF0600"/>
<path d="M47.9544 13.4252L47.5966 3.42972C47.525 3.42972 47.4534 3.42972 47.3818 3.42972L47.7397 21.0569L47.9544 13.4252Z" fill="#CF0600"/>
<path d="M50.3878 2.75368V2.01077L50.3162 2.07831L50.2446 4.84733L50.3878 2.75368Z" fill="#CF0600"/>
<path d="M56.1851 37.8061V38.0762C56.2566 38.2113 56.3282 38.4139 56.3282 38.549L56.1851 36.793V37.8061Z" fill="#CF0600"/>
<path d="M52.8929 17.41L51.8193 5.11819L51.4614 7.54953L51.9624 28.8913C52.4634 29.7693 52.8929 30.6472 53.3939 31.5928L53.3223 23.2182L52.8929 17.41Z" fill="#CF0600"/>
<path d="M46.5947 20.5842C46.8094 20.9218 47.0957 21.2595 47.3105 21.5972L47.0242 4.71292L46.5947 20.5842Z" fill="#CF0600"/>
<path d="M41.1546 5.99639L41.2262 4.17288C41.2262 4.24042 41.1546 4.30796 41.1546 4.30796L41.083 5.25348L41.1546 5.99639Z" fill="#CF0600"/>
<path d="M41.9425 13.2895L42.1573 3.63166V3.29398C42.0857 3.36151 41.9425 3.36151 41.871 3.42905L41.6562 10.588L41.9425 13.2895Z" fill="#CF0600"/>
<path d="M66.7061 34.9014L66.7776 36.86C66.8492 36.2521 66.7776 35.5768 66.7061 34.9014Z" fill="#CF0600"/>
<path d="M38.9366 9.64261C38.865 9.64261 38.865 9.71015 38.7935 9.71015L38.865 10.4531L38.9366 9.64261Z" fill="#CF0600"/>
<path d="M58.9761 33.7536V36.9954L59.3339 44.4245C59.4055 44.0868 59.5487 43.7491 59.6202 43.4114L59.1192 30.917L58.9761 33.7536Z" fill="#FF1D00"/>
<path d="M57.6162 11.8717L57.8309 4.37504C57.6162 4.23997 57.473 4.03736 57.2583 3.90228L57.5446 10.9261L57.6162 11.8717Z" fill="#FF1D00"/>
<path d="M66.563 30.7824L66.9209 27.4055L66.062 13.628L66.563 30.7824Z" fill="#FF1D00"/>
<path d="M66.9209 31.3222C66.9925 31.1872 67.064 31.0521 67.2072 30.9846L67.1356 29.6338L66.9209 31.3222Z" fill="#FF1D00"/>
<path d="M39.5084 9.57523L39.3652 12.2092L39.4368 10.1155L39.5084 9.57523Z" fill="#FF6900"/>
<path d="M38.9358 9.64296L38.8643 10.4534L39.0074 11.8042C39.0074 11.8042 39.0074 11.8042 39.079 11.8717L39.1506 9.50789C39.079 9.57543 39.0074 9.64296 38.9358 9.64296Z" fill="#FF6900"/>
<path d="M41.0832 5.25302L40.6538 13.4926C40.7254 13.5601 40.797 13.6276 40.8685 13.6952L41.1548 5.92839L41.0832 5.25302Z" fill="#FF6900"/>
<path d="M41.6554 10.5889L41.5122 14.371C41.6554 14.5061 41.7269 14.6411 41.8701 14.7762V13.2904L41.6554 10.5889Z" fill="#FF6900"/>
<path d="M56.185 2.61928C56.0419 2.4842 55.9703 2.34913 55.8271 2.14651L56.0419 6.87412L56.185 2.61928Z" fill="#FF6900"/>
<path d="M57.187 27.5399L57.6165 11.8712L57.5449 10.9257L57.187 3.76679L57.1155 3.69925L56.686 18.8276L57.187 27.5399Z" fill="#FF6900"/>
<path d="M58.9048 45.4373C59.0479 45.0996 59.1911 44.7619 59.3342 44.4242L58.9764 36.9951L58.9048 45.4373Z" fill="#FF6900"/>
<path d="M61.9825 38.0086L64.2728 6.13102V5.59072C63.9865 5.38811 63.5571 5.25304 63.1992 5.1855L61.8394 34.2265L61.9825 38.0086Z" fill="#FF6900"/>
<path d="M55.3981 30.2423L54.2529 17.4102V22.9482L55.0402 35.24C55.1118 35.4426 55.1834 35.5777 55.2549 35.7803L55.3981 30.7825V30.2423Z" fill="#FF6900"/>
<path d="M51.8188 5.11768L52.8924 17.4095L52.0336 3.63187L51.8188 5.11768Z" fill="#FF6900"/>
<path d="M53.2509 7.27913L53.1793 6.40114L53.0361 4.37503L53.2509 7.27913Z" fill="#FF6900"/>
<path d="M51.8907 1.67345L51.8191 0.998077C51.6759 1.06561 51.5328 1.13315 51.3896 1.26823L51.6044 3.42942L51.8907 1.67345Z" fill="#FF6900"/>
<path d="M50.1011 13.4248L50.2442 11.3312L50.3874 4.17222V2.75394L50.2442 4.84759L50.1011 13.4248Z" fill="#F50700"/>
<path d="M60.7657 26.797V25.919L60.6226 24.6358L60.7657 26.797Z" fill="#F50700"/>
<path d="M59.7637 14.3701L59.6206 17.4769L60.2648 24.7709L59.8353 15.1131L59.7637 14.3701Z" fill="#F50700"/>
<path d="M59.0479 6.80626V10.3182L59.4057 14.438L59.5489 11.3988L59.1194 6.13089L59.0479 6.80626Z" fill="#F50700"/>
<path d="M59.9779 9.64261L59.7632 14.0325L59.8348 15.1131L60.2642 24.7709L60.6221 32.8754L60.7652 26.797L60.6221 24.6359L59.9779 9.64261Z" fill="#F50700"/>
<path d="M59.7631 5.18522V4.98261C59.62 4.98261 59.4768 4.98261 59.4053 4.91507L59.62 9.64267L59.7631 5.18522Z" fill="#F50700"/>
<path d="M47.3818 3.42972C47.3102 3.42972 47.1671 3.42972 47.0239 3.42972V4.71292L47.3102 21.5297C47.4534 21.6648 47.5249 21.8674 47.6681 22.0024V21.0569L47.3818 3.42972Z" fill="#F50700"/>
<path d="M39.5088 10.1156L39.5804 9.10257C39.5804 9.10257 39.5804 9.10257 39.5804 9.17011V9.64287L39.5088 10.1156Z" fill="#F50700"/>
<path d="M43.0872 3.09183C42.8725 3.09183 42.6578 3.15936 42.5146 3.2269L42.8725 13.8302L43.0872 3.09183Z" fill="#FF6900"/>
<path d="M41.9424 13.2897V14.7755C42.1571 15.0456 42.3718 15.2483 42.5865 15.5184L42.1571 3.63187L41.9424 13.2897Z" fill="#FF6900"/>
<path d="M49.0996 18.8959L49.1712 20.3142L50.1732 13.6955V13.4254L50.3163 4.84816L50.3879 2.07913C50.1732 2.28174 49.9585 2.41682 49.6722 2.55189L49.2428 16.4646L49.0996 18.8959Z" fill="#FF6900"/>
<path d="M50.1015 16.7343L49.2427 22.5425L49.3142 24.4336C49.529 24.7713 49.7437 25.109 49.9584 25.5142L50.03 23.6231L50.1015 16.7343Z" fill="#FF6900"/>
<path d="M59.0477 10.3188V6.73929L57.9741 43.2094C58.0457 43.412 58.1173 43.6146 58.1173 43.8172L58.9761 23.7587L59.0477 10.3188Z" fill="#FF6900"/>
<path d="M58.9766 33.7539L58.4756 45.1002C58.5472 45.3703 58.6187 45.5729 58.6903 45.8431C58.7619 45.708 58.8335 45.5729 58.905 45.4379V36.9957L58.9766 33.7539Z" fill="#FF6900"/>
<path d="M66.4198 37.8064C66.6345 37.5362 66.7061 37.1985 66.7777 36.8608L66.7061 34.9023C66.7061 34.6321 66.6345 34.362 66.6345 34.0918L66.2051 38.0765C66.2767 38.009 66.3482 37.9414 66.4198 37.8064Z" fill="#FF6900"/>
<path d="M66.5627 30.7818L65.9902 13.6274L65.9186 11.6012C64.9882 10.183 65.6323 7.61655 64.7734 6.19827L65.847 37.5355L66.5627 30.7818Z" fill="#FF6900"/>
<path d="M52.893 17.4096L53.2509 23.1502V7.27899L53.0362 4.37489L52.8215 0.592804C52.6783 0.592804 52.6068 0.660341 52.4636 0.727878L52.0342 3.63198L52.893 17.4096Z" fill="#FF6900"/>
<path d="M54.2529 27.945L54.3961 33.8208C54.6108 34.2935 54.8255 34.7663 55.0402 35.2391L54.2529 22.9473V27.945Z" fill="#FF6900"/>
<path d="M51.962 0.930695C51.8904 0.930695 51.8904 0.998232 51.8188 0.998232L51.8904 1.6736L51.962 0.930695Z" fill="#FF6900"/>
<path d="M38.8645 9.70999C38.7213 9.77753 38.6498 9.84507 38.5066 9.9126L38.4351 11.1958C38.6498 11.3984 38.8645 11.601 39.0792 11.8036L38.9361 10.4529L38.8645 9.70999Z" fill="#FF6900"/>
<path d="M37.6484 10.1831V10.4533C37.7916 10.5883 37.9347 10.7234 38.0063 10.7909V9.9805C37.8632 10.1156 37.7916 10.1831 37.6484 10.1831Z" fill="#FF6900"/>
<path d="M44.6619 3.15936C44.5188 3.15936 44.4472 3.15936 44.3041 3.09183L44.0894 17.4772C44.1609 17.6123 44.3041 17.6799 44.3756 17.8149L44.5904 10.7235L44.6619 3.15936Z" fill="#FF6900"/>
<path d="M47.0239 3.42987C46.8807 3.42987 46.666 3.42987 46.5229 3.36234L45.8071 19.5037C46.0934 19.8414 46.3081 20.1791 46.5944 20.5168L47.0239 4.71308V3.42987Z" fill="#FF6900"/>
<path d="M69.7838 18.6928L69.5691 14.2354L69.4976 19.1656C69.6407 19.0305 69.7123 18.8279 69.7838 18.6928Z" fill="#FF1D00"/>
<path d="M69.9986 24.2307C69.7838 23.893 69.6407 23.6229 69.4976 23.2852V25.9867L69.6407 28.9583C69.8554 28.7557 70.0701 28.5531 70.2848 28.418L69.9986 24.2307Z" fill="#FF1D00"/>
<path d="M61.0522 10.7906L60.8375 4.98245C60.6228 4.98245 60.4081 4.98245 60.1934 4.98245L60.8375 22.7447L61.0522 10.7906Z" fill="#FF1D00"/>
<path d="M61.839 34.2266L61.5527 40.1023C61.6959 40.0348 61.839 39.9673 61.9822 39.8997L61.9106 38.0762L61.839 34.2266Z" fill="#FF1D00"/>
<path d="M50.6022 13.1553L50.1012 16.3296L49.958 23.6236V25.5146C50.1727 25.8523 50.3874 26.19 50.6022 26.5277L50.7453 18.4907L50.6022 13.1553Z" fill="#FF1D00"/>
<path d="M50.2446 13.0878L50.5309 10.7915L50.3878 4.17288L50.2446 11.3318V13.0878Z" fill="#FF1D00"/>
<path d="M41.8707 3.42972C41.8707 3.42972 41.7991 3.49726 41.7275 3.49726C41.5128 3.63233 41.3697 3.90248 41.2265 4.17263L41.1549 5.99613L40.8687 13.7629C41.0834 13.9655 41.2981 14.2357 41.5128 14.4383L41.656 10.6562L41.8707 3.42972Z" fill="#FF1D00"/>
<path d="M63.1992 5.18589C62.8413 5.11835 62.4835 5.05081 62.1256 5.05081L61.4814 40.1702C61.553 40.1702 61.553 40.1026 61.6246 40.1026L61.9109 34.2944L63.1992 5.18589Z" fill="#FF6900"/>
<path d="M60.2651 41.4526C60.3367 41.3175 60.4083 41.1825 60.4799 41.0474L60.623 33.1455L60.2651 41.4526Z" fill="#FF6900"/>
<path d="M49.0994 16.4645L49.5289 2.55179C49.171 2.7544 48.8847 2.95701 48.5269 3.15962L49.0279 18.2204L49.0994 16.4645Z" fill="#FF6900"/>
<path d="M47.7397 21.1241V22.0696C47.9545 22.3397 48.1692 22.6774 48.3123 22.9476L47.9545 13.4248L47.7397 21.1241Z" fill="#FF6900"/>
<path d="M41.0837 4.30765C40.4395 5.65839 40.5827 7.81958 39.5806 9.10279L39.5091 10.1158L39.4375 12.2095C39.8669 12.6147 40.2248 13.0199 40.6542 13.4927L41.0837 5.25317V4.30765Z" fill="#FF6900"/>
<path d="M59.1194 6.13115L59.191 4.84795C58.9047 4.78041 58.6184 4.71287 58.3321 4.5778C58.189 4.51026 58.0458 4.44272 57.9027 4.30765L57.688 11.8043L57.187 27.5404L56.8291 39.1568L56.9007 39.8997C57.2585 40.9803 57.688 42.1285 57.9743 43.2091L59.0478 6.73899L59.1194 6.13115Z" fill="#FF6900"/>
<path d="M54.3237 33.5508C54.3953 33.6859 54.3953 33.7534 54.4669 33.8885L54.3237 28.0127V33.5508Z" fill="#F50700"/>
<path d="M39.5806 9.16995C39.4375 9.30503 39.2943 9.4401 39.1512 9.57518L39.0796 11.939C39.2227 12.0741 39.2943 12.2091 39.4375 12.2767L39.5806 9.64271V9.16995Z" fill="#F50700"/>
<path d="M44.9488 3.15921L44.6625 10.7234L44.4478 17.8148C44.5909 17.9499 44.6625 18.0849 44.8056 18.2875L45.3066 3.22675C45.1635 3.22675 45.0203 3.15921 44.9488 3.15921Z" fill="#F50700"/>
<path d="M38.0776 10.0482V10.8586C38.2208 10.9937 38.2924 11.1288 38.4355 11.1963L38.5071 9.91312C38.2924 9.98065 38.2208 10.0482 38.0776 10.0482Z" fill="#F50700"/>
<path d="M37.4331 10.3185C37.5047 10.3861 37.5762 10.4536 37.6478 10.5212V10.251C37.5762 10.251 37.5047 10.251 37.4331 10.3185Z" fill="#F50700"/>
<path d="M59.0481 30.9843L59.6207 17.4768L59.7639 14.4377V14.1L59.9786 9.64252L60.1933 4.98245C60.0501 4.98245 59.907 4.98245 59.8354 4.98245V5.18506L59.6207 9.64252L59.5491 11.3985L59.406 14.4377L58.9766 23.8253L58.1177 43.8839C58.2608 44.2891 58.3324 44.6943 58.4755 45.0995L58.9766 33.7533L59.0481 30.9843Z" fill="#F50700"/>
<path d="M55.5403 26.0548L55.6119 25.3794L55.4688 23.8936L55.5403 26.0548Z" fill="#F50700"/>
<path d="M54.4674 13.5598L54.1812 10.0479V14.5729L55.04 24.0281L54.4674 13.5598Z" fill="#F50700"/>
<path d="M53.1791 3.42952V0.525421C53.1075 0.525421 53.0359 0.525421 52.9644 0.525421L53.1791 3.22691V3.42952Z" fill="#F50700"/>
<path d="M56.3284 33.416L56.2568 36.7253L56.4 38.4813C56.6147 38.9541 56.7578 39.4944 56.901 39.9671L56.8294 39.2242L56.3284 33.416Z" fill="#F50700"/>
<path d="M64.4877 5.79346C64.4161 5.72593 64.3445 5.65839 64.2729 5.59085V6.13115L65.275 38.6841C65.4181 38.6165 65.5613 38.549 65.6328 38.4815L64.6308 5.92854C64.6308 5.861 64.5592 5.79346 64.4877 5.79346Z" fill="#F50700"/>
<path d="M70.9297 27.068C71.0013 26.8654 71.0013 26.5952 70.9297 26.3926V27.068Z" fill="#F50700"/>
<path d="M68.6388 15.5859V13.6273C68.5672 13.5598 68.4956 13.5598 68.4241 13.4922L66.921 27.4049L66.5632 30.7817L65.8475 37.5355L65.7759 38.481C65.919 38.3459 66.0622 38.2784 66.2053 38.1433L66.6347 34.1586C66.4916 33.2806 66.4916 32.4026 66.7779 31.7273C66.8495 31.5922 66.921 31.4571 66.9926 31.3896L67.2073 29.7011L68.6388 15.5859Z" fill="#F50700"/>
<path d="M50.1018 13.6951L49.1714 20.3138L49.243 22.5425L50.1018 16.7343L50.1734 16.3291L50.6028 13.1548L50.5313 10.791L50.245 13.0873L50.1018 13.6951Z" fill="#F50700"/>
<path d="M51.6047 3.36167L51.3184 5.11764L51.3899 7.48144L51.7478 5.0501L51.9625 3.56429L52.392 0.660187C52.2488 0.727724 52.1057 0.795261 51.9625 0.862798L51.8194 1.60571L51.6047 3.36167Z" fill="#F50700"/>
<path d="M54.4677 13.5606L55.0403 24.0964L55.3982 30.3098V30.8501L55.5413 26.1225L55.3982 23.9613L54.1814 0.728546H54.1099V7.41473L54.4677 13.5606Z" fill="#F50700"/>
<path d="M42.5146 3.15921C42.3715 3.22675 42.2283 3.22675 42.1567 3.29428V3.63197L42.5146 15.5861C42.6577 15.7211 42.8009 15.8562 42.944 16.0588L42.8725 13.8301L42.5146 3.15921Z" fill="#F50700"/>
<path d="M69.4976 23.2858C69.1398 22.6104 68.8535 21.935 68.8535 21.3272C68.8535 20.6518 69.2113 19.9089 69.5692 19.166L69.6408 14.2358C69.3545 14.0332 68.9966 13.8306 68.7103 13.628V15.5865L68.4956 29.8369C68.8535 29.5667 69.1398 29.3641 69.4261 29.094L69.4976 25.9873V23.2858Z" fill="#FF6900"/>
<path d="M43.3739 3.02444L43.1592 16.3293C43.4455 16.667 43.8033 17.0722 44.0896 17.4774L44.3759 3.09198C44.0181 3.09198 43.7318 3.02444 43.3739 3.02444Z" fill="#FF6900"/>
<path d="M45.5919 3.29398L44.9478 18.4223C45.234 18.8275 45.5203 19.1652 45.8782 19.5704L46.5939 3.42905C46.2361 3.36151 45.8782 3.29398 45.5919 3.29398Z" fill="#FF6900"/>
<path d="M49.1703 20.3137L49.0987 18.8954V18.22L48.5261 3.15921C48.383 3.22675 48.1683 3.29428 48.0251 3.36182C47.882 3.42936 47.7388 3.42936 47.5957 3.42936L47.9536 13.4249L48.3114 22.9476C48.6693 23.4204 49.0272 23.9607 49.3134 24.4334L49.2419 22.5424L49.1703 20.3137Z" fill="#FF6900"/>
<path d="M61.1232 4.98245L61.0516 10.7906L60.8369 22.7447L60.7653 25.919V26.7294L60.6221 32.8753V33.1455L60.479 41.0473C60.5506 40.9122 60.6222 40.7772 60.7653 40.7096C60.98 40.507 61.1947 40.3719 61.481 40.1693L62.1252 5.04999C61.7673 5.04999 61.481 4.98245 61.1232 4.98245Z" fill="#FF6900"/>
<path d="M56.1853 36.7256L56.2569 33.4163L56.6863 18.7607L57.1158 3.63238C56.8295 3.2947 56.4716 2.88947 56.1853 2.55179L56.0422 6.80663L55.5412 25.3118V25.9872L55.398 30.7148L55.2549 35.7125C55.5412 36.4555 55.8275 37.1984 56.1138 37.9413V37.7387L56.1853 36.7256Z" fill="#FF6900"/>
<path d="M54.2522 22.9478V17.4097V14.5732V10.0482V7.34668V0.660496C54.1091 0.592958 53.8944 0.525421 53.7512 0.525421C53.6081 0.525421 53.4649 0.525421 53.3218 0.525421V3.42952V4.03735V6.40116V7.27914L53.3933 23.1504L53.4649 31.525C53.8228 32.2004 54.1091 32.8757 54.3954 33.5511V28.0131L54.2522 22.9478Z" fill="#FF6900"/>
<path d="M51.3897 5.11805L51.3181 1.33597C51.0318 1.53858 50.674 1.80873 50.3877 2.01134V2.75425V4.17253L50.5308 10.7236L50.6024 13.0874L50.7456 18.4229L50.9603 27.0676C51.3181 27.6755 51.6044 28.2158 51.9623 28.8236L51.4613 7.48185L51.3897 5.11805Z" fill="#FF6900"/>
</g>
<defs>
<clipPath id="clip0_496_2546">
<rect width="71" height="52.9492" fill="white" transform="translate(0 0.525421)"/>
</clipPath>
</defs>
</svg>
