<svg width="124" height="23" viewBox="0 0 124 23" fill="none" xmlns="http://www.w3.org/2000/svg">
<path d="M63.9077 7.75226C63.9077 5.48543 63.7477 5.33932 62.0736 5.20523V4.72559L71.2123 4.72559C71.2346 5.08112 71.339 6.60444 71.4433 7.772L70.9193 7.83417C70.7106 6.79385 70.4887 6.25549 70.169 5.91198C69.8448 5.56412 69.152 5.41891 67.8754 5.41891L66.2923 5.41891C65.7039 5.41891 65.6616 5.45662 65.6616 6.0649V10.9251L67.7711 10.925C69.5695 10.925 69.6295 10.7998 69.8448 9.25993H70.3643V13.2947H69.8448C69.7338 12.5248 69.6673 12.1105 69.4007 11.8766C69.1254 11.6506 68.6634 11.6075 67.7711 11.6075H65.6616V15.2656C65.6616 16.4554 65.7948 17.0803 66.1879 17.3262C66.5808 17.5722 67.3359 17.5722 68.3171 17.5722C69.5006 17.5722 70.4887 17.4714 70.9438 16.9705C71.2969 16.6006 71.6255 15.8871 71.9409 14.931L72.4603 14.9909C72.3626 15.5792 71.9008 17.6963 71.7321 18.2635L61.8672 18.2635V17.7836C63.7477 17.6597 63.9077 17.5068 63.9077 15.2457V7.75226Z" fill="#706F6F"/>
<path d="M88.184 15.2457C88.184 17.5068 88.3504 17.6597 90.0578 17.7836V18.2635H84.5537V17.7836C86.2635 17.6597 86.4345 17.5068 86.4345 15.2457V7.75226C86.4345 5.48543 86.2635 5.33932 84.5537 5.20523V4.72559L90.0578 4.72559V5.20523C88.3504 5.33932 88.184 5.48543 88.184 7.75226V15.2457Z" fill="#706F6F"/>
<path d="M96.8654 4.72559V5.20523C95.1959 5.33932 95.0272 5.48543 95.0272 7.75226V12.0971C95.0272 13.8719 95.2557 15.2003 95.9019 16.1419C96.5502 17.0514 97.5049 17.5722 98.9059 17.5722C100.227 17.5722 101.306 17.0149 101.977 16.0155C102.661 14.9763 102.911 13.1408 102.911 11.3893V10.2671C102.911 8.08896 102.834 6.93796 102.745 6.29088C102.643 5.56412 102.081 5.26943 100.704 5.20523V4.72559L105.709 4.72559V5.20523C104.561 5.25174 104.021 5.56412 103.913 6.29088C103.828 6.93796 103.753 8.08896 103.753 10.2671V11.6663C103.753 14.0824 103.373 15.7863 102.163 17.0803C101.264 18.0296 99.7608 18.5791 98.3043 18.5791C97.1586 18.5791 95.8441 18.3077 94.8828 17.5068C93.7769 16.6206 93.2731 15.2003 93.2731 12.8295V7.75226C93.2731 5.48543 93.1064 5.33932 91.3569 5.20523V4.72559L96.8654 4.72559Z" fill="#706F6F"/>
<path d="M110.297 4.72559L115.348 15.4517L120.308 4.72559L123.752 4.72559V5.20522C121.938 5.35043 121.813 5.43892 121.875 7.75226L122.042 15.2457C122.106 17.5722 122.166 17.6398 124 17.7836V18.2635H118.496V17.7836C120.246 17.6398 120.308 17.5722 120.293 15.2457L120.21 6.85038H120.126L115.01 18.0296H114.491L109.673 7.14738H109.63L109.424 12.9568C109.335 14.911 109.335 16.0511 109.424 16.7025C109.526 17.4714 110.026 17.6752 111.382 17.7836V18.2635H106.48V17.7836C107.648 17.6752 108.083 17.4714 108.23 16.7025C108.358 16.0511 108.483 14.8103 108.587 12.742L108.816 8.3737C108.967 5.58526 108.816 5.35043 106.857 5.20523V4.72559H110.297Z" fill="#706F6F"/>
<path d="M49.8881 4.72559C49.8194 5.686 49.7417 6.80047 49.6616 7.87837H50.1811C50.4365 6.95884 50.6875 6.37846 50.9139 6.07488C51.2247 5.686 51.7931 5.41891 53.6516 5.41891H54.6262V15.2457C54.6262 17.5068 54.4621 17.6597 52.5036 17.7836V18.2635H58.5962V17.7836C56.549 17.6597 56.376 17.5068 56.376 15.2457V5.41891H57.779C59.0668 5.41891 59.7175 5.56412 60.0706 5.96416C60.3857 6.29088 60.6167 6.87035 60.8209 7.87837H61.3404C61.2695 6.87035 61.1874 5.60409 61.1185 4.72559L49.8881 4.72559Z" fill="#706F6F"/>
<path d="M49.1384 17.0149C48.5788 16.3955 48.1368 15.8251 47.3843 14.7216C46.7625 13.8099 45.9033 12.3719 45.5258 11.7482C47.2176 11.0635 48.2835 9.83281 48.2835 8.10439C48.2835 6.89463 47.7417 5.96416 46.9046 5.43892C46.132 4.91504 44.942 4.72559 43.6097 4.72559H40.1504V5.41891H42.06C42.2953 5.42118 42.7617 5.42118 43.2545 5.42118C44.8242 5.42118 46.4073 6.20897 46.4073 8.39367C46.4073 9.41058 46.0965 10.4366 45.1994 11.1433C44.631 11.6019 43.9671 11.623 43.1102 11.623H40.1504V12.3066L43.0213 12.3066C43.6651 12.3066 44.0028 12.5171 44.3424 13.0576C44.924 14.0382 45.8012 15.5792 46.4494 16.5119C47.2376 17.6597 47.9747 18.3919 50.3684 18.4529H50.6614L50.7058 18.0529C49.9553 17.8658 49.5756 17.5311 49.1384 17.0149Z" fill="#706F6F"/>
<path d="M82.4562 17.0149C81.8921 16.3955 81.4546 15.8251 80.7021 14.7216C80.0714 13.8099 79.2233 12.3719 78.8414 11.7482C80.5311 11.0635 81.5991 9.83282 81.5991 8.10439C81.5991 6.89463 81.0549 5.96416 80.218 5.43892C79.4498 4.91504 78.2552 4.72559 76.9275 4.72559L73.457 4.72559V5.41891H75.3778C75.6085 5.42118 76.0749 5.42118 76.5678 5.42118C78.1354 5.42118 79.714 6.20897 79.714 8.39367C79.714 9.41058 79.4032 10.4366 78.5106 11.1433C77.9444 11.6019 77.274 11.623 76.4213 11.623H73.457V12.3066H76.3347C76.9829 12.3066 77.3206 12.5171 77.658 13.0576C78.2418 14.0382 79.1124 15.5792 79.7606 16.5119C80.5511 17.6597 81.2837 18.3919 83.6817 18.4529H83.9792L84.0193 18.0529C83.2687 17.8658 82.8934 17.5311 82.4562 17.0149Z" fill="#706F6F"/>
<path d="M35.9798 17.7838L36.6437 17.6964C37.4188 17.6165 37.5009 17.3906 37.2944 16.7458C37.1478 16.2396 36.545 14.621 35.9578 13.1199H31.7214C31.5138 13.6617 30.9686 15.289 30.6778 16.1575C30.2781 17.3706 30.4691 17.64 31.4049 17.7196L32.0379 17.7838V18.2637H27.5728V17.7838C27.7537 17.7629 27.9047 17.7484 28.0457 17.7196C28.9849 17.5723 29.187 17.2676 29.8252 15.6601L34.1205 4.60166L34.6034 4.41992L36.0788 8.37388C37.06 11.0171 37.9792 13.6617 38.7941 15.7865C39.4591 17.5313 39.7333 17.6753 41.0222 17.7838V18.2637H35.9798V17.7838ZM31.9922 12.3278L35.6836 12.3278L33.8507 7.20496H33.8085L31.9922 12.3278Z" fill="#706F6F"/>
<path d="M11.4921 0C12.2647 0.0542259 12.7322 0.180559 13.3083 0.378901C16.7565 1.54215 18.8124 7.30168 12.4723 10.5589C12.4357 10.582 12.1458 10.7195 12.1092 10.7372C11.8861 10.8336 11.6574 10.9255 11.4176 11.0351C7.44104 12.7424 5.0831 13.222 4.01951 15.8045C2.7463 19.2775 5.45733 22.9124 11.5642 23C10.7848 22.9358 10.3119 22.8128 9.73464 22.6166C6.2831 21.4567 4.2205 15.6815 10.5973 12.4166C10.6339 12.3955 10.9247 12.2549 10.9669 12.2428C11.1734 12.1541 11.3921 12.0665 11.6154 11.9647C15.5985 10.2553 17.9553 9.78337 19.0266 7.20094C20.2989 3.73002 17.599 0.08962 11.4921 0Z" fill="#706F6F"/>
<path d="M11.2927 1.14738C9.82964 0.363033 8.1399 0.378689 6.74346 1.03117C6.25714 1.24041 4.00128 2.30292 2.27289 4.62488C0.92738 6.45831 0.17573 8.56001 0.0291283 10.6805C-0.17736 13.6618 0.730714 16.222 2.22174 18.2814C1.13041 16.6805 1.36373 14.2267 3.29647 12.9394C5.63759 11.3772 8.78492 11.0349 10.5613 10.3846C11.7247 9.98463 12.7426 9.16376 13.3699 7.99846C14.6888 5.53129 13.7595 2.47467 11.2927 1.14738Z" fill="#007FC1"/>
<path d="M20.8269 4.70801C21.9225 6.31097 21.685 8.76588 19.7524 10.0578C17.4154 11.6176 14.2737 11.9643 12.4985 12.6045C11.3296 13.0035 10.3061 13.8212 9.68311 14.991C8.35874 17.4582 9.28909 20.518 11.7559 21.8441C13.2201 22.6296 14.9076 22.6162 16.3052 21.9616C16.797 21.7543 19.0462 20.6942 20.7703 18.3655C22.1247 16.5408 22.8686 14.4392 23.0227 12.3155C23.2315 9.33764 22.3179 6.76973 20.8269 4.70801Z" fill="#706F6F"/>
</svg>
