<svg width="120" height="26" viewBox="0 0 120 26" fill="none" xmlns="http://www.w3.org/2000/svg">
<path d="M34.7998 19.0048C34.7998 18.5448 34.8773 18.0953 35.0322 17.6565C35.1941 17.2105 35.4265 16.8071 35.7293 16.4461C36.0321 16.078 36.4053 15.7878 36.849 15.5755C37.2926 15.3561 37.7961 15.2463 38.3594 15.2463C39.0284 15.2463 39.5988 15.4021 40.0706 15.7135C40.5494 16.0179 40.9015 16.4107 41.1268 16.892L40.5459 17.253C40.3839 16.9203 40.1797 16.6584 39.9333 16.4673C39.6868 16.2691 39.4227 16.1276 39.1411 16.0426C38.8664 15.9577 38.5918 15.9152 38.3172 15.9152C37.8665 15.9152 37.4686 16.0072 37.1236 16.1913C36.7785 16.3682 36.4863 16.6089 36.2469 16.9132C36.0145 17.2105 35.8385 17.5467 35.7188 17.9219C35.599 18.2899 35.5392 18.6651 35.5392 19.0473C35.5392 19.4649 35.6096 19.8648 35.7504 20.2471C35.8913 20.6293 36.0885 20.969 36.342 21.2663C36.5955 21.5565 36.8912 21.7901 37.2292 21.9671C37.5743 22.1369 37.9475 22.2219 38.3489 22.2219C38.6305 22.2219 38.9192 22.1723 39.215 22.0732C39.5108 21.9741 39.7854 21.8219 40.0389 21.6167C40.2994 21.4114 40.5072 21.146 40.6621 20.8204L41.2747 21.1389C41.1198 21.514 40.8804 21.8326 40.5565 22.0945C40.2325 22.3563 39.8699 22.5545 39.4685 22.689C39.0742 22.8235 38.6869 22.8907 38.3066 22.8907C37.7926 22.8907 37.3208 22.781 36.8912 22.5616C36.4617 22.3351 36.0885 22.0378 35.7716 21.6698C35.4617 21.2946 35.2223 20.877 35.0533 20.4169C34.8843 19.9498 34.7998 19.4791 34.7998 19.0048Z" fill="white"/>
<path d="M45.1359 17.9325C44.657 17.9467 44.2345 18.0811 43.8684 18.336C43.5092 18.5908 43.2557 18.9411 43.1078 19.3871V22.827H42.3896V17.2955H43.0656V18.6226C43.2557 18.2333 43.5057 17.9183 43.8155 17.6777C44.1324 17.437 44.4669 17.3025 44.819 17.2742C44.8894 17.2672 44.9493 17.2636 44.9986 17.2636C45.0549 17.2636 45.1007 17.2672 45.1359 17.2742V17.9325Z" fill="white"/>
<path d="M48.3043 22.9332C47.9099 22.9332 47.5438 22.8589 47.2057 22.7103C46.8677 22.5545 46.5755 22.3457 46.329 22.0838C46.0826 21.8149 45.8889 21.507 45.7481 21.1601C45.6143 20.8133 45.5474 20.4417 45.5474 20.0453C45.5474 19.5286 45.6636 19.0544 45.896 18.6226C46.1354 18.1909 46.4628 17.8476 46.8783 17.5928C47.2938 17.3309 47.7656 17.1999 48.2937 17.1999C48.8359 17.1999 49.3077 17.3309 49.7091 17.5928C50.1175 17.8546 50.4379 18.2015 50.6703 18.6332C50.9027 19.0579 51.0189 19.5251 51.0189 20.0347C51.0189 20.0913 51.0189 20.148 51.0189 20.2046C51.0189 20.2541 51.0154 20.2931 51.0083 20.3214H46.2974C46.3326 20.7178 46.4417 21.0717 46.6248 21.3831C46.8149 21.6875 47.0579 21.9317 47.3536 22.1157C47.6564 22.2926 47.9839 22.3811 48.336 22.3811C48.6951 22.3811 49.0331 22.2891 49.35 22.1051C49.6739 21.921 49.8992 21.6804 50.026 21.3831L50.6492 21.553C50.5365 21.8149 50.364 22.052 50.1316 22.2643C49.8992 22.4767 49.6246 22.643 49.3077 22.7633C48.9979 22.8766 48.6634 22.9332 48.3043 22.9332ZM46.2762 19.8011H50.3429C50.3147 19.3977 50.2055 19.0438 50.0154 18.7394C49.8323 18.4351 49.5894 18.1979 49.2866 18.0281C48.9908 17.8511 48.6634 17.7626 48.3043 17.7626C47.9451 17.7626 47.6177 17.8511 47.3219 18.0281C47.0262 18.1979 46.7832 18.4386 46.5931 18.75C46.41 19.0544 46.3044 19.4048 46.2762 19.8011Z" fill="white"/>
<path d="M51.6834 21.2345C51.6834 20.8876 51.782 20.5904 51.9792 20.3426C52.1763 20.0878 52.4474 19.8932 52.7925 19.7587C53.1446 19.6171 53.5495 19.5463 54.0072 19.5463C54.2748 19.5463 54.5529 19.5676 54.8417 19.61C55.1304 19.6525 55.3874 19.7162 55.6127 19.8011V19.334C55.6127 18.8668 55.4754 18.4952 55.2008 18.2192C54.9262 17.9431 54.5459 17.8051 54.06 17.8051C53.7643 17.8051 53.472 17.8617 53.1833 17.975C52.9016 18.0811 52.6059 18.2404 52.296 18.4527L52.0214 17.9431C52.3805 17.6954 52.7326 17.5114 53.0777 17.391C53.4227 17.2636 53.7748 17.1999 54.134 17.1999C54.81 17.1999 55.3451 17.3946 55.7395 17.7839C56.1338 18.1732 56.331 18.7111 56.331 19.3977V21.9564C56.331 22.0555 56.3521 22.1298 56.3944 22.1794C56.4366 22.2219 56.5035 22.2466 56.5951 22.2537V22.827C56.5176 22.8341 56.4507 22.8412 56.3944 22.8483C56.338 22.8554 56.2958 22.8554 56.2676 22.8483C56.0916 22.8412 55.9578 22.7846 55.8662 22.6784C55.7747 22.5722 55.7254 22.459 55.7184 22.3387L55.7078 21.9352C55.4613 22.2537 55.1409 22.5015 54.7466 22.6784C54.3522 22.8483 53.9509 22.9332 53.5424 22.9332C53.1904 22.9332 52.87 22.8589 52.5812 22.7103C52.2996 22.5545 52.0778 22.3493 51.9158 22.0945C51.7609 21.8326 51.6834 21.5459 51.6834 21.2345ZM55.3698 21.6592C55.4472 21.5601 55.5071 21.4645 55.5494 21.3725C55.5916 21.2805 55.6127 21.1991 55.6127 21.1283V20.3214C55.3733 20.2294 55.1233 20.1586 54.8628 20.109C54.6093 20.0595 54.3522 20.0347 54.0917 20.0347C53.5777 20.0347 53.1622 20.1373 52.8453 20.3426C52.5284 20.5479 52.37 20.8275 52.37 21.1814C52.37 21.3866 52.4228 21.5813 52.5284 21.7653C52.6341 21.9423 52.789 22.0909 52.9932 22.2112C53.1974 22.3245 53.4368 22.3811 53.7114 22.3811C54.0565 22.3811 54.3769 22.3139 54.6726 22.1794C54.9754 22.0449 55.2078 21.8715 55.3698 21.6592Z" fill="white"/>
<path d="M60.4823 22.5616C60.4259 22.5828 60.3379 22.6218 60.2182 22.6784C60.0985 22.735 59.9541 22.7846 59.7851 22.827C59.6161 22.8695 59.4331 22.8907 59.2359 22.8907C59.0317 22.8907 58.838 22.8518 58.6549 22.774C58.4789 22.6961 58.3381 22.5793 58.2324 22.4236C58.1268 22.2608 58.074 22.0626 58.074 21.829V17.8688H57.3135V17.2955H58.074V15.4268H58.7923V17.2955H60.0598V17.8688H58.7923V21.6273C58.8063 21.8255 58.8768 21.9741 59.0035 22.0732C59.1373 22.1723 59.2887 22.2219 59.4577 22.2219C59.6549 22.2219 59.8344 22.19 59.9964 22.1263C60.1584 22.0555 60.2569 22.006 60.2922 21.9777L60.4823 22.5616Z" fill="white"/>
<path d="M63.6635 22.9332C63.2691 22.9332 62.903 22.8589 62.5649 22.7103C62.2269 22.5545 61.9347 22.3457 61.6882 22.0838C61.4418 21.8149 61.2481 21.507 61.1073 21.1601C60.9735 20.8133 60.9066 20.4417 60.9066 20.0453C60.9066 19.5286 61.0228 19.0544 61.2552 18.6226C61.4946 18.1909 61.822 17.8476 62.2375 17.5928C62.653 17.3309 63.1248 17.1999 63.6529 17.1999C64.1951 17.1999 64.6669 17.3309 65.0683 17.5928C65.4767 17.8546 65.7971 18.2015 66.0295 18.6332C66.2619 19.0579 66.3781 19.5251 66.3781 20.0347C66.3781 20.0913 66.3781 20.148 66.3781 20.2046C66.3781 20.2541 66.3745 20.2931 66.3675 20.3214H61.6566C61.6918 20.7178 61.8009 21.0717 61.984 21.3831C62.1741 21.6875 62.4171 21.9317 62.7128 22.1157C63.0156 22.2926 63.3431 22.3811 63.6952 22.3811C64.0543 22.3811 64.3923 22.2891 64.7092 22.1051C65.0331 21.921 65.2584 21.6804 65.3852 21.3831L66.0084 21.553C65.8957 21.8149 65.7232 22.052 65.4908 22.2643C65.2584 22.4767 64.9838 22.643 64.6669 22.7633C64.3571 22.8766 64.0226 22.9332 63.6635 22.9332ZM61.6354 19.8011H65.7021C65.6739 19.3977 65.5647 19.0438 65.3746 18.7394C65.1915 18.4351 64.9486 18.1979 64.6458 18.0281C64.35 17.8511 64.0226 17.7626 63.6635 17.7626C63.3043 17.7626 62.9769 17.8511 62.6811 18.0281C62.3854 18.1979 62.1424 18.4386 61.9523 18.75C61.7692 19.0544 61.6636 19.4048 61.6354 19.8011Z" fill="white"/>
<path d="M67.1166 20.0772C67.1166 19.5534 67.2222 19.0756 67.4334 18.6439C67.6517 18.205 67.951 17.8546 68.3313 17.5928C68.7115 17.3309 69.1446 17.1999 69.6305 17.1999C70.0882 17.1999 70.4966 17.3238 70.8557 17.5715C71.2219 17.8122 71.5071 18.1059 71.7113 18.4527V15.0765H72.4296V21.9564C72.4296 22.0555 72.4507 22.1298 72.493 22.1794C72.5352 22.2219 72.5986 22.2466 72.6831 22.2537V22.827C72.5422 22.8483 72.4331 22.8554 72.3556 22.8483C72.2078 22.8412 72.0775 22.781 71.9648 22.6678C71.8521 22.5545 71.7958 22.4307 71.7958 22.2962V21.7547C71.5775 22.1157 71.2818 22.4024 70.9085 22.6147C70.5353 22.827 70.148 22.9332 69.7467 22.9332C69.3664 22.9332 69.0143 22.8554 68.6904 22.6996C68.3735 22.5439 68.0954 22.3316 67.8559 22.0626C67.6236 21.7936 67.4405 21.4893 67.3067 21.1495C67.1799 20.8027 67.1166 20.4452 67.1166 20.0772ZM71.7113 20.9266V19.2172C71.6198 18.9624 71.4719 18.7323 71.2677 18.5271C71.0635 18.3147 70.8311 18.1484 70.5705 18.0281C70.317 17.9007 70.0635 17.8369 69.81 17.8369C69.5143 17.8369 69.2467 17.9007 69.0073 18.0281C68.7678 18.1484 68.5601 18.3147 68.3841 18.5271C68.2151 18.7394 68.0848 18.9801 67.9933 19.249C67.9017 19.518 67.8559 19.7941 67.8559 20.0772C67.8559 20.3745 67.9052 20.6576 68.0038 20.9266C68.1094 21.1955 68.2573 21.4362 68.4474 21.6485C68.6376 21.8538 68.8559 22.0131 69.1023 22.1263C69.3488 22.2396 69.6164 22.2962 69.9051 22.2962C70.0882 22.2962 70.2783 22.2608 70.4755 22.19C70.6726 22.1192 70.8593 22.0237 71.0353 21.9033C71.2184 21.7759 71.3698 21.6273 71.4895 21.4574C71.6092 21.2875 71.6831 21.1106 71.7113 20.9266Z" fill="white"/>
<path d="M79.4427 22.9332C79.0131 22.9332 78.6153 22.8235 78.2491 22.6041C77.8829 22.3776 77.5977 22.0945 77.3935 21.7547V22.827H76.7492V15.0765H77.4675V18.4527C77.7139 18.0776 78.0097 17.7768 78.3547 17.5503C78.6998 17.3167 79.1012 17.1999 79.5589 17.1999C79.9462 17.1999 80.2912 17.2813 80.594 17.4441C80.9039 17.6069 81.1679 17.8263 81.3862 18.1024C81.6045 18.3713 81.77 18.6792 81.8827 19.0261C81.9953 19.3658 82.0517 19.7162 82.0517 20.0772C82.0517 20.4665 81.9848 20.831 81.851 21.1708C81.7242 21.5105 81.5411 21.8149 81.3017 22.0838C81.0623 22.3457 80.7842 22.5545 80.4673 22.7103C80.1574 22.8589 79.8159 22.9332 79.4427 22.9332ZM79.2737 22.2962C79.5694 22.2962 79.8441 22.236 80.0976 22.1157C80.3511 21.9954 80.5694 21.829 80.7525 21.6167C80.9356 21.4043 81.0764 21.1672 81.175 20.9053C81.2736 20.6364 81.3228 20.3603 81.3228 20.0772C81.3228 19.6879 81.2383 19.3234 81.0693 18.9836C80.9074 18.6368 80.6785 18.3607 80.3828 18.1555C80.0941 17.9431 79.7525 17.8369 79.3582 17.8369C79.0765 17.8369 78.8125 17.9007 78.566 18.0281C78.3266 18.1555 78.1118 18.3253 77.9217 18.5377C77.7386 18.743 77.5872 18.9695 77.4675 19.2172V20.9372C77.4956 21.1283 77.5696 21.3088 77.6893 21.4787C77.809 21.6415 77.9569 21.783 78.1329 21.9033C78.316 22.0237 78.5061 22.1192 78.7033 22.19C78.9005 22.2608 79.0906 22.2962 79.2737 22.2962Z" fill="white"/>
<path d="M83.3996 24.5258C83.4982 24.5329 83.5932 24.5364 83.6848 24.5364C83.7763 24.5435 83.8432 24.54 83.8855 24.5258C83.97 24.5116 84.0509 24.4621 84.1284 24.3772C84.2059 24.2922 84.2974 24.1294 84.403 23.8888C84.5087 23.6481 84.6565 23.2942 84.8467 22.827L82.4489 17.2955H83.2094L85.2269 22.0838L87.0859 17.2955H87.8042L84.9523 24.4302C84.903 24.5647 84.8291 24.6886 84.7305 24.8019C84.6319 24.9222 84.5086 25.0142 84.3608 25.0779C84.2199 25.1487 84.0439 25.1876 83.8326 25.1947C83.7693 25.2018 83.7024 25.2018 83.6319 25.1947C83.5686 25.1947 83.4911 25.1876 83.3996 25.1735V24.5258Z" fill="white"/>
<path d="M35.3312 8.94298V0.245013H38.9631C39.3531 0.245013 39.7106 0.326684 40.0356 0.490026C40.3688 0.653368 40.6532 0.869796 40.8888 1.13931C41.1244 1.40066 41.3072 1.70284 41.4372 2.04586C41.5754 2.38071 41.6444 2.72373 41.6444 3.07491C41.6444 3.44243 41.5794 3.7977 41.4494 4.14072C41.3275 4.47557 41.1528 4.77775 40.9253 5.04727C40.6978 5.30862 40.4216 5.52096 40.0966 5.6843C39.7797 5.83948 39.4263 5.91706 39.0362 5.91706H36.6962V8.94298H35.3312ZM36.6962 4.70425H38.9509C39.1459 4.70425 39.3206 4.66341 39.475 4.58174C39.6375 4.50007 39.7756 4.38573 39.8894 4.23873C40.0031 4.09172 40.0925 3.92021 40.1575 3.7242C40.2225 3.52819 40.255 3.31176 40.255 3.07491C40.255 2.8299 40.2185 2.60939 40.1453 2.41338C40.0722 2.21737 39.9706 2.04994 39.8406 1.9111C39.7106 1.76409 39.5603 1.65384 39.3897 1.58033C39.2272 1.49866 39.0566 1.45783 38.8778 1.45783H36.6962V4.70425Z" fill="white"/>
<path d="M42.9247 8.94298V0.245013H46.6907C47.0807 0.245013 47.4382 0.326684 47.7632 0.490026C48.0963 0.653368 48.3807 0.869796 48.6164 1.13931C48.852 1.40066 49.0348 1.70284 49.1648 2.04586C49.3029 2.38071 49.372 2.72373 49.372 3.07491C49.372 3.36893 49.3314 3.65069 49.2501 3.92021C49.1689 4.18972 49.0551 4.43882 48.9089 4.6675C48.7626 4.89618 48.5839 5.09627 48.3726 5.26778C48.1613 5.43112 47.9298 5.55363 47.6779 5.6353L49.7132 8.94298H48.1654L46.2885 5.91706H44.2897V8.94298H42.9247ZM44.2897 4.70425H46.6785C46.8735 4.70425 47.0482 4.66341 47.2026 4.58174C47.3651 4.49191 47.5032 4.37348 47.617 4.22647C47.7307 4.0713 47.8201 3.89571 47.8851 3.6997C47.9501 3.50369 47.9826 3.29542 47.9826 3.07491C47.9826 2.8544 47.942 2.64614 47.8607 2.45013C47.7876 2.25412 47.686 2.08261 47.556 1.9356C47.4341 1.78859 47.2879 1.67426 47.1173 1.59258C46.9548 1.50275 46.7841 1.45783 46.6054 1.45783H44.2897V4.70425Z" fill="white"/>
<path d="M54.5778 9.00423C53.9602 9.00423 53.3955 8.88172 52.8837 8.63671C52.3799 8.38353 51.9452 8.05276 51.5796 7.64441C51.214 7.22788 50.9296 6.75419 50.7264 6.22333C50.5314 5.69247 50.4339 5.14936 50.4339 4.59399C50.4339 4.01413 50.5396 3.45877 50.7508 2.92791C50.9621 2.39704 51.2505 1.92744 51.6161 1.51908C51.9899 1.11073 52.4287 0.788125 52.9324 0.551279C53.4443 0.306266 54.0009 0.18376 54.6021 0.18376C55.2196 0.18376 55.7803 0.314433 56.284 0.57578C56.7959 0.828961 57.2306 1.16381 57.5881 1.58033C57.9537 1.99686 58.2341 2.47055 58.4291 3.00141C58.6322 3.5241 58.7338 4.05905 58.7338 4.60625C58.7338 5.18611 58.6281 5.74147 58.4169 6.27233C58.2138 6.80319 57.9253 7.2728 57.5516 7.68116C57.1778 8.08135 56.735 8.40395 56.2231 8.64896C55.7193 8.88581 55.1709 9.00423 54.5778 9.00423ZM51.8233 4.59399C51.8233 5.00235 51.8883 5.39845 52.0183 5.78231C52.1483 6.16616 52.3312 6.5051 52.5668 6.79911C52.8105 7.09313 53.103 7.32997 53.4443 7.50965C53.7856 7.68116 54.1674 7.76691 54.5899 7.76691C55.0287 7.76691 55.4146 7.67707 55.7478 7.4974C56.089 7.30956 56.3775 7.06454 56.6131 6.76236C56.8487 6.46018 57.0275 6.12124 57.1494 5.74556C57.2712 5.36987 57.3322 4.98601 57.3322 4.59399C57.3322 4.17747 57.2672 3.78137 57.1372 3.40568C57.0072 3.02183 56.8203 2.68698 56.5765 2.40113C56.3409 2.10711 56.0525 1.87435 55.7112 1.70284C55.3781 1.52316 55.0043 1.43333 54.5899 1.43333C54.1512 1.43333 53.7612 1.52725 53.4199 1.71509C53.0787 1.89477 52.7902 2.13161 52.5546 2.42563C52.319 2.71964 52.1362 3.05858 52.0062 3.44243C51.8843 3.81812 51.8233 4.20197 51.8233 4.59399Z" fill="white"/>
<path d="M60.147 8.94298V0.245013H65.9117V1.45783H61.512V4.05497H65.1927V5.19428H61.512V8.94298H60.147Z" fill="white"/>
<path d="M67.2049 8.94298V0.245013H68.5699V8.94298H67.2049Z" fill="white"/>
<path d="M72.9883 4.53274C72.9883 4.01005 73.0818 3.49144 73.2686 2.97691C73.4555 2.45421 73.7277 1.98869 74.0852 1.58033C74.4508 1.16381 74.8937 0.828961 75.4137 0.57578C75.9337 0.3226 76.5228 0.19601 77.1809 0.19601C77.969 0.19601 78.6434 0.371603 79.2041 0.722789C79.7647 1.07397 80.1872 1.53133 80.4716 2.09486L79.3991 2.81765C79.2772 2.5563 79.1309 2.33579 78.9603 2.15611C78.7897 1.97644 78.6028 1.83351 78.3997 1.72734C78.1965 1.62117 77.9853 1.54767 77.7659 1.50683C77.5465 1.45783 77.3353 1.43333 77.1321 1.43333C76.6771 1.43333 76.279 1.52725 75.9377 1.71509C75.5965 1.89477 75.308 2.1357 75.0724 2.43788C74.8449 2.74006 74.6702 3.079 74.5483 3.45468C74.4346 3.83037 74.3777 4.20606 74.3777 4.58174C74.3777 5.00643 74.4468 5.4107 74.5849 5.79456C74.723 6.17841 74.914 6.51735 75.1577 6.81136C75.4096 7.10538 75.7062 7.34222 76.0474 7.5219C76.3887 7.69341 76.7624 7.77916 77.1687 7.77916C77.38 7.77916 77.5953 7.75466 77.8147 7.70566C78.0422 7.64849 78.2575 7.56274 78.4606 7.4484C78.6719 7.32589 78.8628 7.1748 79.0334 6.99512C79.2122 6.81545 79.3584 6.59902 79.4722 6.34584L80.6056 6.99512C80.4675 7.32181 80.2725 7.61174 80.0206 7.86492C79.7687 8.10993 79.4844 8.31819 79.1675 8.4897C78.8506 8.66121 78.5134 8.79188 78.1559 8.88172C77.8065 8.97156 77.4612 9.01648 77.12 9.01648C76.5106 9.01648 75.954 8.88581 75.4502 8.62446C74.9465 8.36311 74.5118 8.02418 74.1462 7.60765C73.7805 7.18297 73.4961 6.70519 73.293 6.17433C73.0899 5.6353 72.9883 5.0881 72.9883 4.53274Z" fill="white"/>
<path d="M85.2808 3.6997C84.7608 3.71603 84.2976 3.83854 83.8914 4.06722C83.4932 4.28773 83.2089 4.60624 83.0382 5.02277V8.94298H81.6976V2.53588H82.9407V3.96921C83.1601 3.52819 83.4445 3.177 83.7939 2.91566C84.1514 2.64614 84.5332 2.49913 84.9395 2.47463C85.0208 2.47463 85.0858 2.47463 85.1345 2.47463C85.1914 2.47463 85.2401 2.47872 85.2808 2.48688V3.6997Z" fill="white"/>
<path d="M88.8232 9.06548C88.3276 9.06548 87.8766 8.97973 87.4704 8.80822C87.0641 8.62854 86.7147 8.38761 86.4222 8.08543C86.1378 7.78325 85.9144 7.43206 85.7519 7.03187C85.5975 6.63169 85.5203 6.207 85.5203 5.75781C85.5203 5.30862 85.5975 4.88393 85.7519 4.48374C85.9144 4.07538 86.1378 3.72011 86.4222 3.41793C86.7147 3.10758 87.0641 2.86665 87.4704 2.69514C87.8766 2.51547 88.3316 2.42563 88.8354 2.42563C89.331 2.42563 89.7779 2.51547 90.176 2.69514C90.5823 2.87482 90.9276 3.11575 91.212 3.41793C91.4964 3.71195 91.7117 4.05905 91.8579 4.45924C92.0123 4.85126 92.0895 5.2637 92.0895 5.69655C92.0895 5.79456 92.0854 5.88848 92.0773 5.97832C92.0692 6.05999 92.0611 6.12941 92.0529 6.18658H86.9463C86.9707 6.47243 87.0357 6.72969 87.1413 6.95837C87.255 7.18705 87.3972 7.38714 87.5679 7.55865C87.7466 7.72199 87.9457 7.84858 88.1651 7.93842C88.3926 8.02826 88.6282 8.07318 88.8719 8.07318C89.0507 8.07318 89.2254 8.05276 89.396 8.01193C89.5748 7.96292 89.7373 7.89759 89.8835 7.81592C90.0298 7.72608 90.1598 7.6199 90.2735 7.4974C90.3873 7.37489 90.4767 7.24014 90.5417 7.09313L91.6873 7.42389C91.4679 7.90575 91.1023 8.30186 90.5904 8.61221C90.0867 8.91439 89.4976 9.06548 88.8232 9.06548ZM90.761 5.25553C90.7367 4.98601 90.6676 4.73692 90.5538 4.50824C90.4482 4.27956 90.3101 4.08763 90.1395 3.93246C89.9688 3.76912 89.7698 3.64253 89.5423 3.55269C89.3148 3.46285 89.0751 3.41793 88.8232 3.41793C88.5713 3.41793 88.3316 3.46285 88.1041 3.55269C87.8847 3.64253 87.6897 3.76912 87.5191 3.93246C87.3485 4.08763 87.2104 4.27956 87.1047 4.50824C86.9991 4.73692 86.9341 4.98601 86.9097 5.25553H90.761Z" fill="white"/>
<path d="M94.8771 9.06548C94.5684 9.06548 94.2799 9.01648 94.0118 8.91847C93.7518 8.8123 93.5243 8.66938 93.3293 8.4897C93.1424 8.31003 92.9921 8.09768 92.8784 7.85267C92.7727 7.60765 92.7199 7.34222 92.7199 7.05638C92.7199 6.75419 92.7849 6.48059 92.9149 6.23558C93.0449 5.99057 93.2277 5.77822 93.4634 5.59855C93.7071 5.41887 93.9915 5.28003 94.3165 5.18203C94.6496 5.08402 95.0153 5.03502 95.4134 5.03502C95.714 5.03502 96.0106 5.0636 96.3031 5.12077C96.5956 5.16977 96.8597 5.23919 97.0953 5.32903V4.88801C97.0953 4.41432 96.9612 4.0468 96.6931 3.78545C96.425 3.51594 96.039 3.38118 95.5353 3.38118C95.194 3.38118 94.8568 3.44652 94.5237 3.57719C94.1987 3.6997 93.8615 3.87937 93.5121 4.11622L93.0977 3.25867C93.9184 2.70331 94.7715 2.42563 95.6572 2.42563C96.5347 2.42563 97.2172 2.65022 97.7047 3.09941C98.1922 3.54861 98.436 4.19381 98.436 5.03502V7.35039C98.436 7.63624 98.5538 7.78325 98.7894 7.79141V8.94298C98.6594 8.96748 98.5456 8.98381 98.4481 8.99198C98.3588 9.00014 98.2694 9.00423 98.18 9.00423C97.92 9.00423 97.7169 8.93889 97.5706 8.80822C97.4325 8.67754 97.3472 8.51012 97.3147 8.30594L97.2781 7.90167C96.9937 8.27736 96.6403 8.56729 96.2178 8.77147C95.8034 8.96748 95.3565 9.06548 94.8771 9.06548ZM95.2428 8.07318C95.5678 8.07318 95.8725 8.01601 96.1568 7.90167C96.4494 7.77916 96.6769 7.61174 96.8394 7.39939C97.01 7.25239 97.0953 7.09721 97.0953 6.93387V6.08857C96.8678 5.99874 96.6241 5.92932 96.364 5.88031C96.1122 5.83131 95.8643 5.80681 95.6206 5.80681C95.1412 5.80681 94.7471 5.91298 94.4384 6.12533C94.1378 6.3295 93.9874 6.6031 93.9874 6.94612C93.9874 7.26464 94.1053 7.53415 94.3409 7.75466C94.5765 7.96701 94.8771 8.07318 95.2428 8.07318Z" fill="white"/>
<path d="M103.561 8.61221C103.391 8.69388 103.155 8.7878 102.855 8.89397C102.554 8.99198 102.233 9.04098 101.892 9.04098C101.68 9.04098 101.481 9.0124 101.295 8.95523C101.108 8.89806 100.941 8.8123 100.795 8.69796C100.657 8.58362 100.547 8.43661 100.466 8.25694C100.385 8.0691 100.344 7.8445 100.344 7.58315V3.57719H99.503V2.53588H100.344V0.428772H101.685V2.53588H103.074V3.57719H101.685V7.15438C101.701 7.38306 101.77 7.55048 101.892 7.65666C102.022 7.75466 102.18 7.80366 102.367 7.80366C102.554 7.80366 102.733 7.771 102.903 7.70566C103.074 7.64032 103.2 7.58724 103.281 7.5464L103.561 8.61221Z" fill="white"/>
<path d="M104.49 8.94298V2.53588H105.831V8.94298H104.49ZM104.49 1.48233V0H105.831V1.48233H104.49Z" fill="white"/>
<path d="M109.233 8.94298L106.796 2.53588H108.173L110.001 7.80366L111.841 2.53588H113.109L110.671 8.94298H109.233Z" fill="white"/>
<path d="M116.733 9.06548C116.238 9.06548 115.787 8.97973 115.381 8.80822C114.974 8.62854 114.625 8.38761 114.333 8.08543C114.048 7.78325 113.825 7.43206 113.662 7.03187C113.508 6.63169 113.431 6.207 113.431 5.75781C113.431 5.30862 113.508 4.88393 113.662 4.48374C113.825 4.07538 114.048 3.72011 114.333 3.41793C114.625 3.10758 114.974 2.86665 115.381 2.69514C115.787 2.51547 116.242 2.42563 116.746 2.42563C117.241 2.42563 117.688 2.51547 118.086 2.69514C118.493 2.87482 118.838 3.11575 119.122 3.41793C119.407 3.71195 119.622 4.05905 119.768 4.45924C119.923 4.85126 120 5.2637 120 5.69655C120 5.79456 119.996 5.88848 119.988 5.97832C119.979 6.05999 119.971 6.12941 119.963 6.18658H114.857C114.881 6.47243 114.946 6.72969 115.052 6.95837C115.165 7.18705 115.308 7.38714 115.478 7.55865C115.657 7.72199 115.856 7.84858 116.075 7.93842C116.303 8.02826 116.538 8.07318 116.782 8.07318C116.961 8.07318 117.136 8.05276 117.306 8.01193C117.485 7.96292 117.648 7.89759 117.794 7.81592C117.94 7.72608 118.07 7.6199 118.184 7.4974C118.298 7.37489 118.387 7.24014 118.452 7.09313L119.598 7.42389C119.378 7.90575 119.013 8.30186 118.501 8.61221C117.997 8.91439 117.408 9.06548 116.733 9.06548ZM118.671 5.25553C118.647 4.98601 118.578 4.73692 118.464 4.50824C118.359 4.27956 118.22 4.08763 118.05 3.93246C117.879 3.76912 117.68 3.64253 117.453 3.55269C117.225 3.46285 116.985 3.41793 116.733 3.41793C116.482 3.41793 116.242 3.46285 116.014 3.55269C115.795 3.64253 115.6 3.76912 115.429 3.93246C115.259 4.08763 115.121 4.27956 115.015 4.50824C114.909 4.73692 114.844 4.98601 114.82 5.25553H118.671Z" fill="white"/>
<path d="M15.5984 13.2273C17.3474 13.2273 18.6261 13.1326 19.4381 12.9486C20.2536 12.7628 20.9599 12.4502 21.5606 12.0143C22.3179 11.4712 22.908 10.7208 23.3324 9.77044C23.7569 8.81825 23.9718 7.76597 23.9718 6.60834C23.9718 5.45064 23.7569 4.39304 23.3324 3.44085C22.908 2.49038 22.3179 1.74009 21.5606 1.19697C20.9599 0.771813 20.2484 0.464499 19.4311 0.280469C18.6103 0.0947053 17.3351 0 15.5984 0H10.6385V8.51811L3.26021 0L0 0.00717446L9.35976 10.7709H8.39451C6.64728 10.7709 5.36678 10.8673 4.55656 11.0514C3.73933 11.2354 3.03303 11.5498 2.43243 11.9857C1.67679 12.5288 1.08497 13.2792 0.660495 14.2296C0.236022 15.18 0.0211618 16.2322 0.0211618 17.3917C0.0211618 18.5494 0.236022 19.607 0.660495 20.5574C1.08497 21.5096 1.67679 22.2581 2.43243 22.8012C3.03303 23.2264 3.74457 23.5355 4.56187 23.7195C5.38264 23.9035 6.65783 24 8.39451 24H13.3862V17.5132L10.6385 14.3457V21.3917H9.18363C6.81816 21.3917 5.2012 21.079 4.34701 20.4573C3.49099 19.8356 3.06121 18.7566 3.06121 17.2291C3.06121 15.7963 3.48038 14.7941 4.31353 14.2242C5.14662 13.6471 6.77413 13.3613 9.18363 13.3613H11.6125L20.8155 23.9464L24 23.9428L14.7195 13.2273H15.5984ZM13.3862 2.60835H14.8093C17.1748 2.60835 18.7917 2.92098 19.6477 3.54267C20.502 4.16256 20.9317 5.24342 20.9317 6.7709C20.9317 8.20368 20.5125 9.20413 19.6794 9.77577C18.8463 10.3511 17.2206 10.6369 14.8093 10.6369H13.3862V2.60835Z" fill="white"/>
</svg>
