<svg width="29" height="29" viewBox="0 0 29 29" fill="none" xmlns="http://www.w3.org/2000/svg">
<path d="M18.8481 15.983C20.9615 15.983 22.5066 15.8686 23.4877 15.6463C24.4731 15.4217 25.3265 15.044 26.0523 14.5172C26.9675 13.861 27.6804 12.9544 28.1934 11.806C28.7063 10.6554 28.966 9.38388 28.966 7.98507C28.966 6.5862 28.7063 5.30826 28.1934 4.15769C27.6804 3.00921 26.9675 2.10261 26.0523 1.44634C25.3265 0.932608 24.4668 0.56127 23.4792 0.3389C22.4874 0.114436 20.9466 0 18.8481 0H12.8548V10.2927L3.93942 0L0 0.00866914L11.3097 13.0148H10.1434C8.03213 13.0148 6.48486 13.1314 5.50585 13.3537C4.51836 13.5761 3.66491 13.956 2.93918 14.4827C2.02612 15.139 1.311 16.0456 0.798099 17.194C0.285193 18.3424 0.0255705 19.614 0.0255705 21.0149C0.0255705 22.4138 0.285193 23.6917 0.798099 24.8401C1.311 25.9907 2.02612 26.8952 2.93918 27.5515C3.66491 28.0652 4.52469 28.4387 5.51226 28.661C6.50402 28.8834 8.04488 29 10.1434 29H16.1749V21.1617L12.8548 17.3343V25.8482H11.0969C8.23861 25.8482 6.28479 25.4705 5.25264 24.7193C4.21828 23.968 3.69896 22.6642 3.69896 20.8185C3.69896 19.0872 4.20546 17.8762 5.21218 17.1875C6.21883 16.4903 8.18541 16.1449 11.0969 16.1449H14.0318L25.152 28.9352L29 28.9309L17.7861 15.983H18.8481ZM16.1749 3.15175H17.8946C20.7529 3.15175 22.7067 3.52952 23.741 4.28072C24.7732 5.02975 25.2925 6.3358 25.2925 8.18151C25.2925 9.91278 24.786 11.1217 23.7793 11.8124C22.7726 12.5075 20.8083 12.8529 17.8946 12.8529H16.1749V3.15175Z" fill="white"/>
</svg>
