<svg width="124" height="23" viewBox="0 0 124 23" fill="none" xmlns="http://www.w3.org/2000/svg">
<path d="M63.9077 7.75324C63.9077 5.48641 63.7477 5.34029 62.0736 5.2062V4.72656L71.2123 4.72656C71.2346 5.08209 71.339 6.60541 71.4433 7.77298L70.9193 7.83514C70.7106 6.79482 70.4887 6.25646 70.169 5.91295C69.8448 5.56509 69.152 5.41989 67.8754 5.41989L66.2923 5.41989C65.7039 5.41989 65.6616 5.45759 65.6616 6.06588V10.926L67.7711 10.926C69.5695 10.926 69.6295 10.8008 69.8448 9.2609H70.3643V13.2956H69.8448C69.7338 12.5258 69.6673 12.1115 69.4007 11.8776C69.1254 11.6516 68.6634 11.6085 67.7711 11.6085H65.6616V15.2666C65.6616 16.4564 65.7948 17.0812 66.1879 17.3272C66.5808 17.5731 67.3359 17.5731 68.3171 17.5731C69.5006 17.5731 70.4887 17.4724 70.9438 16.9714C71.2969 16.6016 71.6255 15.888 71.9409 14.9319L72.4603 14.9918C72.3626 15.5802 71.9008 17.6972 71.7321 18.2645L61.8672 18.2645V17.7846C63.7477 17.6607 63.9077 17.5078 63.9077 15.2466V7.75324Z" fill="white"/>
<path d="M88.1849 15.2466C88.1849 17.5078 88.3514 17.6607 90.0588 17.7846V18.2645H84.5547V17.7846C86.2644 17.6607 86.4355 17.5078 86.4355 15.2466V7.75324C86.4355 5.48641 86.2644 5.34029 84.5547 5.2062V4.72656L90.0588 4.72656V5.2062C88.3514 5.34029 88.1849 5.48641 88.1849 7.75324V15.2466Z" fill="white"/>
<path d="M96.8639 4.72656V5.2062C95.1944 5.34029 95.0257 5.48641 95.0257 7.75324V12.0981C95.0257 13.8728 95.2542 15.2013 95.9004 16.1428C96.5488 17.0524 97.5035 17.5731 98.9044 17.5731C100.226 17.5731 101.305 17.0159 101.975 16.0165C102.659 14.9773 102.91 13.1418 102.91 11.3902V10.2681C102.91 8.08994 102.832 6.93894 102.743 6.29186C102.641 5.56509 102.08 5.27041 100.703 5.2062V4.72656L105.707 4.72656V5.2062C104.56 5.25271 104.02 5.56509 103.911 6.29186C103.827 6.93894 103.751 8.08994 103.751 10.2681V11.6673C103.751 14.0834 103.372 15.7873 102.162 17.0812C101.262 18.0305 99.7593 18.5801 98.3028 18.5801C97.1572 18.5801 95.8426 18.3087 94.8813 17.5078C93.7754 16.6216 93.2716 15.2013 93.2716 12.8305V7.75324C93.2716 5.48641 93.105 5.34029 91.3555 5.2062V4.72656L96.8639 4.72656Z" fill="white"/>
<path d="M110.297 4.72656L115.348 15.4526L120.308 4.72656L123.752 4.72656V5.2062C121.938 5.35141 121.814 5.43989 121.876 7.75324L122.043 15.2466C122.107 17.5731 122.167 17.6407 124.001 17.7846V18.2645H118.497V17.7846C120.246 17.6407 120.308 17.5731 120.293 15.2466L120.211 6.85136H120.126L115.011 18.0305H114.491L109.673 7.14836H109.631L109.425 12.9578C109.336 14.912 109.336 16.0521 109.425 16.7035C109.527 17.4724 110.026 17.6761 111.383 17.7846V18.2645H106.48V17.7846C107.648 17.6761 108.083 17.4724 108.23 16.7035C108.359 16.0521 108.483 14.8112 108.587 12.7429L108.816 8.37468C108.967 5.58624 108.816 5.35141 106.858 5.2062V4.72656H110.297Z" fill="white"/>
<path d="M49.8886 4.72656C49.8199 5.68698 49.7421 6.80145 49.6621 7.87934H50.1816C50.437 6.95981 50.688 6.37944 50.9144 6.07586C51.2252 5.68698 51.7936 5.41989 53.6521 5.41989H54.6267V15.2466C54.6267 17.5078 54.4626 17.6607 52.5041 17.7846V18.2645H58.5967V17.7846C56.5495 17.6607 56.3765 17.5078 56.3765 15.2466V5.41989H57.7795C59.0673 5.41989 59.718 5.56509 60.0711 5.96514C60.3862 6.29186 60.6172 6.87133 60.8214 7.87934H61.3409C61.2699 6.87133 61.1879 5.60507 61.119 4.72656L49.8886 4.72656Z" fill="white"/>
<path d="M49.1384 17.0159C48.5788 16.3965 48.1368 15.8261 47.3843 14.7225C46.7625 13.8109 45.9033 12.3729 45.5258 11.7492C47.2176 11.0644 48.2835 9.83379 48.2835 8.10536C48.2835 6.8956 47.7417 5.96514 46.9046 5.4399C46.132 4.91601 44.942 4.72656 43.6097 4.72656H40.1504V5.41989H42.06C42.2953 5.42216 42.7617 5.42216 43.2545 5.42215C44.8242 5.42215 46.4073 6.20995 46.4073 8.39465C46.4073 9.41155 46.0965 10.4375 45.1994 11.1442C44.631 11.6028 43.9671 11.6239 43.1102 11.6239H40.1504V12.3075L43.0213 12.3075C43.6651 12.3075 44.0028 12.5181 44.3424 13.0585C44.924 14.0391 45.8012 15.5802 46.4494 16.5129C47.2376 17.6607 47.9747 18.3929 50.3684 18.4539H50.6614L50.7058 18.0539C49.9553 17.8667 49.5756 17.5321 49.1384 17.0159Z" fill="white"/>
<path d="M82.4562 17.0159C81.8921 16.3965 81.4546 15.8261 80.7021 14.7225C80.0714 13.8109 79.2233 12.3729 78.8414 11.7492C80.5311 11.0644 81.5991 9.83379 81.5991 8.10537C81.5991 6.8956 81.0549 5.96514 80.218 5.4399C79.4498 4.91601 78.2552 4.72656 76.9275 4.72656L73.457 4.72656V5.41989H75.3778C75.6085 5.42216 76.0749 5.42216 76.5678 5.42216C78.1354 5.42216 79.714 6.20995 79.714 8.39465C79.714 9.41155 79.4032 10.4375 78.5106 11.1442C77.9444 11.6028 77.274 11.6239 76.4213 11.6239H73.457V12.3075H76.3347C76.9829 12.3075 77.3206 12.5181 77.658 13.0585C78.2418 14.0391 79.1124 15.5802 79.7606 16.5129C80.5511 17.6607 81.2837 18.3929 83.6817 18.4539H83.9792L84.0193 18.0539C83.2687 17.8667 82.8934 17.5321 82.4562 17.0159Z" fill="white"/>
<path d="M35.9813 17.7858L36.6452 17.6984C37.4202 17.6185 37.5023 17.3926 37.2959 16.7477C37.1492 16.2416 36.5465 14.6229 35.9592 13.1219H31.7228C31.5153 13.6637 30.9701 15.2909 30.6793 16.1594C30.2796 17.3726 30.4706 17.6419 31.4064 17.7215L32.0393 17.7858V18.2656H27.5742V17.7858C27.7552 17.7649 27.9062 17.7504 28.0471 17.7215C28.9863 17.5743 29.1885 17.2696 29.8267 15.6621L34.1219 4.60361L34.6049 4.42188L36.0802 8.37584C37.0615 11.0191 37.9807 13.6637 38.7955 15.7885C39.4606 17.5332 39.7348 17.6773 41.0237 17.7858V18.2656H35.9813V17.7858ZM31.9936 12.3298L35.685 12.3298L33.8521 7.20691H33.81L31.9936 12.3298Z" fill="white"/>
<path d="M11.4912 0C12.2637 0.0542259 12.7312 0.180559 13.3073 0.378901C16.7555 1.54215 18.8114 7.30168 12.4713 10.5589C12.4347 10.582 12.1448 10.7195 12.1083 10.7372C11.8852 10.8336 11.6564 10.9255 11.4166 11.0351C7.44007 12.7424 5.08212 13.222 4.01853 15.8045C2.74532 19.2775 5.45635 22.9124 11.5632 23C10.7838 22.9358 10.3109 22.8128 9.73367 22.6166C6.28212 21.4567 4.21952 15.6815 10.5963 12.4166C10.6329 12.3955 10.9237 12.2549 10.966 12.2428C11.1724 12.1541 11.3911 12.0665 11.6144 11.9647C15.5975 10.2553 17.9543 9.78337 19.0256 7.20094C20.2979 3.73002 17.598 0.08962 11.4912 0Z" fill="white"/>
<path d="M11.2927 1.14836C9.82964 0.36401 8.1399 0.379665 6.74346 1.03215C6.25714 1.24138 4.00128 2.3039 2.27289 4.62586C0.92738 6.45929 0.17573 8.56099 0.0291283 10.6815C-0.17736 13.6628 0.730714 16.223 2.22174 18.2824C1.13041 16.6815 1.36373 14.2277 3.29647 12.9404C5.63759 11.3782 8.78492 11.0359 10.5613 10.3856C11.7247 9.98561 12.7426 9.16473 13.3699 7.99944C14.6888 5.53227 13.7595 2.47565 11.2927 1.14836Z" fill="white"/>
<path d="M20.8269 4.70703C21.9225 6.30999 21.685 8.76491 19.7524 10.0568C17.4154 11.6166 14.2737 11.9633 12.4985 12.6036C11.3296 13.0025 10.3061 13.8202 9.68311 14.99C8.35874 17.4572 9.28909 20.517 11.7559 21.8431C13.2201 22.6286 14.9076 22.6152 16.3052 21.9607C16.797 21.7533 19.0462 20.6933 20.7703 18.3645C22.1247 16.5399 22.8686 14.4382 23.0227 12.3146C23.2315 9.33666 22.3179 6.76875 20.8269 4.70703Z" fill="white"/>
</svg>
