<svg width="149" height="32" viewBox="0 0 149 32" fill="none" xmlns="http://www.w3.org/2000/svg">
<path fill-rule="evenodd" clip-rule="evenodd" d="M23.4877 16.2441C22.5066 16.4658 20.9615 16.5811 18.8481 16.5811H17.7861L29 29.5283L25.152 29.5332L14.0318 16.7422H11.0969C8.18539 16.7422 6.21884 17.0879 5.21219 17.7852C4.20544 18.4736 3.69897 19.6846 3.69897 21.416C3.69897 23.2617 4.21826 24.5654 5.25262 25.3174C6.28479 26.0684 8.23862 26.4463 11.0969 26.4463H12.8548V17.9316L16.1749 21.7598V29.5977H10.1434C8.04486 29.5977 6.50403 29.4814 5.51227 29.2588C4.52469 29.0361 3.66492 28.6631 2.93918 28.1494C2.02612 27.4932 1.311 26.5879 0.798096 25.4375C0.285187 24.2891 0.0255737 23.0117 0.0255737 21.6123C0.0255737 20.2119 0.285187 18.9404 0.798096 17.792C1.311 16.6436 2.02612 15.7363 2.93918 15.0801C3.66492 14.5537 4.51834 14.1738 5.50586 13.9512C6.48486 13.7295 8.03214 13.6123 10.1434 13.6123H11.3097L0 0.606445L3.93942 0.597656L12.8548 10.8906V0.597656H18.8481C20.9466 0.597656 22.4874 0.711914 23.4792 0.936523C24.4668 1.15918 25.3265 1.53027 26.0523 2.04395C26.9675 2.7002 27.6805 3.60645 28.1934 4.75488C28.7063 5.90625 28.9659 7.18359 28.9659 8.58301C28.9659 9.98145 28.7063 11.2529 28.1934 12.4033C27.6805 13.5518 26.9675 14.459 26.0523 15.1152C25.3265 15.6416 24.4731 16.0195 23.4877 16.2441ZM17.8946 3.74902H16.1749V13.4502H17.8946C20.8083 13.4502 22.7726 13.1055 23.7793 12.4102C24.786 11.7197 25.2925 10.5107 25.2925 8.7793C25.2925 6.93359 24.7733 5.62695 23.741 4.87793C22.7067 4.12695 20.7529 3.74902 17.8946 3.74902ZM44.2 11.5977V0.947266H48.67C48.9049 0.947266 49.1302 0.970703 49.346 1.01855C49.5711 1.06934 49.7857 1.14551 49.99 1.24805C50.1855 1.34277 50.3674 1.45312 50.5356 1.57812C50.7202 1.71484 50.8883 1.87012 51.04 2.04297C51.33 2.3623 51.555 2.73242 51.715 3.15234C51.7913 3.33594 51.8504 3.52246 51.8925 3.70996C51.9442 3.94141 51.97 4.17578 51.97 4.41309C51.97 4.8623 51.89 5.29785 51.73 5.71777C51.6692 5.88379 51.5977 6.04395 51.5156 6.19727C51.395 6.42188 51.2515 6.63184 51.085 6.82812C50.9056 7.0332 50.7015 7.21289 50.4729 7.36816C50.3447 7.45508 50.2087 7.53516 50.065 7.60742C49.675 7.79785 49.24 7.89258 48.76 7.89258H45.88V11.5977H44.2ZM45.88 6.40723H48.655C48.895 6.40723 49.11 6.35742 49.3 6.25781C49.5 6.15723 49.67 6.01758 49.81 5.83789C49.8368 5.80273 49.8625 5.76758 49.8871 5.73047L49.9221 5.67676C50.0101 5.53516 50.0827 5.37891 50.14 5.20801C50.1753 5.10254 50.2028 4.99219 50.2225 4.87598C50.2475 4.72949 50.26 4.5752 50.26 4.41309C50.26 4.1123 50.215 3.84277 50.125 3.60254C50.035 3.3623 49.91 3.15723 49.75 2.9873C49.59 2.80762 49.405 2.67285 49.195 2.58301C49.1198 2.54492 49.0432 2.51465 48.9651 2.49121C48.9239 2.47949 48.8823 2.46875 48.8402 2.45996C48.7503 2.44141 48.6586 2.43262 48.565 2.43262H45.88V6.40723ZM53.5457 11.5977V0.947266H58.1807C58.3102 0.947266 58.4367 0.954102 58.5604 0.96875C58.6685 0.981445 58.7743 1 58.8779 1.02441C59.0953 1.07422 59.3029 1.14941 59.5007 1.24805C59.9107 1.44727 60.2607 1.71289 60.5507 2.04297C60.8407 2.3623 61.0657 2.73242 61.2257 3.15234C61.3957 3.5625 61.4807 3.98242 61.4807 4.41309C61.4807 4.77246 61.4307 5.11719 61.3307 5.44727C61.2845 5.59961 61.2298 5.74707 61.1666 5.88867C61.0929 6.05469 61.0076 6.21191 60.9107 6.3623C60.7307 6.64258 60.5107 6.8877 60.2507 7.09766C60.1283 7.19141 60.0004 7.27441 59.867 7.34668C59.7169 7.42773 59.5598 7.49414 59.3957 7.54785L61.9007 11.5977H59.9957L57.6857 7.89258H55.2257V11.5977H53.5457ZM55.2257 6.40723H58.1657C58.4057 6.40723 58.6207 6.35742 58.8107 6.25781C59.0107 6.14746 59.1807 6.00293 59.3207 5.82227C59.3786 5.74414 59.4313 5.66113 59.4789 5.57422C59.5465 5.45117 59.6038 5.31836 59.6507 5.17773C59.6727 5.11133 59.6916 5.04395 59.7076 4.97559L59.7342 4.84473C59.7585 4.70605 59.7707 4.56152 59.7707 4.41309C59.7707 4.25488 59.7536 4.10254 59.7195 3.95508C59.6952 3.84961 59.6623 3.74707 59.6207 3.64746C59.5747 3.52441 59.5196 3.41016 59.4554 3.30273C59.3939 3.2002 59.324 3.10547 59.2457 3.01758C59.0957 2.83789 58.9157 2.69727 58.7057 2.59766C58.5057 2.4873 58.2957 2.43262 58.0757 2.43262H55.2257V6.40723ZM67.8877 11.6729C67.1277 11.6729 66.4327 11.5225 65.8027 11.2227C65.1827 10.9131 64.6477 10.5078 64.1977 10.0078C63.7477 9.49805 63.3977 8.91797 63.1477 8.26758C62.9077 7.61719 62.7877 6.95312 62.7877 6.27246C62.7877 5.5625 62.9177 4.88281 63.1777 4.23242C63.4377 3.58301 63.7927 3.00781 64.2427 2.50781C64.7027 2.00781 65.2427 1.6123 65.8627 1.32227C66.4927 1.02246 67.1777 0.873047 67.9177 0.873047C68.6777 0.873047 69.3677 1.03223 69.9877 1.35254C70.6177 1.66309 71.1527 2.07227 71.5927 2.58301C72.0427 3.09277 72.3877 3.67285 72.6277 4.32227C72.8777 4.96289 73.0027 5.61719 73.0027 6.28809C73.0027 6.99805 72.8727 7.67773 72.6127 8.32812C72.3627 8.97754 72.0077 9.55273 71.5477 10.0527C71.0877 10.543 70.5427 10.9375 69.9127 11.2373C69.2927 11.5273 68.6177 11.6729 67.8877 11.6729ZM64.4977 6.27246C64.4977 6.77246 64.5777 7.25781 64.7377 7.72754C64.7759 7.83984 64.8178 7.94922 64.8634 8.05469C64.8965 8.13184 64.9314 8.20703 64.9683 8.28027C65.094 8.5293 65.2421 8.76074 65.4127 8.97266C65.7127 9.33301 66.0727 9.62305 66.4927 9.84277C66.9127 10.0527 67.3827 10.1572 67.9027 10.1572C68.4427 10.1572 68.9177 10.0479 69.3277 9.82812C69.7477 9.59766 70.1027 9.29785 70.3927 8.92773C70.6827 8.55762 70.9027 8.14258 71.0527 7.68262C71.2027 7.22266 71.2777 6.75293 71.2777 6.27246C71.2777 5.7627 71.1977 5.27734 71.0377 4.81738C70.9442 4.54297 70.8268 4.28906 70.6854 4.05566C70.5849 3.88965 70.4724 3.7334 70.3477 3.58789C70.2289 3.44043 70.0991 3.30566 69.9585 3.18262C69.7559 3.00586 69.5306 2.85645 69.2827 2.73242C68.8727 2.5127 68.4127 2.40234 67.9027 2.40234C67.3627 2.40234 66.8827 2.51758 66.4627 2.74805C66.2372 2.86621 66.0304 3.00391 65.8424 3.16211C65.6802 3.29883 65.532 3.45117 65.3977 3.61719C65.1077 3.97754 64.8827 4.39258 64.7227 4.8623C64.5727 5.32227 64.4977 5.79297 64.4977 6.27246ZM74.742 0.947266H81.837V2.43262H76.422V5.6123H80.952V7.00781H76.422V11.5977H74.742V0.947266ZM83.4285 0.947266H85.1085V11.5977H83.4285V0.947266ZM90.5465 6.19727C90.5465 5.55762 90.6615 4.92285 90.8915 4.29297C91.1215 3.65234 91.4565 3.08301 91.8965 2.58301C92.3465 2.07227 92.8915 1.66309 93.5315 1.35254C94.1715 1.04297 94.8965 0.887695 95.7065 0.887695C96.6765 0.887695 97.5065 1.10254 98.1965 1.53223C98.8865 1.96289 99.4065 2.52246 99.7565 3.21289L98.4365 4.09766C98.2865 3.77734 98.1065 3.50781 97.8965 3.28809C97.6865 3.06738 97.4565 2.89258 97.2065 2.7627C96.9565 2.63281 96.6965 2.54297 96.4265 2.49219C96.1565 2.43262 95.8965 2.40234 95.6465 2.40234C95.0865 2.40234 94.5965 2.51758 94.1765 2.74805C93.7565 2.96777 93.4015 3.2627 93.1115 3.63281C92.8315 4.00293 92.6165 4.41797 92.4665 4.87793C92.3265 5.33789 92.2565 5.79785 92.2565 6.25781C92.2565 6.77734 92.3415 7.27246 92.5115 7.74219C92.6815 8.21289 92.9165 8.62793 93.2165 8.9873C93.5265 9.34766 93.8915 9.6377 94.3115 9.85742C94.7315 10.0674 95.1915 10.1729 95.6915 10.1729C95.8344 10.1729 95.9787 10.1641 96.1246 10.1455C96.2442 10.1309 96.3648 10.1094 96.4865 10.083C96.6188 10.0498 96.7478 10.0088 96.8735 9.95996C96.9357 9.93555 96.9972 9.90918 97.0578 9.88184C97.1337 9.84668 97.2082 9.80859 97.2815 9.76758C97.402 9.69824 97.5172 9.62109 97.627 9.53613C97.7541 9.43848 97.8739 9.33105 97.9865 9.21289C98.0929 9.10645 98.19 8.98926 98.2777 8.86133C98.3713 8.72559 98.4542 8.57812 98.5265 8.41797L99.9215 9.21289C99.7515 9.6123 99.5115 9.96777 99.2015 10.2773C98.8915 10.5781 98.5415 10.833 98.1515 11.043C97.7615 11.2529 97.3465 11.4131 96.9065 11.5225C96.75 11.5625 96.5942 11.5947 96.439 11.6201C96.1678 11.665 95.8986 11.6875 95.6315 11.6875C94.8815 11.6875 94.1965 11.5273 93.5765 11.208C92.9565 10.8877 92.4215 10.4727 91.9715 9.96289C91.5215 9.44238 91.1715 8.85742 90.9215 8.20801C90.6715 7.54785 90.5465 6.87793 90.5465 6.19727ZM105.675 5.17773C105.035 5.19727 104.465 5.34766 103.965 5.62793C103.475 5.89746 103.125 6.28809 102.915 6.79785V11.5977H101.265V3.75293H102.795V5.50781C103.065 4.96777 103.415 4.53809 103.845 4.21777C104.285 3.8877 104.755 3.70801 105.255 3.67773H105.495L105.585 3.68066L105.675 3.69238V5.17773ZM110.035 11.748C109.425 11.748 108.87 11.6426 108.37 11.4326C107.87 11.2129 107.44 10.918 107.08 10.5479C106.73 10.1777 106.455 9.74805 106.255 9.25781C106.065 8.76758 105.97 8.24805 105.97 7.69727C105.97 7.14746 106.065 6.62793 106.255 6.1377C106.455 5.6377 106.73 5.20312 107.08 4.83301C107.44 4.45312 107.87 4.15723 108.37 3.94727C108.87 3.72754 109.43 3.61719 110.05 3.61719C110.66 3.61719 111.21 3.72754 111.7 3.94727C112.2 4.16797 112.625 4.46289 112.975 4.83301C113.325 5.19238 113.59 5.61719 113.77 6.10742C113.96 6.58789 114.055 7.09277 114.055 7.62305C114.055 7.74219 114.05 7.85742 114.04 7.96777C114.03 8.06738 114.02 8.15234 114.01 8.22266H107.725C107.755 8.57227 107.835 8.8877 107.965 9.16797C108.105 9.44727 108.28 9.69238 108.49 9.90234C108.71 10.1025 108.955 10.2578 109.225 10.3672C109.505 10.4775 109.795 10.5322 110.095 10.5322C110.315 10.5322 110.53 10.5078 110.74 10.458C110.872 10.4219 110.996 10.3789 111.113 10.3291C111.192 10.2949 111.268 10.2578 111.34 10.2178C111.52 10.1074 111.68 9.97754 111.82 9.82812C111.932 9.70801 112.025 9.57812 112.099 9.43848C112.117 9.4043 112.134 9.36914 112.15 9.33301L113.56 9.7373C113.29 10.3281 112.84 10.8125 112.21 11.1924C111.59 11.5625 110.865 11.748 110.035 11.748ZM112.42 7.08301C112.411 6.98242 112.397 6.88379 112.377 6.78711C112.333 6.56836 112.262 6.3623 112.165 6.16797C112.035 5.8877 111.865 5.65234 111.655 5.46289C111.445 5.2627 111.2 5.10742 110.92 4.99805C110.64 4.8877 110.345 4.83301 110.035 4.83301C109.725 4.83301 109.43 4.8877 109.15 4.99805C108.88 5.10742 108.64 5.2627 108.43 5.46289C108.22 5.65234 108.05 5.8877 107.92 6.16797C107.855 6.30859 107.802 6.45605 107.762 6.61035C107.722 6.76172 107.695 6.91895 107.68 7.08301H112.42ZM117.486 11.748C117.106 11.748 116.751 11.6875 116.421 11.5674C116.101 11.4375 115.821 11.2627 115.581 11.043C115.351 10.8223 115.166 10.5625 115.026 10.2627C114.896 9.96289 114.831 9.6377 114.831 9.28809C114.831 9.04102 114.867 8.80957 114.938 8.59375C114.973 8.48633 115.018 8.38281 115.071 8.28223C115.231 7.98242 115.456 7.72266 115.746 7.50293C116.046 7.28223 116.396 7.1123 116.796 6.99219C117.206 6.87305 117.656 6.8125 118.146 6.8125C118.516 6.8125 118.881 6.84766 119.241 6.91797C119.375 6.94043 119.505 6.96582 119.629 6.99512C119.839 7.04395 120.034 7.10352 120.216 7.17285V6.63281C120.216 6.05273 120.051 5.60254 119.721 5.28223C119.391 4.95312 118.916 4.78809 118.296 4.78809C118.091 4.78809 117.887 4.80762 117.685 4.8457C117.472 4.88477 117.261 4.94531 117.051 5.02734C116.651 5.17773 116.236 5.39746 115.806 5.6875L115.296 4.6377C116.306 3.95801 117.356 3.61719 118.446 3.61719C119.526 3.61719 120.366 3.89258 120.966 4.44238C121.566 4.99219 121.866 5.78223 121.866 6.8125V9.64746C121.866 9.99805 122.011 10.1777 122.301 10.1875V11.5977C122.141 11.6279 122.001 11.6475 121.881 11.6572C121.823 11.6631 121.765 11.667 121.708 11.6699L121.551 11.6729C121.231 11.6729 120.981 11.5928 120.801 11.4326C120.732 11.3672 120.673 11.2939 120.625 11.2129C120.556 11.0967 120.51 10.9648 120.486 10.8174L120.441 10.3223C120.091 10.7822 119.656 11.1377 119.136 11.3877C118.626 11.6279 118.076 11.748 117.486 11.748ZM117.936 10.5322C118.336 10.5322 118.711 10.4629 119.061 10.3223C119.421 10.1729 119.701 9.96777 119.901 9.70801C120.111 9.52734 120.216 9.33789 120.216 9.1377V8.10254C120.064 8.04297 119.906 7.99023 119.743 7.94531C119.605 7.90723 119.463 7.875 119.316 7.84766C119.006 7.78809 118.701 7.75781 118.401 7.75781C117.811 7.75781 117.326 7.8877 116.946 8.14746C116.576 8.39746 116.391 8.73242 116.391 9.15234C116.391 9.54297 116.536 9.87305 116.826 10.1426C116.997 10.2949 117.195 10.4033 117.421 10.4658C117.579 10.5098 117.751 10.5322 117.936 10.5322ZM128.174 11.1924C127.964 11.293 127.674 11.4072 127.304 11.5381C126.934 11.6572 126.539 11.7178 126.119 11.7178C125.859 11.7178 125.614 11.6826 125.384 11.6123C125.225 11.5645 125.078 11.499 124.943 11.417C124.883 11.3809 124.825 11.3408 124.769 11.2979C124.69 11.2324 124.619 11.1592 124.555 11.0771C124.482 10.9824 124.418 10.876 124.364 10.7578C124.311 10.6357 124.273 10.502 124.248 10.3555C124.225 10.2246 124.214 10.084 124.214 9.93262V5.02734H123.179V3.75293H124.214V1.17285H125.864V3.75293H127.574V5.02734H125.864V9.40723C125.884 9.6875 125.969 9.89258 126.119 10.0225C126.279 10.1426 126.474 10.2031 126.704 10.2031C126.849 10.2031 126.99 10.1875 127.127 10.1553C127.207 10.1367 127.287 10.1123 127.364 10.083C127.574 10.0029 127.729 9.9375 127.829 9.8877L128.174 11.1924ZM129.317 11.5977V3.75293H130.967V11.5977H129.317ZM129.317 2.46289V0.647461H130.967V2.46289H129.317ZM135.155 11.5977L132.155 3.75293H133.85L136.1 10.2031L138.365 3.75293H139.925L136.925 11.5977H135.155ZM144.386 11.748C143.776 11.748 143.221 11.6426 142.721 11.4326C142.221 11.2129 141.791 10.918 141.431 10.5479C141.081 10.1777 140.806 9.74805 140.606 9.25781C140.526 9.05273 140.464 8.84277 140.417 8.62793C140.353 8.32812 140.321 8.01758 140.321 7.69727C140.321 7.14746 140.416 6.62793 140.606 6.1377C140.806 5.6377 141.081 5.20312 141.431 4.83301C141.791 4.45312 142.221 4.15723 142.721 3.94727C143.221 3.72754 143.781 3.61719 144.401 3.61719C145.011 3.61719 145.561 3.72754 146.051 3.94727C146.551 4.16797 146.976 4.46289 147.326 4.83301C147.676 5.19238 147.941 5.61719 148.121 6.10742C148.192 6.28711 148.25 6.4707 148.294 6.65723C148.329 6.80469 148.356 6.95508 148.375 7.10742C148.385 7.18555 148.392 7.26465 148.397 7.34473C148.403 7.43652 148.406 7.5293 148.406 7.62305C148.406 7.74219 148.401 7.85742 148.391 7.96777L148.378 8.0918L148.361 8.22266H142.076C142.106 8.57227 142.186 8.8877 142.316 9.16797C142.392 9.32031 142.479 9.46191 142.576 9.59375C142.657 9.7041 142.745 9.80664 142.841 9.90234C142.938 9.99023 143.04 10.0693 143.146 10.1406C143.232 10.1973 143.321 10.249 143.414 10.2939C143.467 10.3203 143.521 10.3447 143.576 10.3672C143.713 10.4209 143.852 10.4619 143.993 10.4893C144.141 10.5176 144.292 10.5322 144.446 10.5322C144.51 10.5322 144.575 10.5303 144.639 10.5264C144.792 10.5156 144.943 10.4932 145.091 10.458C145.311 10.3975 145.511 10.3174 145.691 10.2178C145.871 10.1074 146.031 9.97754 146.171 9.82812C146.311 9.67773 146.421 9.5127 146.501 9.33301L147.911 9.7373C147.641 10.3281 147.191 10.8125 146.561 11.1924C145.941 11.5625 145.216 11.748 144.386 11.748ZM146.771 7.08301C146.741 6.75293 146.656 6.44727 146.516 6.16797C146.437 5.99707 146.343 5.84277 146.234 5.70605C146.164 5.61816 146.088 5.53711 146.006 5.46289C145.796 5.2627 145.551 5.10742 145.271 4.99805C144.991 4.8877 144.696 4.83301 144.386 4.83301C144.076 4.83301 143.781 4.8877 143.501 4.99805C143.349 5.05957 143.207 5.13574 143.074 5.22559C143.008 5.27051 142.944 5.31934 142.882 5.37207L142.781 5.46289C142.571 5.65234 142.401 5.8877 142.271 6.16797C142.181 6.36035 142.116 6.56445 142.074 6.78027C142.054 6.87891 142.04 6.97949 142.031 7.08301H146.771ZM43.5564 23.5967C43.5628 23.499 43.5721 23.4023 43.5843 23.3057C43.6285 22.9541 43.7111 22.6074 43.832 22.2666C44.0313 21.7207 44.3173 21.2266 44.69 20.7842C45.0627 20.334 45.522 19.9785 46.068 19.7188C46.614 19.4502 47.2337 19.3154 47.927 19.3154C48.7503 19.3154 49.4523 19.5059 50.033 19.8877C50.6223 20.2607 51.0557 20.7412 51.333 21.3311L50.618 21.7725C50.4187 21.3652 50.1673 21.0449 49.864 20.8105C49.5607 20.5684 49.2357 20.3945 48.889 20.291C48.551 20.1865 48.213 20.1348 47.875 20.1348C47.3203 20.1348 46.8307 20.2471 46.406 20.4727C45.9813 20.6895 45.6217 20.9844 45.327 21.3564C45.041 21.7207 44.8243 22.1318 44.677 22.5918C44.5297 23.042 44.456 23.502 44.456 23.9697C44.456 24.4814 44.5427 24.9707 44.716 25.4385C44.8058 25.6807 44.9142 25.9092 45.0411 26.124C45.1593 26.3232 45.2936 26.5107 45.444 26.6865C45.6107 26.877 45.7923 27.0469 45.9887 27.1973C46.1599 27.3281 46.3423 27.4443 46.536 27.5449C46.9607 27.7529 47.42 27.8564 47.914 27.8564C48.2607 27.8564 48.616 27.7959 48.98 27.6748C49.344 27.5537 49.682 27.3672 49.994 27.1152C50.1576 26.9873 50.3043 26.8398 50.4341 26.6738C50.5587 26.5137 50.6676 26.3359 50.761 26.1406L51.515 26.5303C51.3987 26.8105 51.2436 27.0654 51.0498 27.2939C50.926 27.4395 50.7864 27.5752 50.631 27.7002C50.2323 28.0215 49.786 28.2637 49.292 28.4287C48.8067 28.5938 48.33 28.6758 47.862 28.6758C47.4637 28.6758 47.086 28.6221 46.7289 28.5156C46.5188 28.4531 46.3158 28.3721 46.12 28.2725C45.5913 27.9951 45.132 27.6309 44.742 27.1807C44.3607 26.7217 44.066 26.21 43.858 25.6465C43.65 25.0742 43.546 24.498 43.546 23.918C43.546 23.8105 43.5495 23.7031 43.5564 23.5967ZM55.8547 22.6426C55.7813 22.6543 55.7092 22.6689 55.6382 22.6855C55.3005 22.7656 54.9901 22.9033 54.7071 23.0986C54.2651 23.4111 53.9531 23.8398 53.7711 24.3857V28.5977H52.8871V21.8242H53.7191V23.4492C53.9531 22.9727 54.2608 22.5869 54.6421 22.293C55.0321 21.998 55.4438 21.833 55.8771 21.7988L55.9853 21.79C56.0269 21.7871 56.0645 21.7861 56.0981 21.7861C56.1674 21.7861 56.2238 21.79 56.2671 21.7988V22.6045C56.1256 22.6094 55.9882 22.6221 55.8547 22.6426ZM59.4227 28.6504C59.2124 28.6055 59.0097 28.54 58.8146 28.4551C58.3986 28.2637 58.0389 28.0088 57.7356 27.6875C57.4323 27.3584 57.1939 26.9814 57.0206 26.5566C56.8559 26.1318 56.7736 25.6768 56.7736 25.1914C56.7736 24.5586 56.9166 23.9785 57.2026 23.4492C57.4973 22.9209 57.9003 22.501 58.4116 22.1885C58.9229 21.8682 59.5036 21.708 60.1536 21.708C60.8209 21.708 61.4016 21.8682 61.8956 22.1885C62.1953 22.3799 62.4565 22.6084 62.6791 22.873C62.83 23.0527 62.9631 23.249 63.0786 23.4629C63.3646 23.9824 63.5076 24.5547 63.5076 25.1787V25.3867C63.5076 25.4238 63.506 25.4561 63.5027 25.4834L63.4946 25.5293H57.6966C57.7399 26.0146 57.8743 26.4482 58.0996 26.8301C58.1435 26.8994 58.1897 26.9668 58.2381 27.0312C58.2854 27.0947 58.3349 27.1553 58.3865 27.2129C58.5641 27.4131 58.7675 27.585 58.9966 27.7266C59.3693 27.9434 59.7723 28.0518 60.2056 28.0518C60.6476 28.0518 61.0636 27.9395 61.4536 27.7139C61.8523 27.4883 62.1296 27.1934 62.2856 26.8301L63.0526 27.0381C63.0063 27.1445 62.9519 27.248 62.8892 27.3486C62.8528 27.4072 62.8135 27.4648 62.7715 27.5205C62.7095 27.6025 62.6414 27.6826 62.5673 27.7607C62.5193 27.8105 62.4687 27.8594 62.4156 27.9082C62.1296 28.1689 61.7916 28.3721 61.4016 28.5195C61.2031 28.5918 60.9963 28.6455 60.7813 28.6797C60.5834 28.7119 60.3785 28.7275 60.1666 28.7275C59.9088 28.7275 59.6609 28.7021 59.4227 28.6504ZM57.6706 24.8926H62.6756C62.6409 24.3984 62.5066 23.9648 62.2726 23.5928C62.0473 23.2197 61.7483 22.9297 61.3756 22.7217C61.0116 22.5049 60.6086 22.3965 60.1666 22.3965C59.7246 22.3965 59.3216 22.5049 58.9576 22.7217C58.5936 22.9297 58.2946 23.2246 58.0606 23.6055C58.0287 23.6582 57.9988 23.7119 57.9708 23.7666C57.9347 23.8379 57.9017 23.9102 57.8719 23.9844C57.7612 24.2617 57.6941 24.5645 57.6706 24.8926ZM64.3656 26.2441C64.3769 26.1904 64.3907 26.1377 64.4068 26.0859C64.4673 25.8926 64.5615 25.7158 64.6895 25.5557C64.9322 25.2441 65.2658 25.0049 65.6905 24.8408C65.7514 24.8164 65.8137 24.7939 65.8772 24.7725C66.2653 24.6445 66.7014 24.5811 67.1855 24.5811C67.5148 24.5811 67.8571 24.6064 68.2125 24.6582C68.3243 24.6748 68.4322 24.6943 68.5363 24.7158C68.763 24.7627 68.9714 24.8213 69.1615 24.8926V24.3203C69.1615 23.749 68.9925 23.2939 68.6545 22.9561C68.5823 22.8838 68.5042 22.8193 68.4202 22.7627C68.3656 22.7256 68.3085 22.6914 68.2489 22.6611C67.9706 22.5195 67.6378 22.4482 67.2505 22.4482C67.1402 22.4482 67.0302 22.4551 66.9207 22.4678C66.6689 22.4971 66.4191 22.5596 66.1715 22.6562C65.9724 22.7314 65.7677 22.8271 65.5572 22.9453C65.4011 23.0322 65.2419 23.1309 65.0795 23.2412L64.7415 22.6172C65.1835 22.3145 65.6168 22.0889 66.0415 21.9414C66.4662 21.7861 66.8995 21.708 67.3415 21.708C68.1735 21.708 68.8322 21.9463 69.3175 22.4229C69.8028 22.8994 70.0455 23.5576 70.0455 24.3984V27.5312C70.0455 27.5811 70.0497 27.625 70.0583 27.6641C70.0661 27.7002 70.0775 27.7324 70.0926 27.7598C70.1016 27.7764 70.1119 27.791 70.1235 27.8047C70.1755 27.8564 70.2578 27.8867 70.3705 27.8955V28.5977L70.1235 28.624C70.0541 28.6318 70.0021 28.6318 69.9675 28.624C69.7508 28.6152 69.5862 28.5459 69.4735 28.416C69.3608 28.2861 69.3001 28.1475 69.2915 28L69.2785 27.5059C69.1909 27.6182 69.0958 27.7236 68.993 27.8223C68.9476 27.8652 68.9007 27.9072 68.8523 27.9473C68.631 28.1328 68.3788 28.2891 68.0955 28.416C67.6101 28.624 67.1161 28.7275 66.6135 28.7275C66.1801 28.7275 65.7858 28.6367 65.4305 28.4551C65.0838 28.2637 64.8108 28.0127 64.6115 27.7002C64.4208 27.3799 64.3255 27.0293 64.3255 26.6475C64.3255 26.5059 64.3388 26.3721 64.3656 26.2441ZM68.8625 27.168C68.9578 27.0459 69.0315 26.9297 69.0835 26.8164C69.1355 26.7041 69.1615 26.6045 69.1615 26.5176V25.5293L68.9753 25.4619C68.7379 25.3818 68.4922 25.3174 68.2385 25.2695C67.9265 25.209 67.6101 25.1787 67.2895 25.1787C66.6568 25.1787 66.1455 25.3047 65.7555 25.5557C65.3655 25.8066 65.1705 26.1494 65.1705 26.583C65.1705 26.6807 65.1802 26.7764 65.1998 26.8701C65.2306 27.0176 65.2859 27.1602 65.3655 27.2979C65.4955 27.5146 65.6862 27.6963 65.9375 27.8438C66.1888 27.9824 66.4835 28.0518 66.8215 28.0518C67.2462 28.0518 67.6405 27.9697 68.0045 27.8047C68.1859 27.7246 68.3469 27.6328 68.4872 27.5303C68.6351 27.4219 68.7602 27.3008 68.8625 27.168ZM75.0649 28.3096C75.0025 28.3359 74.9241 28.3711 74.8297 28.416C74.7762 28.4414 74.7187 28.4658 74.6571 28.4883C74.5493 28.5283 74.4291 28.5645 74.2967 28.5977C74.2065 28.6201 74.1129 28.6377 74.0162 28.6504C73.8899 28.668 73.7581 28.6758 73.6207 28.6758C73.3694 28.6758 73.131 28.6279 72.9057 28.5322C72.689 28.4375 72.5157 28.2939 72.3857 28.1035C72.2557 27.9043 72.1907 27.6621 72.1907 27.376V22.5264H71.2547V21.8242H72.1907V19.5371H73.0747V21.8242H74.6347V22.5264H73.0747V27.1289C73.0852 27.2754 73.1212 27.4004 73.1826 27.5029C73.2225 27.5693 73.2732 27.627 73.3347 27.6748C73.3977 27.7207 73.4638 27.7588 73.5332 27.7871C73.6451 27.834 73.7653 27.8564 73.8937 27.8564C74.1364 27.8564 74.3574 27.8174 74.5567 27.7393C74.6668 27.6914 74.7531 27.6523 74.8156 27.6201C74.8662 27.5938 74.9013 27.5732 74.9207 27.5576L75.1547 28.2725L75.0649 28.3096ZM79.0699 28.7275C78.5846 28.7275 78.1339 28.6367 77.7179 28.4551C77.6334 28.416 77.5511 28.375 77.4712 28.3311C77.3645 28.2715 77.262 28.208 77.1637 28.1396C76.9732 28.0068 76.7983 27.8564 76.6389 27.6875C76.3356 27.3584 76.0973 26.9814 75.9239 26.5566C75.7592 26.1318 75.6769 25.6768 75.6769 25.1914C75.6769 24.5586 75.8199 23.9785 76.1059 23.4492C76.4006 22.9209 76.8036 22.501 77.3149 22.1885C77.8263 21.8682 78.4069 21.708 79.0569 21.708C79.7242 21.708 80.3049 21.8682 80.7989 22.1885C81.3016 22.5098 81.6959 22.9336 81.9819 23.4629C82.2679 23.9824 82.4109 24.5547 82.4109 25.1787V25.3867C82.4109 25.4473 82.4066 25.4951 82.3979 25.5293H76.5999C76.6432 26.0146 76.7776 26.4482 77.0029 26.8301C77.2369 27.2021 77.5359 27.501 77.8999 27.7266C78.2726 27.9434 78.6756 28.0518 79.1089 28.0518C79.5509 28.0518 79.9669 27.9395 80.3569 27.7139C80.7556 27.4883 81.0329 27.1934 81.1889 26.8301L81.9559 27.0381C81.8173 27.3584 81.6049 27.6484 81.3189 27.9082C81.0329 28.1689 80.6949 28.3721 80.3049 28.5195C79.9236 28.6582 79.5119 28.7275 79.0699 28.7275ZM76.5739 24.8926H81.5789C81.5443 24.3984 81.4099 23.9648 81.1759 23.5928C80.9506 23.2197 80.6516 22.9297 80.2789 22.7217C79.9149 22.5049 79.5119 22.3965 79.0699 22.3965C78.6279 22.3965 78.2249 22.5049 77.8609 22.7217C77.4969 22.9297 77.1979 23.2246 76.9639 23.6055C76.7386 23.9785 76.6086 24.4072 76.5739 24.8926ZM83.3198 25.2305C83.3198 24.5889 83.4498 24.0039 83.7098 23.4756C83.9785 22.9385 84.3468 22.5098 84.8148 22.1885C85.2828 21.8682 85.8158 21.708 86.4138 21.708C86.9771 21.708 87.4798 21.8594 87.9218 22.1631C88.3725 22.457 88.7235 22.8174 88.9748 23.2412V19.1074H89.8588V27.5312C89.8588 27.6533 89.8848 27.7441 89.9368 27.8047C89.9625 27.8301 89.9944 27.8506 90.0327 27.8652C90.0721 27.8809 90.1181 27.8906 90.1708 27.8955V28.5977C89.9975 28.624 89.8631 28.6318 89.7678 28.624C89.5858 28.6152 89.4255 28.541 89.2868 28.4023C89.1481 28.2637 89.0788 28.1123 89.0788 27.9473V27.2842C88.8102 27.7266 88.4461 28.0781 87.9868 28.3379C87.5275 28.5977 87.0508 28.7275 86.5568 28.7275C86.0888 28.7275 85.6555 28.6318 85.2568 28.4414C84.8668 28.251 84.5245 27.9912 84.2298 27.6621C83.9438 27.332 83.7185 26.96 83.5538 26.5439C83.4978 26.3916 83.4518 26.2373 83.4159 26.0811C83.3518 25.8027 83.3198 25.5195 83.3198 25.2305ZM88.9748 26.2705V24.1777C88.9125 24.0049 88.829 23.8418 88.7244 23.6875C88.6397 23.5635 88.5412 23.4453 88.4288 23.333C88.1775 23.0723 87.8915 22.8691 87.5708 22.7217C87.3776 22.625 87.1844 22.5576 86.9912 22.5205C86.8724 22.498 86.7536 22.4873 86.6348 22.4873C86.2708 22.4873 85.9415 22.5654 85.6468 22.7217C85.3521 22.8691 85.0965 23.0723 84.8798 23.333C84.6718 23.5928 84.5115 23.8877 84.3988 24.2168C84.2861 24.5459 84.2298 24.8838 84.2298 25.2305C84.2298 25.5947 84.2905 25.9414 84.4118 26.2705C84.5418 26.5996 84.7238 26.8945 84.9578 27.1543C85.1918 27.4062 85.4605 27.6006 85.7638 27.7393C86.0671 27.8779 86.3965 27.9473 86.7518 27.9473C86.9771 27.9473 87.2112 27.9043 87.4538 27.8174C87.5603 27.7793 87.6644 27.7354 87.7659 27.6865C87.8956 27.623 88.0213 27.5498 88.1428 27.4668C88.3681 27.3105 88.5545 27.1289 88.7018 26.9209C88.7279 26.8838 88.7522 26.8467 88.7747 26.8096C88.8795 26.6357 88.9463 26.4561 88.9748 26.2705ZM98.4902 28.7275C97.9615 28.7275 97.4719 28.5938 97.0212 28.3242C96.5705 28.0469 96.2195 27.7002 95.9682 27.2842V28.5977H95.1752V19.1074H96.0592V23.2412C96.3625 22.7822 96.7265 22.4141 97.1512 22.1367C97.5759 21.8506 98.0699 21.708 98.6332 21.708C99.1099 21.708 99.5345 21.8076 99.9072 22.0068C100.078 22.0957 100.237 22.1992 100.385 22.3154C100.568 22.46 100.734 22.626 100.882 22.8125C101.151 23.1416 101.355 23.5186 101.493 23.9434C101.566 24.1631 101.62 24.3867 101.655 24.6133C101.686 24.8164 101.701 25.0225 101.701 25.2305C101.701 25.458 101.682 25.6787 101.645 25.8926C101.604 26.127 101.54 26.3525 101.454 26.5693C101.298 26.9854 101.073 27.3584 100.778 27.6875C100.484 28.0088 100.141 28.2637 99.7512 28.4551C99.3699 28.6367 98.9495 28.7275 98.4902 28.7275ZM98.2822 27.9473C98.6462 27.9473 98.9842 27.874 99.2962 27.7266C99.3893 27.6826 99.4785 27.6338 99.5639 27.5801C99.7647 27.4531 99.9441 27.2979 100.102 27.1152C100.328 26.8555 100.501 26.5654 100.622 26.2451C100.744 25.915 100.804 25.5771 100.804 25.2305C100.804 24.7539 100.7 24.3076 100.492 23.8916C100.293 23.4668 100.011 23.1289 99.6472 22.8779C99.2919 22.6172 98.8715 22.4873 98.3862 22.4873C98.0395 22.4873 97.7145 22.5654 97.4112 22.7217C97.1165 22.8779 96.8522 23.0859 96.6182 23.3457C96.3929 23.5967 96.2065 23.874 96.0592 24.1777V26.2832C96.0939 26.5176 96.1849 26.7383 96.3322 26.9463C96.4795 27.1455 96.6615 27.3193 96.8782 27.4668C96.9918 27.541 97.1077 27.6084 97.2257 27.667C97.3417 27.7246 97.4599 27.7744 97.5802 27.8174C97.8229 27.9043 98.0569 27.9473 98.2822 27.9473ZM103.554 30.6875L103.711 30.6904C103.824 30.6992 103.906 30.6953 103.958 30.6777C104.062 30.6602 104.162 30.5996 104.257 30.4961C104.352 30.3916 104.465 30.1924 104.595 29.8975C104.725 29.6025 104.907 29.1699 105.141 28.5977L102.19 21.8242H103.126L105.609 27.6875L107.897 21.8242H108.781L105.271 30.5605C105.243 30.6377 105.208 30.7119 105.166 30.7822C105.119 30.8633 105.063 30.9414 104.998 31.0156C104.877 31.1631 104.725 31.2754 104.543 31.3535C104.37 31.4404 104.153 31.4883 103.893 31.4971C103.844 31.502 103.793 31.5039 103.741 31.5029L103.646 31.4971L103.558 31.4941C103.5 31.4902 103.434 31.4824 103.36 31.4707V30.6777C103.426 30.6826 103.491 30.6855 103.554 30.6875Z" fill="white"/>
</svg>
