<svg width="49" height="51" viewBox="0 0 49 51" fill="none" xmlns="http://www.w3.org/2000/svg">
<g clip-path="url(#clip0_165_7535)">
<path d="M30.0647 41.7743C26.8353 40.6852 24.412 39.1976 22.9643 38.1533C16.8561 33.7496 13.152 27.8135 12.0931 20.3216C11.8063 18.2925 11.2995 13.9551 13.047 9.14017C14.4974 5.14414 16.0808 1.99848 17.5144 0.0263672C15.0759 0.860624 11.265 2.52209 7.58635 5.86257C7.56335 5.88343 7.5405 5.9043 7.51764 5.92516C3.37735 9.71011 0.72963 14.9132 0.153008 20.4582C-0.840977 30.0165 3.02709 40.7555 11.1986 46.5246C16.4053 50.1998 21.8815 50.8481 24.4336 50.9707C36.1037 51.5317 43.9173 43.87 45.2387 42.531C42.2502 43.1723 36.4974 43.9456 30.0647 41.7743Z" fill="#A6A6A6"/>
<path d="M33.2731 6.16412L32.8946 8.35351C32.827 8.73797 32.9831 9.11899 33.3022 9.3492C33.6201 9.57712 34.0382 9.60705 34.3876 9.42748L36.3756 8.39264L38.4823 9.48849C38.6162 9.5564 38.7618 9.59093 38.9074 9.59093C39.1182 9.59093 39.3278 9.51842 39.4978 9.37798C39.7832 9.14201 39.8973 8.7633 39.7878 8.41221L39.1787 6.45535L40.8162 4.87604C41.0805 4.6228 41.1877 4.24639 41.0957 3.89416C41.0048 3.54077 40.7277 3.26106 40.3725 3.16436L38.3181 2.60608L37.3014 0.569793L37.3002 0.568641C37.1244 0.217557 36.7704 0 36.3767 0C36.3756 0 36.3744 0 36.3732 0C35.9784 0.00230228 35.6256 0.22101 35.4544 0.568641L34.4575 2.56004L32.2319 2.88004C31.8429 2.9376 31.525 3.2035 31.4039 3.57415C31.2828 3.94366 31.3818 4.34309 31.6648 4.6159L33.2731 6.16412ZM34.8197 3.85847C35.1597 3.81013 35.4509 3.59948 35.5941 3.3025L36.3767 1.73931L37.1686 3.32552C37.2979 3.58336 37.532 3.7756 37.8197 3.85732L39.4711 4.30625L38.0968 5.63116C37.8173 5.89707 37.7148 6.29074 37.8278 6.66139L38.19 7.8263L36.8472 7.12759C36.5514 6.97795 36.1985 6.97679 35.8981 7.13104L34.3375 7.94256L34.6356 6.22052C34.6892 5.89592 34.5809 5.56325 34.3398 5.32497L33.0762 4.10941L34.8197 3.85847Z" fill="#A6A6A6"/>
<path d="M24.753 21.2803L24.3745 23.4674C24.307 23.8507 24.463 24.2306 24.7798 24.4608C25.0989 24.6922 25.5158 24.7256 25.8687 24.5414L27.8555 23.5089L29.9565 24.5978C30.0927 24.6703 30.2418 24.706 30.3897 24.706C30.597 24.706 30.8019 24.6358 30.9708 24.4999C31.2596 24.2663 31.3773 23.8876 31.269 23.5284L30.6587 21.5693L32.2996 19.99C32.5628 19.7367 32.6688 19.3603 32.5768 19.0081C32.4848 18.6558 32.2076 18.3773 31.8536 18.2806L29.7981 17.72L28.779 15.6826C28.6055 15.3338 28.2538 15.1174 27.8602 15.1162C27.859 15.1162 27.8578 15.1162 27.8567 15.1162C27.4619 15.1162 27.109 15.3315 26.932 15.6826L25.9386 17.6762L23.72 17.9951C23.3264 18.0492 23.0061 18.3151 22.8838 18.6881C22.7616 19.061 22.8629 19.4616 23.1459 19.7298L24.753 21.2803ZM26.3078 18.9735C26.6339 18.924 26.9203 18.7191 27.0764 18.4176L27.8555 16.8544L28.6439 18.4314C28.7732 18.6996 29.0143 18.8976 29.2985 18.9712L30.951 19.4213L29.5733 20.7474C29.2961 21.0144 29.1936 21.4081 29.3078 21.7765L29.6711 22.9402L28.3388 22.2496C28.0407 22.0919 27.682 22.0896 27.3769 22.2473L25.8175 23.0576L26.1144 21.3425C26.1715 21.0167 26.0632 20.6818 25.8175 20.4389L24.5585 19.2256L26.3078 18.9735Z" fill="#A6A6A6"/>
<path d="M48.9685 27.5388C48.8776 27.1866 48.6005 26.908 48.2441 26.8102L46.1874 26.2519L45.173 24.2168C44.9995 23.868 44.6478 23.6493 44.2542 23.6481C43.906 23.5917 43.5042 23.8611 43.3237 24.2145L42.3303 26.207L40.1059 26.5247C39.7157 26.5811 39.399 26.847 39.2767 27.2165C39.1556 27.586 39.2534 27.9866 39.5375 28.2617L41.1459 29.8111L40.7639 32.0039C40.6998 32.3895 40.8582 32.7694 41.1785 32.9973C41.4976 33.2241 41.911 33.2552 42.258 33.0721L44.2483 32.0396L46.3435 33.1262C46.482 33.2011 46.6323 33.2367 46.7813 33.2367C46.9886 33.2367 47.1948 33.1665 47.3636 33.0307C47.6536 32.7947 47.7701 32.4126 47.6583 32.0592L47.0515 30.1L48.6901 28.5196C48.9533 28.2663 49.0593 27.8899 48.9685 27.5388ZM45.9661 29.2793C45.6901 29.5452 45.5876 29.9377 45.7006 30.3049L46.0616 31.471L44.7317 30.7815C44.4289 30.6226 44.069 30.6226 43.7685 30.7792L42.2091 31.5884L42.5073 29.8721C42.5655 29.5394 42.4537 29.201 42.2103 28.9708L40.949 27.7552L42.6959 27.5054C43.0278 27.4559 43.3167 27.2487 43.4692 26.9472L44.2483 25.3851L45.0414 26.9759C45.1719 27.2349 45.4095 27.4272 45.6901 27.5031L47.3427 27.9521L45.9661 29.2793Z" fill="#A6A6A6"/>
</g>
<defs>
<clipPath id="clip0_165_7535">
<rect width="49" height="51" fill="white"/>
</clipPath>
</defs>
</svg>
