<svg width="46" height="39" viewBox="0 0 46 39" fill="none" xmlns="http://www.w3.org/2000/svg">
<path d="M34.1155 33.5935C35.4914 31.5466 35.8912 29.7379 35.8912 27.0813C35.8912 19.9915 30.1725 14.2443 23.1197 14.2443C16.067 14.2443 10.3499 19.9915 10.3499 27.0813C10.3499 29.7379 10.6993 31.4622 12.0736 33.5108M38.8868 23.0753C38.922 23.6714 38.8935 24.2727 38.8935 24.8722C38.8918 25.2083 38.8901 25.5444 38.8918 25.8822C38.8952 27.4748 39.1001 27.5693 40.5701 26.8178C41.7159 26.2318 42.897 25.7183 44.0663 25.1779C44.2175 25.1087 44.4745 25.1627 44.4073 24.8773C44.3636 24.6949 44.2376 24.575 44.0411 24.4973C42.5341 23.9062 41.0506 23.2644 39.6109 22.5213C39.1287 22.2731 38.8515 22.4842 38.8868 23.0753ZM1.98849 25.1762C2.92762 25.6103 3.84995 26.0865 4.80924 26.4682C7.14111 27.3988 7.14951 27.3819 7.16967 24.9009C7.16967 24.2997 7.14783 23.6985 7.17639 23.0989C7.20663 22.4234 6.88743 22.2815 6.35822 22.5568C4.94869 23.2898 3.49379 23.9197 2.01537 24.4956C1.81545 24.5733 1.69785 24.6864 1.65081 24.8739C1.57689 25.1695 1.84569 25.1104 1.98849 25.1762ZM36.6675 15.8318C37.1916 16.5022 37.3949 16.1999 37.6318 15.6595C38.3256 14.0703 39.0212 12.4827 39.8041 10.6892C37.7729 11.0641 36.0727 11.89 34.2684 12.351C33.7778 12.4777 33.9929 12.8036 34.2566 13.0924C35.0798 13.9875 35.9182 14.8759 36.6675 15.8318ZM9.21594 16.0277C10.1399 15.0279 11.022 13.9909 11.914 12.9624C12.1728 12.6635 12.1241 12.4371 11.7192 12.3122C9.97195 11.77 8.22808 11.2229 6.19862 10.5878C7.02855 12.4675 7.75264 14.0872 8.45825 15.7169C8.62457 16.1003 8.79089 16.487 9.21594 16.0277ZM21.1374 8.90743C22.4747 8.8956 23.8136 8.90067 25.1509 8.90743C25.5693 8.9108 25.6885 8.72503 25.5239 8.35686C24.7679 6.67982 24.0068 5.00447 23.108 3.02344C22.2075 5.01629 21.4398 6.68826 20.7006 8.37375C20.5393 8.74192 20.7375 8.9108 21.1374 8.90743ZM6.91426 37.5218C15.8721 28.5185 30.369 28.5185 39.3252 37.5235L6.91426 37.5218Z" stroke="#A6A6A6" stroke-width="2" stroke-miterlimit="10"/>
<path d="M35.448 26.825C35.448 28.7167 35.2904 32.3161 34.4133 33.035C34.2528 33.1666 32.1581 34.07 32.6745 32C30.3093 33.3091 26.8956 31.31 22.338 31.31C18.3919 31.31 14.0693 33.6908 11.9882 33.035C10.4518 32.5509 10.608 29.6574 10.608 26.825C10.608 20.1562 16.1686 14.75 23.028 14.75C29.8874 14.75 35.448 20.1562 35.448 26.825Z" fill="#A6A6A6"/>
</svg>
