<svg width="59" height="60" viewBox="0 0 59 60" fill="none" xmlns="http://www.w3.org/2000/svg">
<path d="M57.6944 30.0245C57.6944 45.6485 45.028 58.3145 29.4035 58.3145C13.7789 58.3145 1.11426 45.6485 1.11426 30.0245C1.11426 14.4004 13.7789 1.73438 29.4035 1.73438C45.028 1.73438 57.6944 14.4004 57.6944 30.0245Z" stroke="transparent" stroke-width="2" stroke-miterlimit="10"/>
<path d="M57.6944 30.0245C57.6944 45.6485 45.028 58.3145 29.4035 58.3145C13.7789 58.3145 1.11426 45.6485 1.11426 30.0245C1.11426 14.4004 13.7789 1.73438 29.4035 1.73438C45.028 1.73438 57.6944 14.4004 57.6944 30.0245Z" stroke="transparent" stroke-width="2" stroke-miterlimit="10"/>
<path d="M45.7433 29.3496C45.7328 26.8906 45.7363 26.8784 47.9658 27.7681C48.8941 28.1394 49.8013 28.565 50.7086 28.9888C51.227 29.2305 51.2533 29.5492 50.7279 29.8172C49.3337 30.53 47.9186 31.1973 46.4456 31.735C45.9517 31.9154 45.7047 31.7665 45.7363 31.1938C45.7695 30.5808 45.7433 29.9643 45.7433 29.3496ZM14.9863 20.5174C14.7026 20.4526 14.6027 20.3107 14.5064 20.0865C13.9232 18.7432 13.3102 17.4104 12.6972 16.0794C12.5728 15.8114 12.4275 15.5102 12.6201 15.2772C12.825 15.0268 13.1666 15.1546 13.4328 15.2369C14.8619 15.68 16.2894 16.1354 17.7115 16.603C17.9778 16.6923 18.3386 16.8745 18.0496 17.2143C17.1301 18.3019 16.1668 19.3509 15.2122 20.4088C15.1509 20.4771 15.0353 20.4946 14.9863 20.5174ZM13.0702 43.9281C12.4082 44.0209 12.4572 43.6128 12.5763 43.3309C13.2121 41.8212 13.8619 40.315 14.5677 38.8351C14.7796 38.3902 15.1895 38.5759 15.4557 38.8648C16.2771 39.758 17.081 40.6688 17.8849 41.576C18.1809 41.9105 18.1844 42.3081 17.7623 42.4517C16.1808 42.9876 14.5747 43.4605 13.0702 43.9281ZM45.7906 15.0933C46.3773 15.1179 46.5244 15.3123 46.274 15.8499C45.6417 17.2037 45.0462 18.5751 44.4279 19.9359C44.2143 20.4035 43.9533 20.8186 43.4261 20.2301C42.5697 19.2739 41.7272 18.3071 40.8708 17.3526C40.6448 17.1022 40.4872 16.8587 40.9268 16.7099C42.5434 16.1599 44.1687 15.6293 45.7906 15.0933ZM45.8886 43.9771C44.1897 43.443 42.6152 42.9701 41.0582 42.4447C40.6553 42.3098 40.5695 41.9841 40.9058 41.6163C41.7202 40.7196 42.5014 39.7948 43.3298 38.9104C43.7379 38.476 44.1705 38.4953 44.4367 39.089C45.0497 40.4621 45.6137 41.858 46.2617 43.2135C46.5805 43.8738 46.2757 43.9368 45.8886 43.9771ZM13.2033 29.3741C13.2033 29.8067 13.2051 30.2375 13.2033 30.6701C13.1998 31.9626 13.114 32.0537 11.9581 31.5773C10.683 31.0519 9.443 30.4459 8.19072 29.868C7.97355 29.7682 7.67931 29.7156 7.69857 29.3794C7.71609 29.1114 7.96654 29.0553 8.15044 28.9713C9.50956 28.3548 10.8739 27.7558 12.2348 27.1411C12.8828 26.8486 13.2664 26.9117 13.2086 27.7558C13.1718 28.2935 13.2016 28.8347 13.2033 29.3741ZM29.4549 13.2071C29.3463 13.2088 29.2377 13.2088 29.1292 13.2088C26.7437 13.2088 26.7419 13.2088 27.6965 11.0564C28.1168 10.1071 28.5284 9.15264 28.9838 8.21915C29.0924 7.99498 29.1344 7.61843 29.532 7.6412C29.8595 7.65871 29.9085 7.97571 30.0014 8.17712C30.6441 9.57298 31.2449 10.9898 31.8754 12.3927C32.1591 13.0232 31.7861 13.1738 31.2957 13.1983C30.6844 13.2299 30.0679 13.2071 29.4549 13.2071Z" stroke="#B0B0B0" stroke-width="2" stroke-miterlimit="10"/>
<path d="M42.1607 29.5607C42.1607 36.6222 36.4353 42.3475 29.3735 42.3475C22.3117 42.3475 16.588 36.6222 16.588 29.5607C16.588 22.4991 22.3117 16.7738 29.3735 16.7738C36.4353 16.7738 42.1607 22.4991 42.1607 29.5607Z" stroke="#B0B0B0" stroke-width="2" stroke-miterlimit="10"/>
<path d="M29.6189 45.9142C29.7275 45.9125 29.8361 45.9125 29.9447 45.9125C32.3302 45.9125 32.3319 45.9125 31.3774 48.0667C30.957 49.0142 30.5455 49.9687 30.0901 50.9022C29.9815 51.1264 29.9395 51.5029 29.5419 51.4819C29.2144 51.4626 29.1653 51.1456 29.0725 50.946C28.4297 49.5484 27.829 48.1315 27.1985 46.7286C26.9147 46.0981 27.2878 45.9475 27.7782 45.923C28.3894 45.8915 29.0059 45.9142 29.6189 45.9142Z" stroke="#B0B0B0" stroke-width="2" stroke-miterlimit="10"/>
<ellipse cx="29.7764" cy="29.651" rx="13.0283" ry="12.2838" fill="#B0B0B0"/>
</svg>
