<svg width="130" height="130" viewBox="0 0 130 130" fill="none" xmlns="http://www.w3.org/2000/svg">
<g clip-path="url(#clip0_165_7495)">
<path d="M14.6281 73.3061C9.83134 45.7602 28.2854 19.5462 55.8318 14.7498C83.3796 9.96617 109.598 28.4098 114.387 55.9643C119.184 83.5043 100.734 109.726 73.1724 114.518C45.6308 119.308 19.4139 100.86 14.6281 73.3061Z" fill="url(#paint0_linear_165_7495)"/>
<path d="M91.7874 22.5213L89.5405 21.0837L35.0307 106.28L37.2776 107.718L91.7874 22.5213Z" fill="#E5E8E3"/>
<path d="M13.6592 51.002C18.9582 31.2838 35.377 16.2801 55.4889 12.7788C84.0847 7.81259 111.39 27.0325 116.358 55.6213C117.685 63.2383 117.348 70.8567 115.357 78.2683C110.057 97.9883 93.633 112.992 73.5155 116.489C59.6673 118.897 45.7107 115.769 34.2154 107.677C22.7188 99.5858 15.0623 87.5011 12.6563 73.6491C11.3305 66.0326 11.6677 58.4124 13.6592 51.002ZM111.492 77.2296C113.331 70.3867 113.641 63.3467 112.415 56.3074C107.825 29.892 82.5956 12.1339 56.1744 16.7213C37.5919 19.9577 22.4206 33.8209 17.5243 52.0406C15.685 58.8849 15.3737 65.9239 16.5996 72.9633C18.8226 85.7624 25.897 96.9284 36.5189 104.405C47.1395 111.88 60.0349 114.771 72.8294 112.546C91.4188 109.314 106.595 95.4513 111.492 77.2296Z" fill="url(#paint1_linear_165_7495)"/>
</g>
<defs>
<linearGradient id="paint0_linear_165_7495" x1="90.5928" y1="35.0108" x2="23.6721" y2="111.012" gradientUnits="userSpaceOnUse">
<stop stop-color="white"/>
<stop offset="1" stop-color="#DEDEDE"/>
</linearGradient>
<linearGradient id="paint1_linear_165_7495" x1="3.56106" y1="123.434" x2="116.386" y2="14.5793" gradientUnits="userSpaceOnUse">
<stop stop-color="white"/>
<stop offset="1" stop-color="#EDEDED"/>
</linearGradient>
<clipPath id="clip0_165_7495">
<rect width="105.289" height="105.289" fill="white" transform="translate(129.007 27.4734) rotate(105.042)"/>
</clipPath>
</defs>
</svg>
