<svg width="82" height="81" viewBox="0 0 82 81" fill="none" xmlns="http://www.w3.org/2000/svg">
<g opacity="1">
<g clip-path="url(#clip0_674_10327)">
<path d="M78.4307 68.2391C78.0164 67.8302 77.5384 67.5785 77.0922 67.2639C76.7098 66.9807 76.5823 66.6032 76.7735 66.2886C76.9648 65.9111 77.3472 65.7538 77.7934 65.9111C77.8571 65.9425 77.9527 65.974 78.0164 65.9111C78.0483 65.4077 78.2077 64.9358 78.1758 64.4639C78.0802 62.8279 77.6021 61.3493 76.5186 60.0909C76.5186 60.0909 75.7537 59.2414 73.8415 58.2347C73.5547 58.0774 73.236 57.9516 73.236 57.9516C72.8536 57.7943 72.503 57.6684 72.2162 57.6055C72.5349 58.5808 72.8217 59.9021 72.8217 61.5695C72.7261 60.9088 72.5986 60.1853 72.4393 59.4302C72.3437 58.9268 72.1525 58.0145 71.547 57.1021C70.8458 56.0325 69.9535 55.4347 69.4754 55.1516C68.9655 54.837 68.4237 54.5538 67.9138 54.2392C67.627 54.1448 67.3721 53.9875 67.0852 53.9561C66.7665 53.9246 66.6072 53.7988 66.5753 53.5156C66.4478 53.5785 66.4797 53.7044 66.4478 53.8302C66.3522 54.3021 66.0973 54.5224 65.5874 54.5224C65.4599 54.5224 65.3005 54.5224 65.1731 54.5224C63.6752 54.4909 62.4004 55.0257 61.2531 55.9381C61.03 56.0954 60.9344 56.2841 60.8388 56.5358C60.6476 57.1965 59.9465 57.3538 59.4684 56.8504C59.341 56.7246 59.2454 56.5673 59.1497 56.4415C58.5442 55.6864 57.7794 55.246 56.8233 55.2145C54.4649 55.1201 52.8396 57.5426 53.8275 59.619C53.8594 59.7133 53.9232 59.7763 53.955 59.8707C54.1462 60.4369 53.9869 60.783 53.4451 61.0347C53.3495 61.0661 53.2539 61.0976 53.1902 61.1605C53.1902 61.5381 53.1902 61.9156 53.1583 62.2931C53.2858 62.4504 53.477 62.3875 53.6682 62.419C54.0188 62.4819 54.21 62.6706 54.2737 63.0167C54.3375 63.3628 54.21 63.6459 53.9232 63.8032C53.7319 63.8976 53.5407 63.9605 53.3495 63.992C52.4572 64.1493 51.6923 64.6212 51.0868 65.2504C49.7164 66.6976 49.3658 68.3965 50.1307 70.2526C50.7362 71.7627 51.9473 72.7065 53.5407 73.0212C54.8474 73.2728 56.154 73.0211 57.2694 72.1717C57.9387 71.6369 58.5124 71.0077 58.7673 70.1897C58.831 70.0009 58.9585 69.6863 59.0223 69.3088C59.0541 69.0886 59.0541 68.9313 59.0541 68.774C59.0541 68.7111 59.0541 68.6167 59.0223 68.5538C59.0541 68.365 59.086 68.2077 59.1179 68.0189C59.2454 67.9875 59.341 67.8616 59.4684 67.7987C59.8827 68.0818 60.3289 68.365 60.7432 68.6481C60.6157 69.5605 60.4245 70.4728 59.9783 71.3223C59.4366 72.3605 58.6717 73.2099 57.62 73.8077C56.4727 74.4683 55.2298 74.7515 53.8913 74.6886C53.5726 74.6886 53.2539 74.6256 52.9352 74.4998C52.6803 74.5313 52.4572 74.2481 52.1703 74.3425C52.2978 74.6571 52.3934 74.9402 52.5209 75.2548C52.9671 76.5447 53.7319 77.6458 54.7836 78.5582C55.8991 79.5649 57.2057 80.1941 58.6717 80.5088C60.4883 80.8863 62.2092 80.6661 63.8664 79.911C65.3643 79.2189 66.5435 78.1492 67.4358 76.765C67.4995 76.6706 67.5633 76.6391 67.6589 76.6391C67.6908 76.3874 67.4995 76.2301 67.4039 76.0099C67.2127 75.538 67.3083 75.0661 67.6907 74.8773C68.1051 74.6571 68.5512 74.8144 68.8062 75.2863C69.2205 76.0414 69.6985 76.702 70.3678 77.2369C72.1206 78.6211 74.0646 79.0616 76.2318 78.3694C77.634 77.929 78.7176 77.0481 79.4824 75.8211C79.7374 75.4121 79.9286 74.9402 80.088 74.4683C80.2473 73.965 80.4067 73.4931 80.4067 72.9582C80.3748 71.1021 79.7374 69.529 78.4307 68.2391Z" fill="#8F8F8F"/>
<path d="M57.7474 8.77833C57.7793 11.2323 56.8869 13.2772 55.5803 15.1648C54.5605 16.612 53.2857 17.8075 51.7241 18.6884C51.0867 19.0345 50.4493 19.3805 49.7482 19.5064C49.2383 19.6007 48.824 19.3491 48.6965 18.9086C48.569 18.4682 48.7921 17.9963 49.2701 17.839C51.979 16.9266 53.7637 15.039 55.0385 12.6165C56.0265 10.7603 56.1858 8.77833 55.7078 6.7334C55.4209 5.44352 54.911 4.24802 54.2099 3.1469C53.9231 2.67499 54.0506 2.17162 54.5286 1.88848C54.911 1.66825 55.4209 1.7941 55.7078 2.20308C56.632 3.58735 57.2056 5.12891 57.5243 6.7334C57.6518 7.45699 57.7793 8.18058 57.7474 8.77833Z" fill="black"/>
<path d="M20.8108 17.305C23.2329 17.3679 25.5912 16.9589 27.8221 16.0466C29.8299 15.2286 31.6464 14.0646 33.2399 12.5545C33.6542 12.1455 33.9729 12.114 34.3553 12.2713C34.929 12.4915 35.0246 13.278 34.6103 13.687C33.7817 14.505 32.8893 15.1971 31.9332 15.8263C30.7222 16.6443 29.4474 17.305 28.077 17.8398C26.7066 18.3432 25.2725 18.7207 23.8384 18.9095C22.3087 19.0982 20.7471 19.1612 19.1855 19.0353C18.7074 19.0039 18.3569 18.6578 18.3887 18.1859C18.3887 17.714 18.7393 17.3365 19.2173 17.3365C19.7272 17.305 20.269 17.305 20.8108 17.305Z" fill="black"/>
<path d="M10.5174 25.9233C10.5492 26.2065 10.5492 26.4896 10.4855 26.8042C10.4218 27.2447 10.0075 27.6222 9.59315 27.5907C9.14698 27.5593 8.76454 27.1817 8.73268 26.7413C8.73268 26.175 8.73268 25.6402 8.63707 25.0739C8.54146 24.5705 8.41398 24.1301 8.12716 23.7211C7.80846 23.2492 7.10734 23.0604 6.43808 23.2492C5.73695 23.4379 5.41826 23.8469 5.38639 24.5705C5.38639 25.011 5.41826 25.4514 5.54573 25.8604C5.67321 26.3638 5.38639 26.8357 4.97208 26.93C4.3347 27.0559 3.92039 26.7413 3.79292 26.175C3.66544 25.5458 3.56983 24.8851 3.63357 24.2244C3.79292 22.7143 4.78087 21.6447 6.40621 21.4559C7.74472 21.2986 8.86015 21.6761 9.62502 22.8087C10.1031 23.5008 10.2943 24.2874 10.4218 25.0739C10.4855 25.3885 10.4855 25.6402 10.5174 25.9233Z" fill="black"/>
<path d="M46.2431 55.7155C46.53 55.6526 46.7212 55.8414 46.9124 55.9987C47.996 57.0369 49.0477 58.0751 50.0994 59.1447C50.4818 59.5223 50.5137 60.12 50.1312 60.4661C49.7807 60.8121 49.1751 60.7807 48.7927 60.4032C47.741 59.365 46.6574 58.2953 45.6057 57.2571C45.3508 57.0054 45.2233 56.4706 45.3508 56.2189C45.5739 55.9358 45.8288 55.6526 46.2431 55.7155Z" fill="black"/>
<path d="M38.6584 5.88464C39.3276 5.82171 39.7101 6.54531 39.5188 7.01722C39.2958 7.58351 39.0089 8.11834 38.6902 8.65317C38.4353 9.03069 37.8616 9.09361 37.4792 8.84193C37.1287 8.62171 37.0012 8.08688 37.2243 7.70935C37.4473 7.30036 37.6704 6.89137 37.8616 6.45093C37.9891 6.0734 38.2441 5.82171 38.6584 5.88464Z" fill="black"/>
<path d="M15.6166 13.7173C15.3616 13.6858 15.0111 13.7173 14.6924 13.6544C14.2143 13.56 13.9275 13.151 13.9912 12.6476C14.055 12.2072 14.4055 11.8926 14.8836 11.924C15.4572 11.9555 15.999 11.9555 16.5727 11.987C16.9551 11.987 17.3375 12.4274 17.3375 12.8364C17.3375 13.2768 17.0188 13.6544 16.5408 13.6858C16.2858 13.7488 15.9671 13.7173 15.6166 13.7173Z" fill="black"/>
<path d="M19.6625 11.7656C20.1405 11.7656 20.5548 12.1746 20.5548 12.6465C20.5548 13.1184 20.1405 13.5274 19.6306 13.496C19.1207 13.496 18.7383 13.087 18.7383 12.6151C18.7383 12.1432 19.1526 11.7656 19.6625 11.7656Z" fill="black"/>
<path d="M36.1723 11.578C35.6623 11.578 35.2799 11.2005 35.248 10.7286C35.248 10.2566 35.6623 9.84766 36.1404 9.84766C36.6184 9.84766 37.0646 10.2566 37.0646 10.6971C37.0646 11.169 36.6503 11.578 36.1723 11.578Z" fill="black"/>
<path d="M52.5527 7.0149C52.2021 6.63737 51.6922 6.60591 51.2779 6.95198C50.4174 7.67557 49.6207 8.49354 48.8877 9.34298C48.0272 10.3497 47.2305 11.3879 46.7524 12.6149C45.9557 14.7227 44.4578 16.2328 42.5775 17.4598C41.6214 18.089 40.2192 18.907 38.4664 19.725C36.5861 20.6058 35.0882 21.0778 33.3035 21.644C31.6463 22.1789 29.9891 22.6193 28.3 23.0283C27.3439 23.2485 26.3879 23.4688 25.4318 23.5631C23.4559 23.7834 21.5118 23.8777 19.5359 23.9092C17.8469 23.9092 16.1578 23.8463 14.4687 23.6575C14.2456 23.6261 14.15 23.5631 14.0863 23.3429C13.9269 22.6508 13.7357 21.9901 13.4489 21.3609C12.8434 20.1025 12.0148 19.0643 10.7718 18.3407C9.78389 17.7744 8.7322 17.4598 7.61677 17.3654C5.25844 17.1767 3.21879 17.7744 1.72093 19.6935C0.76485 20.9205 0.318678 22.3047 0.0955919 23.8148C-0.159363 25.5137 0.0318531 27.1811 0.446156 28.8485C0.605503 29.5406 0.76485 30.2328 0.860458 30.9564C0.956066 31.9631 0.987936 32.9698 1.17915 33.9451C1.37037 34.8575 1.65719 35.7384 2.32645 36.462C3.05945 37.2485 4.0474 37.5945 5.09909 37.6889C6.05517 37.7833 6.94752 37.6575 7.80799 37.1856C8.89155 36.5878 9.65642 35.6754 10.4532 34.7946C10.8037 34.4485 10.7081 33.8507 10.3575 33.5676C9.97511 33.253 9.4652 33.3159 9.08277 33.6934C8.6366 34.1339 8.19042 34.6058 7.74425 35.0462C6.97939 35.8013 6.05517 36.1474 4.97161 35.9271C4.01553 35.7069 3.41001 35.235 3.12319 34.2912C2.83636 33.3159 2.80449 32.2777 2.70888 31.271C2.61328 30.6732 2.45393 29.7609 2.23084 28.6597C2.00776 27.4328 2.00776 27.4642 1.97589 27.244C1.81654 26.426 1.62532 24.7586 2.10337 22.9654C2.42206 21.7699 2.96384 20.7002 4.01553 19.9452C5.16283 19.1272 6.43761 18.9699 7.80799 19.1587C8.92342 19.316 9.94324 19.725 10.7718 20.5115C11.7917 21.5182 12.206 22.7452 12.4609 24.098C12.6521 25.1362 12.5565 26.1744 12.5565 27.2126C12.5565 27.7789 12.8434 28.1564 13.3851 28.1878C13.895 28.2193 14.2456 27.8732 14.3094 27.3384C14.3731 26.8036 14.405 26.3002 14.405 25.7654C14.405 25.5137 14.4368 25.4193 14.7237 25.4508C15.1698 25.5137 15.6479 25.5766 16.094 25.5766C18.5161 25.6395 20.9063 25.671 23.3284 25.5137C25.6549 25.3564 27.9495 24.9789 30.2122 24.3497C31.7738 23.9407 33.3035 23.5002 34.8333 22.9968C36.363 22.4935 37.8609 21.9272 39.295 21.2665C40.4741 20.7317 41.6214 20.1969 42.705 19.5047C43.438 19.0328 44.171 18.5295 44.9677 17.9632C44.7765 18.6868 44.5853 19.316 44.4259 19.9766C44.2666 20.6373 44.0435 21.298 44.0117 21.9901C43.916 23.4688 44.0435 24.9474 44.3622 26.426C44.6809 27.9362 45.0315 29.4463 45.5095 30.9249C45.8282 31.9946 46.1788 33.0328 46.5293 34.071C47.0074 35.4867 47.5173 36.8709 48.0909 38.2552C48.4096 39.0417 48.6965 39.8282 48.6327 40.6777C48.6008 41.4013 48.2184 41.8417 47.5492 42.0934C46.8162 42.3765 46.0513 42.4395 45.2546 42.408C44.0435 42.3451 42.8962 42.5653 41.8445 43.1945C40.5698 43.981 39.9324 45.3024 40.761 46.7496C41.1115 47.3158 41.3346 47.9136 41.239 48.5743C41.1434 49.1091 40.9203 49.6754 40.1873 49.5495C40.0917 49.5181 39.9642 49.5495 39.8368 49.5495C38.1795 49.4866 36.4905 49.3922 34.8333 49.3608C34.3233 49.3293 34.0684 49.5181 33.8772 49.9585C33.7816 50.1788 33.7816 50.3675 33.8772 50.5877C33.8772 50.6821 33.9409 50.745 34.0047 50.808C35.0563 52.0349 36.108 53.2304 37.1597 54.4574C37.2235 54.5203 37.3191 54.5832 37.3191 54.7091C37.4147 55.4327 37.2235 56.0933 36.7454 56.6596C36.4905 56.9428 36.1399 56.9742 35.8212 57.0057C35.3113 57.0372 34.8333 57.0057 34.3552 57.1945C33.686 57.4461 33.4629 58.0439 33.2079 58.6416C32.6024 60.0574 31.9969 61.4416 31.1364 62.7315C30.499 63.7068 29.6385 64.3675 28.4912 64.5877C26.5153 64.9652 24.7307 64.4618 23.1372 63.3293C22.1174 62.6057 21.2569 61.6618 20.3327 60.8439C20.2371 60.781 20.0458 60.6237 19.7909 60.4034C19.0898 59.8057 18.6436 59.3338 18.4842 59.1765C17.1139 57.8237 16.4446 57.3518 14.8193 55.9046C13.8632 55.0551 12.9071 54.2057 11.951 53.3563C11.4092 52.8844 10.8675 53.0102 10.5488 53.3563C10.1982 53.7338 10.3257 54.2686 10.7718 54.6776C11.5048 55.3383 12.2378 55.999 12.9708 56.6596C14.3412 57.8866 15.7116 59.1135 17.1139 60.309C18.3249 61.5045 18.8667 61.9765 19.0898 62.1338C19.3129 62.2911 19.4722 62.5427 19.6953 62.7C19.9184 62.8573 19.8865 63.0147 19.759 63.2034C18.8985 64.5248 18.2612 65.9405 17.7831 67.4506C17.1776 69.3382 16.9545 71.2573 16.9864 73.2393C17.0183 74.0573 17.0501 74.8753 17.2095 75.6618C17.3051 76.1337 17.7512 76.3854 18.1656 76.3225C18.6436 76.2595 18.9623 75.882 18.9304 75.3786C18.9304 75.064 18.8667 74.7809 18.8348 74.4663C18.6755 73.082 18.7073 71.6978 18.9304 70.345C19.1216 69.0551 19.4722 67.8281 19.9502 66.6326C20.2689 65.8776 20.6514 65.154 21.0657 64.4304C21.1294 64.336 21.1613 64.0214 21.4481 64.2416C22.6273 65.2169 23.9339 65.9405 25.4318 66.2551C26.8022 66.5382 28.1725 66.5382 29.5111 66.1292C30.9452 65.7203 31.965 64.7764 32.7299 63.5809C33.5903 62.2596 34.2277 60.8124 34.8333 59.3652C34.9926 58.9877 35.152 58.7675 35.63 58.7675C36.3949 58.7675 37.1597 58.6731 37.7971 58.1383C38.5938 57.4461 39.0082 56.5338 39.1675 55.4956C39.2631 54.8035 39.1675 54.1113 38.7213 53.545C38.4026 53.136 38.0202 52.7585 37.6696 52.3495C37.3828 52.0035 37.0004 51.7203 36.7773 51.2484C38.0202 51.3113 39.2312 51.3428 40.4423 51.3743C40.8884 51.4057 41.3027 51.3113 41.6852 51.0597C42.6413 50.4934 42.96 49.5495 43.0556 48.5428C43.1512 47.599 42.8325 46.781 42.3226 45.9945C42.0995 45.6799 42.0676 45.3653 42.3863 45.0821C42.96 44.5788 43.5973 44.2642 44.3622 44.2327C45.4458 44.1698 46.5293 44.2327 47.6129 43.9496C49.5569 43.4462 50.7042 41.7159 50.3537 39.7339C50.1624 38.7586 49.8119 37.8777 49.4613 36.9653C48.5052 34.5429 47.6448 32.0889 46.9436 29.5721C46.4019 27.653 45.9238 25.7025 45.7645 23.689C45.7007 22.9339 45.7007 22.1474 45.8919 21.3924C46.4019 19.2216 47.103 17.1137 47.8041 14.9744C48.314 13.4328 48.9833 12.0171 50.0031 10.7587C50.768 9.81489 51.6284 8.99691 52.5208 8.17894C52.8395 7.89579 52.8395 7.36096 52.5527 7.0149Z" fill="black"/>
<path d="M33.8773 49.9922C33.8773 50.2124 33.8773 50.4012 33.8773 50.6214C33.6861 50.4012 33.6542 50.181 33.8773 49.9922Z" fill="#848FA6"/>
<path class="hover-green" d="M60.1693 67.5777C59.755 67.4204 59.3726 67.6721 59.3407 67.7035C59.2769 67.735 59.2132 67.7664 59.1495 67.7979C58.7989 68.081 58.8626 68.6159 58.8945 68.6788C58.8945 68.899 58.8626 69.0878 58.8626 69.308C58.7989 69.5597 58.7352 69.8114 58.6714 70.063C58.5121 70.472 58.034 71.4159 57.0142 72.1394C55.9307 72.8945 54.879 72.9574 54.6559 72.9574C53.9866 72.9889 53.3174 72.863 52.6481 72.5799C51.1503 71.9507 50.226 70.8181 49.9074 69.2136C49.5887 67.5777 50.3535 65.69 51.7876 64.7462C52.3613 64.3687 53.0305 64.117 53.6998 63.9912C54.2097 63.8968 54.4647 63.4878 54.4009 63.0474C54.3372 62.6069 53.9866 62.2294 53.4448 62.2923C53.3492 62.2923 53.2536 62.2923 53.1262 62.2923C52.9987 62.3238 52.9031 62.3867 52.7756 62.4182C51.0865 62.8586 49.8117 63.8339 48.9194 65.3125C48.8238 65.4698 48.8238 65.69 48.6326 65.753C48.537 65.6586 48.4732 65.5642 48.4095 65.4384C47.0072 63.2676 45.605 61.1283 44.2027 58.9575C43.9478 58.5485 43.406 58.3912 43.0236 58.6114C42.5774 58.8317 42.418 59.3036 42.6411 59.7755C42.7049 59.9642 42.8642 60.1215 42.9598 60.2788C44.617 62.7957 46.2424 65.3125 47.8996 67.8294C47.9952 67.9552 48.0908 68.1125 48.0908 68.3013C48.0908 69.4024 48.282 70.472 48.8557 71.4473C49.3018 72.2338 49.8755 72.8945 50.5447 73.4293C51.0228 73.7754 51.4052 73.9641 52.1701 74.3102C52.5844 74.499 52.9668 74.6563 53.4767 74.7192C53.6361 74.7507 53.7635 74.7507 53.9229 74.7507C54.7515 74.7507 55.4845 74.7507 56.3131 74.499C57.078 74.2788 57.5879 73.9641 57.8428 73.7754C59.755 72.5484 60.6792 70.7866 60.8067 68.5844C60.7748 68.1125 60.5517 67.7035 60.1693 67.5777Z" fill="red"/>
<path class="hover-green"  d="M64.1855 67.4218C64.3767 67.0128 64.8547 66.9499 64.8866 66.9499C64.9503 66.9185 65.0459 66.9185 65.1097 66.887C65.5558 66.8555 65.8745 67.296 65.9064 67.3589C66.0657 67.5162 66.2251 67.642 66.3844 67.7993C66.6075 67.9252 66.8306 68.0825 67.0537 68.2083C67.468 68.3971 68.456 68.7746 69.6989 68.6173C71.0055 68.4286 71.8341 67.7679 71.9935 67.642C72.5034 67.2331 72.9177 66.6982 73.2364 66.0061C73.9056 64.5275 73.7781 63.0803 72.9177 61.696C72.0253 60.2803 70.145 59.4308 68.456 59.6825C67.7548 59.8084 67.1174 60.0601 66.5119 60.4061C66.0657 60.6578 65.5877 60.5634 65.3328 60.1859C65.0778 59.8084 65.0778 59.305 65.524 58.9904C65.6196 58.9275 65.6833 58.8645 65.7471 58.8016C65.8745 58.7387 65.9701 58.7072 66.0976 58.6443C67.6273 57.8578 69.2527 57.7005 70.9099 58.141C71.0692 58.2039 71.2286 58.3297 71.4198 58.2668C71.4198 58.141 71.4198 58.0151 71.3879 57.8893C70.9099 55.3724 70.4637 52.8556 69.9857 50.3387C69.8901 49.8668 70.1769 49.3949 70.6231 49.2691C71.1011 49.1432 71.5473 49.3635 71.7066 49.8668C71.7704 50.0556 71.7704 50.2444 71.8341 50.4331C72.3759 53.3904 72.8858 56.3477 73.4276 59.2735C73.4594 59.4308 73.4594 59.6196 73.6188 59.7454C74.3837 60.532 74.9573 61.4758 75.2123 62.5454C75.4353 63.4263 75.4672 64.2758 75.3397 65.1252C75.2441 65.6915 75.0848 66.1005 74.7661 66.8555C74.6067 67.2645 74.4155 67.642 74.0968 68.0196C74.0012 68.1454 73.9056 68.2398 73.7781 68.3342C73.1726 68.9005 72.6308 69.3724 71.8341 69.7499C71.133 70.096 70.5275 70.1904 70.2088 70.2533C67.9779 70.6308 66.0657 69.9701 64.4723 68.4286C64.0898 68.2398 63.9942 67.7679 64.1855 67.4218Z" fill="red"/>
<path class="hover-green"  d="M81.809 70.9146C81.3309 68.7123 80.0243 67.0449 78.0165 65.9123C77.7615 65.7865 77.5385 65.6607 77.2198 65.7865C76.8692 65.9123 76.6142 66.164 76.5824 66.5416C76.5186 66.982 76.8055 67.2651 77.156 67.4539C79.5781 68.7438 80.8529 71.764 79.9287 74.4696C79.7375 74.91 79.61 75.3505 79.3231 75.7595C78.3989 77.1752 77.156 78.0561 75.4669 78.4336C74.1922 78.7168 72.9811 78.5595 71.8338 78.0876C70.4316 77.4898 69.4436 76.4831 68.7744 75.1617C68.5513 74.7527 68.1688 74.5954 67.7227 74.7213C67.3084 74.8471 67.0534 75.1932 67.1171 75.6336C67.149 76.0112 67.3721 76.2943 67.5633 76.6089C67.5952 76.6718 67.5952 76.7348 67.6271 76.7977C68.9656 78.6853 70.7184 79.8808 73.0449 80.2269C74.7339 80.4786 76.3274 80.2269 77.7934 79.4718C81.0441 77.7415 82.5738 74.3752 81.809 70.9146Z" fill="red"/>
<path class="hover-green"  d="M65.4278 52.7908C64.6629 52.7594 63.8981 52.8852 63.1651 53.074C62.0178 53.3571 60.998 53.892 60.1056 54.647C59.9782 54.7414 59.9144 54.7728 59.7869 54.647C58.0979 53.2627 55.5164 53.1054 53.6999 54.5526C53.5724 54.647 53.4449 54.647 53.3175 54.5841C52.8713 54.3324 52.3614 54.1122 51.9152 53.8605C51.2459 53.4515 50.5448 53.1054 49.8437 52.6965C49.525 52.5077 49.2382 52.5077 48.9195 52.7279C48.6008 52.9167 48.5052 53.1998 48.5371 53.5774C48.5689 54.0493 48.9195 54.2066 49.2382 54.3953C50.2261 54.9301 51.2141 55.465 52.1702 55.9998C52.2658 56.0627 52.3614 56.1256 52.2976 56.2829C51.8196 57.3526 51.6921 58.4537 52.0108 59.5863C52.202 60.247 52.3614 60.9391 53.1581 61.1908C54.0823 61.0335 54.3691 60.4672 53.9548 59.6492C53.8911 59.5234 53.8592 59.3975 53.7955 59.2717C53.1581 57.5728 54.3691 55.4964 56.4725 55.3391C57.7154 55.2448 58.6715 55.811 59.3089 56.8492C59.532 57.1953 59.9144 57.3526 60.2968 57.2268C60.6474 57.1324 60.9024 56.8492 60.9661 56.4402C60.9661 56.3144 61.0298 56.22 61.1255 56.1256C62.3365 55.056 63.7706 54.5212 65.3959 54.5841C66.1289 54.6155 66.607 54.3009 66.5751 53.483C66.352 52.9796 65.9377 52.7908 65.4278 52.7908Z" fill="red"/>
<path d="M24.5397 10.1314C26.7705 9.21902 28.7464 7.86622 30.4037 6.10443C31.9015 4.5314 33.0488 2.73815 33.8456 0.724675C34.0686 0.189845 34.3236 0.0325429 34.7379 0.00108232C35.3434 -0.0303782 35.7896 0.630293 35.5665 1.16512C35.1522 2.23478 34.6423 3.24152 34.0368 4.21679C33.2719 5.44375 32.3796 6.6078 31.3597 7.61453C30.3399 8.65273 29.1926 9.56509 27.9497 10.3201C26.6431 11.1381 25.2408 11.8302 23.7748 12.3336C23.3286 12.4909 22.8825 12.3022 22.6594 11.8932C22.4682 11.4842 22.6275 10.9808 23.0418 10.7606C23.5836 10.5718 24.0616 10.3516 24.5397 10.1314Z" fill="black"/>
</g>
</g>
<defs>
<clipPath id="clip0_674_10327">
<rect width="82" height="80.6333" fill="white"/>
</clipPath>
</defs>
</svg>
