<svg width="144" height="115" viewBox="0 0 144 115" fill="none" xmlns="http://www.w3.org/2000/svg">
<g filter="url(#filter0_d_641_141)">
<path d="M102.243 92.5925C101.671 92.563 101.09 92.5433 100.518 92.5137C99.9759 92.4842 99.5422 92.6713 99.1676 93.0849C97.7482 94.6802 96.4373 96.3641 95.077 98.0086C94.5842 98.5994 94.1012 99.21 93.4013 99.5842C92.3171 100.175 91.1835 100.234 90.0204 99.8697C88.0983 99.2592 86.1663 98.688 84.1851 98.3139C83.6331 98.2055 83.0811 98.1464 82.5291 98.1169C81.1097 98.0578 79.8973 98.4813 78.9313 99.5842C77.295 101.445 75.1758 102.469 72.7707 102.913C71.2626 103.188 69.8727 102.794 68.5913 101.977C67.0832 101.012 65.6047 99.9879 64.3035 98.7668C63.5643 98.0677 62.7659 97.9495 61.859 98.1071C59.7299 98.4911 57.66 99.1312 55.59 99.7713C54.4367 100.126 53.2736 100.382 52.0612 100.027C51.4402 99.8402 50.8587 99.5842 50.3461 99.1903C48.6014 97.8412 46.9947 96.3345 46.0682 94.3158C45.319 92.6713 44.0376 92.1592 42.4211 92.0509C41.2382 91.9721 40.0653 92.0509 38.9021 92.307C36.9505 92.7402 35.3044 92.0805 33.9244 90.7215C32.0023 88.8308 31.0067 86.4773 30.642 83.8382C30.5632 83.2868 30.5336 82.7255 30.4547 82.174C30.3463 81.3764 29.9323 80.7855 29.2127 80.3916C27.8229 79.6432 26.3542 79.0819 24.8363 78.6487C23.1409 78.1661 21.682 77.27 20.4598 76.0194C19.0404 74.562 18.4884 72.8289 19.0896 70.8298C19.5923 69.1459 19.7895 67.4325 19.6318 65.6797C19.5233 64.4783 18.9516 63.6216 17.8082 63.1587C16.4578 62.6073 15.2159 61.8884 14.2203 60.7954C13.4219 59.919 12.6728 59.0032 12.2785 57.8609C11.8152 56.5512 11.9039 55.2809 12.7418 54.0992C13.5205 52.9963 14.2499 51.8737 14.9497 50.7215C16.2607 48.5256 16.0931 46.5561 14.4963 44.5571C13.2937 43.0603 12.5446 41.3567 12.4263 39.4364C12.3179 37.7919 12.9882 36.4625 14.2696 35.4483C15.5806 34.4044 17 33.5182 18.5574 32.8879C19.5332 32.4941 20.0951 31.8244 20.4302 30.8298C20.9822 29.205 21.0413 27.5211 21.2877 25.8471C21.406 25.0199 21.4947 24.1927 21.6623 23.3655C21.9284 22.0165 22.717 21.0908 23.959 20.559C25.615 19.85 27.3498 19.5546 29.1536 19.722C30.4744 19.8402 31.746 19.6728 32.988 19.2592C34.1117 18.885 35.0185 18.2252 35.6986 17.2405C36.566 15.98 37.5616 14.8279 38.5769 13.6757C40.0653 12.0017 43.6631 11.204 45.9992 13.0947C47.2116 14.0795 48.4831 14.9854 49.8237 15.7732C51.3022 16.6398 52.899 17.0534 54.6043 17.1026C56.349 17.1519 58.0838 17.0337 59.8186 16.9451C60.4495 16.9155 61.0705 16.9057 61.6816 17.0435C62.9433 17.339 63.791 18.1464 64.274 19.3183C64.9541 20.9923 65.4174 22.7353 65.8412 24.4881C66.5411 27.3734 68.6702 29.1263 71.6667 29.2149C72.7707 29.2543 73.8648 29.1952 74.9392 28.9293C77.3443 28.3385 78.2807 27.3439 78.6652 24.9017C78.8426 23.789 78.9609 22.6565 79.158 21.5438C79.3354 20.5295 79.7494 19.6038 80.2915 18.7373C81.1885 17.3094 82.5192 16.5807 84.1851 16.5118C86.3634 16.4231 88.5123 16.7186 90.6217 17.2208C91.5876 17.4473 92.4452 17.2996 93.2633 16.8367C94.4462 16.1671 95.6093 15.4384 96.6443 14.5522C98.0144 13.3705 99.6112 12.691 101.405 12.5236C102.825 12.3857 104.116 12.7698 105.121 13.8431C106.077 14.8574 107.014 15.8914 107.93 16.9451C109.981 19.2887 112.603 20.0765 115.619 19.8993C117.856 19.7614 119.729 20.5787 121.257 22.1937C122.194 23.1883 122.588 24.3995 122.489 25.7585C122.381 27.2553 122.529 28.7422 122.706 30.2193C122.815 31.1056 123.199 31.7653 123.997 32.238C125.505 33.1341 126.954 34.1287 128.453 35.0445C130.897 36.561 131.617 38.3729 131.144 41.4453C130.878 43.1588 130.266 44.754 129.182 46.1031C128.226 47.3045 128.226 48.5157 128.827 49.8254C129.35 50.9579 129.961 52.0608 130.769 53.0061C132.977 55.6058 132.09 60.6871 129.103 62.4202C127.989 63.0603 127.063 63.8973 126.264 64.8919C125.239 66.1523 124.845 67.5507 125.22 69.1656C125.703 71.2434 125.496 73.3114 124.894 75.3301C124.382 77.0632 123.248 78.2154 121.464 78.6487C119.818 79.0524 118.221 79.5743 116.654 80.2144C115.441 80.7068 114.633 81.4945 114.318 82.8436C113.884 84.6851 113.066 86.3887 112.258 88.0923C111.223 90.2882 109.508 91.5783 107.132 92.0509C105.516 92.3857 103.899 92.6319 102.243 92.5925Z" fill="url(#paint0_radial_641_141)"/>
<path d="M102.243 92.5925C101.671 92.563 101.09 92.5433 100.518 92.5137C99.9759 92.4842 99.5422 92.6713 99.1676 93.0849C97.7482 94.6802 96.4373 96.3641 95.077 98.0086C94.5842 98.5994 94.1012 99.21 93.4013 99.5842C92.3171 100.175 91.1835 100.234 90.0204 99.8697C88.0983 99.2592 86.1663 98.688 84.1851 98.3139C83.6331 98.2055 83.0811 98.1464 82.5291 98.1169C81.1097 98.0578 79.8973 98.4813 78.9313 99.5842C77.295 101.445 75.1758 102.469 72.7707 102.913C71.2626 103.188 69.8727 102.794 68.5913 101.977C67.0832 101.012 65.6047 99.9879 64.3035 98.7668C63.5643 98.0677 62.7659 97.9495 61.859 98.1071C59.7299 98.4911 57.66 99.1312 55.59 99.7713C54.4367 100.126 53.2736 100.382 52.0612 100.027C51.4402 99.8402 50.8587 99.5842 50.3461 99.1903C48.6014 97.8412 46.9947 96.3345 46.0682 94.3158C45.319 92.6713 44.0376 92.1592 42.4211 92.0509C41.2382 91.9721 40.0653 92.0509 38.9021 92.307C36.9505 92.7402 35.3044 92.0805 33.9244 90.7215C32.0023 88.8308 31.0067 86.4773 30.642 83.8382C30.5632 83.2868 30.5336 82.7255 30.4547 82.174C30.3463 81.3764 29.9323 80.7855 29.2127 80.3916C27.8229 79.6432 26.3542 79.0819 24.8363 78.6487C23.1409 78.1661 21.682 77.27 20.4598 76.0194C19.0404 74.562 18.4884 72.8289 19.0896 70.8298C19.5923 69.1459 19.7895 67.4325 19.6318 65.6797C19.5233 64.4783 18.9516 63.6216 17.8082 63.1587C16.4578 62.6073 15.2159 61.8884 14.2203 60.7954C13.4219 59.919 12.6728 59.0032 12.2785 57.8609C11.8152 56.5512 11.9039 55.2809 12.7418 54.0992C13.5205 52.9963 14.2499 51.8737 14.9497 50.7215C16.2607 48.5256 16.0931 46.5561 14.4963 44.5571C13.2937 43.0603 12.5446 41.3567 12.4263 39.4364C12.3179 37.7919 12.9882 36.4625 14.2696 35.4483C15.5806 34.4044 17 33.5182 18.5574 32.8879C19.5332 32.4941 20.0951 31.8244 20.4302 30.8298C20.9822 29.205 21.0413 27.5211 21.2877 25.8471C21.406 25.0199 21.4947 24.1927 21.6623 23.3655C21.9284 22.0165 22.717 21.0908 23.959 20.559C25.615 19.85 27.3498 19.5546 29.1536 19.722C30.4744 19.8402 31.746 19.6728 32.988 19.2592C34.1117 18.885 35.0185 18.2252 35.6986 17.2405C36.566 15.98 37.5616 14.8279 38.5769 13.6757C40.0653 12.0017 43.6631 11.204 45.9992 13.0947C47.2116 14.0795 48.4831 14.9854 49.8237 15.7732C51.3022 16.6398 52.899 17.0534 54.6043 17.1026C56.349 17.1519 58.0838 17.0337 59.8186 16.9451C60.4495 16.9155 61.0705 16.9057 61.6816 17.0435C62.9433 17.339 63.791 18.1464 64.274 19.3183C64.9541 20.9923 65.4174 22.7353 65.8412 24.4881C66.5411 27.3734 68.6702 29.1263 71.6667 29.2149C72.7707 29.2543 73.8648 29.1952 74.9392 28.9293C77.3443 28.3385 78.2807 27.3439 78.6652 24.9017C78.8426 23.789 78.9609 22.6565 79.158 21.5438C79.3354 20.5295 79.7494 19.6038 80.2915 18.7373C81.1885 17.3094 82.5192 16.5807 84.1851 16.5118C86.3634 16.4231 88.5123 16.7186 90.6217 17.2208C91.5876 17.4473 92.4452 17.2996 93.2633 16.8367C94.4462 16.1671 95.6093 15.4384 96.6443 14.5522C98.0144 13.3705 99.6112 12.691 101.405 12.5236C102.825 12.3857 104.116 12.7698 105.121 13.8431C106.077 14.8574 107.014 15.8914 107.93 16.9451C109.981 19.2887 112.603 20.0765 115.619 19.8993C117.856 19.7614 119.729 20.5787 121.257 22.1937C122.194 23.1883 122.588 24.3995 122.489 25.7585C122.381 27.2553 122.529 28.7422 122.706 30.2193C122.815 31.1056 123.199 31.7653 123.997 32.238C125.505 33.1341 126.954 34.1287 128.453 35.0445C130.897 36.561 131.617 38.3729 131.144 41.4453C130.878 43.1588 130.266 44.754 129.182 46.1031C128.226 47.3045 128.226 48.5157 128.827 49.8254C129.35 50.9579 129.961 52.0608 130.769 53.0061C132.977 55.6058 132.09 60.6871 129.103 62.4202C127.989 63.0603 127.063 63.8973 126.264 64.8919C125.239 66.1523 124.845 67.5507 125.22 69.1656C125.703 71.2434 125.496 73.3114 124.894 75.3301C124.382 77.0632 123.248 78.2154 121.464 78.6487C119.818 79.0524 118.221 79.5743 116.654 80.2144C115.441 80.7068 114.633 81.4945 114.318 82.8436C113.884 84.6851 113.066 86.3887 112.258 88.0923C111.223 90.2882 109.508 91.5783 107.132 92.0509C105.516 92.3857 103.899 92.6319 102.243 92.5925Z" stroke="#267C08" stroke-miterlimit="10"/>
</g>
<path d="M83.2418 45.9417C80.9136 43.2241 78.5839 40.5077 76.2555 37.7903C76.093 37.6006 75.9296 37.4193 75.7056 37.2911C75.6231 37.244 75.5411 37.196 75.4587 37.1487C75.4545 37.1587 75.4522 37.1669 75.4477 37.1772C73.8909 40.7466 72.3724 44.3325 70.8398 47.9124C70.1397 49.5474 69.434 51.1801 68.7207 52.8376C68.6694 52.8079 68.6196 52.7787 68.5686 52.7491C68.3414 53.2764 68.1146 53.8023 67.8859 54.3338C66.9991 53.8214 66.1619 53.3194 65.3055 52.8525C64.9954 52.6834 64.9749 52.5336 65.1126 52.2237C65.7266 50.842 69.9109 41.0191 70.5137 39.6324C70.5299 39.5951 70.5444 39.5581 70.5579 39.5212C70.9327 38.6275 71.3254 37.7411 71.6917 36.8439C71.7802 36.6272 71.8662 36.5391 72.013 36.5698C72.174 36.1935 72.3336 35.8166 72.489 35.4381C72.3361 35.3506 72.184 35.2617 72.0309 35.1747C71.4821 34.8632 71.2001 34.9593 70.9492 35.5354C70.433 36.7203 69.9315 37.9115 69.4193 39.0982C69.408 39.1224 69.397 39.1471 69.3863 39.1723C68.6999 40.7935 64.4033 50.8388 63.6972 52.4516C63.4804 52.9469 63.5971 53.264 64.0677 53.5255C65.1215 54.111 66.15 54.7419 67.2084 55.3188C67.6208 55.5436 67.7761 55.7988 67.7755 56.2868C67.7672 63.7037 67.7919 71.1205 67.7825 78.5374C67.7818 79.1629 67.9873 79.5225 68.5332 79.8149C69.669 80.4231 70.7774 81.083 71.8839 81.7436C72.2472 81.9605 72.5465 81.9724 72.9213 81.7535C74.9496 80.5689 76.987 79.3995 79.032 78.2439C79.429 78.0196 79.5739 77.7373 79.5662 77.2905C79.5432 75.9613 79.5587 74.6314 79.5557 73.3017C79.538 65.5317 79.5238 57.7617 79.4897 49.9917C79.4876 49.5345 79.6266 49.2873 80.0256 49.073C81.0326 48.5322 82.0146 47.9451 83.0049 47.3738C83.8289 46.8985 83.8666 46.671 83.2418 45.9417ZM71.7393 80.2545C70.8844 79.7627 70.0492 79.2748 69.2055 78.8019C68.9906 78.6815 69.0231 78.5019 69.0225 78.3205C68.998 70.8251 68.9741 63.3297 68.951 55.8343C68.9504 55.6532 68.9165 55.4726 69.1313 55.3519C69.9764 54.8776 70.8133 54.3889 71.7393 53.8559C71.7393 62.6998 71.7393 71.444 71.7393 80.2545Z" fill="#267C08"/>
<path d="M72.2252 36.6641C72.9148 37.0894 73.6146 37.5011 74.331 37.8793C74.7066 38.0776 74.8053 38.233 74.6132 38.6736C73.0563 42.2429 71.5379 45.8289 70.0052 49.4087C69.5296 50.5194 69.05 51.632 68.5686 52.7491C68.6196 52.7787 68.6694 52.8079 68.7207 52.8376C69.434 51.1801 70.1397 49.5474 70.8398 47.9124C72.3724 44.3325 73.8909 40.7466 75.4477 37.1772C75.4522 37.1669 75.4545 37.1587 75.4587 37.1487C74.4679 36.58 73.4805 36.0054 72.489 35.4381C72.3336 35.8166 72.174 36.1935 72.013 36.5698C72.0724 36.5823 72.1411 36.6122 72.2252 36.6641Z" fill="#267C08"/>
<path d="M58.6427 57.7056C58.4504 57.4807 58.2339 57.2956 57.9786 57.1485C56.8259 56.4846 55.6771 55.814 54.5221 55.1541C53.8777 54.7859 53.6218 54.8736 53.3246 55.5656C50.9215 61.1602 48.5254 66.7577 46.115 72.3491C45.8913 72.868 45.9832 73.1954 46.4853 73.4736C47.5762 74.0779 48.6391 74.7321 49.7319 75.3327C50.0735 75.5204 50.1763 75.7389 50.1735 76.1149C50.1604 77.9012 50.1942 84.9781 50.1748 86.7642C50.1692 87.2801 50.3221 87.6045 50.7907 87.8588C51.9229 88.4733 53.0417 89.1156 54.1371 89.7928C54.6129 90.0869 54.9838 90.0547 55.4508 89.7799C57.3673 88.652 59.2954 87.5431 61.239 86.4624C61.761 86.1721 61.9661 85.8254 61.9589 85.226C61.9187 81.8819 61.9251 73.2471 61.8899 69.903C61.8854 69.4693 62.0209 69.2375 62.3986 69.0326C63.4581 68.4581 64.4926 67.8382 65.5389 67.2396C65.7983 67.0912 66.0475 66.9417 66.0486 66.7323C66.0513 66.3203 65.8701 66.141 65.7078 65.9518C63.3521 63.2037 60.9952 60.4565 58.6427 57.7056ZM54.137 88.3819C53.2648 87.8824 52.4597 87.4138 51.6461 86.9603C51.4086 86.8279 51.3667 86.6444 51.3672 86.3971C51.3705 84.6143 51.3615 77.5413 51.3583 75.7584C51.3579 75.5786 51.3256 75.4044 51.5453 75.2826C52.3913 74.8133 53.2256 74.3227 54.137 73.7982C54.137 76.9294 54.137 85.2562 54.137 88.3819ZM57.0251 58.5644C56.0014 60.9432 54.9863 63.3257 53.966 65.7059C52.8069 68.4099 51.6351 71.1085 50.4956 73.8206C50.3261 74.2239 50.1919 74.2436 49.8474 74.0282C49.1427 73.5876 48.4197 73.1738 47.6869 72.7809C47.402 72.6282 47.3736 72.4842 47.4937 72.205C49.7035 67.0663 51.9046 61.9238 54.1114 56.7837C54.1617 56.6665 54.1722 56.5012 54.3468 56.464C54.4313 56.5065 54.5072 56.5402 54.5788 56.5814C55.3534 57.0277 56.1178 57.4931 56.9059 57.9144C57.2707 58.1094 57.135 58.3091 57.0251 58.5644Z" fill="#267C08"/>
<path d="M101.659 48.4218C99.3035 45.6737 96.9465 42.9265 94.594 40.1756C94.4017 39.9508 94.1852 39.7656 93.9299 39.6185C92.7772 38.9547 91.6284 38.284 90.4734 37.6241C89.829 37.2559 89.5732 37.3436 89.2759 38.0357C86.8729 43.6302 84.4767 49.2277 82.0664 54.8191C81.8426 55.338 81.9345 55.6654 82.4367 55.9436C83.5275 56.5479 84.5904 57.2021 85.6832 57.8027C86.0248 57.9904 86.1276 58.2089 86.1249 58.5849C86.1117 60.3712 86.1455 67.4481 86.1261 69.2342C86.1205 69.7501 86.2735 70.0745 86.742 70.3288C87.8743 70.9433 88.993 71.5856 90.0885 72.2628C90.5642 72.5569 90.9351 72.5247 91.4021 72.2499C93.3186 71.122 95.2468 70.0131 97.1904 68.9324C97.7124 68.6421 97.9174 68.2954 97.9102 67.696C97.8701 64.3519 97.8765 55.7171 97.8413 52.373C97.8367 51.9393 97.9722 51.7075 98.35 51.5026C99.4094 50.9282 100.444 50.3083 101.49 49.7096C101.75 49.5612 101.999 49.4117 102 49.2023C102.003 48.7903 101.821 48.611 101.659 48.4218ZM90.0883 70.8519C89.2161 70.3524 88.4111 69.8838 87.5974 69.4303C87.36 69.2979 87.3181 69.1143 87.3185 68.8671C87.3218 67.0843 87.3128 60.0113 87.3096 58.2284C87.3093 58.0486 87.2769 57.8744 87.4966 57.7526C88.3427 57.2833 89.1769 56.7927 90.0883 56.2682C90.0883 59.3994 90.0883 67.7262 90.0883 70.8519ZM92.9765 41.0344C91.9528 43.4132 90.9376 45.7957 89.9173 48.1759C88.7583 50.8799 87.5864 53.5785 86.4469 56.2906C86.2774 56.694 86.1432 56.7136 85.7987 56.4982C85.094 56.0576 84.371 55.6438 83.6382 55.2509C83.3534 55.0982 83.325 54.9542 83.445 54.675C85.6549 49.5363 87.856 44.3938 90.0627 39.2537C90.113 39.1365 90.1236 38.9712 90.2981 38.934C90.3826 38.9765 90.4586 39.0102 90.5301 39.0514C91.3048 39.4977 92.0691 39.9631 92.8572 40.3844C93.222 40.5794 93.0863 40.7791 92.9765 41.0344Z" fill="#267C08"/>
<defs>
<filter id="filter0_d_641_141" x="0.5" y="0.500122" width="143" height="114" filterUnits="userSpaceOnUse" color-interpolation-filters="sRGB">
<feFlood flood-opacity="0" result="BackgroundImageFix"/>
<feColorMatrix in="SourceAlpha" type="matrix" values="0 0 0 0 0 0 0 0 0 0 0 0 0 0 0 0 0 0 127 0" result="hardAlpha"/>
<feOffset/>
<feGaussianBlur stdDeviation="5.5"/>
<feComposite in2="hardAlpha" operator="out"/>
<feColorMatrix type="matrix" values="0 0 0 0 0.329412 0 0 0 0 0.764706 0 0 0 0 0.176471 0 0 0 1 0"/>
<feBlend mode="normal" in2="BackgroundImageFix" result="effect1_dropShadow_641_141"/>
<feBlend mode="normal" in="SourceGraphic" in2="effect1_dropShadow_641_141" result="shape"/>
</filter>
<radialGradient id="paint0_radial_641_141" cx="0" cy="0" r="1" gradientUnits="userSpaceOnUse" gradientTransform="translate(72 57.5) rotate(90) scale(45.5 60)">
<stop stop-color="#6AFF00"/>
<stop offset="1" stop-color="#5BE22B"/>
</radialGradient>
</defs>
</svg>
