<svg width="144" height="115" viewBox="0 0 144 115" fill="none" xmlns="http://www.w3.org/2000/svg">
<g filter="url(#filter0_d_785_13)">
<path d="M102.243 92.5925C101.671 92.563 101.09 92.5433 100.518 92.5137C99.9759 92.4842 99.5422 92.6713 99.1676 93.0849C97.7482 94.6802 96.4373 96.3641 95.077 98.0086C94.5842 98.5994 94.1012 99.21 93.4013 99.5842C92.3171 100.175 91.1835 100.234 90.0204 99.8697C88.0983 99.2592 86.1663 98.6881 84.1851 98.3139C83.6331 98.2055 83.0811 98.1464 82.5291 98.1169C81.1097 98.0578 79.8973 98.4813 78.9313 99.5842C77.295 101.445 75.1758 102.469 72.7707 102.913C71.2626 103.188 69.8727 102.794 68.5913 101.977C67.0832 101.012 65.6047 99.9879 64.3035 98.7668C63.5643 98.0677 62.7659 97.9495 61.859 98.1071C59.7299 98.4911 57.66 99.1312 55.59 99.7713C54.4367 100.126 53.2736 100.382 52.0612 100.027C51.4402 99.8402 50.8587 99.5842 50.3461 99.1903C48.6014 97.8412 46.9947 96.3345 46.0682 94.3158C45.319 92.6713 44.0376 92.1592 42.4211 92.0509C41.2382 91.9721 40.0653 92.0509 38.9021 92.307C36.9505 92.7402 35.3044 92.0805 33.9244 90.7215C32.0023 88.8308 31.0067 86.4773 30.642 83.8382C30.5632 83.2868 30.5336 82.7255 30.4547 82.174C30.3463 81.3764 29.9323 80.7855 29.2127 80.3916C27.8229 79.6432 26.3542 79.0819 24.8363 78.6487C23.1409 78.1661 21.682 77.27 20.4598 76.0194C19.0404 74.562 18.4884 72.8289 19.0896 70.8298C19.5923 69.1459 19.7895 67.4325 19.6318 65.6797C19.5233 64.4783 18.9516 63.6216 17.8082 63.1587C16.4578 62.6073 15.2159 61.8884 14.2203 60.7954C13.4219 59.919 12.6728 59.0032 12.2785 57.8609C11.8152 56.5512 11.9039 55.2809 12.7418 54.0992C13.5205 52.9963 14.2499 51.8737 14.9497 50.7215C16.2607 48.5256 16.0931 46.5561 14.4963 44.5571C13.2937 43.0603 12.5446 41.3567 12.4263 39.4364C12.3179 37.7919 12.9882 36.4625 14.2696 35.4483C15.5806 34.4044 17 33.5182 18.5574 32.8879C19.5332 32.4941 20.0951 31.8244 20.4302 30.8298C20.9822 29.205 21.0413 27.5211 21.2877 25.8471C21.406 25.0199 21.4947 24.1927 21.6623 23.3655C21.9284 22.0165 22.717 21.0908 23.959 20.559C25.615 19.85 27.3498 19.5546 29.1536 19.722C30.4744 19.8402 31.746 19.6728 32.988 19.2592C34.1117 18.885 35.0185 18.2252 35.6986 17.2405C36.566 15.98 37.5616 14.8279 38.5769 13.6757C40.0653 12.0017 43.6631 11.204 45.9992 13.0947C47.2116 14.0795 48.4831 14.9854 49.8237 15.7732C51.3022 16.6398 52.899 17.0534 54.6043 17.1026C56.349 17.1519 58.0838 17.0337 59.8186 16.9451C60.4495 16.9155 61.0705 16.9057 61.6816 17.0435C62.9433 17.339 63.791 18.1464 64.274 19.3183C64.9541 20.9923 65.4174 22.7353 65.8412 24.4881C66.5411 27.3734 68.6702 29.1263 71.6667 29.2149C72.7707 29.2543 73.8648 29.1952 74.9392 28.9293C77.3443 28.3385 78.2807 27.3439 78.6652 24.9017C78.8426 23.789 78.9609 22.6565 79.158 21.5438C79.3354 20.5295 79.7494 19.6038 80.2915 18.7373C81.1885 17.3094 82.5192 16.5807 84.1851 16.5118C86.3634 16.4231 88.5123 16.7186 90.6217 17.2208C91.5876 17.4473 92.4452 17.2996 93.2633 16.8367C94.4462 16.1671 95.6093 15.4384 96.6443 14.5522C98.0144 13.3705 99.6112 12.691 101.405 12.5236C102.825 12.3857 104.116 12.7698 105.121 13.8431C106.077 14.8574 107.014 15.8914 107.93 16.9451C109.981 19.2887 112.603 20.0765 115.619 19.8993C117.856 19.7614 119.729 20.5787 121.257 22.1937C122.194 23.1883 122.588 24.3995 122.489 25.7585C122.381 27.2553 122.529 28.7422 122.706 30.2193C122.815 31.1056 123.199 31.7653 123.997 32.238C125.505 33.1341 126.954 34.1287 128.453 35.0445C130.897 36.561 131.617 38.3729 131.144 41.4453C130.878 43.1588 130.266 44.754 129.182 46.1031C128.226 47.3045 128.226 48.5157 128.827 49.8254C129.35 50.9579 129.961 52.0608 130.769 53.0061C132.977 55.6058 132.09 60.6871 129.103 62.4202C127.989 63.0603 127.063 63.8973 126.264 64.8919C125.239 66.1523 124.845 67.5507 125.22 69.1656C125.703 71.2434 125.496 73.3114 124.894 75.3301C124.382 77.0632 123.248 78.2154 121.464 78.6487C119.818 79.0524 118.221 79.5743 116.654 80.2144C115.441 80.7068 114.633 81.4945 114.318 82.8436C113.884 84.6851 113.066 86.3887 112.258 88.0923C111.223 90.2882 109.508 91.5783 107.132 92.0509C105.516 92.3857 103.899 92.6319 102.243 92.5925Z" fill="url(#paint0_radial_785_13)"/>
<path d="M102.243 92.5925C101.671 92.563 101.09 92.5433 100.518 92.5137C99.9759 92.4842 99.5422 92.6713 99.1676 93.0849C97.7482 94.6802 96.4373 96.3641 95.077 98.0086C94.5842 98.5994 94.1012 99.21 93.4013 99.5842C92.3171 100.175 91.1835 100.234 90.0204 99.8697C88.0983 99.2592 86.1663 98.6881 84.1851 98.3139C83.6331 98.2055 83.0811 98.1464 82.5291 98.1169C81.1097 98.0578 79.8973 98.4813 78.9313 99.5842C77.295 101.445 75.1758 102.469 72.7707 102.913C71.2626 103.188 69.8727 102.794 68.5913 101.977C67.0832 101.012 65.6047 99.9879 64.3035 98.7668C63.5643 98.0677 62.7659 97.9495 61.859 98.1071C59.7299 98.4911 57.66 99.1312 55.59 99.7713C54.4367 100.126 53.2736 100.382 52.0612 100.027C51.4402 99.8402 50.8587 99.5842 50.3461 99.1903C48.6014 97.8412 46.9947 96.3345 46.0682 94.3158C45.319 92.6713 44.0376 92.1592 42.4211 92.0509C41.2382 91.9721 40.0653 92.0509 38.9021 92.307C36.9505 92.7402 35.3044 92.0805 33.9244 90.7215C32.0023 88.8308 31.0067 86.4773 30.642 83.8382C30.5632 83.2868 30.5336 82.7255 30.4547 82.174C30.3463 81.3764 29.9323 80.7855 29.2127 80.3916C27.8229 79.6432 26.3542 79.0819 24.8363 78.6487C23.1409 78.1661 21.682 77.27 20.4598 76.0194C19.0404 74.562 18.4884 72.8289 19.0896 70.8298C19.5923 69.1459 19.7895 67.4325 19.6318 65.6797C19.5233 64.4783 18.9516 63.6216 17.8082 63.1587C16.4578 62.6073 15.2159 61.8884 14.2203 60.7954C13.4219 59.919 12.6728 59.0032 12.2785 57.8609C11.8152 56.5512 11.9039 55.2809 12.7418 54.0992C13.5205 52.9963 14.2499 51.8737 14.9497 50.7215C16.2607 48.5256 16.0931 46.5561 14.4963 44.5571C13.2937 43.0603 12.5446 41.3567 12.4263 39.4364C12.3179 37.7919 12.9882 36.4625 14.2696 35.4483C15.5806 34.4044 17 33.5182 18.5574 32.8879C19.5332 32.4941 20.0951 31.8244 20.4302 30.8298C20.9822 29.205 21.0413 27.5211 21.2877 25.8471C21.406 25.0199 21.4947 24.1927 21.6623 23.3655C21.9284 22.0165 22.717 21.0908 23.959 20.559C25.615 19.85 27.3498 19.5546 29.1536 19.722C30.4744 19.8402 31.746 19.6728 32.988 19.2592C34.1117 18.885 35.0185 18.2252 35.6986 17.2405C36.566 15.98 37.5616 14.8279 38.5769 13.6757C40.0653 12.0017 43.6631 11.204 45.9992 13.0947C47.2116 14.0795 48.4831 14.9854 49.8237 15.7732C51.3022 16.6398 52.899 17.0534 54.6043 17.1026C56.349 17.1519 58.0838 17.0337 59.8186 16.9451C60.4495 16.9155 61.0705 16.9057 61.6816 17.0435C62.9433 17.339 63.791 18.1464 64.274 19.3183C64.9541 20.9923 65.4174 22.7353 65.8412 24.4881C66.5411 27.3734 68.6702 29.1263 71.6667 29.2149C72.7707 29.2543 73.8648 29.1952 74.9392 28.9293C77.3443 28.3385 78.2807 27.3439 78.6652 24.9017C78.8426 23.789 78.9609 22.6565 79.158 21.5438C79.3354 20.5295 79.7494 19.6038 80.2915 18.7373C81.1885 17.3094 82.5192 16.5807 84.1851 16.5118C86.3634 16.4231 88.5123 16.7186 90.6217 17.2208C91.5876 17.4473 92.4452 17.2996 93.2633 16.8367C94.4462 16.1671 95.6093 15.4384 96.6443 14.5522C98.0144 13.3705 99.6112 12.691 101.405 12.5236C102.825 12.3857 104.116 12.7698 105.121 13.8431C106.077 14.8574 107.014 15.8914 107.93 16.9451C109.981 19.2887 112.603 20.0765 115.619 19.8993C117.856 19.7614 119.729 20.5787 121.257 22.1937C122.194 23.1883 122.588 24.3995 122.489 25.7585C122.381 27.2553 122.529 28.7422 122.706 30.2193C122.815 31.1056 123.199 31.7653 123.997 32.238C125.505 33.1341 126.954 34.1287 128.453 35.0445C130.897 36.561 131.617 38.3729 131.144 41.4453C130.878 43.1588 130.266 44.754 129.182 46.1031C128.226 47.3045 128.226 48.5157 128.827 49.8254C129.35 50.9579 129.961 52.0608 130.769 53.0061C132.977 55.6058 132.09 60.6871 129.103 62.4202C127.989 63.0603 127.063 63.8973 126.264 64.8919C125.239 66.1523 124.845 67.5507 125.22 69.1656C125.703 71.2434 125.496 73.3114 124.894 75.3301C124.382 77.0632 123.248 78.2154 121.464 78.6487C119.818 79.0524 118.221 79.5743 116.654 80.2144C115.441 80.7068 114.633 81.4945 114.318 82.8436C113.884 84.6851 113.066 86.3887 112.258 88.0923C111.223 90.2882 109.508 91.5783 107.132 92.0509C105.516 92.3857 103.899 92.6319 102.243 92.5925Z" stroke="#267C08" stroke-miterlimit="10"/>
</g>
<path d="M88.9828 45.6316C88.2015 44.5457 87.7415 44.2972 86.6532 45.3907C77.6036 54.4832 68.5101 63.5331 59.3673 72.5328C58.2173 73.6649 58.4429 74.171 59.6239 74.9557C66.6616 79.6321 74.0799 80.3757 81.6062 76.5434C89.0889 72.7334 92.7077 66.2971 93 59.4806C92.9962 53.5058 91.5401 49.1861 88.9828 45.6316Z" fill="#267C08"/>
<path d="M84.5215 43.5577C85.6937 42.4056 85.5881 41.8717 84.3073 41.0169C77.3863 36.398 70.0685 35.6671 62.6303 39.3205C55.0229 43.057 51.3082 49.491 51.0021 56.1568C50.9407 62.3162 52.229 66.3324 54.7301 69.9721C56.0106 71.8356 56.0272 71.8317 57.5774 70.2908C66.5506 61.3715 75.4985 52.4268 84.5215 43.5577Z" fill="#267C08"/>
<defs>
<filter id="filter0_d_785_13" x="0.5" y="0.500122" width="143" height="114" filterUnits="userSpaceOnUse" color-interpolation-filters="sRGB">
<feFlood flood-opacity="0" result="BackgroundImageFix"/>
<feColorMatrix in="SourceAlpha" type="matrix" values="0 0 0 0 0 0 0 0 0 0 0 0 0 0 0 0 0 0 127 0" result="hardAlpha"/>
<feOffset/>
<feGaussianBlur stdDeviation="5.5"/>
<feComposite in2="hardAlpha" operator="out"/>
<feColorMatrix type="matrix" values="0 0 0 0 0.329412 0 0 0 0 0.764706 0 0 0 0 0.176471 0 0 0 1 0"/>
<feBlend mode="normal" in2="BackgroundImageFix" result="effect1_dropShadow_785_13"/>
<feBlend mode="normal" in="SourceGraphic" in2="effect1_dropShadow_785_13" result="shape"/>
</filter>
<radialGradient id="paint0_radial_785_13" cx="0" cy="0" r="1" gradientUnits="userSpaceOnUse" gradientTransform="translate(72 57.5) rotate(90) scale(45.5 60)">
<stop stop-color="#6AFF00"/>
<stop offset="1" stop-color="#5BE22B"/>
</radialGradient>
</defs>
</svg>
