<svg width="144" height="115" viewBox="0 0 144 115" fill="none" xmlns="http://www.w3.org/2000/svg">
<g filter="url(#filter0_d_641_144)">
<path d="M102.243 92.5925C101.671 92.563 101.09 92.5433 100.518 92.5137C99.9759 92.4842 99.5422 92.6713 99.1676 93.0849C97.7482 94.6802 96.4373 96.3641 95.077 98.0086C94.5842 98.5994 94.1012 99.21 93.4013 99.5842C92.3171 100.175 91.1835 100.234 90.0204 99.8697C88.0983 99.2592 86.1663 98.688 84.1851 98.3139C83.6331 98.2055 83.0811 98.1464 82.5291 98.1169C81.1097 98.0578 79.8973 98.4813 78.9313 99.5842C77.295 101.445 75.1758 102.469 72.7707 102.913C71.2626 103.188 69.8727 102.794 68.5913 101.977C67.0832 101.012 65.6047 99.9879 64.3035 98.7668C63.5643 98.0677 62.7659 97.9495 61.859 98.1071C59.7299 98.4911 57.66 99.1312 55.59 99.7713C54.4367 100.126 53.2736 100.382 52.0612 100.027C51.4402 99.8402 50.8587 99.5842 50.3461 99.1903C48.6014 97.8412 46.9947 96.3345 46.0682 94.3158C45.319 92.6713 44.0376 92.1592 42.4211 92.0509C41.2382 91.9721 40.0653 92.0509 38.9021 92.307C36.9505 92.7402 35.3044 92.0805 33.9244 90.7215C32.0023 88.8308 31.0067 86.4773 30.642 83.8382C30.5632 83.2868 30.5336 82.7255 30.4547 82.174C30.3463 81.3764 29.9323 80.7855 29.2127 80.3916C27.8229 79.6432 26.3542 79.0819 24.8363 78.6487C23.1409 78.1661 21.682 77.27 20.4598 76.0194C19.0404 74.562 18.4884 72.8289 19.0896 70.8298C19.5923 69.1459 19.7895 67.4325 19.6318 65.6797C19.5233 64.4783 18.9516 63.6216 17.8082 63.1587C16.4578 62.6073 15.2159 61.8884 14.2203 60.7954C13.4219 59.919 12.6728 59.0032 12.2785 57.8609C11.8152 56.5512 11.9039 55.2809 12.7418 54.0992C13.5205 52.9963 14.2499 51.8737 14.9497 50.7215C16.2607 48.5256 16.0931 46.5561 14.4963 44.5571C13.2937 43.0603 12.5446 41.3567 12.4263 39.4364C12.3179 37.7919 12.9882 36.4625 14.2696 35.4483C15.5806 34.4044 17 33.5182 18.5574 32.8879C19.5332 32.4941 20.0951 31.8244 20.4302 30.8298C20.9822 29.205 21.0413 27.5211 21.2877 25.8471C21.406 25.0199 21.4947 24.1927 21.6623 23.3655C21.9284 22.0165 22.717 21.0908 23.959 20.559C25.615 19.85 27.3498 19.5546 29.1536 19.722C30.4744 19.8402 31.746 19.6728 32.988 19.2592C34.1117 18.885 35.0185 18.2252 35.6986 17.2405C36.566 15.98 37.5616 14.8279 38.5769 13.6757C40.0653 12.0017 43.6631 11.204 45.9992 13.0947C47.2116 14.0795 48.4831 14.9854 49.8237 15.7732C51.3022 16.6398 52.899 17.0534 54.6043 17.1026C56.349 17.1519 58.0838 17.0337 59.8186 16.9451C60.4495 16.9155 61.0705 16.9057 61.6816 17.0435C62.9433 17.339 63.791 18.1464 64.274 19.3183C64.9541 20.9923 65.4174 22.7353 65.8412 24.4881C66.5411 27.3734 68.6702 29.1263 71.6667 29.2149C72.7707 29.2543 73.8648 29.1952 74.9392 28.9293C77.3443 28.3385 78.2807 27.3439 78.6652 24.9017C78.8426 23.789 78.9609 22.6565 79.158 21.5438C79.3354 20.5295 79.7494 19.6038 80.2915 18.7373C81.1885 17.3094 82.5192 16.5807 84.1851 16.5118C86.3634 16.4231 88.5123 16.7186 90.6217 17.2208C91.5876 17.4473 92.4452 17.2996 93.2633 16.8367C94.4462 16.1671 95.6093 15.4384 96.6443 14.5522C98.0144 13.3705 99.6112 12.691 101.405 12.5236C102.825 12.3857 104.116 12.7698 105.121 13.8431C106.077 14.8574 107.014 15.8914 107.93 16.9451C109.981 19.2887 112.603 20.0765 115.619 19.8993C117.856 19.7614 119.729 20.5787 121.257 22.1937C122.194 23.1883 122.588 24.3995 122.489 25.7585C122.381 27.2553 122.529 28.7422 122.706 30.2193C122.815 31.1056 123.199 31.7653 123.997 32.238C125.505 33.1341 126.954 34.1287 128.453 35.0445C130.897 36.561 131.617 38.3729 131.144 41.4453C130.878 43.1588 130.266 44.754 129.182 46.1031C128.226 47.3045 128.226 48.5157 128.827 49.8254C129.35 50.9579 129.961 52.0608 130.769 53.0061C132.977 55.6058 132.09 60.6871 129.103 62.4202C127.989 63.0603 127.063 63.8973 126.264 64.8919C125.239 66.1523 124.845 67.5507 125.22 69.1656C125.703 71.2434 125.496 73.3114 124.894 75.3301C124.382 77.0632 123.248 78.2154 121.464 78.6487C119.818 79.0524 118.221 79.5743 116.654 80.2144C115.441 80.7068 114.633 81.4945 114.318 82.8436C113.884 84.6851 113.066 86.3887 112.258 88.0923C111.223 90.2882 109.508 91.5783 107.132 92.0509C105.516 92.3857 103.899 92.6319 102.243 92.5925Z" fill="url(#paint0_radial_641_144)"/>
<path d="M102.243 92.5925C101.671 92.563 101.09 92.5433 100.518 92.5137C99.9759 92.4842 99.5422 92.6713 99.1676 93.0849C97.7482 94.6802 96.4373 96.3641 95.077 98.0086C94.5842 98.5994 94.1012 99.21 93.4013 99.5842C92.3171 100.175 91.1835 100.234 90.0204 99.8697C88.0983 99.2592 86.1663 98.688 84.1851 98.3139C83.6331 98.2055 83.0811 98.1464 82.5291 98.1169C81.1097 98.0578 79.8973 98.4813 78.9313 99.5842C77.295 101.445 75.1758 102.469 72.7707 102.913C71.2626 103.188 69.8727 102.794 68.5913 101.977C67.0832 101.012 65.6047 99.9879 64.3035 98.7668C63.5643 98.0677 62.7659 97.9495 61.859 98.1071C59.7299 98.4911 57.66 99.1312 55.59 99.7713C54.4367 100.126 53.2736 100.382 52.0612 100.027C51.4402 99.8402 50.8587 99.5842 50.3461 99.1903C48.6014 97.8412 46.9947 96.3345 46.0682 94.3158C45.319 92.6713 44.0376 92.1592 42.4211 92.0509C41.2382 91.9721 40.0653 92.0509 38.9021 92.307C36.9505 92.7402 35.3044 92.0805 33.9244 90.7215C32.0023 88.8308 31.0067 86.4773 30.642 83.8382C30.5632 83.2868 30.5336 82.7255 30.4547 82.174C30.3463 81.3764 29.9323 80.7855 29.2127 80.3916C27.8229 79.6432 26.3542 79.0819 24.8363 78.6487C23.1409 78.1661 21.682 77.27 20.4598 76.0194C19.0404 74.562 18.4884 72.8289 19.0896 70.8298C19.5923 69.1459 19.7895 67.4325 19.6318 65.6797C19.5233 64.4783 18.9516 63.6216 17.8082 63.1587C16.4578 62.6073 15.2159 61.8884 14.2203 60.7954C13.4219 59.919 12.6728 59.0032 12.2785 57.8609C11.8152 56.5512 11.9039 55.2809 12.7418 54.0992C13.5205 52.9963 14.2499 51.8737 14.9497 50.7215C16.2607 48.5256 16.0931 46.5561 14.4963 44.5571C13.2937 43.0603 12.5446 41.3567 12.4263 39.4364C12.3179 37.7919 12.9882 36.4625 14.2696 35.4483C15.5806 34.4044 17 33.5182 18.5574 32.8879C19.5332 32.4941 20.0951 31.8244 20.4302 30.8298C20.9822 29.205 21.0413 27.5211 21.2877 25.8471C21.406 25.0199 21.4947 24.1927 21.6623 23.3655C21.9284 22.0165 22.717 21.0908 23.959 20.559C25.615 19.85 27.3498 19.5546 29.1536 19.722C30.4744 19.8402 31.746 19.6728 32.988 19.2592C34.1117 18.885 35.0185 18.2252 35.6986 17.2405C36.566 15.98 37.5616 14.8279 38.5769 13.6757C40.0653 12.0017 43.6631 11.204 45.9992 13.0947C47.2116 14.0795 48.4831 14.9854 49.8237 15.7732C51.3022 16.6398 52.899 17.0534 54.6043 17.1026C56.349 17.1519 58.0838 17.0337 59.8186 16.9451C60.4495 16.9155 61.0705 16.9057 61.6816 17.0435C62.9433 17.339 63.791 18.1464 64.274 19.3183C64.9541 20.9923 65.4174 22.7353 65.8412 24.4881C66.5411 27.3734 68.6702 29.1263 71.6667 29.2149C72.7707 29.2543 73.8648 29.1952 74.9392 28.9293C77.3443 28.3385 78.2807 27.3439 78.6652 24.9017C78.8426 23.789 78.9609 22.6565 79.158 21.5438C79.3354 20.5295 79.7494 19.6038 80.2915 18.7373C81.1885 17.3094 82.5192 16.5807 84.1851 16.5118C86.3634 16.4231 88.5123 16.7186 90.6217 17.2208C91.5876 17.4473 92.4452 17.2996 93.2633 16.8367C94.4462 16.1671 95.6093 15.4384 96.6443 14.5522C98.0144 13.3705 99.6112 12.691 101.405 12.5236C102.825 12.3857 104.116 12.7698 105.121 13.8431C106.077 14.8574 107.014 15.8914 107.93 16.9451C109.981 19.2887 112.603 20.0765 115.619 19.8993C117.856 19.7614 119.729 20.5787 121.257 22.1937C122.194 23.1883 122.588 24.3995 122.489 25.7585C122.381 27.2553 122.529 28.7422 122.706 30.2193C122.815 31.1056 123.199 31.7653 123.997 32.238C125.505 33.1341 126.954 34.1287 128.453 35.0445C130.897 36.561 131.617 38.3729 131.144 41.4453C130.878 43.1588 130.266 44.754 129.182 46.1031C128.226 47.3045 128.226 48.5157 128.827 49.8254C129.35 50.9579 129.961 52.0608 130.769 53.0061C132.977 55.6058 132.09 60.6871 129.103 62.4202C127.989 63.0603 127.063 63.8973 126.264 64.8919C125.239 66.1523 124.845 67.5507 125.22 69.1656C125.703 71.2434 125.496 73.3114 124.894 75.3301C124.382 77.0632 123.248 78.2154 121.464 78.6487C119.818 79.0524 118.221 79.5743 116.654 80.2144C115.441 80.7068 114.633 81.4945 114.318 82.8436C113.884 84.6851 113.066 86.3887 112.258 88.0923C111.223 90.2882 109.508 91.5783 107.132 92.0509C105.516 92.3857 103.899 92.6319 102.243 92.5925Z" stroke="#267C08" stroke-miterlimit="10"/>
</g>
<path d="M96.2367 66.7271C95.2465 66.6253 94.2537 66.5455 93.2603 66.4807C92.7171 66.4452 92.4409 66.6879 92.3772 67.2336C92.2583 68.253 91.2501 71.6616 90.6931 73.0541C90.0593 74.6386 89.1645 75.7569 88.4064 76.7043C88.0667 77.1289 87.4254 77.9015 86.5107 78.7425C83.202 81.7846 79.3051 83.4661 74.8079 83.7583C74.5696 83.7738 74.3679 83.8124 74.3735 83.4448C74.3816 82.9072 74.1059 82.5059 73.5994 82.3132C73.0717 82.1125 72.6156 82.2738 72.218 82.6618C71.3782 83.4814 70.5224 84.2847 69.6869 85.1086C69.0486 85.7382 69.0535 86.4915 69.6954 87.1253C70.4492 87.8696 71.2232 88.5934 71.9777 89.337C72.2455 89.601 72.533 89.8291 72.8672 90C73.0632 90 73.2591 90 73.4551 90C74.046 89.7478 74.4124 89.335 74.3827 88.6625C74.37 88.3752 74.5636 88.4054 74.7373 88.3962C75.6668 88.3472 76.5936 88.2657 77.511 88.1086C82.7313 87.215 87.171 84.8526 90.7961 81.0109C94.3373 77.2581 96.4027 72.8073 96.9864 67.6841C97.0578 67.0573 96.8541 66.7905 96.2367 66.7271Z" fill="#267C08"/>
<path d="M47.6227 54.7664C47.7417 53.747 48.7499 50.3384 49.3069 48.9459C49.9407 47.3614 50.8355 46.2431 51.5936 45.2957C51.9333 44.8711 52.5746 44.0985 53.4893 43.2575C56.798 40.2154 60.6949 38.5339 65.1921 38.2417C65.4304 38.2262 65.6321 38.1876 65.6265 38.5552C65.6184 39.0928 65.8941 39.4941 66.4006 39.6868C66.9283 39.8875 67.3844 39.7262 67.782 39.3382C68.6218 38.5186 69.4777 37.7153 70.3131 36.8914C70.9514 36.2618 70.9465 35.5085 70.3046 34.8747C69.5509 34.1304 68.7768 33.4066 68.0223 32.663C67.7545 32.399 67.467 32.1709 67.1328 32C66.9369 32 66.7409 32 66.5449 32C65.954 32.2522 65.5876 32.665 65.6173 33.3375C65.63 33.6248 65.4365 33.5946 65.2627 33.6038C64.3332 33.6528 63.4064 33.7343 62.489 33.8914C57.2687 34.785 52.829 37.1474 49.2039 40.9891C45.6627 44.7419 43.5973 49.1927 43.0136 54.3159C42.9422 54.9427 43.1459 55.2095 43.7633 55.2729C44.7534 55.3747 45.7463 55.4545 46.7397 55.5193C47.2829 55.5548 47.5591 55.3121 47.6227 54.7664Z" fill="#267C08"/>
<path d="M86.4355 55.9031C85.6261 55.8962 84.8165 55.8978 84.007 55.9028C84.0014 55.9027 83.9961 55.9022 83.9905 55.9022C82.831 55.8993 77.9389 55.8827 76.7801 55.9115C76.3825 55.9213 76.3012 55.7978 76.303 55.4235C76.318 52.2841 76.312 49.1445 76.3111 46.005C76.3109 45.186 76.1003 44.9817 75.2641 44.9816C72.8799 44.9813 70.4956 44.9813 68.1113 44.9816C67.2779 44.9817 67.0717 45.1847 67.0715 46.0115C67.0707 49.151 67.0637 52.2906 67.0807 55.4301C67.0828 55.8179 66.9788 55.912 66.5962 55.9101C63.4118 55.8945 60.2273 55.9003 57.0429 55.902C56.3458 55.9024 56.1119 56.1399 56.1115 56.8419C56.1101 59.2657 56.1104 61.6895 56.1113 64.1133C56.1115 64.879 56.331 65.1 57.0946 65.1003C60.2627 65.1013 63.4309 65.1079 66.5989 65.0915C66.9873 65.0894 67.0861 65.192 67.0806 65.5747C67.058 67.1523 67.0712 68.7304 67.0712 70.3083C67.0712 71.8862 67.0699 73.4641 67.0718 75.042C67.0728 75.7996 67.298 76.02 68.066 76.0202C70.4666 76.021 72.8671 76.0208 75.2677 76.0204C76.1011 76.0202 76.3109 75.8149 76.3111 74.9924C76.312 71.8692 76.3211 68.7458 76.3003 65.6227C76.2975 65.1923 76.3997 65.0868 76.8335 65.0896C80.0178 65.1102 83.2024 65.1021 86.3868 65.0995C87.0016 65.0989 87.2686 64.8482 87.2696 64.2582C87.2742 61.7531 87.2741 59.2479 87.2697 56.7428C87.2687 56.1679 87.0072 55.9081 86.4355 55.9031Z" fill="#267C08"/>
<path d="M56.296 69.4047H53.8347V74.2525H48.968V76.7041H53.8347V81.5519H56.296V76.7041H61.1628V74.2525H56.296V69.4047Z" fill="#267C08"/>
<path d="M89.0032 42.9095V38.0617H86.5419V42.9095H81.6752V45.3613H86.5419V50.2091H89.0032V45.3613H93.8699V42.9095H89.0032Z" fill="#267C08"/>
<defs>
<filter id="filter0_d_641_144" x="0.5" y="0.500122" width="143" height="114" filterUnits="userSpaceOnUse" color-interpolation-filters="sRGB">
<feFlood flood-opacity="0" result="BackgroundImageFix"/>
<feColorMatrix in="SourceAlpha" type="matrix" values="0 0 0 0 0 0 0 0 0 0 0 0 0 0 0 0 0 0 127 0" result="hardAlpha"/>
<feOffset/>
<feGaussianBlur stdDeviation="5.5"/>
<feComposite in2="hardAlpha" operator="out"/>
<feColorMatrix type="matrix" values="0 0 0 0 0.329412 0 0 0 0 0.764706 0 0 0 0 0.176471 0 0 0 1 0"/>
<feBlend mode="normal" in2="BackgroundImageFix" result="effect1_dropShadow_641_144"/>
<feBlend mode="normal" in="SourceGraphic" in2="effect1_dropShadow_641_144" result="shape"/>
</filter>
<radialGradient id="paint0_radial_641_144" cx="0" cy="0" r="1" gradientUnits="userSpaceOnUse" gradientTransform="translate(72 57.5) rotate(90) scale(45.5 60)">
<stop stop-color="#6AFF00"/>
<stop offset="1" stop-color="#5BE22B"/>
</radialGradient>
</defs>
</svg>
