<svg width="51" height="64" viewBox="0 0 51 64" fill="none" xmlns="http://www.w3.org/2000/svg">
<path d="M50.0039 21.5146C50.0039 25.5162 49.9738 29.516 50.0102 33.5159C50.0687 39.8713 47.9326 45.2242 44.01 49.7872C42.2457 51.8395 40.1697 53.4418 37.9876 54.9047C33.9005 57.6439 29.8307 60.4145 25.7657 63.1938C25.3606 63.4711 25.0711 63.4728 24.6676 63.1973C20.0994 60.0763 15.4853 57.0354 10.9519 53.8551C6.01976 50.394 2.54971 45.6549 1.01642 39.3395C0.595524 37.6081 0.418303 35.8436 0.418303 34.0547C0.418303 25.0943 0.421468 16.1356 0.407227 7.17693C0.407227 6.748 0.516408 6.57538 0.893003 6.48472C8.91227 4.55454 16.9299 2.61391 24.946 0.668039C25.4793 0.539012 25.9587 0.783117 26.4477 0.901682C34.1394 2.75165 41.828 4.62429 49.5197 6.47774C49.8994 6.57015 50.0149 6.73405 50.0134 7.16472C49.9975 11.9474 50.0039 16.7302 50.0039 21.5146Z" fill="white"/>
<path d="M46.2148 23.0536C46.2148 26.5757 46.1847 30.0978 46.2211 33.6199C46.2733 38.6659 44.5676 42.9168 41.5168 46.5854C40.0927 48.2958 38.436 49.689 36.6496 50.9043C32.9802 53.3994 29.3107 55.8945 25.646 58.3948C25.385 58.5727 25.1935 58.6877 24.8628 58.4593C20.8231 55.6765 16.7233 52.9949 12.731 50.1336C8.75305 47.281 5.93175 43.3893 4.68013 38.2526C4.33518 36.8368 4.20543 35.3931 4.20543 33.932C4.20701 26.1485 4.21017 18.365 4.19435 10.5798C4.19277 10.1073 4.33359 9.95736 4.72601 9.86147C11.394 8.23294 18.0603 6.59046 24.7251 4.94449C25.0606 4.8608 25.3834 4.8608 25.7157 4.94275C32.401 6.58871 39.0848 8.23817 45.7733 9.8667C46.2006 9.97131 46.2211 10.2154 46.2211 10.5973C46.2116 14.7488 46.2148 18.9021 46.2148 23.0536Z" fill="#46BA00"/>
<path d="M14.1575 28.1434C14.2509 28.3056 14.3158 28.4764 14.4249 28.5985C16.3728 30.7553 18.3349 32.8965 20.2669 35.0708C20.6182 35.4666 20.7907 35.5049 21.1704 35.0847C26.0788 29.6429 31.0125 24.229 35.9225 18.7889C36.2817 18.3914 36.4653 18.3513 36.8181 18.7855C37.421 19.53 38.0808 20.2204 38.7375 20.9109C38.9764 21.162 39.0429 21.3015 38.7644 21.6066C32.8386 28.1103 26.9238 34.6244 21.0169 41.1472C20.7669 41.4227 20.6451 41.3774 20.4204 41.1281C17.5121 37.9076 14.5943 34.6994 11.6812 31.4859C11.5419 31.3325 11.3062 31.2156 11.5752 30.9279C12.3537 30.0962 13.1132 29.2419 13.8822 28.398C13.9313 28.3422 13.9914 28.2951 14.1575 28.1434Z" fill="white"/>
</svg>
