<svg width="53" height="53" viewBox="0 0 53 53" fill="none" xmlns="http://www.w3.org/2000/svg">
<path d="M52.4189 24.554C52.3077 23.9015 52.1287 23.2654 51.7612 22.7039C51.33 22.0433 50.8865 21.944 50.2194 22.3519C49.5413 22.7678 48.9582 23.3197 48.6518 24.0388C48.3711 24.6968 47.9575 24.8599 47.3323 24.7634C47.2998 24.7579 47.2645 24.7579 47.2306 24.7634C46.9594 24.8042 46.9025 24.6723 46.8821 24.4195C46.8075 23.4747 46.6502 22.5408 46.4319 21.6192C45.7281 18.6435 44.429 15.9574 42.5156 13.5758C42.2973 13.3052 42.3122 13.1503 42.559 12.9151C43.2221 12.2857 43.8663 11.6373 44.4982 10.9766C44.726 10.7374 44.9186 10.6626 45.2454 10.7945C45.7959 11.0174 46.3872 11.0949 46.9798 11.0949C48.7833 11.0963 49.262 10.3418 48.4321 8.73368C47.514 6.95427 46.1349 5.61121 44.3734 4.66917C44.1226 4.53595 43.8459 4.44215 43.572 4.36467C42.7543 4.13629 42.3149 4.41089 42.1264 5.23602C41.9203 6.13865 42.0193 7.02224 42.3285 7.87864C42.4356 8.17634 42.4071 8.36393 42.1753 8.58415C41.5135 9.2149 40.864 9.85924 40.2361 10.5226C39.9879 10.785 39.8483 10.8026 39.5513 10.5593C36.4161 7.98739 32.8415 6.44722 28.8005 6.02854C28.6825 6.0163 28.4954 6.01358 28.4846 5.91435C28.4439 5.52965 28.4412 5.13951 28.4439 4.75209C28.4452 4.50332 28.692 4.50332 28.8439 4.42312C29.6806 3.98133 30.4101 3.4199 30.897 2.58933C31.2523 1.98577 31.156 1.55077 30.5919 1.14432C30.2732 0.914586 29.9152 0.762336 29.5423 0.650868C28.1266 0.229463 26.6851 0.162854 25.2314 0.374916C24.4625 0.486384 23.7031 0.663102 23.0373 1.09538C22.3755 1.52494 22.2725 1.97218 22.6834 2.63691C23.158 3.40631 23.8143 4.01395 24.6334 4.35787C25.367 4.66645 25.0375 5.22651 25.0795 5.68869C25.0931 5.83958 25.047 5.91027 24.9751 5.94426C24.8124 5.91299 24.6496 5.87901 24.4896 5.83415C23.0251 5.88037 21.6202 6.23924 20.237 6.67968C17.944 7.4083 15.8638 8.55289 13.9585 10.0156C13.7185 10.2004 13.5354 10.2548 13.3035 10.021C12.7069 9.42153 12.1089 8.82204 11.5108 8.22392C11.321 8.03361 11.2817 7.82155 11.3752 7.57414C11.6383 6.87542 11.6288 6.14544 11.5949 5.41682C11.5353 4.10639 10.7284 3.56808 9.49033 4.00172C9.36286 4.04658 9.24082 4.10639 9.12013 4.16484C7.42913 4.98318 6.14902 6.25827 5.13333 7.81475C4.89467 8.18042 4.70075 8.58143 4.56786 9.0042C4.20308 10.1705 4.68855 10.9209 5.89272 11.0161C6.61957 11.0745 7.34641 11.0446 8.04885 10.823C8.37023 10.7211 8.61161 10.7687 8.88417 10.9862C9.40219 11.4008 9.84426 11.8901 10.3148 12.351C10.9101 12.9369 10.906 12.9437 10.3921 13.5812C10.2863 13.7131 10.1914 13.8544 10.0911 13.989C7.96884 16.8437 6.66703 20.0355 6.2019 23.5658C6.12325 24.1585 5.97137 24.2835 5.37878 24.2115C5.09808 24.1775 4.98281 23.9913 4.86619 23.7778C4.43903 22.9921 3.8939 22.3097 3.12366 21.838C2.42258 21.4085 1.85575 21.5172 1.34181 22.1588C1.02721 22.5503 0.841427 22.9962 0.783117 23.4978C0.722094 24.0144 0.713958 24.5364 0.629883 25.0502C0.629883 25.7625 0.629883 26.4748 0.629883 27.1858C0.718026 27.2891 0.669208 27.4128 0.680057 27.527C0.753284 28.2787 0.734299 29.04 1.13298 29.7373C1.68489 30.7052 2.38868 30.8778 3.30944 30.2416C3.98069 29.7781 4.47294 29.1582 4.85127 28.4541C5.07367 28.0422 5.38827 27.9742 5.77881 28.034C6.2019 28.0993 6.14902 28.4799 6.17885 28.7558C6.33344 30.1234 6.63041 31.4583 7.06435 32.7592C7.81154 34.9913 8.89773 37.0507 10.3568 38.8995C10.624 39.238 10.5684 39.4459 10.2918 39.7124C9.75612 40.2289 9.22861 40.7564 8.71467 41.2933C8.47465 41.5448 8.23734 41.6114 7.90239 41.5027C7.10639 41.2444 6.28869 41.1914 5.45743 41.3178C4.47158 41.4673 4.02001 42.1239 4.26817 43.0863C4.38615 43.5472 4.57735 43.9767 4.82822 44.3845C5.51031 45.4924 6.36463 46.4467 7.3993 47.2256C8.05834 47.7218 8.73636 48.1989 9.57712 48.377C10.5318 48.5795 11.0254 48.2982 11.283 47.367C11.5231 46.5011 11.3861 45.6501 11.1664 44.8127C11.0674 44.4362 11.1217 44.1711 11.4024 43.906C11.9068 43.4303 12.3841 42.9259 12.8764 42.4379C13.2764 42.041 13.3659 42.0451 13.8107 42.3971C17.0327 44.9473 20.6832 46.4127 24.7758 46.7621C24.7663 46.9673 24.7527 47.1726 24.7744 47.3738C24.8178 47.7802 24.6795 47.9964 24.2862 48.1731C23.6041 48.479 23.0332 48.9629 22.5695 49.561C21.8209 50.5262 21.966 51.1474 23.0848 51.6612C23.8428 52.0092 24.6483 52.1778 25.4809 52.2172C26.0965 52.2186 26.7136 52.2199 27.3292 52.2213C28.2825 52.1683 29.206 51.9902 30.0467 51.5171C30.8563 51.0618 30.9675 50.5846 30.463 49.8111C29.9789 49.0703 29.3212 48.5129 28.5239 48.15C28.1822 47.9937 28.075 47.7952 28.1144 47.4526C28.132 47.3017 28.1347 47.1454 28.113 46.9959C28.0696 46.6914 28.1957 46.5785 28.494 46.5554C29.3524 46.4888 30.2027 46.357 31.0421 46.1653C34.0986 45.4666 36.869 44.1589 39.3099 42.181C39.5825 41.9608 39.7208 41.9798 39.9527 42.2258C40.605 42.9137 41.2789 43.5811 41.961 44.2391C42.1563 44.428 42.2187 44.583 42.1075 44.8467C41.8403 45.4802 41.7712 46.1558 41.7996 46.8382C41.8702 48.4912 42.5197 48.8827 44.0276 48.1745C45.2589 47.5954 46.2543 46.7077 47.1167 45.6705C47.7663 44.8875 48.3738 44.0705 48.5379 43.0238C48.645 42.3441 48.4199 41.9988 47.7473 41.8384C46.7872 41.6101 45.8366 41.6835 44.9145 42.0328C44.6799 42.1212 44.528 42.0967 44.3463 41.9078C43.7022 41.2362 43.0458 40.5742 42.3732 39.9312C42.1102 39.6797 42.0573 39.5275 42.3244 39.2108C43.6045 37.6869 44.6175 35.9959 45.3864 34.1553C46.1132 32.4153 46.6055 30.6141 46.8143 28.7368C46.836 28.5383 46.8442 28.3018 46.9553 28.1604C47.1466 27.9185 48.2789 28.1686 48.4185 28.4541C48.8375 29.3078 49.4112 30.0282 50.2194 30.538C50.8662 30.9458 51.3449 30.8316 51.7666 30.1886C51.9443 29.9195 52.0731 29.6258 52.1721 29.3186C52.6684 27.754 52.6928 26.1608 52.4189 24.554ZM41.3454 31.4692C40.6728 32.331 39.592 32.6002 38.5844 32.1543C37.7206 31.7016 37.2297 31.0124 37.2569 30.0092C37.2826 29.0712 37.7735 28.435 38.5804 28.0136C39.5974 27.5542 40.685 27.8328 41.3752 28.73C41.9759 29.5089 41.9624 30.678 41.3454 31.4692ZM35.2919 38.2945C35.0397 39.6349 34.1786 40.5062 32.8741 40.9005C32.0876 41.1384 31.3079 41.0649 30.562 40.6993C28.5225 39.5615 27.9896 37.3471 29.3226 35.5527C29.6426 35.1218 30.063 34.8186 30.5417 34.5916C31.7906 33.965 32.9785 34.1526 34.0525 34.9614C35.155 35.7892 35.5428 36.9692 35.2919 38.2945ZM18.7535 22.9174C18.2491 22.9187 17.7406 22.9405 17.27 22.7026C15.5844 22.1901 14.3097 20.654 14.1118 19.02C13.8405 16.7825 15.0569 15.1159 16.4415 14.371C16.7086 14.2269 16.9947 14.1195 17.2714 13.9944C19.8845 13.1679 22.5437 14.8848 23.0983 17.4092C23.7018 20.1524 21.547 22.9078 18.7535 22.9174Z" fill="#46BA00"/>
</svg>
