<svg width="146" height="196" viewBox="0 0 146 196" fill="none" xmlns="http://www.w3.org/2000/svg">
<g clip-path="url(#clip0_641_1168)">
<path d="M145.608 162.613C145.317 156.74 144.496 150.921 143.623 145.111C142.571 138.105 141.525 131.099 140.433 124.099C139.659 119.136 138.501 114.235 138.025 109.224C136.955 104.742 136.88 100.107 135.934 95.6092C135.444 93.2809 135.328 90.7786 133.341 89.0294C131.005 84.0412 126.533 81.8991 121.692 80.1806C118.162 78.9275 114.245 78.4355 111.286 75.981C107.548 72.8809 104.668 68.9939 102.513 64.6267C101.868 63.3198 101.921 62.1703 103.086 60.8226C106.232 57.1821 108.861 53.2387 105.987 48.1416C104.818 45.7628 102.651 45.9576 100.617 46.2529C98.7364 46.5261 97.741 45.7601 97.0595 44.1637C96.1979 42.1453 95.9915 40.0329 96.0621 37.8773C96.1804 34.2658 95.958 30.7111 94.7765 27.2462C92.4872 20.5321 87.9503 16.1703 81.203 14.0791C79.8835 13.6702 78.7234 13.6852 78.5652 15.497C78.8573 16.7649 79.9537 17.0031 80.951 17.3785C87.1038 19.6946 90.7865 24.0564 92.1212 30.5239C92.7284 33.4659 92.9571 36.3953 93.0138 39.3858C93.0823 43.001 93.4593 46.595 96.4 49.2705C96.8018 49.6362 97.1022 50.1123 97.1061 50.672C97.1372 55.1182 97.0947 59.5744 94.9427 63.6359C92.4978 68.25 88.6685 71.6918 84.8215 75.0716C83.5506 76.1882 82.0625 77.1161 80.3137 77.8328C80.5719 74.3471 82.0209 71.4157 82.5861 68.2776C82.9109 66.4735 82.838 64.6674 81.0051 63.6268C79.2326 62.6206 77.6007 63.0946 76.2465 64.5323C75.3834 65.4487 74.4694 65.4434 73.3342 65.0638C70.7776 64.2087 68.1175 63.8925 65.4277 64.0383C63.1865 64.1598 60.9165 64.4945 59.3312 66.2533C57.5748 68.202 57.0686 67.468 55.7634 65.6545C52.7771 61.5053 52.7497 56.6093 52.0566 51.8764C51.88 50.6705 52.6221 49.904 53.5716 49.2608C55.1613 48.1838 56.5442 46.8723 57.7561 45.3762C59.2469 43.5358 62.5495 43.0078 64.5628 44.2605C66.7029 45.592 68.5392 45.3067 70.118 43.3523C71.6708 41.43 71.805 39.1749 71.6309 36.8306C71.4338 34.1757 70.1523 31.8762 69.3226 29.4279C66.9207 22.34 69.5006 18.4471 75.2885 16.3272C76.0547 16.0466 76.9931 16.0679 77.3774 15.127C77.4648 14.7593 77.4294 14.4045 77.2619 14.0638C76.6934 13.2716 75.8794 13.1886 75.0081 13.2866C67.1616 14.1695 59.3828 20.3528 58.8826 29.8323C58.6646 33.9636 59.1494 38.6744 55.3041 41.9105C54.9144 42.2385 54.9603 42.9045 54.803 43.4135C54.2841 45.0928 53.0506 46.3306 51.4649 46.5567C49.472 46.8409 47.4232 46.3039 45.5042 45.5711C45.2509 45.4744 45.1606 45.0841 45.046 44.7999C43.2693 40.3912 43.2715 35.8053 44.2062 31.2913C44.9467 27.7151 46.4556 24.3334 48.2114 21.0953C51.9501 14.2001 56.5299 8.06289 63.7877 4.52996C66.5897 3.16601 69.7071 1.67502 72.7848 2.66292C76.0628 3.71512 79.0501 3.31065 82.1627 2.56027C82.9734 2.09086 83.7547 1.61159 83.036 0.49442C78.6995 0.922824 74.3935 0.494756 70.0621 0.253373C65.5508 0.00196905 61.7279 2.28289 58.2117 4.88905C50.978 10.2508 46.5846 17.6826 43.2144 25.8274C40.3494 32.7516 40.0843 39.7143 42.9432 46.7171C43.3132 47.6234 43.2401 48.4822 42.6872 49.3297C41.4863 51.1703 41.6915 53.0831 42.4594 55.0235C44.3113 59.7025 47.6286 63.1295 51.8328 65.6997C52.7975 66.2894 53.4662 67.0084 54.0833 67.8459C54.568 68.5037 54.7827 68.8927 53.5749 69.3456C45.5023 72.3723 37.2649 74.8809 29.039 77.4326C21.981 79.6221 18.0618 84.4314 16.9159 91.7149C15.7538 99.1007 14.7157 106.494 13.9364 113.934C12.1936 130.572 11.9962 147.16 14.9853 163.685C16.422 171.628 19.1682 179.035 24.4982 185.241C25.4643 186.366 25.5254 187.291 25.0465 188.472C23.7902 191.57 23.0561 194.827 22.1047 198.018C22.4924 198.251 22.8776 198.488 23.259 198.733C25.3441 198.743 27.4296 198.785 29.5155 198.834C30.0894 198.848 30.3795 199.475 30.2325 199.923C59.6224 199.902 89.0124 199.904 118.402 199.921C119.573 199.922 120.821 199.579 121.86 200.621C122.115 200.878 122.962 200.823 123.357 200.598C123.989 200.237 123.461 199.742 123.287 199.243C122.089 195.823 120.457 192.564 119.907 188.899C119.661 187.256 120.079 187.22 121.343 187.527C124.234 188.228 127.161 188.55 130.147 188.604C136.203 188.715 141.881 183.651 143.72 178.633C145.624 173.438 145.878 168.049 145.608 162.613Z" fill="#212E43"/>
<path d="M77.2097 15.0449C77.1718 14.7365 77.1339 14.4282 77.0961 14.1198C76.9466 13.1515 78.4978 13.167 78.2346 12.1329C78.367 10.3713 78.0344 8.59075 78.4846 6.85029C78.6309 6.59668 78.7292 6.24729 79.0898 6.25395C81.7583 6.30326 83.4807 4.95661 84.5514 2.61201C84.7206 2.24138 85.0399 2.05293 85.4665 2.08569C89.8928 3.24094 93.0915 6.18188 95.8681 9.56055C100.874 15.6518 105.063 22.2893 107.722 29.743C109.582 34.9539 110.046 40.2941 107.407 45.4758C106.991 46.2929 107.044 47.2791 106.402 47.9922C106.263 48.0417 106.124 48.0912 105.985 48.1411C104.09 46.6043 102.057 45.9942 99.6934 47.0631C98.1181 47.7754 97.4202 46.448 96.8661 45.4803C95.8362 43.6817 95.5239 41.647 95.4931 39.5624C95.4324 35.4621 95.469 31.3799 94.159 27.3746C91.9134 20.5092 86.9923 16.6279 80.4416 14.391C79.4446 14.0505 79.04 14.5987 78.8317 15.4506C78.1633 15.8261 77.6528 15.5702 77.2097 15.0449Z" fill="#FFCE00"/>
<path d="M106.404 47.993C105.662 46.0281 107.357 44.7553 107.832 43.1396C109.457 37.6152 108.422 32.3217 106.172 27.3434C102.79 19.8627 98.5256 12.8855 92.663 6.99726C90.5158 4.84073 87.9219 3.52318 85.1446 2.46172C84.7652 1.12079 84.9262 0.304995 86.6102 0.931351C87.2384 1.16503 87.9387 1.20815 88.4885 1.64807C93.2449 3.75605 96.398 7.67243 99.3066 11.6986C103.004 16.8166 106.457 22.129 108.62 28.1403C110.649 33.7817 111.582 39.4834 109.101 45.2233C108.596 46.3896 108.41 48.1641 106.404 47.993Z" fill="#232F44"/>
<path d="M32.909 58.3941C32.6495 59.1312 32.1221 59.3492 31.5428 59.5963C21.6514 63.8159 11.759 68.0337 1.90603 72.3417C1.08101 72.7024 0.651357 72.7323 0.267539 72.0198C-0.160699 71.2249 0.342648 70.8629 1.03645 70.5668C10.9264 66.3466 20.81 62.1114 30.6951 57.88C31.5779 57.5021 32.4255 57.2516 32.909 58.3941Z" fill="#242F43"/>
<path d="M12.9935 38.7129C14.4682 38.8453 15.4452 39.8024 16.5628 40.3893C21.4982 42.9811 26.3151 45.7978 31.23 48.43C32.0618 48.8755 32.5126 49.2452 32.1072 50.1043C31.5307 51.3261 30.9109 50.3576 30.3316 50.0494C24.6821 47.043 19.0226 44.0548 13.4084 40.9838C12.8589 40.6832 11.9033 40.4088 12.07 39.393C12.1652 38.8137 12.6967 38.8188 12.9935 38.7129Z" fill="#263145"/>
<path d="M88.4872 1.64773C87.9134 1.48673 87.3281 1.35817 86.7684 1.15817C85.4989 0.704593 85.1526 1.35949 85.143 2.4594C84.5981 4.96188 82.6219 5.97006 80.5541 6.91239C79.8102 7.25136 79.4692 6.62865 78.9576 6.40244C78.2835 5.82512 78.3418 5.10472 78.5537 4.3539C79.4311 3.14915 80.7884 2.7657 82.0969 2.29819C82.6591 1.82668 83.1375 1.31172 83.0329 0.494379C84.9502 0.414272 86.9543 -0.0830377 88.4872 1.64773Z" fill="#FFCE00"/>
<path d="M34.764 64.2942C34.8103 64.8661 34.3137 65.0276 34.0008 65.3429C31.9863 67.3721 29.9814 69.4109 27.987 71.4599C27.4469 72.0147 26.7769 72.3175 26.1682 71.8317C25.3867 71.2078 26.0067 70.6446 26.4962 70.1439C28.542 68.0515 30.56 65.9308 32.6491 63.8827C33.028 63.5111 33.6349 63.1285 34.2894 63.6123C34.5392 63.797 34.8153 63.9211 34.764 64.2942Z" fill="#2B364A"/>
<path d="M36.454 112.44C34.4067 106.888 32.8886 101.954 30.7703 97.2517C30.0542 95.6622 29.4082 94.0395 28.6436 92.4742C28.3405 91.8538 28.039 90.7954 27.0374 91.3233C26.1786 91.7761 26.5261 92.7541 26.8804 93.3565C28.1987 95.5978 28.987 98.06 30.0015 100.427C31.122 103.041 32.1063 105.703 32.9771 108.868C29.8536 107.003 27.2873 104.989 24.1508 104.072C23.939 104.01 23.7517 103.757 23.5574 103.762C22.7311 103.784 21.5313 103.007 21.1862 104.165C20.8518 105.288 22.0111 105.586 22.9211 105.8C27.3675 106.845 30.7428 109.658 34.0282 112.59C35.284 113.711 35.2854 115.323 34.6864 116.632C31.8485 122.832 28.9191 128.993 25.9023 135.109C23.3185 140.347 20.5602 145.498 17.9115 150.705C17.5583 151.399 16.8736 152.339 18.0469 152.847C19.0559 153.284 19.302 152.198 19.6248 151.594C25.3437 140.899 30.757 130.051 35.7202 118.983C37.0206 116.083 38.1952 113.126 39.5086 110.233C39.7379 109.728 39.6202 108.571 40.6734 108.922C41.3974 109.164 41.8221 109.898 41.8307 110.751C41.8465 112.311 41.3104 113.75 40.8179 115.189C40.5274 116.037 40.1612 116.91 41.3307 117.24C42.3975 117.54 42.5268 116.537 42.7396 115.838C42.9375 115.188 43.0837 114.509 43.1458 113.832C43.323 111.904 44.1715 111.251 46.1475 111.792C47.1179 112.058 47.4391 112.358 47.3002 113.284C47.1307 114.415 46.9752 115.548 46.8484 116.684C46.7723 117.365 46.6494 118.168 47.6591 118.237C48.4895 118.294 48.5561 117.609 48.6602 116.982C48.8724 115.704 49.1129 114.429 49.3627 113.157C49.527 112.321 49.964 111.926 50.9101 111.826C54.0344 111.495 54.0418 111.515 53.6622 114.586C53.5197 115.738 52.4988 117.713 54.2689 117.877C55.8373 118.022 55.3911 115.908 55.4911 114.716C55.6851 112.403 56.2135 110.521 59.0662 110.35C59.8327 110.303 60.5686 109.748 61.4278 109.379C61.047 113.71 59.8526 117.802 59.101 121.971C57.8044 129.164 56.3995 136.338 54.9739 143.507C53.7422 149.701 52.8021 155.988 51.0436 162.033C48.5397 170.641 45.3229 179.078 38.4394 185.32C34.0374 189.313 31.2408 189.418 27.2203 185.394C22.7559 180.925 19.8755 175.35 18.3551 169.22C14.5132 153.727 14.1866 137.968 15.117 122.135C15.6949 112.3 17.0986 102.553 18.4714 92.8127C19.5285 85.3123 23.91 80.6961 31.3629 78.6836C38.0128 76.888 44.6095 74.833 51.0228 72.2558C52.4261 71.6919 53.9647 71.4853 55.324 70.7556C55.7352 70.5349 56.2564 70.4902 56.6039 70.8614C56.9729 71.2556 56.6669 71.6896 56.5269 72.1233C54.65 77.9399 53.9854 84.029 52.5661 89.9216C51.7777 93.1949 50.9406 97.2957 46.1358 98.3483C43.3188 98.9654 40.9285 100.952 39.8682 104.083C38.9772 106.713 37.7772 109.239 36.454 112.44Z" fill="#46BA00"/>
<path d="M111.942 114.645C113.115 115.766 113.851 114.713 114.529 114.028C116.238 112.302 117.494 110.218 118.859 108.224C121.589 107.801 124.318 106.801 127.052 108.209C126.32 112.639 125.693 117.09 124.831 121.495C123.355 129.036 121.755 136.554 120.157 144.071C119.619 146.6 118.849 149.081 118.341 151.616C118.036 153.142 117.387 153.527 115.967 152.975C111.883 151.387 107.752 149.917 103.704 148.245C102.439 147.722 101.398 147.601 100.299 148.39C98.7047 149.536 97.7124 148.881 97.3566 147.229C96.0076 140.964 91.0824 137.406 86.9292 133.261C85.5719 131.907 83.8946 131.604 82.3629 132.71C80.8992 133.767 80.9688 135.325 81.4913 137.043C82.1584 139.236 84.1707 140.221 85.6569 142.287C80.5912 140.541 76.2649 138.301 72.1301 135.622C69.862 134.152 67.6738 132.422 64.7452 132.388C63.2229 132.371 61.7909 132.556 61.0679 134.088C60.6957 134.877 60.1275 134.811 59.5593 134.681C58.6147 134.464 58.7747 133.681 58.9014 133.007C59.7167 128.669 60.4724 124.319 61.394 120.004C63.0779 112.119 64.9044 104.265 66.5887 96.381C67.3892 92.6336 70.4431 90.7435 74.1046 91.6312C77.2963 92.405 80.5586 92.6998 83.7507 91.4143C84.1514 91.2529 84.6883 91.0093 85.0439 91.3986C85.4646 91.8591 84.9105 92.1733 84.7112 92.5504C82.8054 96.1558 80.57 99.5866 79.797 103.727C78.6203 110.03 79.5965 115.854 83.1706 121.191C83.5167 121.708 83.9741 122.335 84.7877 122.297C85.9645 122.455 85.6305 124.155 86.8275 124.295C87.3254 125.917 85.1038 125.779 85.021 127.103C86.4789 127.098 87.1374 125.34 88.6234 125.526C89.4824 126.176 90.5177 126.437 91.5002 126.816C94.6951 128.15 97.5304 126.526 100.305 125.491C104.153 124.055 106.756 121.223 107.696 117.079C107.816 116.551 107.987 116.046 108.477 115.728C109.597 115.257 110.765 114.936 111.942 114.645Z" fill="#46BA00"/>
<path d="M135.28 107.303C137.644 118.255 139.305 129.323 140.979 140.397C141.8 145.826 142.55 151.264 143.185 156.711C143.99 163.623 144.349 170.597 142.158 177.361C140.69 181.893 136.378 185.688 131.36 186.295C124.822 187.085 118.871 185.288 113.074 182.734C106.306 179.752 99.6364 176.547 92.9212 173.445C92.3642 173.188 91.7955 172.966 91.5156 172.41C93.6608 169.271 95.5437 172.113 97.4891 172.708C98.2972 172.956 99.1594 174.093 99.7442 172.813C100.228 171.753 99.0469 171.345 98.2351 170.955C98.1662 170.922 98.0971 170.889 98.0318 170.849C97.1944 170.343 95.5394 170.235 95.9704 168.946C96.6701 166.855 98.7921 166.071 100.447 166.883C100.715 167.014 100.956 167.201 101.207 167.366C101.959 167.86 102.856 168.255 103.381 167.289C103.891 166.353 102.812 165.841 102.248 165.675C100.019 165.022 99.8103 163.935 100.934 162.03C101.552 160.982 102.114 160.54 103.259 160.952C103.689 161.106 104.128 161.323 104.569 161.338C105.324 161.365 106.414 162.243 106.772 161.089C107.182 159.765 105.799 159.857 105.014 159.552C103.83 159.093 102.741 158.963 103.398 156.949C104.154 154.628 105.412 155.89 106.371 156.16C107.339 156.432 108.556 157.577 109.048 156.27C109.594 154.816 107.871 154.686 106.844 154.331C106.341 154.157 105.759 154.126 105.33 153.848C104.502 153.311 104.473 152.434 104.784 151.605C105.115 150.72 105.827 151.179 106.337 151.369C111.798 153.395 117.301 155.322 122.677 157.555C125.458 158.709 124.345 161.598 124.619 163.771C124.777 165.028 124.401 166.347 124.313 167.641C124.278 168.157 124.229 168.799 124.887 168.98C125.761 169.221 125.923 168.382 126.067 167.892C126.722 165.664 126.655 163.366 126.579 161.069C126.561 160.528 125.968 159.74 126.79 159.458C127.427 159.239 128.145 159.6 128.606 160.162C130.196 162.102 131.599 164.151 132.576 166.49C133.578 168.886 134.207 171.392 134.981 173.856C135.171 174.458 135.201 175.4 136.208 175.151C137.18 174.91 136.856 174.044 136.73 173.432C135.996 169.854 134.88 166.406 133.094 163.194C132.83 162.72 132.108 162.182 132.777 161.619C133.276 161.198 133.695 161.816 134.147 162.065C135.276 162.686 136.632 162.708 137.75 163.454C138.256 163.791 139.129 164.107 139.419 163.089C139.64 162.314 139.208 161.787 138.461 161.508C135.841 160.53 133.217 159.562 130.61 158.552C127.375 157.299 124.173 155.96 120.918 154.763C119.867 154.377 119.867 153.939 120.004 152.914C120.751 147.281 123.377 142.465 126.165 137.659C128.972 132.822 131.912 128.051 134.213 122.93C134.555 122.167 135.046 121.453 134.021 121.063C133.082 120.706 132.864 121.564 132.479 122.278C129.769 127.317 126.977 132.313 123.965 137.229C125.449 128.737 127.142 120.333 128.511 111.871C128.875 111.258 128.874 110.573 128.938 109.891C129.182 107.279 129.274 107.155 131.953 107.096C133.056 107.072 134.215 106.584 135.28 107.303Z" fill="#46BA00"/>
<path d="M77.2107 15.0449C77.7515 15.1808 78.2923 15.3166 78.8329 15.4516C79.0385 16.1499 79.654 16.2916 80.2347 16.4771C89.333 19.3837 92.8006 26.3061 93.4626 35.1594C93.6672 37.8957 93.6128 40.6438 93.9661 43.382C94.2457 45.5499 95.0757 47.3165 96.7841 48.6417C97.7193 49.3672 97.9749 50.1658 97.8506 51.3853C97.413 55.6787 97.799 60.1275 95.4252 64.0287C91.6792 70.1852 86.7735 75.1692 80.3834 78.6076C80.1932 78.7099 79.963 78.7607 79.7462 78.7822C79.6074 78.796 79.4589 78.7118 79.1653 78.6298C80.12 75.1521 81.0661 71.6741 82.0319 68.2016C82.5065 66.4952 82.3203 64.8696 80.7285 63.9653C79.2531 63.1272 77.5785 63.5783 76.6863 64.95C75.6609 66.5264 74.5569 66.1504 73.2415 65.7277C70.0794 64.7116 66.8769 64.4109 63.5548 64.9051C61.4427 65.2193 59.7719 66.1658 58.6088 67.8111C57.7239 69.063 57.4105 68.7954 56.5756 67.7841C54.192 64.8969 52.6297 61.6954 52.1998 57.9624C52.1386 57.4314 52.1362 56.8829 51.9951 56.3735C50.8813 52.3527 51.0733 48.8683 55.5321 46.8906C56.1622 46.6111 56.5878 45.8308 57.0613 45.2445C58.8176 43.0699 61.7174 42.2131 64.3968 43.1005C64.5406 43.1481 64.8093 43.1528 64.8213 43.2156C65.2145 45.2665 66.6176 44.9196 67.8778 44.3685C69.4774 43.669 70.3667 42.3929 70.8052 40.6032C71.8352 36.3992 69.9483 32.8578 68.5063 29.2127C66.672 24.5763 68.0037 19.4944 71.9874 17.1403C73.5838 16.197 75.4612 15.7292 77.2107 15.0449Z" fill="#F9BEC0"/>
<path d="M86.7126 124.321C84.9717 124.693 85.5741 122.834 84.7869 122.298C85.1989 121.535 85.4273 120.98 84.7808 120.009C80.0577 112.922 80.6505 105.499 83.8112 98.0497C85.7878 93.3912 89.1121 89.4078 90.6456 84.5045C91.6152 81.4044 91.7478 78.3622 90.4325 75.3631C90.0212 74.4253 89.9416 73.9149 90.8128 73.0597C92.6886 71.2181 94.5065 69.282 95.9801 67.0699C96.2295 66.6954 96.5511 66.3552 96.8895 66.0559C99.4567 63.7864 100.005 63.8101 101.376 66.8415C103.818 72.2439 108.167 76.028 112.39 79.8471C122.467 88.9589 121.701 103.624 113.002 112.792C112.469 113.354 111.814 113.747 111.942 114.645C111.243 116.022 109.843 115.713 108.691 115.999C107.961 115.252 108.088 114.299 108.14 113.404C108.481 107.599 109.026 101.837 112.01 96.6366C112.187 96.3282 112.418 95.9856 112.115 95.3567C110.104 98.2725 109.173 101.477 108.498 104.722C107.722 108.451 107.417 112.262 106.993 116.051C106.656 119.069 105.255 121.571 102.597 123.192C99.9237 124.823 97.2328 126.457 93.9083 126.304C92.9627 126.26 92.1983 126.939 91.276 127.009C90.1284 126.991 88.9109 127.114 88.4999 125.622C88.1843 124.612 88.8245 123.851 89.2233 123.057C90.929 119.661 91.1709 116.187 89.8773 112.617C87.6789 106.55 87.8893 100.631 90.8943 94.8626C91.1008 94.4663 91.3617 94.0621 91.2187 93.2129C88.0065 98.5628 86.8699 103.914 88.4269 109.773C89.4625 113.671 90.8355 117.579 89.1266 121.643C88.6391 122.802 88.3767 124.205 86.7126 124.321Z" fill="#FFCE00"/>
<path d="M66.5551 134.759C69.8321 136.014 72.4166 138.463 75.5572 139.962C79.5887 141.886 83.5816 143.898 88.0532 144.635C88.7683 144.752 89.6702 145.217 90.0642 144.246C90.5031 143.163 89.262 143.302 88.8975 142.855C87.0898 140.636 84.666 138.961 83.2143 136.458C82.832 135.799 82.8419 134.949 83.45 134.318C84.2761 133.46 84.9133 134.302 85.3938 134.732C89.6073 138.506 94.0915 142.025 95.5225 148.012C96.1824 150.772 98.1191 152.89 100.476 154.529C101.559 155.281 102.035 155.941 101.288 157.463C99.7823 160.53 98.0716 163.415 95.9459 166.085C95.0878 167.163 94.1316 167.481 93.0035 166.809C87.7169 163.662 81.5591 163.207 75.9062 161.205C71.9654 159.808 68.5891 157.367 65.0834 155.18C63.4327 154.15 61.9026 152.929 60.2722 151.864C59.7815 151.544 59.5764 151.088 59.2668 150.665C58.8353 150.075 58.8826 149.576 59.3753 149.052C59.9923 148.397 60.5345 148.863 60.9475 149.227C62.9299 150.973 65.2143 152.281 67.3813 153.758C67.7565 154.014 68.1597 154.247 68.5808 154.413C69.2328 154.669 70.0368 154.893 70.4403 154.177C70.9459 153.281 70.0233 153.058 69.4639 152.725C65.581 150.411 62.0288 147.64 58.4533 144.89C56.8722 143.674 56.5685 142.511 57.6752 140.977C62.2369 144.079 66.7275 147.185 71.302 150.163C71.7803 150.475 72.5193 151.767 73.3262 150.618C74.0901 149.53 73.1122 149.112 72.317 148.579C68.4437 145.987 64.6068 143.341 60.7699 140.695C60.2831 140.359 59.9225 139.823 59.4145 139.539C58.3107 138.923 57.6656 137.87 58.3816 136.939C59.055 136.064 60.3839 136.473 61.2925 137.061C66.2755 140.284 71.2276 143.555 76.1916 146.807C76.5698 147.055 76.944 147.314 77.3437 147.522C77.8674 147.795 78.4539 147.791 78.7698 147.279C79.0859 146.766 78.855 146.289 78.3223 145.93C75.6441 144.13 72.9925 142.289 70.3109 140.494C67.8917 138.874 65.3094 137.475 63.3483 135.248C64.2009 133.667 65.4216 134.499 66.5551 134.759Z" fill="#F9BEC0"/>
<path d="M67.6178 74.3311C67.3624 75.6 67.3666 76.5451 67.7202 77.6471C68.5046 80.0918 67.1224 82.2148 66.0669 84.306C65.5911 85.2488 64.9505 86.1174 64.3144 86.9671C63.9317 87.4785 63.4703 87.959 64.0767 88.5186C64.7199 89.112 65.4286 88.8025 65.839 88.2233C67.2347 86.2535 68.6166 84.2393 69.2288 81.8731C69.644 80.2681 70.1686 79.2553 71.767 78.1269C75.0981 75.7752 78.3275 72.7953 77.544 67.8797C77.3197 66.4726 78.1331 65.8577 79.3024 65.7688C80.4381 65.6825 80.4733 66.7009 80.2621 67.4008C77.7954 75.5765 76.9679 84.7511 69.0064 89.9636C65.1594 92.4823 64.9277 96.2057 63.8317 99.7789C63.2533 101.665 62.9733 103.641 62.4216 105.537C61.8628 107.457 59.9706 107.948 58.445 108.544C54.7983 109.97 51.002 110.651 47.0269 110.105C45.4387 109.886 45.0024 109.481 45.7988 107.972C48.2656 103.301 50.5055 98.5019 53.143 93.9309C54.8241 91.0175 54.9677 87.8672 55.4835 84.7476C56.2045 80.3867 57.0354 76.0344 58.5789 71.8998C60.5816 66.5352 64.2117 66.0014 69.2818 66.6978C70.857 66.9141 72.3888 67.4494 73.9386 67.8464C75.8731 68.3418 76.4472 69.4794 75.4986 71.1579C74.3818 73.1342 72.9898 74.8948 71.1397 76.2704C70.6013 76.6707 70.1095 77.0472 69.5563 76.4808C69.0434 75.9557 69.3142 75.3557 69.648 74.8121C70.2029 73.9086 70.7614 73.0072 71.3039 72.0963C71.5896 71.6166 71.7981 71.0818 71.2343 70.6802C70.7313 70.3219 70.1205 70.4132 69.8146 70.9141C68.7661 72.6312 67.0305 72.1693 65.5261 72.2705C64.6834 72.3271 63.7118 71.9353 63.687 73.2237C63.6626 74.4898 64.7458 74.2688 65.5409 74.323C66.1423 74.364 66.7487 74.3311 67.6178 74.3311Z" fill="#F9BEC0"/>
<path d="M82.0975 2.29777C81.0781 2.99915 80.3557 4.23463 78.8679 4.09368C77.0106 6.17743 77.3955 8.76732 77.3003 11.232C77.2629 12.1988 78.2656 12.2879 78.8703 12.6946C78.9975 14.0633 77.4956 13.4053 77.0971 14.1198C75.507 13.1588 73.8468 13.9274 72.4595 14.3638C65.2645 16.6269 60.2005 20.9174 59.5567 30.041C59.3321 33.2225 58.6597 36.3725 58.1917 39.5368C58.1806 39.6124 58.1964 39.7289 58.1537 39.7575C55.6272 41.4462 55.7035 45.0664 52.9935 46.6527C51.7677 47.3703 50.6514 48.0053 49.2901 47.0415C49.0473 46.8696 48.7364 46.7926 48.4549 46.6769C47.2596 46.1854 45.4156 47.3984 44.8469 46.1526C43.9851 44.2646 43.3832 42.1923 43.0935 40.0494C42.1703 33.2196 44.3713 27.1062 47.4047 21.2477C50.6769 14.9283 54.8159 9.24011 60.992 5.38612C65.6587 2.47406 70.5524 0.632426 76.0882 2.95893C76.8516 3.27976 77.5585 3.10314 78.2901 2.77741C79.5003 2.2386 80.7828 2.09611 82.0975 2.29777Z" fill="#FFCE00"/>
<path d="M135.28 107.303C134.771 107.439 134.25 107.725 133.755 107.685C131.104 107.472 128.782 107.582 129.129 111.255C129.146 111.439 128.727 111.665 128.512 111.871C128.576 110.965 128.722 110.055 128.683 109.154C128.639 108.111 128.336 107.242 127.053 108.208C124.966 108.295 122.857 107.947 120.799 108.616C120.131 108.833 119.467 108.553 118.859 108.224C121.305 103.513 122.062 98.5037 121.626 93.2474C121.53 92.0951 121.221 91.0132 121.024 89.8966C121.876 88.836 123.111 88.7699 124.292 88.7792C126.328 88.7952 128.311 88.522 130.279 88.0508C132.358 90.6024 132.861 93.7651 133.513 96.8207C134.252 100.283 134.704 103.806 135.28 107.303Z" fill="#46BA00"/>
<path d="M89.5335 80.0208C89.1804 87.9667 85.2855 90.2792 78.1268 90.1598C76.6132 90.1345 74.265 90.5704 73.6541 89.3284C73.0071 88.0129 75.4826 86.9837 75.8955 85.5543C77.0481 81.5644 80.6836 80.6954 83.6508 78.9477C84.6947 78.3329 85.7229 77.6769 86.6891 76.948C88.4728 75.6024 88.76 75.6695 89.2651 77.89C89.4502 78.7035 89.4777 79.5528 89.5335 80.0208Z" fill="#F9BEC0"/>
<path d="M66.7752 19.6845C65.4608 23.035 65.4087 26.3252 66.5645 29.5922C67.3478 31.806 68.2708 33.9733 68.9832 36.2086C69.8509 38.9314 69.2653 41.401 67.531 42.3995C66.9526 42.7325 65.9366 43.809 65.5766 41.9532C65.4131 41.1103 64.3618 41.2239 63.6257 41.0766C62.3668 40.8245 60.5083 41.416 59.9795 40.4744C59.5175 39.6516 60.4779 38.0714 60.7124 36.8077C61.2139 34.1042 61.0114 31.3272 61.599 28.6199C62.2677 25.5395 63.0546 22.5477 65.337 20.1967C65.6092 19.9163 65.8669 19.6513 66.7752 19.6845Z" fill="#F6BDBF"/>
<path d="M130.278 88.0519C129.509 89.5001 128.061 89.3342 126.808 89.3611C124.86 89.4029 122.926 89.4319 121.024 89.8976C120.057 88.4606 120.005 86.6698 119.01 85.1753C118.071 83.7643 116.999 82.4183 115.736 80.3574C121.19 82.708 126.963 82.9603 130.278 88.0519Z" fill="#46BA00"/>
<path d="M47.8366 48.569C47.4706 49.5017 46.0797 49.3315 46.4576 50.4168C46.8017 51.4049 47.566 51.2006 48.3491 50.9267C49.5984 50.4898 49.4654 51.4986 49.6108 52.2034C50.2823 55.4598 49.6266 58.8907 50.895 62.1638C48.274 60.3968 46.3366 58.0551 44.7793 55.419C43.8588 53.8608 43.6847 52.0826 44.5155 50.3994C45.1326 49.1491 46.0181 48.1346 47.8366 48.569Z" fill="#F5BEC0"/>
<path d="M101.533 48.6385C104.755 48.5471 106.271 51.913 104.565 55.079C103.201 57.6098 101.313 59.7341 99.2579 61.744C98.827 61.598 98.7793 61.2311 98.892 60.8467C99.696 58.1045 99.5227 55.2792 99.5988 52.4784C99.628 51.4034 99.5827 50.7386 101.155 50.7761C103.21 50.8251 101.803 49.4468 101.533 48.6385Z" fill="#F6BDBF"/>
<path d="M66.5535 134.759C65.5066 135.067 64.272 134.144 63.3466 135.248C63.3224 134.057 63.3174 133.999 64.1636 133.924C65.0584 133.845 66.0011 133.787 66.5535 134.759Z" fill="#84707D"/>
<path d="M106.345 34.9607C105.931 35.8089 105.454 36.3937 104.542 35.8341C101.292 33.8388 98.4518 31.4152 96.5412 28.0372C96.2566 27.5341 96.0369 27.016 96.6127 26.6495C97.1814 26.2875 97.7686 26.3761 98.1633 27.0157C99.9841 29.9662 102.49 32.2108 105.384 34.0659C105.75 34.3004 106.032 34.6643 106.345 34.9607Z" fill="#2B3346"/>
<path d="M78.8709 12.6957C77.454 13.3338 76.6818 13.0169 76.7637 11.3218C76.8557 9.41866 76.9079 7.51362 76.9752 5.60934C77.019 4.36797 77.5662 3.76051 78.8685 4.09462C78.8986 4.86383 78.9286 5.6329 78.9587 6.40254C78.9295 8.50062 78.9002 10.5981 78.8709 12.6957Z" fill="#212E43"/>
<path d="M91.2773 127.008C92.0269 125.589 93.4164 125.847 94.6739 125.653C99.5379 124.904 103.717 123.03 105.871 118.228C106.855 116.033 106.642 113.591 106.909 111.262C107.492 106.181 108.24 101.165 110.57 96.5318C111.088 95.5021 111.575 93.6531 112.771 94.1807C114.353 94.8782 112.928 96.2135 112.402 97.1805C109.201 103.07 108.915 109.527 108.692 115.999C106.915 124.933 99.7031 126.993 93.5413 127.894C92.7128 128.015 91.6392 128.294 91.2773 127.008Z" fill="#273145"/>
<path d="M86.7125 124.319C89.3937 121.431 89.7233 118.024 88.9396 114.356C88.1031 110.439 86.6137 106.647 87.1168 102.492C87.5364 99.027 89.0717 95.986 90.3793 92.8527C90.6381 92.2327 91.2747 91.7433 92.0629 92.3061C92.7416 92.7908 92.4212 93.2834 92.1347 93.8804C91.3524 95.5107 90.6322 97.1735 89.9528 98.8499C88.2187 103.129 88.8663 107.392 90.2989 111.56C92.0264 116.586 91.6037 121.253 88.5 125.62C87.6232 126.315 86.7688 127.041 85.8619 127.694C85.315 128.088 84.6556 128.487 84.1003 127.705C83.5151 126.88 84.2937 126.456 84.7468 126.034C85.3816 125.443 86.4451 125.343 86.7125 124.319Z" fill="#253045"/>
<path d="M73.5943 62.3489C70.3467 62.2573 68.599 59.1288 70.3976 56.4743C71.6382 54.6433 72.1299 52.6619 72.3908 50.5503C72.4951 49.7066 72.6977 48.6401 73.7412 48.8669C74.6391 49.062 74.7426 50.0773 74.4759 50.9771C73.8424 53.1149 73.7844 55.3729 72.293 57.3188C71.3323 58.5722 71.5832 60.1613 73.719 60.453C74.511 60.5611 75.0218 60.8993 74.8341 61.7992C74.6708 62.5823 74.0288 62.2937 73.5943 62.3489Z" fill="#31384B"/>
<path d="M77.1374 39.8301C77.2778 39.8796 77.4443 39.8968 77.5528 39.9852C80.6127 42.4781 84.2146 41.3464 87.6281 41.5522C88.7036 41.6171 90.6894 41.0548 90.5425 42.7437C90.3825 44.584 88.7337 43.1153 87.7638 43.1373C85.3317 43.1924 82.896 43.0875 80.4637 43.1395C78.9009 43.173 77.7316 42.3583 76.5317 41.5764C76.1127 41.3034 76.0259 40.8323 76.2059 40.3642C76.3639 39.9536 76.7566 39.8882 77.1374 39.8301Z" fill="#1E2B40"/>
<path d="M87.1001 50.2338C87.13 52.0111 85.699 54.2585 84.7876 53.9767C83.4969 53.5776 83.0669 52.451 83.0232 51.1354C82.9674 49.4556 83.5384 47.8024 85.1687 47.6546C86.489 47.5349 86.9536 49.1894 87.1001 50.2338Z" fill="#383D4F"/>
<path d="M63.013 50.7867C62.8102 52.0653 62.7607 53.8273 61.3322 53.8822C59.6436 53.9471 59.2106 52.1505 59.118 50.7199C59.0343 49.4286 59.4371 47.6591 60.7547 47.6257C62.3361 47.5856 62.7654 49.3442 63.013 50.7867Z" fill="#293347"/>
<path d="M103.671 83.5004C103.601 86.9626 102.088 89.891 100.302 92.7422C98.3536 95.8539 97.2996 99.156 98.0898 102.915C98.4835 104.788 99.4243 106.25 100.635 107.64C101.126 108.204 102.239 108.784 101.357 109.679C100.359 110.693 99.7624 109.511 99.1666 108.937C95.5184 105.418 94.7955 98.6057 97.4076 93.8965C98.6483 91.6598 100.177 89.5841 100.999 87.1005C102.355 83.0023 101.517 79.3162 99.1808 75.8623C98.6531 75.0821 97.8798 74.268 98.9921 73.5847C100.061 72.9278 100.428 74.2345 100.808 74.7941C102.576 77.403 103.813 80.2316 103.671 83.5004Z" fill="#253045"/>
<path d="M46.7278 41.5675C46.6894 34.9261 49.1227 29.1245 52.8377 23.7784C53.261 23.1693 53.67 21.9791 54.7156 22.6466C55.8453 23.3678 55.0408 24.1856 54.4863 24.926C50.4739 30.283 48.5451 36.3081 48.6182 43.006C48.6266 43.767 49.2922 45.1755 47.9028 45.227C46.5649 45.2766 46.7907 43.8902 46.7326 42.9433C46.7046 42.4863 46.7278 42.0262 46.7278 41.5675Z" fill="#2A3447"/>
<path d="M70.8378 7.69975C71.4987 7.69975 71.661 7.66433 71.801 7.70535C72.9338 8.03725 74.9415 7.55277 74.774 9.28253C74.6175 10.8989 72.9447 9.78206 71.9727 9.75774C68.484 9.67047 65.8164 11.2164 63.3693 13.5422C62.7323 14.1475 62.1706 16.1363 60.8872 14.8836C59.78 13.8029 61.3268 12.9889 62.0444 12.2137C64.5574 9.4985 67.6574 7.98818 70.8378 7.69975Z" fill="#273145"/>
<path d="M127.288 93.0209C127.933 93.0708 128.829 92.7657 128.948 93.9418C129.041 94.8625 128.719 95.4165 127.715 95.408C126.4 95.3969 126.009 96.1629 126.096 97.3337C126.173 98.3703 125.975 99.0937 124.656 99.0727C123.151 99.0488 123.455 98.0072 123.444 97.1516C123.411 94.541 124.767 93.0772 127.288 93.0209Z" fill="#46BA00"/>
<path d="M132.634 99.9759C132.617 103 131.351 104.223 128.602 104.143C127.771 104.118 127.091 104.068 127.082 102.975C127.074 101.908 127.729 101.727 128.567 101.743C129.828 101.766 130.332 101.13 130.28 99.9071C130.24 98.9853 130.169 98.01 131.606 98.113C133.177 98.2255 132.37 99.4565 132.634 99.9759Z" fill="#46BA00"/>
<path d="M26.5906 188.889C26.5906 188.889 31.0241 191.564 34.0816 190.647C37.1392 189.729 41.9549 186.748 44.5538 182.238C47.1528 177.728 50.5893 170.161 52.4637 164.734C54.3381 159.307 55.714 150.975 55.714 150.975C55.714 150.975 60.3428 155.255 63.3409 157.472C66.339 159.689 71.7662 161.982 75.7411 163.816C79.7159 165.651 90.1881 168.785 90.1881 168.785C90.0456 169.659 89.7597 170.815 89.1562 172.072C88.7541 172.909 88.3047 173.595 87.8949 174.136C93.3351 176.759 97.527 178.984 100.393 180.557C104.92 183.041 107.351 184.566 111.897 186.483C113.426 187.128 113.828 187.241 114.54 187.692C118.583 190.258 119.746 195.595 120.071 199.875C89.3928 199.891 58.7145 199.907 28.0361 199.924C28.0361 199.924 24.589 199.264 23.6859 199.924C22.7828 200.583 22.0759 198.126 22.2021 197.692C22.3284 197.258 26.5906 188.889 26.5906 188.889Z" fill="#46BA00"/>
</g>
<defs>
<clipPath id="clip0_641_1168">
<rect width="145.589" height="200.557" fill="white" transform="translate(0.109375 0.234375)"/>
</clipPath>
</defs>
</svg>
