<svg width="150" height="195" viewBox="0 0 150 195" fill="none" xmlns="http://www.w3.org/2000/svg">
<g clip-path="url(#clip0_641_1071)">
<path d="M147.819 174.975C147.59 175.936 148.269 176.493 148.773 177.129C148.334 178.002 147.927 178.877 147.994 179.9C148.281 184.279 147.67 188.563 146.608 192.798C146.343 193.855 146.205 194.881 147.284 195.614C147.038 196.484 146.315 196.139 145.797 196.139C110.489 196.12 75.1802 196.073 39.8718 196.053C30.076 196.048 20.2799 196.1 10.4843 196.172C9.35482 196.18 8.87512 195.839 8.7712 194.689C8.46082 191.255 8.31325 187.824 8.5383 184.38C9.6766 184.654 9.49819 185.638 9.48022 186.384C9.41852 188.946 10.0986 191.439 10.2193 193.991C9.89526 191.109 10.3588 188.211 9.9892 185.348C9.73811 183.402 9.73534 181.465 9.65446 179.519C9.0504 164.984 9.14009 150.441 9.26601 135.902C9.31131 130.672 9.72228 125.433 10.3717 120.227C10.8358 116.507 10.4139 112.749 10.9885 109.014C11.9702 102.632 12.9363 96.2874 15.7189 90.3522C18.448 84.5311 22.8642 80.4691 28.3599 77.3822C33.9751 74.2282 39.7542 71.3806 45.3503 68.1916C47.4992 66.967 48.4665 67.295 49.2876 69.5886C52.7271 79.1965 57.0055 88.4407 61.4944 97.5838C63.6715 102.018 66.2737 106.23 69.3417 110.134C70.0068 110.98 71.03 111.847 70.422 113.108C69.837 114.321 68.5819 114.602 67.3766 114.71C64.4021 114.976 61.8386 113.554 59.2289 112.487C51.1217 109.173 44.5279 103.614 38.04 97.9177C37.6471 97.5728 37.3361 97.1363 36.8765 96.8665C36.8177 96.832 36.7367 96.8353 36.4409 96.7759C36.7837 97.9099 37.6071 98.5228 38.3312 99.1534C45.3026 105.225 52.5194 110.925 61.3615 114.115C61.7826 114.267 62.2107 114.426 62.6008 114.644C63.7649 115.292 63.8789 116.333 62.631 116.755C58.3529 118.204 54.9052 121.684 50.0047 121.666C47.5682 121.658 46.1153 123.39 46.0289 125.983C45.9786 127.494 45.566 128.571 44.1971 129.276C42.8288 129.982 42.5094 131.294 42.4219 132.693C42.3799 133.364 42.7717 134.208 42.3694 134.68C40.389 137.009 41.0643 139.636 41.0743 142.308C41.0839 144.868 41.9232 146.657 43.9619 147.982C47.1771 150.071 50.2494 152.297 52.655 155.363C54.4098 157.599 55.8845 160.06 57.9729 162.036C58.9431 162.953 58.6279 163.916 57.8975 164.834C56.5436 166.535 55.0361 168.102 53.6345 169.763C47.866 176.6 42.8913 183.972 38.6163 191.823C38.1786 192.626 37.5003 193.378 37.5821 194.457C38.4395 194.339 38.5813 193.686 38.8346 193.181C47.2915 176.344 59.8009 162.814 73.6241 150.344C74.9896 149.112 76.1177 149.16 77.5836 150.184C83.5177 154.329 88.2416 159.61 92.0871 165.675C97.7835 174.659 102.891 184.021 109.356 192.508C109.971 193.315 110.42 194.328 111.761 194.741C111.255 193.694 110.681 192.928 110.09 192.183C104.391 184.996 99.8926 177.032 95.1864 169.199C90.1173 160.762 84.2009 153.086 75.4223 148.129C73.899 147.269 73.0122 145.903 72.2616 144.426C70.5508 141.061 69.6683 137.407 68.7841 133.774C68.3092 131.822 69.1958 131.117 71.1423 131.656C77.0071 133.279 82.1146 136.388 87.0498 139.828C88.9903 141.18 90.9513 142.498 93.046 143.895C93.063 142.895 92.4269 142.667 91.9711 142.371C87.7676 139.636 83.7838 136.563 79.2974 134.26C76.1484 132.644 72.9131 131.317 69.4388 130.609C68.7069 130.46 67.9635 130.383 67.4695 129.688C66.4377 128.236 67.0317 126.844 68.8663 126.72C71.1817 126.563 73.5135 126.557 75.8284 126.706C84.5806 127.267 92.9359 129.396 100.845 133.223C101.241 133.415 101.627 133.675 102.394 133.494C101.224 132.435 99.8434 132.147 98.6684 131.514C97.4762 130.872 96.1793 130.476 94.924 129.993C87.7243 127.226 80.1395 126.377 72.5447 125.634C70.7575 125.459 68.9587 125.627 67.1942 126.088C66.4311 126.287 65.3841 126.655 65.0365 125.629C64.7221 124.702 65.7733 124.482 66.3999 124.142C71.2874 121.493 76.5278 119.663 81.6955 117.69C91.2085 114.058 100.834 110.669 109.534 105.259C117.328 100.414 124.138 94.4959 128.363 86.122C129.467 83.9347 130.459 81.6427 130.627 79.1131C130.682 78.2709 130.86 77.3617 131.849 77.1892C132.912 77.0037 133.214 77.9915 133.534 78.699C135.115 82.1951 135.94 85.9459 137.042 89.5986C139.4 97.4191 141.114 105.426 142.116 113.503C142.943 120.169 143.926 126.872 143.893 133.623C143.857 140.978 144.532 148.281 145.2 155.588C145.41 157.888 144.973 160.228 145.704 162.5C145.968 161.001 145.8 159.518 145.59 158.018C145.429 156.868 145.058 155.633 146.113 154.651C147.309 158.049 146.884 161.63 147.291 165.117C146.223 168.47 146.317 171.761 147.819 174.975Z" fill="#46BA00"/>
<path d="M146.115 154.651C145.829 157.364 146.578 160.01 146.649 162.701C146.663 163.232 146.85 163.86 146.213 164.043C145.451 164.263 145.146 163.605 145.021 163.018C144.849 162.219 144.753 161.394 144.719 160.576C144.299 150.474 143.582 140.386 143.073 130.288C142.604 120.992 141.64 111.697 139.515 102.532C137.813 95.1872 135.918 87.9181 133.725 80.7169C133.489 79.9427 133.046 79.2307 132.687 78.4955C132.509 78.1297 132.671 77.4656 132.059 77.4735C131.365 77.4825 131.344 78.1054 131.284 78.6343C130.534 85.3063 126.959 90.541 122.642 95.3398C116.102 102.612 107.897 107.482 99.0608 111.41C89.919 115.474 80.4423 118.684 71.177 122.43C69.1648 123.244 67.2723 124.354 65.3785 125.622C67.9507 125.184 70.501 124.939 73.0586 125.121C83.276 125.846 93.2125 127.705 102.367 132.604C102.97 132.926 104.059 133.125 103.572 134.109C103.164 134.931 102.201 134.611 101.565 134.269C97.6253 132.153 93.4223 130.729 89.1499 129.503C82.338 127.549 75.3645 127.02 68.3115 127.305C67.8538 127.323 67.2365 127.438 67.3942 127.984C67.6207 128.768 67.6498 129.769 68.8563 129.948C75.5825 130.951 81.2406 134.326 86.7208 138.085C88.8526 139.548 90.9902 141.002 93.1311 142.451C93.8402 142.93 94.6821 143.569 94.1243 144.399C93.4863 145.348 92.7464 144.531 92.0613 144.061C87.4838 140.916 83.0615 137.536 78.086 134.997C75.624 133.74 73.0086 132.918 70.4321 131.978C69.3867 131.596 68.9429 132.081 69.2257 133.056C70.4868 137.407 71.1808 141.965 73.766 145.845C75.1134 147.867 77.478 148.482 79.3226 149.817C86.2556 154.836 91.2817 161.489 95.5954 168.724C100.922 177.658 106.257 186.577 112.714 194.762C112.839 194.92 112.906 195.125 113.039 195.384C111.474 196.119 110.619 195.237 109.823 194.199C103.697 186.216 98.6186 177.554 93.4308 168.96C89.0655 161.728 83.9727 155.144 76.7845 150.418C75.6734 149.687 75.0833 149.818 74.1963 150.617C64.9314 158.958 56.2824 167.858 48.9095 177.958C45.1822 183.064 41.8372 188.39 39.0097 194.044C38.8135 194.437 38.5782 194.821 38.3004 195.159C37.8756 195.675 37.2614 195.883 36.7028 195.519C36.0535 195.095 36.6515 194.502 36.8265 194.138C38.9485 189.719 41.4371 185.505 44.143 181.422C48.174 175.339 52.7609 169.689 57.6106 164.249C58.0504 163.756 58.7906 163.328 57.9332 162.635C55.1177 160.362 53.411 157.172 51.1564 154.437C48.8793 151.674 45.6886 150.141 42.945 148.01C40.9589 146.467 39.8716 144.614 40.6835 142.013C40.7879 141.678 40.8445 141.21 40.6914 140.932C39.4119 138.607 39.8344 136.659 41.8376 134.973C42.2286 134.643 42.0294 134.18 41.9279 133.725C41.4185 131.439 41.967 129.603 44.2386 128.53C45.1869 128.082 45.5633 127.442 45.4609 126.246C45.2263 123.504 46.8671 120.959 49.2606 121.118C53.5174 121.401 56.459 118.664 59.9905 117.306C60.127 117.254 60.2407 117.145 60.3722 117.076C61.2715 116.603 62.9845 116.727 62.9622 115.738C62.9401 114.761 61.221 114.669 60.2755 114.328C54.6802 112.305 49.7795 109.104 45.1025 105.551C42.0373 103.222 39.0818 100.737 36.3187 98.0324C35.6672 97.3946 34.9641 96.8061 35.6443 96.0092C36.5436 94.9555 37.1312 96.2374 37.5985 96.6598C42.7743 101.338 48.0414 105.881 54.1651 109.316C57.6083 111.248 61.1836 112.862 64.9802 113.951C65.6847 114.153 66.4664 114.275 67.1852 114.194C68.2909 114.068 69.625 113.92 70.174 112.911C70.7254 111.898 69.4188 111.222 68.9083 110.561C63.8186 103.977 60.2147 96.6036 56.8153 89.0557C53.8505 82.4731 50.9661 75.8693 48.4334 69.1112C48.1055 68.2364 47.7897 67.5119 46.7013 68.1463C39.0858 72.5855 30.8822 76.0008 23.7152 81.212C18.3312 85.1267 15.6111 90.8249 13.8936 97.0283C11.9068 104.204 11.6484 111.611 10.9684 118.993C9.45092 135.465 9.76763 151.945 10.0044 168.423C10.1248 176.801 10.2288 185.202 11.007 193.564C11.0782 194.329 11.4 195.456 10.2079 195.551C8.87256 195.657 9.35193 194.437 9.30705 193.741C9.10543 190.616 9.17163 187.47 8.54011 184.38C8.54757 170.139 7.75519 155.906 8.05023 141.662C8.27673 130.726 8.60919 119.787 9.95531 108.927C10.7874 102.215 11.8241 95.5211 14.7859 89.2688C17.5783 83.3739 22.0755 79.3283 27.6412 76.2703C34.8061 72.3336 41.9597 68.3755 49.1694 64.5227C50.3049 63.9159 50.1 63.7005 49.3984 62.9254C46.7831 60.0362 44.3512 57.047 44.7153 52.7418C44.8292 51.3942 45.1932 50.1095 46.2592 49.4189C47.6914 48.4911 47.3057 47.6528 46.7202 46.4941C46.2936 45.6499 46.0519 44.6695 45.926 43.7234C45.521 40.6816 44.4016 37.8465 43.6067 34.9177C41.5449 27.3211 45.0744 21.3389 49.844 15.8781C50.519 15.1052 51.3527 14.4711 52.1129 13.7728C52.8057 13.539 53.499 13.4912 53.8494 14.2625C54.1378 14.8972 53.7015 15.4367 53.293 15.8655C51.7915 17.4421 50.4126 19.1147 49.1331 20.8766C46.7357 24.1777 45.2279 27.7629 45.5439 31.9565C45.7176 31.03 45.8665 30.0876 46.3544 29.2732C46.7944 28.5388 47.3545 27.8874 48.3463 28.2572C49.332 28.6248 49.4468 29.4762 49.1686 30.311C48.3526 32.7592 48.1059 35.2977 47.9836 37.8375C47.8648 40.3034 48.0032 42.7755 48.8607 45.1401C49.0393 45.6328 49.238 46.1207 49.5334 46.5593C49.9053 47.1116 50.4273 47.4539 51.0579 47.1395C51.8457 46.7468 51.7126 46.058 51.3884 45.3969C51.1547 44.9205 50.7502 44.5663 50.4512 44.1375C49.4135 42.6492 49.0798 40.9915 49.4121 39.2218C49.5443 38.5179 49.9655 37.9545 50.777 37.9776C51.4696 37.9974 51.9603 38.5023 51.9949 39.1074C52.1783 42.3127 54.3523 43.9463 56.7661 45.4586C57.7386 46.0678 58.2661 46.9409 57.5911 48.1242C56.6326 48.7327 55.7855 48.5832 54.8958 47.7264C54.6697 55.896 54.2577 64.0043 60.938 70.3794C63.8598 73.1678 66.5429 76.1853 70.0167 78.348C71.2941 79.1432 72.5806 79.8885 73.9705 80.4466C77.363 81.8089 77.9448 81.3752 78.001 77.6875C78.0408 75.0763 77.7072 72.4437 78.3846 69.8596C78.6496 68.8485 78.1263 68.4298 77.1857 68.5371C75.6273 68.7148 74.0753 68.9197 72.63 69.6293C71.7301 70.0712 70.6802 70.4177 70.1219 69.1969C69.5457 67.9369 70.4458 67.1291 71.4233 66.7294C76.1821 64.7836 80.9964 64.4672 85.7608 66.7069C87.6268 67.5841 87.7059 68.7516 86.0044 70.008C85.4696 70.403 85.5716 70.7044 85.7523 71.1004C86.6641 73.0982 86.79 75.2973 87.312 77.3616C88.0216 77.6934 88.3391 77.1346 88.7048 76.8361C92.3679 73.8453 95.837 70.643 98.5127 66.7124C101.194 62.7743 101.583 58.1975 101.807 53.6107C101.883 52.054 101.628 50.4348 102.777 49.1104C108.166 46.339 108.041 40.914 108.912 36.0462C109.275 34.0158 108.862 31.8717 109.044 29.7896C109.141 28.691 109.379 27.479 110.933 28.6596C112.583 34.8242 110.941 40.6381 109.047 46.426C108.79 47.2132 108.23 47.8661 109.177 48.7665C112.16 51.605 112.49 54.4795 110.377 58.1532C109.51 59.6622 108.481 61.0787 107.279 62.9149C110.874 62.9149 114.154 62.6276 117.364 62.9833C122.006 63.4979 126.412 64.9589 129.461 68.832C132.762 73.0242 134.953 77.8546 136.452 82.927C138.223 88.9229 139.696 95.0098 141.202 101.081C143.025 108.427 143.956 115.936 144.503 123.456C145.258 133.838 145.598 144.251 146.115 154.651Z" fill="#232E42"/>
<path d="M57.3899 47.9708C57.8477 46.7352 57.0222 46.1946 56.1451 45.703C53.6114 44.2829 51.3647 42.6721 51.5833 39.2848C51.6224 38.6796 51.2854 38.245 50.6688 38.2421C50.0262 38.2391 49.7933 38.7629 49.7679 39.3097C49.687 41.0589 49.9304 42.6945 51.1995 44.0766C52.0344 44.9857 52.9519 45.9208 52.2463 47.4159C51.8925 48.1657 51.3742 48.0263 50.7845 48.0727C49.099 48.2053 48.9209 46.8493 48.5115 45.784C46.6051 40.8246 47.1614 35.8375 48.3987 30.8448C48.5881 30.0804 49.5927 29.0393 48.1974 28.6036C46.8026 28.1681 46.899 29.6231 46.4819 30.4001C45.9192 31.4483 46.7546 33.0203 45.1108 33.8619C44.1452 28.1847 46.1681 23.577 49.4813 19.3826C50.5416 18.0404 51.7456 16.8081 52.9279 15.5677C54.2064 14.2264 53.5052 13.8579 52.1114 13.7729C52.8372 13.4923 53.562 13.2119 54.2868 12.9315C56.6374 10.8768 58.6673 8.42002 61.8279 7.42911C64.0564 6.73039 66.4304 6.8067 68.6355 5.99383C68.8692 6.14964 68.7942 5.86378 68.702 5.87142C68.0694 5.92385 67.7339 5.59741 67.8415 4.92155C68.4486 4.8792 69.1183 5.10483 69.5964 4.51042C70.3978 4.97034 71.205 4.80696 71.9666 4.45239C79.0407 1.15899 85.7943 2.39098 92.4006 5.86235C96.1121 7.81265 99.7121 9.93626 103.024 12.5269C107.033 15.6626 110.17 19.3368 110.655 24.6845C110.718 25.3812 111.158 25.9259 111.39 26.5542C110.951 27.1939 110.936 27.926 110.932 28.6601C109.896 28.3176 109.37 28.5874 109.499 29.7814C110.119 35.5148 109.093 40.9656 107.064 46.351C106.238 48.5442 104.054 48.1181 102.888 49.4157C102.492 49.1106 102.425 48.6765 102.416 48.2197C102.706 44.7209 101.231 42.6157 97.8498 41.735C97.1347 41.5488 96.4137 41.3692 95.7363 41.0841C94.3761 40.5116 94.2959 41.3188 94.3441 42.3104C94.0937 42.5336 93.7952 42.6467 93.4715 42.7056C89.8274 42.6878 86.6156 41.5154 83.8886 39.0735C80.7747 36.2852 78.5508 32.8695 76.8599 29.0751C76.3858 28.0112 75.8747 26.9615 74.9046 25.5981C75.3609 28.9501 77.0397 31.2548 78.4643 33.5295C80.1912 36.2869 79.3829 38.4593 77.9398 40.7544C77.4254 41.5724 76.7668 42.2989 76.0526 42.9656C75.5629 43.3208 75.0517 43.5241 74.4674 43.1878C74.3232 43.0164 74.1395 42.823 74.1454 42.6118C74.287 37.5596 71.5806 33.4705 69.5326 29.1889C67.4726 24.8823 66.7233 20.6904 69.5432 16.437C69.6882 16.2183 69.8826 15.9442 69.5366 15.5513C68.1473 16.9889 67.6448 18.8883 66.777 20.5768C65.9852 21.5866 64.9404 22.2702 63.8327 22.8735C63.489 23.0136 63.1227 23.1301 62.8803 23.43C59.4542 27.6701 57.0031 32.3654 56.2707 37.8392C55.9561 40.1897 57.0694 42.1878 57.9903 44.2174C58.2955 44.8901 58.7901 45.4878 58.6854 46.2963C58.3706 46.9447 58.6956 48.093 57.3899 47.9708Z" fill="#B48084"/>
<path d="M111.389 26.5542C110.635 26.548 110.096 26.351 110.083 25.4255C109.989 18.9837 105.738 15.1305 101.127 11.7586C96.8238 8.61224 92.0994 6.11664 87.0459 4.24778C81.7058 2.27295 76.658 2.9581 71.6912 5.32688C70.6054 5.84478 69.8294 5.9845 69.5957 4.51001C71.611 2.64161 74.2588 2.31752 76.7367 1.56815C81.8202 0.0307493 86.4807 1.71985 90.9599 3.72521C96.2224 6.08132 101.251 8.92703 105.545 12.8834C108.718 15.8065 111.23 19.1416 111.961 23.5278C112.135 24.5691 112.644 25.7507 111.389 26.5542Z" fill="#253044"/>
<path d="M2.11133 118.407C0.887482 115.354 2.46806 112.577 3.94187 109.788C4.63959 108.468 4.18927 107.356 3.45608 106.247C2.03541 104.098 1.96482 101.312 3.30005 99.3665C3.60036 98.929 4.02376 98.5774 4.63564 98.8461C5.23984 99.1114 5.37422 99.6649 5.13825 100.157C3.98658 102.559 4.50143 104.705 5.82678 106.885C6.79954 108.485 5.96865 110.077 5.23718 111.539C4.18261 113.645 3.54562 115.63 4.21311 118.147C4.91487 120.793 2.8459 123.051 2.09953 125.511C1.99539 125.854 1.50255 125.941 1.15585 125.61C0.643805 125.122 0.29958 124.57 0.635328 123.832C1.37953 122.196 1.97591 120.52 2.11133 118.407Z" fill="#263144"/>
<path d="M130.278 59.7142C131.906 59.9853 133.441 60.8663 133.661 62.2693C134.15 65.3787 136.504 67.2483 138.152 69.4466C139.601 71.3786 139.163 73.734 140.553 75.5374C140.999 76.1158 140.138 76.5067 139.481 76.4452C138.804 76.382 138.228 75.8294 138.246 75.3064C138.341 72.5295 136.502 70.6195 135.088 68.6786C133.688 66.7553 132.164 65.0124 131.516 62.6464C131.327 61.9576 130.52 61.6373 129.8 61.3675C129.551 61.2745 129.272 60.7125 129.341 60.4524C129.443 60.0602 129.804 59.6939 130.278 59.7142Z" fill="#232E42"/>
<path d="M147.284 195.614C145.665 195.876 145.279 195.578 145.768 193.731C147.028 188.963 147.718 184.075 147.397 179.103C147.331 178.076 147.313 177.087 148.773 177.129C149.785 177.603 149.436 178.54 149.45 179.3C149.55 184.845 148.841 190.287 147.284 195.614Z" fill="#2F394C"/>
<path d="M67.8396 4.92125C67.9464 5.5068 69.0404 5.51824 68.7353 6.24781C68.4515 6.92656 67.716 6.97759 67.0243 7.05686C63.0042 7.51764 59.1267 8.34559 56.4892 11.8384C55.9075 12.6087 55.3198 13.1705 54.2849 12.9314C54.0111 11.0197 55.4035 10.0277 56.5493 8.94734C58.4683 7.13795 60.8998 6.35837 63.3916 5.73829C64.675 5.36165 66.0511 5.42858 67.3066 4.91846C67.4843 4.91939 67.6619 4.92032 67.8396 4.92125Z" fill="#273145"/>
<path d="M14.5304 80.5047C12.3287 82.1464 12.2808 85.2604 10.0404 86.9274C9.21327 87.5428 8.31821 88.0811 8.30482 89.3171C8.29774 89.9696 7.7049 90.1956 7.2117 90.1627C6.55963 90.1191 6.20514 89.66 6.16791 88.9442C6.10583 87.7496 6.80309 86.9656 7.64545 86.3754C9.36095 85.1733 10.4179 83.5215 11.1445 81.6281C11.4875 80.7345 12.2312 80.2365 12.8504 79.6139C13.0817 79.3814 13.4199 79.0334 13.7895 79.4197C14.0379 79.6795 14.2044 80.0179 14.5304 80.5047Z" fill="#2C364A"/>
<path d="M147.82 174.976C147.389 174.898 146.847 174.894 146.711 174.402C145.874 171.382 145.547 168.346 146.693 165.323C146.74 165.197 147.085 165.183 147.292 165.118C147.267 167.745 147.877 170.29 148.349 172.847C148.508 173.706 148.735 174.445 147.82 174.976Z" fill="#232E42"/>
<path d="M106.522 151.28C107.37 151.46 107.91 151.93 108.489 152.429C118.37 160.947 126.048 171.116 131.402 183.023C131.866 184.055 133.549 185.527 131.933 186.236C130.526 186.854 130.28 184.692 129.746 183.595C124.257 172.314 117.031 162.351 107.498 154.134C106.991 153.697 106.475 153.272 105.963 152.843C105.64 152.573 105.49 152.182 105.702 151.857C105.883 151.582 106.273 151.446 106.522 151.28Z" fill="#263144"/>
<path d="M79.987 194.104C79.9762 194.624 80.0345 195.049 79.5891 195.197C78.8865 195.432 78.4636 195.037 78.1495 194.463C77.1197 192.58 76.0662 190.71 75.0622 188.814C71.4555 182.001 67.8772 175.174 64.2509 168.372C63.8812 167.678 63.6307 167.14 64.4795 166.72C65.6626 166.133 65.8972 167.217 66.2413 167.863C69.477 173.942 72.6727 180.042 75.8833 186.134C77.0925 188.428 78.3149 190.716 79.5194 193.012C79.7242 193.403 79.8689 193.825 79.987 194.104Z" fill="#253043"/>
<path d="M21.2828 119.086C28.6767 119.423 35.9703 120.892 43.3785 121.018C44.234 121.033 44.8643 121.389 44.8403 122.338C44.8137 123.391 43.966 123.203 43.3414 123.15C39.553 122.83 35.7912 122.275 31.9861 122.063C28.1209 121.846 24.2724 121.331 20.4167 120.945C19.8977 120.893 19.363 120.893 18.8655 120.758C18.3555 120.62 17.8616 120.347 17.9863 119.665C18.096 119.066 18.6029 119.103 19.0378 119.091C19.7856 119.071 20.5344 119.086 21.2828 119.086Z" fill="#273346"/>
<path d="M131.567 105.087C131.295 106.008 130.685 106.536 130.067 107.083C125.536 111.087 120.36 114.072 114.967 116.714C113.645 117.361 112.216 117.815 110.968 118.574C110.16 119.065 109.551 119.233 109.139 118.363C108.673 117.381 109.59 117.145 110.237 116.82C112.875 115.496 115.536 114.213 118.145 112.833C122.156 110.712 125.996 108.327 129.275 105.136C129.755 104.67 130.23 104.103 131.006 104.491C131.243 104.609 131.395 104.897 131.567 105.087Z" fill="#263145"/>
<path d="M57.3891 47.9704C58.3362 47.7581 57.6623 46.6401 58.3345 46.2742C59.6208 45.6958 59.0272 44.7688 58.6584 44.0169C56.5024 39.6207 57.0048 35.3554 59.0541 31.0761C60.4767 28.1057 62.3116 25.3668 63.7371 22.4032C64.6179 21.8145 65.4988 21.2259 66.3796 20.6372C67.1032 21.1532 67.0817 21.9568 67.0242 22.6752C66.7772 25.7584 68.0524 28.36 69.5159 30.9081C71.4983 34.3598 73.4426 37.8248 73.268 41.9996C73.2271 42.9766 73.8077 43.099 74.5457 43.104C74.9663 42.9676 75.3869 42.8313 75.8075 42.6949C76.7884 43.0066 77.5375 42.7273 78.1365 41.8777C78.6979 41.0813 79.1937 40.254 79.6706 39.4047C80.5959 37.7567 81.2315 37.6026 82.584 38.9488C84.668 41.0233 87.2324 42.1512 89.9226 43.1024C91.318 43.5958 92.5596 43.4923 93.5035 42.1989C93.7833 42.1874 94.063 42.176 94.3428 42.1645C97.8799 41.7998 100.303 43.0783 101.791 46.119C102.118 46.7873 102.415 47.4686 102.864 48.0678C102.872 48.5171 102.88 48.9663 102.887 49.4154C101.96 52.9142 102.397 56.5506 101.731 60.1078C101.061 63.6894 99.5721 66.7464 97.2877 69.4128C94.2587 72.9485 90.9291 76.2032 86.7808 78.9875C86.5368 77.1903 86.4051 75.5288 86.0649 73.9113C85.7282 72.3102 85.1089 70.7831 84.2302 69.3788C84.3544 69.3137 84.4722 69.2193 84.6032 69.1939C85.4086 69.0383 86.579 70.5169 86.9796 68.9003C87.2666 67.7421 85.9446 67.3631 85.1207 67.0313C80.7674 65.2777 76.3766 65.502 72.0032 67.0131C71.7278 67.1082 71.4793 67.2871 71.2261 67.4401C70.6388 67.795 69.9948 68.1545 70.4164 69.0026C70.8642 69.9031 71.4728 69.4987 72.0963 69.1748C73.9843 68.1941 76.0351 67.9068 78.1286 67.7853C79.0962 67.7291 79.6387 68.0523 79.2993 69.0594C78.0662 72.7182 78.4859 76.4771 78.6431 80.2034C78.7073 81.7257 78.1497 81.9682 76.8454 81.8012C72.9275 81.2994 69.7428 79.2456 66.8489 76.8186C62.9433 73.543 59.2288 70.0312 56.5756 65.5801C55.1273 63.1503 54.5632 60.4655 54.3814 57.689C54.2202 55.225 54.197 52.7511 54.0011 50.2906C53.8055 47.8341 54.1964 47.43 56.4992 47.9982C56.7767 48.0667 57.0916 47.9834 57.3891 47.9704Z" fill="#F9BEC0"/>
<path d="M78.2781 89.3805C79.6337 89.1545 79.3924 90.2511 79.5832 90.974C80.3245 93.783 81.1883 94.3265 84.3317 93.9403C86.5567 93.6669 87.6675 92.4335 87.4314 89.8684C87.2454 87.849 87.6802 86.5023 89.3013 85.1101C91.4396 83.2737 92.8366 80.7608 93.5381 77.9461C93.9992 76.0963 94.8635 74.482 96.3802 73.2677C98.8688 71.2752 99.9932 68.0232 102.831 66.3208C103.538 65.8967 103.867 65.7344 104.734 66.1422C109.91 68.5767 115.089 70.9996 120.136 73.6959C121.678 74.5196 122.884 75.1661 122.132 77.5613C119.743 85.1657 114.741 90.6245 108.518 95.1518C100.704 100.838 92.0017 104.85 83.0787 108.434C81.5569 109.045 80.503 109.053 79.5159 107.482C78.657 106.114 77.4161 104.988 76.7652 103.459C75.8124 101.565 76.1307 99.5234 76.085 97.526C76.0389 95.515 76.173 93.5 76.0013 91.4922C75.7998 89.1357 75.7834 89.1371 78.2781 89.3805Z" fill="#E8CDBA"/>
<path d="M52.0475 122.985C56.2904 123.679 61.2752 124.212 64.7289 127.89C67.5743 130.92 68.1402 135.228 69.1262 139.188C69.8496 142.093 70.7471 144.937 72.5788 147.336C73.3446 148.34 73.335 148.791 72.3723 149.667C68.4139 153.268 64.4732 156.896 60.8877 160.883C60.0337 161.832 59.279 161.349 58.5863 160.711C56.5648 158.847 55.046 156.558 53.5419 154.3C51.5701 151.34 48.5516 149.769 45.7423 147.908C44.4784 147.07 43.4225 146.066 42.6686 144.779C41.6964 143.119 42.2455 142.215 44.1696 142.309C46.8011 142.438 49.1706 143.553 51.6019 144.422C52.5074 144.746 53.3999 145.115 54.322 145.38C54.8216 145.524 55.4138 145.496 55.6127 144.864C55.8111 144.234 55.3962 143.979 54.8542 143.731C51.603 142.248 48.2939 140.918 44.6898 140.704C43.1359 140.612 41.9991 140.29 41.9922 138.512C41.9855 136.777 43.19 136.024 44.6588 135.827C46.0444 135.64 47.3991 135.804 48.8029 136.347C51.4962 137.387 54.2958 138.197 57.199 138.489C57.9273 138.562 58.884 138.702 58.9577 137.661C59.0193 136.792 58.1377 136.824 57.4851 136.657C54.4726 135.889 51.4788 135.047 48.4652 134.283C47.603 134.065 46.7002 133.981 45.8101 133.905C44.9463 133.832 43.897 134.161 43.6217 132.914C43.3645 131.748 43.9239 130.903 44.8791 130.282C47.095 128.843 49.4702 128.731 51.9386 129.447C54.216 130.107 56.4912 130.775 58.7649 131.448C59.5427 131.678 60.3671 131.779 60.592 130.806C60.8245 129.799 59.8264 129.879 59.2518 129.701C56.064 128.709 52.9089 127.55 49.5416 127.321C48.4287 127.246 47.4391 127.272 47.4155 125.736C47.3924 124.239 47.9564 123.295 49.5015 123.115C50.1685 123.038 50.8449 123.043 52.0475 122.985Z" fill="#F9BEC0"/>
<path d="M56.1172 121.417C60.5317 118.989 64.8821 117.163 69.3031 115.565C82.67 110.734 96.0391 105.913 107.966 97.9494C115.282 93.0643 121.125 86.8506 124.058 78.365C125.32 74.7132 125.673 70.9286 123.73 67.2212C128.232 68.4916 130.668 73.4626 129.548 78.7021C127.695 87.3718 122.441 93.7591 115.801 99.167C109.145 104.587 101.521 108.286 93.6425 111.585C84.1702 115.551 74.3442 118.649 65.1341 123.25C63.9249 123.854 62.717 123.983 61.4569 123.498C59.7598 122.845 58.0679 122.178 56.1172 121.417Z" fill="#AEBDBC"/>
<path d="M78.2784 89.3812C77.69 89.4428 77.1017 89.5045 76.6259 89.5543C76.9737 94.1992 76.7403 98.832 76.7655 103.46C75.0574 101.79 74.1556 99.5438 72.6698 97.7149C72.3439 97.4588 72.6 96.9255 72.1917 96.7087C68.2138 89.8661 64.6582 82.8245 61.7852 74.9907C63.2265 76.0522 64.2584 76.8542 64.6922 78.2076C66.7286 84.5599 71.0415 88.2189 77.6475 89.1597C77.8639 89.1905 78.0684 89.3054 78.2784 89.3812Z" fill="#E8CDBA"/>
<path d="M53.375 63.7877C50.5585 61.286 48.2104 58.8007 46.8273 55.5709C46.1645 54.0232 46.5323 52.4656 47.5136 51.1289C48.1904 50.2071 49.0215 49.5277 50.3492 49.968C51.5555 50.3681 52.1995 51.0317 52.2249 52.3765C52.2949 56.0894 52.6909 59.7772 53.375 63.7877Z" fill="#F2BBBD"/>
<path d="M81.6137 68.4146C82.6757 70.7726 84.0676 72.5922 84.2344 75.0076C84.4757 78.504 84.8739 81.9907 85.2578 85.4757C85.5248 87.8999 83.6188 86.943 82.5449 87.3017C81.0589 87.7983 81.2386 86.7495 81.1381 85.8602C80.492 80.144 79.6061 74.4273 81.6137 68.4146Z" fill="#F1F1F2"/>
<path d="M102.814 63.6341C104.152 59.8147 104.344 56.3226 104.217 52.8273C104.154 51.11 104.751 49.9445 106.379 49.8133C108.053 49.6784 109.141 50.9178 109.496 52.4344C109.811 53.7808 109.84 55.2067 109 56.5332C107.388 59.0776 105.678 61.5107 102.814 63.6341Z" fill="#F7BEC0"/>
<path d="M67.7578 80.2173C70.9077 82.1821 74.2559 83.4026 77.8864 83.9245C79.4246 84.1456 78.9169 85.5297 78.9943 86.4433C79.0873 87.5434 78.0981 87.2547 77.5228 87.1918C73 86.6975 69.8059 84.2629 67.7578 80.2173Z" fill="#F2BCBE"/>
<path d="M91.3286 78.4536C90.5816 80.5318 89.6668 82.1646 88.2242 83.5117C87.8451 83.8657 87.6196 84.4538 87.0357 84.2444C86.5348 84.0647 86.845 83.4714 86.7463 83.0726C86.3909 81.6353 87.1482 80.8505 88.3377 80.2736C89.3122 79.801 89.9082 78.722 91.3286 78.4536Z" fill="#F2BCBE"/>
<path d="M85.4345 89.9583C85.3417 91.45 84.6017 92.1208 83.3028 92.1563C82.1675 92.1874 81.2694 91.4882 81.3711 90.477C81.5747 88.4532 83.6757 89.6724 84.7655 88.8705C85.4031 88.4012 85.1466 89.6815 85.4345 89.9583Z" fill="#F9BEC0"/>
<path d="M93.5033 42.1995C93.6979 43.7568 92.9181 44.1169 91.5214 43.9433C87.8438 43.4861 84.7152 41.9005 82.1715 39.2671C81.0545 38.1107 80.5392 38.3784 80.0894 39.6741C79.6407 40.9664 78.7719 41.9683 77.9146 42.9863C77.0493 44.0137 76.3452 43.9873 75.8073 42.6955C76.7381 41.0329 78.2017 39.7648 78.7983 37.7978C79.2335 36.3632 78.9175 35.4721 78.2492 34.3433C76.7803 31.8618 75.2708 29.394 74.3114 26.6409C74.07 25.948 73.798 25.2386 74.5691 24.8962C75.5655 24.4537 75.6687 25.368 76.001 26.0416C77.9613 30.0156 79.7649 34.0672 82.8964 37.3589C85.8197 40.4317 89.3125 42.025 93.5033 42.1995Z" fill="#253145"/>
<path d="M74.5459 43.1037C74.1891 43.8419 73.6901 44.4033 72.8043 44.0023C72.0588 43.6647 72.4115 42.9952 72.4985 42.4297C73.1604 38.1284 71.0317 34.6483 69.0015 31.2294C67.034 27.9161 66.0151 24.4759 66.3798 20.6369C66.8196 18.6384 67.726 16.8692 68.9241 15.219C69.3488 14.634 69.707 13.9941 70.4781 14.5198C71.0735 14.9257 70.9463 15.5883 70.5353 16.1039C66.3457 21.3603 68.6894 26.347 71.218 31.2692C73.1364 35.0038 74.9457 38.7322 74.5459 43.1037Z" fill="#243044"/>
<path d="M63.7367 22.4038C63.8778 23.4654 63.6518 24.3275 63.0166 25.2997C60.9663 28.4379 58.9426 31.5969 58.1183 35.3813C57.4359 38.5145 57.6148 41.4001 59.4224 44.1172C59.8718 44.7926 60.3066 45.5774 59.6915 46.3693C59.2685 46.9138 58.7712 46.5721 58.3342 46.2748C56.4987 42.9245 55.0102 39.5682 56.0453 35.5296C57.1141 31.3593 59.1075 27.677 61.4331 24.1467C61.9376 23.3807 62.3568 22.1573 63.7367 22.4038Z" fill="#273145"/>
<path d="M93.226 20.5949C86.7936 19.2302 80.7736 18.0049 76.5689 12.9121C76.4738 12.7969 76.2997 12.7097 76.2697 12.5838C76.0656 11.7294 74.5527 10.9881 75.6196 10.0949C76.8539 9.06139 77.1712 10.6503 77.7007 11.2904C81.3963 15.7577 86.4617 17.4251 91.904 18.3422C92.2712 18.404 92.6524 18.3775 93.0239 18.4202C93.7389 18.5023 94.527 18.8668 94.4897 19.5324C94.4423 20.3803 93.6133 20.6421 93.226 20.5949Z" fill="#283246"/>
<path d="M60.9666 17.7691C60.9818 18.2332 60.5603 18.3467 60.3066 18.5992C58.1324 20.7633 56.247 23.1037 55.2966 26.1085C55.0902 26.761 54.8465 27.9481 53.6692 27.4421C52.5322 26.9534 53.195 26.0923 53.4513 25.3396C54.482 22.3133 56.3291 19.8366 58.5549 17.5982C59.1505 16.9992 59.7891 16.7815 60.5757 17.0596C60.8864 17.1694 61.0197 17.432 60.9666 17.7691Z" fill="#2B3447"/>
<path d="M106.007 34.9477C106.1 35.5061 105.978 36.1057 105.372 36.1603C104.778 36.2139 104.274 35.8945 104.201 35.1175C103.878 31.6635 102.12 28.8508 100.106 26.1672C99.6596 25.5729 98.9822 25.0432 99.8471 24.3004C100.809 23.4739 101.158 24.5001 101.568 24.9743C104.047 27.8412 105.592 31.1457 106.007 34.9477Z" fill="#283246"/>
<path d="M102.864 48.0676C102.366 48.0052 101.758 48.0911 101.597 47.433C100.769 44.0622 98.3201 42.8168 95.172 42.4514C94.8885 42.4185 94.6192 42.263 94.3431 42.1644C93.7065 41.7252 93.0404 41.2011 93.5822 40.3742C94.0808 39.6134 94.7712 40.2047 95.3706 40.4023C97.8443 41.2181 100.696 41.3517 102.179 44.001C102.879 45.2523 103.866 46.5067 102.864 48.0676Z" fill="#293347"/>
<path d="M86.6484 27.6306C86.7994 26.4879 86.386 25.2297 87.6971 25.2021C88.9442 25.1758 88.7826 26.4124 88.8154 27.2608C88.9063 29.6145 89.4517 31.8084 90.6268 33.8789C90.9557 34.4584 91.8019 35.4194 90.6362 35.9927C89.7472 36.4299 89.4005 35.5336 88.9863 34.9168C87.4412 32.6161 87.0724 29.9701 86.6484 27.6306Z" fill="#2E3548"/>
<path d="M79.3232 48.575C78.5847 50.8368 79.0299 53.6285 77.2979 55.9687C76.1744 57.4868 77.0221 58.7724 78.5399 59.6093C79.1348 59.9373 80.2981 59.947 79.7936 60.9985C79.2906 62.0469 78.2121 61.6166 77.4409 61.2668C74.5849 59.9714 73.927 57.3723 75.7009 54.7521C77.0117 52.8159 77.2272 50.6006 77.2921 48.3473C77.3155 47.5366 77.2318 46.548 78.4483 46.6001C79.5974 46.6494 79.2791 47.5982 79.3232 48.575Z" fill="#283246"/>
<path d="M70.4985 38.8046C70.5023 40.0282 69.894 39.9847 69.3939 39.9544C66.6007 39.785 64.1912 40.9476 61.787 42.1195C61.0455 42.4809 60.3201 42.6626 59.8763 41.8104C59.4738 41.0374 60.2226 40.7845 60.7189 40.5055C63.2654 39.0739 65.9342 38.0326 68.9175 38.0992C69.6719 38.1161 70.4343 38.202 70.4985 38.8046Z" fill="#273246"/>
<path d="M67.9929 49.5394C67.9348 50.8948 67.9234 52.6344 66.4531 52.633C64.9352 52.6315 64.3139 50.9803 64.2938 49.4861C64.2767 48.2144 64.5057 46.6755 66.0596 46.6531C67.8258 46.6277 67.8497 48.2884 67.9929 49.5394Z" fill="#2B3548"/>
<path d="M87.8924 49.7265C87.9401 48.3548 88.0291 46.7415 89.7171 46.6504C91.293 46.5653 91.5626 48.0947 91.599 49.3794C91.6423 50.9141 90.9582 52.5541 89.5332 52.6496C88.106 52.7454 87.8666 51.0606 87.8924 49.7265Z" fill="#2F374A"/>
<path d="M77.9533 108.43C75.9311 105.96 73.9647 103.436 72.3921 100.638C72.3921 100.638 72.3921 100.638 72.3921 100.638C71.4975 99.288 70.6029 97.9381 69.7082 96.5882C69.7082 96.5881 69.7082 96.588 69.7082 96.5879C68.6013 94.6759 67.4944 92.7638 66.3876 90.8518L66.3875 90.8518C66.2262 90.1025 65.9709 89.2014 65.5562 88.2201C65.1415 87.2389 64.6733 86.4281 64.2485 85.7904C64.2484 85.7901 64.2484 85.7899 64.2483 85.7896C62.6361 81.872 61.0357 77.9495 59.4084 74.0382C58.0292 70.7232 56.2716 67.7253 52.9511 65.9204C52.0096 65.4087 51.2813 65.4759 50.4872 66.0297C49.6612 66.6059 49.7586 67.241 50.0932 68.1515C52.5794 74.9161 55.4113 81.5324 58.4155 88.0783H58.4155L58.4155 88.0783C58.8529 89.0067 59.2581 89.9521 59.7335 90.8606C61.7802 94.7717 63.4557 98.8831 65.9972 102.528C65.9973 102.528 65.9974 102.528 65.9975 102.528C67.6058 105.809 69.7 108.767 72.0024 111.586C72.3195 111.974 72.6645 112.563 73.27 112.14C74.5787 111.226 76.2082 111.245 77.6118 110.486C78.9734 109.749 78.7437 109.396 77.9533 108.43Z" fill="#AEBCBC"/>
<path d="M84.0433 81.6703C84.0458 82.4161 84.088 83.1637 84.0315 83.9038C83.9914 84.43 84.2462 85.2209 83.3101 85.2379C82.5366 85.252 82.3102 84.518 82.2494 84.0108C82.0282 82.1657 81.9333 80.3046 81.823 78.4476C81.7877 77.8535 82.1069 77.3842 82.7205 77.4076C83.2369 77.4273 83.7419 77.7324 83.8041 78.3298C83.9196 79.4391 83.9657 80.5555 84.0433 81.6703Z" fill="#3D4859"/>
</g>
<defs>
<clipPath id="clip0_641_1071">
<rect width="148.995" height="195.235" fill="white" transform="translate(0.501953 0.971191)"/>
</clipPath>
</defs>
</svg>
