<svg width="130" height="186" viewBox="0 0 130 186" fill="none" xmlns="http://www.w3.org/2000/svg">
<g clip-path="url(#clip0_641_1212)">
<path d="M122.241 194.823C120.451 195.41 118.595 195.016 116.798 195.023C91.8143 195.114 66.8305 195.082 41.8469 195.088C40.4994 195.089 39.1858 194.865 37.7928 195.091C35.9034 195.399 36.0385 193.893 36.1742 192.61C36.8192 192.461 36.9397 193.196 37.75 193.449C36.9664 189.948 36.953 186.514 36.5133 183.122C36.0848 179.818 35.5664 176.531 35.4944 173.187C35.4567 171.437 35.8893 169.947 36.9971 168.563C40.8864 163.704 43.355 158.051 45.9417 152.457C47.0109 150.145 46.6398 148.221 44.8602 146.554C43.4581 145.241 43.0258 143.756 43.2924 141.862C43.9175 137.422 44.7848 133.01 45.2288 128.554C45.73 123.523 47.264 119.041 50.5125 115.078C52.0022 113.26 52.5701 110.777 54.1906 108.969C55.3181 108.668 55.6547 109.517 55.9792 110.273C56.3085 111.04 56.622 111.822 56.823 112.638C56.9417 113.553 56.1213 114.202 56.274 115.227C57.6203 114.262 58.6212 113.025 59.1734 111.412C60.9137 107.732 60.7949 103.808 60.7188 99.8867C60.6699 97.3652 61.0725 97.059 63.4822 97.6277C65.1791 98.0281 66.9244 98.1126 68.6483 98.3066C69.9847 98.4569 70.9592 98.9705 71.693 100.094C74.1027 103.781 75.9746 107.641 75.8814 112.195C75.759 118.18 76.9453 124.016 78.0841 129.837C78.5457 132.197 78.3863 134.1 76.4227 135.676C75.6924 136.262 75.195 137.1 74.6233 137.849C72.9494 140.045 72.3266 142.329 73.1276 145.154C76.5334 157.163 80.6298 168.802 89.3375 178.198C90.8891 179.872 92.6152 181.292 94.9275 181.744C98.4185 182.428 101.12 181.037 103.436 178.517C107.643 173.94 110.093 168.348 112.498 162.76C116.86 152.627 120.132 142.107 123.231 131.533C123.497 130.625 123.891 129.767 124.253 128.899C124.453 128.42 124.503 127.568 125.27 127.787C125.872 127.959 125.949 128.74 125.878 129.296C125.491 132.322 125.628 135.374 125.388 138.403C124.949 143.957 124.175 149.477 124.144 155.075C124.124 158.756 123.351 162.421 123.215 166.107C122.902 174.573 121.808 182.986 121.598 191.455C121.57 192.618 121.599 193.782 122.241 194.823Z" fill="#46BA00"/>
<path d="M54.5477 108.937C52.6981 112.67 50.8264 116.402 48.125 119.609C46.1768 121.921 46.5926 124.803 46.1019 127.429C45.1214 132.677 44.5188 137.995 43.6889 143.273C43.5214 144.339 44.083 144.858 44.7152 145.469C47.5788 148.235 47.9063 149.572 46.3184 153.098C43.6685 158.983 40.9531 164.846 36.7363 169.828C36.0836 170.599 36.0836 171.373 36.1144 172.23C36.3539 178.889 37.4048 185.468 38.0747 192.084C38.1581 192.908 39.2239 194.259 37.6109 194.601C36.177 194.906 36.8536 193.152 36.1736 192.609C36.1861 187.756 34.7823 183.044 34.7325 178.196C34.0451 176.53 34.8646 174.624 33.9047 173.001C31.2456 175.286 28.4109 177.283 25.1395 178.631C19.2617 181.055 13.8452 178.422 12.3569 172.245C10.8448 165.968 10.9686 159.846 12.2499 153.574C13.2605 148.626 13.7599 143.573 14.4802 138.567C16.2406 126.331 18.1892 114.124 20.5443 101.989C21.1297 98.973 21.9261 95.9607 23.2259 93.1377C24.9068 89.487 27.9404 87.2667 31.446 85.6156C34.1386 84.3474 34.2523 84.3509 32.9978 81.8015C31.5707 78.9017 32.3379 76.3252 33.9213 73.8638C36.0401 70.57 37.5558 66.9629 40.3219 63.9777C42.441 61.6907 42.4834 58.5691 41.1932 55.2646C37.6416 46.1681 36.8724 36.6402 38.8369 27.0948C40.7862 17.6234 45.2073 9.31292 53.4672 3.8978C60.2638 -0.557964 67.8588 -0.841612 75.609 1.63587C77.4551 2.22602 79.2409 2.8814 81.4872 2.55881C85.7906 1.94085 89.4664 4.23408 92.8476 6.69036C100.745 12.4273 104.325 20.5095 105.417 29.9662C106.17 36.4871 105.861 42.9949 105.554 49.5167C105.171 57.6476 105.368 65.7402 107.936 73.5774C109.133 77.2313 111.047 80.5017 113.506 83.4694C114.377 84.5208 115.578 84.3369 116.658 84.5933C119.384 85.2404 122.153 85.8077 124.627 87.1515C128.638 89.3301 129.872 93.1289 129.954 97.348C130.064 103.011 128.924 108.59 128.549 114.229C127.925 123.624 126.964 132.997 126.224 142.385C125.375 153.149 124.592 163.917 123.82 174.687C123.432 180.109 123.141 185.538 122.786 190.963C122.701 192.26 122.699 193.575 122.241 194.823C120.901 194.832 120.867 194.011 120.879 192.942C120.944 187.496 121.588 182.091 121.944 176.667C122.433 169.22 123.004 161.778 123.547 154.334C124.138 146.243 124.739 138.152 125.326 130.061C125.368 129.486 125.331 128.907 125.06 128.257C123.265 133.869 121.54 139.504 119.66 145.087C116.127 155.578 112.731 166.142 106.599 175.512C104.866 178.16 102.921 180.797 99.9003 182.003C95.794 183.643 92.1504 182.268 89.337 179.125C83.6293 172.749 79.1521 165.621 76.4658 157.403C75.144 153.359 73.9559 149.266 72.5255 145.27C71.3733 142.051 72.2201 139.206 74.3128 137.317C77.8443 134.131 77.7123 130.838 76.8116 126.64C75.6167 121.071 74.913 115.335 75.0281 109.603C75.0839 106.825 73.5298 104.872 72.5069 102.615C71.4107 100.196 69.9351 98.489 66.8827 98.6666C65.4308 98.751 63.8768 98.6245 62.4413 97.889C61.4142 97.3627 61.1286 97.9114 61.257 99.0502C61.7579 103.492 61.6107 107.876 59.535 111.988C57.8357 112.909 57.6384 111.907 57.7027 110.563C59.6984 104.951 58.9373 99.3272 58.0052 93.6282C57.2083 88.7562 57.7215 83.7931 57.7661 78.8719C57.7785 77.5014 57.4449 76.6883 56.1152 76.2495C53.8013 75.4859 53.359 75.9186 53.5019 78.3473C53.6612 81.0554 54.83 83.5436 54.9799 86.2362C55.2618 91.3003 53.6878 95.9529 51.7321 100.492C50.6295 103.051 49.7678 105.622 49.7561 108.438C49.7477 110.487 48.9241 112.404 48.7212 114.747C50.5493 111.189 52.3369 107.93 53.7167 104.468C54.0657 103.592 54.3971 102.708 54.9123 101.913C55.3197 101.284 55.8046 100.672 56.6613 100.973C57.5081 101.27 57.6333 102.112 57.4666 102.795C56.9202 105.031 56.3406 107.281 54.5477 108.937Z" fill="#212D42"/>
<path d="M3.86088 64.5622C3.70183 64.5622 3.11823 64.6043 2.54349 64.551C1.90535 64.4918 0.89397 64.9041 0.930658 63.732C0.956667 62.9026 1.69627 62.6017 2.46305 62.5537C4.55979 62.4225 6.66093 62.3501 8.75441 62.1809C15.8074 61.6109 22.7864 60.4707 29.7855 59.4758C30.7974 59.332 32.7016 58.3768 32.8704 60.0969C33.0057 61.4763 31.0631 60.9528 30.0247 61.1744C22.3904 62.8038 14.5893 63.2512 6.88624 64.399C6.03025 64.5266 5.15094 64.4975 3.86088 64.5622Z" fill="#232E43"/>
<path d="M34.366 52.6609C34.1145 53.852 33.2583 53.6356 32.5577 53.238C30.6999 52.1836 28.8701 51.0726 27.0842 49.9004C23.3431 47.4448 19.6422 44.9284 15.9082 42.4619C15.6114 42.2659 15.3052 42.1474 15.0924 41.8183C14.759 41.3025 13.5559 41.1768 14.3417 40.1868C15.0012 39.356 15.7342 39.9461 16.2604 40.3274C21.7284 44.2881 27.5032 47.7804 33.1543 51.4607C33.6319 51.7717 34.2163 51.9545 34.366 52.6609Z" fill="#253145"/>
<path d="M29.5909 66.7292C29.2649 67.0283 29.0184 67.2685 28.7575 67.4918C26.9213 69.0629 25.0889 70.6387 23.2396 72.1944C22.7361 72.6179 22.1596 72.9985 21.5341 72.4043C20.6289 71.5443 21.637 71.0392 22.0439 70.6669C23.7207 69.1326 25.4935 67.7021 27.2489 66.2551C27.7789 65.8182 28.4102 65.617 29.055 65.999C29.2669 66.1246 29.3755 66.4247 29.5909 66.7292Z" fill="#2D384C"/>
<path d="M27.05 37.1406C27.5893 37.2217 28.0324 37.4894 28.0254 38.0578C28.0184 38.6203 27.5793 38.9318 27.035 38.9492C26.4585 38.9676 26.0854 38.6326 26.0899 38.0481C26.0943 37.4636 26.4757 37.177 27.05 37.1406Z" fill="#596171"/>
<path d="M54.5466 108.937C55.3114 107.154 56.1563 105.4 56.801 103.575C57.0542 102.858 57.6803 101.698 56.6672 101.252C55.4564 100.719 55.3371 102.117 55.0756 102.8C53.4543 107.035 51.5393 111.12 49.1667 114.986C48.8782 115.456 48.5178 115.882 48.0827 116.475C47.6152 115.055 48.302 113.943 48.438 112.789C49.1052 107.129 50.1895 101.623 52.617 96.3456C54.2359 92.8261 54.9902 88.873 54.1631 84.9052C53.6919 82.6451 53.1236 80.4148 52.8152 78.1143C52.3795 74.8645 52.352 74.8155 55.4438 75.437C58.4057 76.0326 58.5051 76.1886 58.3395 79.0372C58.0155 84.6134 57.9442 90.1806 58.9576 95.7114C59.8802 100.747 60.1702 105.761 58.2432 110.665C57.5628 111.343 57.9102 112.735 56.6272 112.995C55.4768 111.877 55.8758 109.964 54.5466 108.937Z" fill="#FBC172"/>
<path d="M56.6272 112.994C57.3919 112.374 57.307 111.165 58.2429 110.664C57.9194 111.84 58.4514 112.182 59.5333 111.987C58.9846 113.358 58.1633 114.549 57.1014 115.567C56.6409 116.008 56.1209 116.504 55.4685 115.855C54.9458 115.335 55.1995 114.818 55.5736 114.336C55.9221 113.887 56.2758 113.441 56.6272 112.994Z" fill="#212D42"/>
<path d="M104.6 150.749C105.317 152.199 105.998 153.668 106.767 155.09C107.114 155.73 107.397 156.74 108.501 156.136C109.567 155.553 108.755 154.936 108.455 154.35C104.501 146.596 101.352 138.488 97.9166 130.506C97.7373 130.09 97.6463 129.714 97.7453 129.258C99.1837 122.626 100.266 115.872 102.753 109.547C104.252 105.736 107.618 103.269 111.123 101.225C112.222 100.585 113.348 99.9188 114.678 99.7579C115.422 99.668 115.895 99.188 115.7 98.3989C115.473 97.4793 114.719 97.6515 114.113 97.8733C110.667 99.1346 107.526 100.901 104.969 103.624C104.713 102.229 105.678 99.2147 107.238 96.5619C108.259 94.8274 109.366 93.1664 110.884 91.7937C111.311 91.4082 112.295 90.8579 111.368 90.0602C110.626 89.4214 110.065 90.0244 109.515 90.531C106.854 92.9818 105.259 96.0957 104.014 99.4122C101.45 106.243 99.5644 113.281 97.7396 120.334C97.2546 122.209 96.9743 124.136 96.5491 126.298C95.066 124.669 94.7989 122.771 94.1503 121.086C91.5794 114.406 89.5301 107.592 89.0643 100.38C88.9509 98.6228 89.5779 97.9582 91.2815 97.6873C98.3749 96.5592 104.17 92.9507 108.854 87.6734C110.198 86.1587 111.355 85.4731 113.2 85.996C116.031 86.7985 119.007 86.826 121.8 87.9608C126.078 89.6994 128.022 92.0089 127.998 96.7833C127.97 102.069 127.482 107.333 126.669 112.573C125.09 122.744 121.73 132.406 118.617 142.159C115.62 151.553 112.458 160.86 107.895 169.626C106.209 172.867 104.505 176.114 101.721 178.626C98.5869 181.452 95.3679 181.63 92.0186 179.019C88.2492 176.08 85.8663 171.999 83.4084 168.053C79.3755 161.579 77.2537 154.294 75.0829 147.049C74.7795 146.036 74.752 145.573 75.9953 145.611C81.3786 145.778 85.5796 142.966 89.6512 139.982C92.0762 138.206 94.4677 136.339 96.2054 133.801C96.6609 133.136 97.106 133.183 97.4352 133.958C99.1466 137.988 101.03 141.956 102.508 146.069C103.217 148.044 102.505 150.235 101.984 152.278C101.36 154.727 100.601 157.128 99.2129 159.283C98.8314 159.876 98.3423 160.653 99.2053 161.133C100.064 161.61 100.49 160.793 100.85 160.165C102.506 157.275 103.685 154.213 104.6 150.749Z" fill="#46BA00"/>
<path d="M89.6908 44.6455C89.1801 48.5918 89.4061 52.5974 88.5102 56.5247C87.5304 60.8203 84.6228 63.7411 81.7975 66.7724C81.5571 67.0303 81.3695 67.0923 81.0731 67.0018C80.0024 66.6746 78.2048 63.6696 78.6338 62.7008C79.7074 60.276 78.6906 58.3337 77.27 56.5362C73.6005 51.8929 68.981 49.2616 62.8561 50.0968C61.5779 50.2711 61.2654 49.8682 61.7308 48.6962C62.1652 47.6022 62.2532 46.443 62.2181 45.2776C62.2038 44.8021 62.3488 44.2176 61.6075 44.0958C60.7948 43.9622 60.5626 44.5643 60.4899 45.1199C60.3298 46.3421 60.0041 47.5243 59.7757 48.724C59.4609 50.3772 58.3569 51.1426 56.9871 51.3642C53.2968 51.9611 49.6205 52.5252 46.1128 54.7206C45.7974 51.8581 45.4644 49.2909 45.2547 46.7136C45.1678 45.6458 44.96 44.7539 43.9514 44.2209C43.5999 44.2446 43.444 44.0968 43.5283 43.7384C45.264 42.491 44.7026 40.4575 45.1074 38.8003C47.2164 30.1663 52.2639 24.0479 60.2599 20.2268C62.3821 19.2127 64.693 19.0509 66.8646 18.3063C68.07 17.8931 68.3018 19.1094 68.6067 19.7838C70.7295 24.4785 73.9795 28.3721 77.3094 32.208C77.6941 32.6511 78.1194 33.7614 78.9431 32.9415C79.5773 32.3103 79.1995 31.5517 78.5839 30.8643C75.6261 27.5608 72.8967 24.0808 70.7737 20.1646C70.3304 19.3469 69.8529 18.5368 69.8144 17.5673C71.8129 17.2806 72.7762 18.7634 73.912 19.9565C77.5995 23.8534 81.2042 27.8013 83.9372 32.4802C85.2612 34.747 86.3127 37.1149 87.2899 39.5282C87.7068 40.5578 88.2328 41.4807 89.0682 42.2191C89.6485 42.9323 90.173 43.661 89.6908 44.6455Z" fill="#F9BFC0"/>
<path d="M61.2382 65.6607C62.5446 66.5052 62.8361 68.0554 63.486 69.3035C65.3029 72.7928 67.23 76.2092 69.4522 79.456C69.8844 80.0874 70.2965 81.1034 71.2468 80.4205C72.158 79.7655 71.3741 78.941 70.966 78.3401C67.8641 73.7735 65.175 68.9824 62.8858 63.9585C62.2619 62.5894 62.0507 61.2195 62.2836 59.607C63.7985 60.1291 64.2401 61.5147 64.8348 62.6142C67.7757 68.0512 70.812 73.4099 75.0188 78.0086C75.5025 78.5374 75.8491 79.3775 76.6851 78.777C77.5305 78.1697 76.8979 77.3601 76.4836 76.9091C72.3211 72.3783 69.4217 67.0213 66.4639 61.7066C65.7868 60.4901 64.9783 59.4181 63.976 58.4821C63.6741 58.2002 63.469 57.889 63.6617 57.5512C63.9114 57.1134 64.4639 57.0771 64.8067 57.3004C65.765 57.9245 66.6739 58.6073 67.4626 59.4745C71.7562 64.1952 75.193 69.5802 79.2041 74.518C79.4262 74.7913 79.617 75.1556 79.9089 75.2913C80.3627 75.5022 80.4994 76.6876 81.3713 75.7745C81.9777 75.1394 81.7718 74.6767 81.3155 74.0911C79.0768 71.2188 76.8678 68.3235 74.6475 65.4368C72.6629 62.8564 70.6774 60.2768 68.3484 57.25C71.045 57.9753 72.6353 59.4223 73.834 61.0722C76.7921 65.144 80.0708 68.8999 83.8337 72.2263C86.4469 74.5364 87.562 77.3881 87.4463 80.8436C87.2766 85.9137 87.2493 90.9887 87.0804 96.0588C86.8131 104.083 88.9172 111.657 91.4441 119.135C92.5941 122.538 93.991 125.863 95.4032 129.169C96.1233 130.855 95.222 132.046 94.3328 133.079C91.2739 136.632 87.6561 139.525 83.4822 141.716C82.3568 142.307 82.024 142.235 81.6453 140.882C78.9222 131.157 77.4755 121.205 76.8497 111.179C76.6141 107.405 75.7848 104.138 73.7167 101.123C69.9703 95.6593 68.5353 89.4855 68.0172 83.0216C67.9212 81.8234 67.4491 80.9054 66.7355 79.9293C63.8433 75.9732 60.9539 71.9762 60.8791 66.755C60.8742 66.4158 60.7578 66.034 61.2382 65.6607Z" fill="#F9BEC0"/>
<path d="M89.691 44.6456C89.3934 43.8891 89.0958 43.1325 88.7981 42.376C88.3968 38.5905 86.3977 35.4243 84.6151 32.2386C82.3203 28.1373 79.5595 24.3248 76.0093 21.1548C75.2323 20.461 74.5378 19.7328 73.3684 20.127C72.4976 18.8381 71.1901 18.1556 69.8145 17.5677C71.0923 14.1351 73.7913 11.7422 76.056 9.03161C77.1436 7.72982 79.2075 7.35696 79.4176 5.13263C79.4746 4.52904 80.8883 4.45811 81.7727 4.44172C86.4034 4.35581 90.0215 6.72408 93.3715 9.46961C99.4792 14.4752 102.266 21.2892 103.482 28.8946C104.439 34.883 103.913 40.9055 103.967 46.914C104.004 51.0468 103.917 55.1806 103.937 59.3137C103.976 67.6971 105.655 75.6271 110.516 82.6567C110.715 82.9448 110.958 83.2374 110.754 83.6321C106.625 83.1592 102.579 82.4728 98.6723 80.8524C92.9041 78.4595 90.9757 73.6134 89.6096 68.1259C88.5469 63.8571 89.0283 60.6353 93.1569 58.0226C95.6989 56.4139 97.2457 53.4779 98.0508 50.3979C98.8802 47.2252 97.4397 44.3742 94.4526 43.2886C92.5406 42.5937 91.1726 43.8223 89.691 44.6456Z" fill="#FCC272"/>
<path d="M49.5268 61.8246C44.3763 64.9659 39.9862 68.8277 37.4906 74.4938C37.2605 75.0163 36.9714 75.5144 36.687 76.0109C36.3449 76.608 35.6218 77.2201 36.7023 77.7675C37.6392 78.2422 37.9902 77.4751 38.3396 76.862C39.3689 75.0561 40.3898 73.2447 41.3728 71.4134C43.0026 68.3773 45.9164 66.7088 48.5267 64.7472C50.0588 63.5958 51.3596 61.8752 53.6006 61.9321C53.8152 62.5312 53.5386 62.949 53.1821 63.087C47.249 65.3843 44.0077 70.2077 41.3681 75.6015C41.0546 76.242 40.8686 76.9555 40.491 77.5512C40.0713 78.2132 39.9342 78.7553 40.7089 79.1737C41.5573 79.632 41.869 78.9666 42.1644 78.3754C43.06 76.5828 43.8903 74.7556 44.8392 72.992C46.494 69.9162 49.1403 67.7423 51.7473 65.5309C52.1336 65.2033 52.4738 64.9427 52.8225 65.2918C53.2576 65.7274 52.7001 66.0334 52.4835 66.3665C51.1851 68.3633 49.4645 69.9988 47.8854 71.7566C46.2973 73.5243 45.5775 75.678 45.1817 77.9782C45.0231 78.9001 44.829 79.8319 44.5082 80.7068C43.7798 82.6931 43.9263 84.2182 45.5994 85.9037C47.3279 87.645 47.9594 90.1457 47.8731 92.7013C47.8482 93.4373 47.8564 94.413 48.7557 94.4084C49.7679 94.4032 49.7704 93.389 49.7128 92.5959C49.5064 89.7527 48.9441 86.9787 47.0831 84.735C46.1482 83.6079 45.9792 82.6818 46.3496 81.2514C46.7812 79.5843 47.1812 77.902 47.5929 76.2256C47.9159 74.9104 48.6448 74.9555 49.6089 74.9071C50.8493 74.8448 50.7081 75.7021 50.8471 76.4853C51.2633 78.8304 51.6984 81.1737 52.2021 83.5012C53.311 88.6251 52.3045 93.5719 50.0224 98.0271C47.724 102.514 47.6081 107.339 46.651 112.031C45.6832 116.775 45.0606 121.59 44.3181 126.379C43.2992 132.952 42.2651 139.523 41.3279 146.108C40.9001 149.114 40.6864 149.26 38.2228 147.573C33.1815 144.122 29.2477 139.649 25.9646 134.54C25.1252 133.233 25.1668 132.193 25.957 130.838C31.2871 121.699 35.3837 112.011 38.4993 101.909C40.2387 96.2691 38.9988 90.9156 36.7334 85.6998C36.2463 84.5784 35.5834 83.5333 35.0988 82.4111C33.9153 79.6707 33.7915 77.0061 35.6599 74.4366C36.457 73.3404 37.2 72.1559 37.7052 70.9055C39.4478 66.5927 43.1744 64.4284 46.8656 62.2091C47.5904 61.7734 48.3791 61.4442 49.1383 61.0658C49.8319 61.0299 49.956 61.2856 49.5268 61.8246Z" fill="#F9BEC0"/>
<path d="M20.0044 141.192C19.8445 144.718 20.0684 147.629 20.4255 150.526C20.7805 153.406 21.6133 156.163 22.6467 158.859C22.8653 159.43 23.1931 160.203 24.0383 159.808C24.6963 159.501 24.4876 158.783 24.3197 158.269C23.6934 156.35 23.1239 154.423 22.6579 152.453C21.5236 147.657 21.4355 142.857 22.2655 138.02C22.2778 137.948 22.2977 137.878 22.3157 137.808C22.5778 136.788 22.6585 135.396 23.7704 135.187C24.7082 135.011 25.0097 136.404 25.4676 137.119C28.9241 142.515 33.2085 147.045 38.8316 150.198C40.14 150.932 41.532 151.703 42.974 151.96C44.4403 152.221 44.4138 152.712 43.9386 153.791C40.3196 162.015 36.2002 169.866 28.3148 174.932C26.7401 175.944 25.0868 176.79 23.2559 177.265C18.348 178.538 15.1128 176.758 14.0674 171.824C11.7197 160.743 13.0932 151.99 20.0044 141.192Z" fill="#46BA00"/>
<path d="M43.5278 43.7394C43.6695 43.9001 43.8113 44.0608 43.952 44.2217C43.4165 45.0024 43.1843 45.7572 43.3509 46.7972C43.8083 49.6519 44.0445 52.5421 44.3645 55.4188C44.4181 55.9008 44.6661 56.5311 43.9774 56.6925C43.2157 56.871 43.297 56.0746 43.144 55.6799C41.8359 52.3063 40.861 48.8161 40.385 45.2444C38.6938 32.5553 40.2953 20.5852 48.8549 10.4065C54.9698 3.13495 62.9571 0.780941 72.1125 2.51439C74.2266 2.91466 76.549 3.25354 78.3846 4.78426C74.3541 7.52594 71.4048 11.3866 68.623 15.3941C68.135 16.0971 67.5515 16.4762 66.6909 16.6049C57.4418 17.9876 50.6516 22.9397 46.0698 30.9954C44.2741 34.1527 43.3225 37.6307 42.7521 41.1922C42.6164 42.0395 42.0533 43.2728 43.5278 43.7394Z" fill="#FCC272"/>
<path d="M34.5387 106.947C33.256 104.52 32.0532 102.248 30.8547 99.9737C30.5141 99.3272 30.2016 98.5183 29.2692 99.0541C28.492 99.5007 28.8815 100.193 29.1735 100.774C30.3992 103.211 31.6769 105.624 32.8566 108.083C33.2368 108.876 33.8445 109.709 33.2742 110.797C31.5745 109.581 29.9203 108.368 28.2306 107.207C27.7068 106.847 27.1093 106.554 26.5035 106.365C25.9589 106.196 25.3014 106.14 25.0536 106.878C24.8259 107.557 25.4378 107.769 25.8499 107.984C27.8281 109.015 29.5835 110.339 31.2766 111.785C32.3578 112.709 32.4189 113.62 31.8921 114.844C28.5399 122.638 24.5224 130.081 20.0876 137.302C18.8135 139.377 17.4475 141.396 16.4658 143.632C16.2528 144.117 15.904 144.24 15.4219 144.388C16.4755 137.525 17.457 130.685 18.5904 123.87C19.7623 116.823 20.996 109.784 22.3749 102.776C23.0095 99.5501 23.6829 96.3233 25.2614 93.3242C27.2289 89.5859 30.8493 88.1623 34.1932 86.2822C35.0046 85.826 35.138 86.6427 35.2473 86.9289C36.9052 91.2726 38.3725 95.6742 36.8985 100.385C36.2241 102.541 36.003 104.878 34.5387 106.947Z" fill="#46BA00"/>
<path d="M76.7779 61.5836C74.9173 59.7838 73.5482 57.6246 71.2945 56.424C71.1171 56.3295 70.9968 56.0303 70.8353 56.018C68.3297 55.8258 65.8006 55.3951 63.3212 55.5881C61.5259 55.7279 59.8725 59.633 60.4208 61.8979C60.6427 62.8145 60.681 63.2719 59.8856 64.0452C58.5968 65.2981 58.8321 67.1269 59.1729 68.7764C59.5073 70.3951 59.7484 72.0585 60.6066 73.5227C60.8653 73.9641 61.2029 74.4718 60.853 74.8978C60.481 75.3506 59.876 75.0512 59.4468 74.8631C56.4397 73.5458 53.2529 73.0845 49.9604 72.7942C49.9808 72.1066 50.3712 71.6052 50.8498 71.2164C53.5508 69.0216 54.7138 65.9583 55.6223 62.7686C56.3237 60.3057 53.5828 57.5698 50.9889 58.2352C48.3576 58.9103 46.0506 60.3474 43.7832 61.7987C44.0765 58.9052 47.1723 55.4511 50.6247 54.5855C54.943 53.5028 59.3141 52.6242 63.677 51.7286C68.9492 50.6464 76.3326 56.2266 76.9184 59.9271C76.9966 60.4214 77.2172 60.9146 76.7779 61.5836Z" fill="#FDFDFD"/>
<path d="M108.301 85.5528C104.629 89.898 100.497 92.8426 95.5781 94.661C93.9036 95.28 92.2404 95.9374 90.4087 96.1152C89.2957 96.2233 88.9775 95.9517 89.0244 94.8976C89.1694 91.641 89.2346 88.3805 89.4025 85.1252C89.5182 82.8801 89.7361 80.6307 89.4132 78.3988C88.9239 75.017 86.9868 72.3875 84.478 70.288C82.7944 68.8789 82.8668 67.9391 84.4135 66.634C85.2735 65.9084 85.966 64.9842 86.9255 63.9414C88.0772 69.5462 88.4713 75.2607 92.7944 79.4243C97.0082 83.4827 102.603 84.1486 108.301 85.5528Z" fill="#F8BEC0"/>
<path d="M69.2676 97.1045C66.4019 97.4162 64.0161 96.127 61.4811 95.7939C60.9356 95.7222 60.925 95.178 60.8668 94.7681C60.1443 89.6846 59.3491 84.5993 60.1942 79.4529C60.2991 78.814 59.9907 77.8057 60.9381 77.6294C61.8745 77.4551 62.8263 77.8708 63.4134 78.6117C64.9057 80.4948 66.2247 82.2897 66.3649 85.0313C66.5727 89.0967 67.6652 93.1057 69.2676 97.1045Z" fill="#F6BDBF"/>
<path d="M90.6758 57.912C91.2232 54.265 90.94 50.6557 91.0972 47.0744C91.1551 45.7551 91.9179 45.107 93.1531 45.0238C94.9456 44.9031 95.7524 46.1398 96.1365 47.5827C96.7719 49.969 95.6951 51.9472 94.2568 53.7353C93.1079 55.1635 91.8727 56.5224 90.6758 57.912Z" fill="#F5BDBF"/>
<path d="M49.5271 61.8243C49.3976 61.5715 49.2682 61.3186 49.1387 61.0657C49.8982 60.5819 50.5637 59.8386 52.028 60.1111C50.9973 60.8172 50.2622 61.3208 49.5271 61.8243Z" fill="#A98B93"/>
<path d="M73.3672 20.1277C73.8758 19.0652 74.3966 18.73 75.4426 19.7176C81.6875 25.6133 86.1414 32.6596 89.1872 40.6521C89.4792 41.4183 89.2079 41.8668 88.7966 42.3767C86.5428 41.7206 86.7232 39.4249 86.0229 37.8751C83.2329 31.7001 79.4343 26.2957 74.6431 21.5476C74.1919 21.1005 73.7913 20.6023 73.3672 20.1277Z" fill="#263145"/>
<path d="M75.9846 39.6794C73.6716 38.4626 70.8806 39.1677 68.2753 38.5185C67.1592 38.2404 66.3673 37.5467 65.4239 37.0556C65.0226 36.8468 64.7938 36.2961 65.134 35.9705C65.408 35.7083 65.7109 35.0311 66.3695 35.54C69.0242 37.5913 72.253 37.0885 75.2744 37.507C75.7046 37.5666 76.1603 37.5464 76.5616 37.6858C77.1674 37.8962 77.8434 38.2068 77.7257 38.993C77.5892 39.9035 76.8238 39.7435 75.9846 39.6794Z" fill="#293347"/>
<path d="M74.2209 46.3524C72.7692 46.2377 71.2294 46.6703 69.6652 46.8803C69.0549 46.9622 68.4407 46.9926 68.304 46.2427C68.1735 45.5268 68.7443 45.1378 69.3182 45.0993C71.1813 44.9742 72.91 44.0847 74.8299 44.2461C75.8827 44.3345 77.1024 44.374 77.0751 45.6184C77.0469 46.9085 75.7557 46.1956 75.0156 46.3459C74.8084 46.388 74.5854 46.3524 74.2209 46.3524Z" fill="#353C4E"/>
<path d="M52.2854 38.854C50.6749 38.9433 49.0864 38.7037 47.6314 39.6074C47.2046 39.8725 46.476 39.9983 46.1574 39.2597C45.8187 38.4743 46.3803 37.9156 46.9311 37.7419C49.5137 36.9273 52.1675 36.9214 54.8246 37.3538C55.3538 37.44 55.77 37.7028 55.7139 38.3522C55.6504 39.0864 55.0943 39.0456 54.6006 39.0262C53.8109 38.9951 53.0233 38.9115 52.2854 38.854Z" fill="#263245"/>
<path d="M50.8902 45.3535C51.7588 45.1845 52.9107 45.8355 54.1057 46.2867C54.6693 46.4994 55.2319 46.8327 55.0009 47.5386C54.7135 48.4168 53.9504 48.1929 53.3623 47.966C51.9667 47.4273 50.5437 47.4119 49.094 47.5535C48.3805 47.6232 47.4674 47.8394 47.4456 46.7734C47.4302 46.0204 48.0893 45.5604 48.8875 45.488C49.3908 45.4423 49.8963 45.4191 50.8902 45.3535Z" fill="#31394C"/>
<path d="M95.2736 26.8121C95.1252 27.033 94.9295 27.6333 94.6454 27.6785C94.1555 27.7565 93.7993 27.2427 93.4642 26.858C90.6766 23.6576 87.6772 20.6885 83.9865 18.5235C82.2745 17.5192 80.4991 16.623 78.7535 15.676C78.114 15.329 76.8794 15.2821 77.3771 14.1898C77.8976 13.0473 78.9259 13.8078 79.6442 14.1245C85.1395 16.5473 89.9486 19.9227 93.8628 24.5208C95.0467 25.9115 95.2856 26.2145 95.2736 26.8121Z" fill="#253145"/>
<path d="M102.244 76.82C102.303 77.3188 102.134 77.6339 101.784 77.8061C101.104 78.1403 100.665 77.692 100.331 77.2226C98.3346 74.4197 96.3937 71.5778 94.8852 68.4734C94.322 67.3142 93.8731 66.1001 93.3316 64.9297C93.0758 64.3767 93.1044 63.8983 93.6486 63.6376C94.1507 63.397 94.6155 63.5659 94.8639 64.1321C96.769 68.4738 99.164 72.5289 101.996 76.3295C102.121 76.498 102.189 76.7095 102.244 76.82Z" fill="#253145"/>
<path d="M99.1924 34.6811C98.925 35.1711 98.8544 35.9552 97.8881 35.5483C94.3052 34.0394 91.0936 31.9768 88.5367 29.0293C88.1345 28.5656 87.1647 27.7719 88.0807 26.9917C89.0017 26.2072 89.3406 27.1863 89.8845 27.759C92.2071 30.2043 94.796 32.3126 98.0182 33.4854C98.6161 33.7031 99.0336 34.002 99.1924 34.6811Z" fill="#273246"/>
<path d="M15.0884 161.232C15.8008 161.162 16.0471 161.62 16.1349 162.136C16.6569 165.206 17.5651 168.136 19.0656 170.884C19.3183 171.346 19.4155 172.058 18.7234 172.396C17.9895 172.754 17.6218 172.136 17.3607 171.67C15.7628 168.821 14.8621 165.726 14.3067 162.526C14.2015 161.919 14.4148 161.378 15.0884 161.232Z" fill="#2C3448"/>
<path d="M63.6228 11.5246C64.393 11.5191 65.2167 11.3454 65.1921 12.3201C65.1761 12.9558 64.7986 13.5003 63.9928 13.5767C57.8594 14.1584 53.2844 17.4813 49.4257 21.9879C48.9021 22.5995 48.4838 23.1837 47.7352 22.5933C47.0134 22.0241 47.6416 21.286 47.9715 20.8813C51.2824 16.8184 55.3148 13.7348 60.4604 12.4103C61.561 12.127 62.5442 11.3695 63.6228 11.5246Z" fill="#263145"/>
</g>
<defs>
<clipPath id="clip0_641_1212">
<rect width="129.031" height="195.068" fill="white" transform="translate(0.929688 0.078125)"/>
</clipPath>
</defs>
</svg>
