<svg width="200" height="198" viewBox="0 0 200 198" fill="none" xmlns="http://www.w3.org/2000/svg">
<g clip-path="url(#clip0_641_1255)">
<path d="M178.023 153.908L148.416 140.703L115.876 213.663L145.483 226.867L178.023 153.908Z" fill="#232E42"/>
<path d="M184.119 185.554C189.073 171.523 193.436 157.364 195.668 142.621C196.062 140.021 195.75 137.524 194.622 135.042C191.269 127.664 185.29 123.125 178.413 119.454C169.325 114.603 159.749 110.806 150.409 106.501C148.354 105.555 146.752 104.165 145.59 102.384C141.594 96.2577 138.541 89.6071 135.335 83.0532C134.697 81.75 134.397 80.123 135.847 78.7847C139.608 75.3118 142.119 71.0061 143.91 66.2494C144.466 64.7745 144.348 63.2627 143.783 61.8858C143.117 60.2632 143.308 58.7175 143.522 57.0687C144.283 51.22 144.883 45.2903 142.984 39.5973C140.075 30.8811 133.882 25.0646 125.677 21.2657C121.743 19.4444 117.492 18.2739 113.318 19.3233C110.056 20.1433 107.171 19.8722 104.116 19.0639C103.344 18.8596 102.523 18.8718 101.678 18.9912C99.5139 19.2969 97.5511 19.9692 95.8194 21.3408C95.247 21.7942 94.4464 22.2245 93.769 21.9189C93.102 21.6178 93.6796 20.8248 93.6436 20.2579C93.5351 18.5484 92.167 17.4729 90.4336 18.0468C89.4717 18.3653 88.5008 18.8946 87.7478 19.5685C84.4801 22.4926 81.1591 25.3765 78.1076 28.5185C74.4557 32.2788 70.9107 36.1523 69.8713 41.6434C69.1251 45.5852 67.1592 49.12 65.6375 52.7985C65.1085 54.0773 64.2966 55.0647 63.1434 55.8756C58.6586 59.0286 53.8268 61.6026 49.1144 64.3691C37.697 71.0718 26.0233 77.3493 15.1262 84.9101C10.6389 88.0236 6.52875 91.5791 3.24155 95.9998C1.47114 98.3807 0.994572 101.081 0.994556 101.081C0.677087 102.41 0.598534 103.541 0.582823 104.294C0.786475 105.102 0.990181 105.91 1.19384 106.717C1.43438 106.592 1.77381 106.378 2.07426 106.021C3.16574 104.727 2.53104 102.995 2.70385 101.361C2.85073 99.9722 3.53544 99.0864 5.56672 96.7392C9.17275 92.5724 11.0578 90.4104 15.0748 86.5609C17.9264 83.8283 20.0603 83.0545 22.6093 81.6174C23.1782 81.2966 23.8714 80.8804 24.4554 81.3775C24.5397 81.3468 24.618 81.3115 24.7042 81.2824C24.6657 81.3687 24.6308 81.4475 24.595 81.5281C25.0064 82.05 24.6844 82.7292 24.4531 83.2895C23.1905 86.3487 21.8008 89.353 20.4418 92.37C19.2236 95.0743 18.9004 97.9657 18.5224 100.854C19.8287 97.6773 20.201 94.2223 21.4428 91.0454C24.2202 83.9403 27.7307 77.4466 35.132 73.9445C39.0623 72.0849 42.5545 69.3822 46.464 67.4348C48.8334 66.2546 49.4151 66.4129 50.2572 68.9027C52.0685 74.2579 55.1882 78.64 59.7204 82.0232C61.3603 83.2473 61.3749 83.9706 59.7064 85.646C55.5573 89.8118 50.8529 93.302 46.1361 96.7834C40.5128 100.934 34.5558 104.601 28.9621 108.79C28.6878 108.996 28.2688 109.125 28.3175 109.841C32.3831 107.101 36.4348 104.567 40.2886 101.736C41.3436 100.961 42.4306 100.409 43.7345 100.192C54.2721 98.4406 64.8804 97.4735 75.553 97.157C84.037 96.9054 92.517 97.1356 100.977 97.6493C103.69 97.8141 108.607 100.369 108.944 103.927C109.085 105.411 109.113 106.651 108.189 107.956C105.998 111.055 107.388 114.054 111.141 114.347C119.999 115.036 127.874 112.252 134.999 107.173C137.184 105.616 139.398 104.02 140.905 101.676C141.606 100.586 142.539 100.749 143.364 101.579C144.211 102.432 144.891 103.432 145.646 104.365C146.716 105.686 148.065 106.533 149.556 107.313C153.944 109.607 158.414 111.667 163.083 113.352C170.313 115.962 176.818 120.078 183.34 124.018C188.281 127.003 191.78 131.627 193.973 137.091C194.761 139.052 194.684 141.12 194.383 143.104C193.187 150.978 191.191 158.658 188.914 166.3C187.111 172.347 185.023 178.306 183.362 184.394C182.331 188.176 180.41 191.61 179.2 195.341C175.858 205.648 171.351 215.499 166.877 225.353C164.887 229.737 162.546 233.936 160.081 238.064C158.059 241.451 154.905 243.206 151.132 243.94C144.446 245.241 137.683 245.268 130.932 244.873C122.244 244.364 113.619 243.07 104.932 242.524C101.118 242.285 97.346 241.691 93.5395 241.421C93.0882 241.388 92.6479 241.301 92.2086 241.198C89.3177 240.52 89.1128 240.052 90.4852 237.452C93.2524 232.208 95.396 226.792 94.943 220.694C94.8079 218.874 95.5758 218.14 97.4373 218.147C103.444 218.172 109.446 217.867 115.445 217.58C117.047 217.504 118.629 217.696 120.091 218.291C127.048 221.118 134.041 223.898 139.474 229.396C139.681 229.606 139.916 229.802 140.772 229.836C138.69 227.768 136.838 226.037 134.681 224.652C131.652 222.707 128.677 220.666 125.281 219.361C124.609 219.103 123.662 218.747 123.779 217.911C123.9 217.044 124.933 217.062 125.632 217.002C129.45 216.675 133.251 216.263 136.986 215.356C138.192 215.064 139.15 215.49 139.994 216.415C140.915 217.425 141.529 218.62 142.385 219.706C142.431 218.535 141.849 217.562 141.147 216.717C139.651 214.917 139.443 213.016 140.189 210.825C141.81 206.058 143.113 201.177 144.198 196.278C145.365 191.007 146.821 185.768 147.488 180.408C148.841 169.537 155.837 163.793 165.285 160.13C165.4 160.115 165.507 160.092 165.618 160.072C164.603 159.631 163.643 159.696 162.638 160.278C161.955 160.674 161.184 161.015 160.327 160.871C160.302 160.854 160.278 160.836 160.253 160.818C159.058 161.172 157.839 161.466 156.803 162.216C155.083 163.766 152.94 164.868 151.958 166.75C152.338 164.428 153.88 162.277 154.852 159.882C154.856 159.656 154.79 159.452 154.663 159.267C154.645 159.275 154.627 159.28 154.609 159.287C153.523 158.644 153.264 157.655 153.379 156.61C153.377 156.608 153.375 156.606 153.373 156.604C153.146 157.421 152.98 158.413 152.038 158.979C152.01 158.961 151.981 158.944 151.952 158.926C151.385 160.506 151.104 162.162 150.649 163.771C150.648 163.773 150.647 163.776 150.646 163.778C150.723 163.856 150.797 163.959 150.867 164.096C150.114 167.073 149.383 170.057 148.603 173.021C147.151 178.54 146.12 184.142 144.921 189.71C143.294 197.263 141.677 204.812 139.089 212.115C138.561 213.605 137.508 214.38 136.048 214.845C133.08 215.789 129.565 214.423 126.511 214.659C115.065 215.546 104.502 216.194 93.0207 216.111C88.7602 216.08 84.0013 217.921 79.8024 216.698C78.0723 216.194 76.6902 215.245 75.5004 213.96C74.048 212.392 73.6558 210.59 74.3472 208.537C76.2199 202.977 77.3251 197.231 78.4305 191.487C79.0112 188.47 79.3312 185.404 80.0876 182.426C79.6795 182.696 79.2425 183.063 78.6966 182.622C77.8995 186.948 77.1254 191.277 76.2988 195.597C75.4956 199.794 74.4867 203.942 73.2823 208.046C72.8513 209.514 72.2672 209.541 71.0907 208.803C67.9436 206.826 64.4305 205.764 60.8354 204.945C55.6543 203.765 50.5466 202.333 45.5584 200.492C43.6747 199.408 41.8397 199.688 40.085 200.776C38.4909 201.765 39.1234 203.22 39.395 204.581C42.8174 208.45 47.3707 210.299 52.1499 211.761C52.6822 211.924 53.5987 211.819 53.6055 212.531C53.6112 213.127 52.9716 213.577 52.3405 213.918C48.6971 215.89 44.964 215.444 41.0519 214.887C37.6802 214.408 35.9388 212.651 34.8573 209.716C34.4989 208.744 33.9919 207.809 33.4395 206.929C32.5432 205.501 31.354 204.642 29.5246 205.214C28.9656 205.389 28.347 205.391 27.753 205.431C25.5801 205.58 24.7095 206.481 24.6304 208.692C24.3503 216.521 29.6833 224.156 37.0718 226.527C38.0003 226.825 38.8808 227.304 39.8249 227.516C43.9667 228.444 47.8937 230.288 52.2363 230.366C61.7693 230.539 71.0993 232.078 80.2976 234.525C81.7259 234.904 82.611 235.266 82.5518 237.155C82.487 239.216 83.736 240.823 85.9269 241.304C90.6725 242.347 95.4758 243.024 100.318 243.423C106.253 243.913 112.217 244.173 118.118 244.923C127.855 246.16 137.589 246.77 147.378 245.849C153.805 245.245 159.399 243.174 162.462 236.837C164.327 232.978 166.366 229.202 168.182 225.32C174.241 212.366 179.357 199.04 184.119 185.554ZM46.8081 98.4031C47.4571 96.9817 48.8298 96.4784 49.86 95.6971C54.6054 92.098 59.0735 88.1918 63.2312 83.9352C64.6665 82.4656 65.8286 80.7936 64.9872 78.5338C64.7388 77.8665 65.0475 77.4819 65.51 76.9905C68.27 74.0581 70.9538 71.0538 73.6988 68.1068C74.4651 67.2842 75.4566 66.8231 76.5595 66.4864C78.6401 65.8514 80.6453 65.0136 81.8031 62.9611C82.2401 62.0115 82.6793 61.0629 83.1128 60.1117C83.3137 59.6712 83.5522 59.3025 84.1087 59.6222C84.5615 59.8823 84.375 60.2405 84.2174 60.5837C84.4458 62.6736 84.6742 64.7635 84.9026 66.8534C85.5402 70.7099 86.1776 74.5663 86.8152 78.4228C88.4489 82.6938 89.8572 87.0871 93.0925 90.5169C94.3539 91.8541 95.689 93.1213 96.9762 94.4346C97.4718 94.9404 98.242 95.2204 98.5032 96.2005C81.1539 95.3384 64.0093 95.7447 46.8081 98.4031Z" fill="#232E42"/>
<path d="M165.745 160.125C165.984 160.087 166.153 160.017 166.276 159.925C166.066 159.984 165.849 160.032 165.624 160.072C165.625 160.073 165.626 160.075 165.626 160.076C165.666 160.093 165.705 160.106 165.745 160.125Z" fill="#46BA00"/>
<path d="M173.386 208.894C177.465 198.501 181.456 188.072 184.853 177.407C187.466 169.201 189.875 160.935 192.073 152.632C193.172 148.48 194.09 144.081 193.933 139.673C193.829 136.742 192.163 134.333 190.563 132.021C187.127 127.057 182.325 123.849 177.025 121.033C171.86 118.289 166.767 115.398 161.288 113.377C157.471 111.97 153.915 110.092 150.249 108.405C147.352 107.072 145.078 105.221 143.423 102.527C142.649 101.266 142.158 100.864 140.957 102.517C137.961 106.64 133.677 109.285 129.127 111.41C123.326 114.118 117.247 115.598 110.783 115.049C108.807 114.881 107.416 113.95 106.669 112.104C106.017 110.492 106.405 109.078 107.481 107.765C109.366 105.464 108.372 102.1 105.926 100.384C102.013 97.6395 97.5777 98.0604 93.298 97.8846C88.3546 97.6815 83.3893 97.708 78.4269 97.7979C72.7577 97.9006 67.1072 98.1737 61.4581 98.5706C55.5301 98.9872 49.6767 100.03 43.7881 100.778C41.5006 101.068 40.1526 102.759 38.4153 103.833C35.3158 105.75 32.3966 107.96 29.3982 110.042C29.215 110.169 29.0071 110.27 28.7978 110.348C28.1359 110.597 27.3391 111.286 26.8495 110.32C26.5032 109.637 27.1485 109.118 27.7457 108.718C30.6548 106.774 33.5688 104.835 36.4468 102.845C42.6306 98.5689 48.8286 94.3064 54.6155 89.4929C56.4452 87.9711 58.095 86.2341 59.8547 84.6259C60.6952 83.8577 60.891 83.396 59.7138 82.6243C54.5962 79.2692 51.2905 74.5042 49.6001 68.6652C49.121 67.0102 48.7059 66.7916 47.205 67.6887C42.6691 70.4001 38.1081 73.0876 33.4199 75.519C29.6696 77.4638 27.6748 80.8428 25.4429 84.1092C22.0056 89.1396 20.9253 94.9845 19.552 100.737C19.3994 101.376 19.6716 102.522 18.4783 102.302C17.3493 102.093 17.6313 101.105 17.7391 100.281C18.5223 94.2917 21.1242 88.9511 23.6715 83.5898C23.9377 83.0298 24.1828 82.4542 24.5941 81.5276C24.5595 81.4838 24.5295 81.439 24.4841 81.3976C24.4745 81.3888 24.4642 81.3852 24.4545 81.377C22.222 82.1905 20.6586 83.5307 18.9933 84.579C13.8003 87.8478 9.24859 91.9054 5.08254 96.4099C3.96692 97.6162 3.21006 99.0634 2.95101 100.569C2.81672 101.349 2.55786 101.719 2.19979 101.872C2.28951 103.302 2.21827 104.738 2.38505 106.163C4.40411 111.889 8.09197 116.144 13.6564 118.638C18.4995 120.809 23.2805 123.064 28.4774 124.509C34.4498 126.169 40.3623 128.007 46.4234 129.385C55.3508 131.416 64.3697 132.786 73.4531 133.813C74.1654 133.894 75.0986 134.225 75.4555 133.381C75.8109 132.54 74.9865 132.065 74.3812 131.623C74.0782 131.402 73.7568 131.207 73.4509 130.989C68.3068 127.328 64.5777 122.53 62.1143 116.739C61.6368 115.616 61.1547 114.435 61.545 112.776C64.1251 121.546 69.249 127.857 76.6809 132.336C77.7536 132.983 78.989 134.007 80.1968 133.396C81.53 132.722 80.9454 131.136 80.9577 129.902C80.9784 127.825 80.6239 125.735 81.0931 123.662C81.6745 137.478 83.5329 151.127 85.8295 164.747C84.9766 163.874 85.3032 162.542 84.5644 161.735C83.4109 160.475 82.6082 161.703 81.7512 162.321C81.5192 164.001 81.2873 165.681 81.0554 167.362C81.1957 168.249 80.5109 169.464 82.0249 169.802C83.2144 169.199 82.788 167.753 83.5294 166.876C84.5797 167.229 85.026 167.87 84.5463 168.929C84.1552 169.793 84.0688 170.661 84.3381 171.561C84.8766 173.361 85.1745 175.22 85.6911 177.026C85.9216 177.832 86.739 179.055 85.6889 179.418C84.4754 179.837 84.7338 178.258 84.3365 177.566C83.548 176.192 84.1243 174.175 82.3241 173.274C81.5306 174.503 80.7387 173.795 79.9467 173.276C79.9067 176.442 78.6434 179.444 78.6956 182.622C78.6957 182.622 78.6957 182.622 78.6957 182.622C80.0784 181.93 80.655 182.101 80.3555 183.867C78.9558 192.125 77.5598 200.379 75.098 208.41C74.0431 211.851 76.1276 215.111 79.7394 216.131C83.1114 217.083 86.5528 216.954 89.9544 216.934C98.0699 216.887 106.189 216.693 114.297 216.333C121.549 216.012 128.841 215.985 135.972 214.246C137.102 213.97 137.985 213.556 138.348 212.473C140.203 206.931 141.736 201.303 142.971 195.585C145.023 186.085 147.173 176.604 149.336 167.128C149.6 165.972 150.2 164.892 150.646 163.777C150.18 163.299 149.615 163.805 149.141 163.962C148.062 164.318 146.973 164.605 145.842 164.609C145.229 164.611 144.278 164.887 144.188 163.989C144.118 163.295 144.988 163.224 145.57 163.121C146.533 162.95 147.498 162.798 148.394 162.382C149.251 161.983 150.027 161.47 149.861 160.373C149.703 159.331 148.883 158.918 147.957 158.713C146.914 158.481 145.861 158.804 144.814 158.694C142.797 158.483 141.611 156.973 142.026 155.151C142.494 153.099 145.713 151.162 147.742 151.712C148.114 151.813 148.504 151.94 148.489 152.408C148.475 152.867 148.099 153.005 147.713 153.059C146.822 153.183 145.918 153.246 145.1 153.681C144.235 154.14 143.646 154.807 143.791 155.835C143.945 156.93 144.803 157.405 145.754 157.275C148.087 156.954 150.059 157.75 151.952 158.926C151.952 158.925 151.952 158.924 151.952 158.923L153.101 156.348C153.207 156.426 153.291 156.514 153.372 156.603C153.375 156.592 153.378 156.579 153.381 156.568C153.38 156.582 153.38 156.595 153.378 156.609C154.103 157.408 153.951 158.564 154.647 159.237C154.654 159.247 154.656 159.257 154.662 159.267C156.93 158.333 158.58 159.615 160.252 160.818C160.308 160.801 160.364 160.785 160.42 160.768C161.416 160.292 162.507 159.948 163.384 159.309C164.668 158.372 165.146 159.103 165.622 160.071C165.847 160.031 166.064 159.982 166.273 159.924C166.589 159.685 166.556 159.286 166.349 158.808C166.174 158.405 165.814 157.869 166.479 157.699C168.567 157.167 168.102 155.729 167.819 154.298C167.718 153.787 167.649 153.149 168.317 152.975C169.012 152.795 169.152 153.449 169.361 153.912C170.551 156.56 169.15 159.117 166.273 159.924C166.151 160.016 165.982 160.086 165.743 160.124C165.703 160.105 165.664 160.092 165.624 160.075C165.635 160.096 165.645 160.117 165.656 160.138L165.657 160.14C162.625 161.894 159.366 163.296 156.654 165.548C153.01 168.573 149.979 171.805 148.938 176.912C146.534 188.7 144.26 200.545 140.508 212.017C140.072 213.349 140.046 214.368 141.042 215.507C142.062 216.673 142.881 218.05 143.367 219.559C143.591 220.256 143.451 221.015 142.713 221.27C141.963 221.529 141.747 220.908 141.577 220.258C141.409 219.617 141.115 218.994 140.791 218.411C139.278 215.688 138.657 215.514 135.597 216.283C133.73 216.752 131.8 216.985 129.89 217.263C127.984 217.541 126.026 217.356 123.841 217.988C126.654 219.544 129.527 220.495 132.034 222.173C134.756 223.996 137.463 225.822 139.917 227.999C140.363 228.396 140.801 228.809 141.196 229.257C141.594 229.708 142.037 230.237 141.53 230.844C140.978 231.506 140.376 231 139.955 230.666C138.442 229.469 136.929 228.238 135.494 226.983C133.247 225.018 130.772 223.6 128.117 222.397C125.112 221.035 122.173 219.492 118.971 218.631C115.379 217.666 111.733 218.533 108.113 218.522C104.323 218.51 100.532 218.763 96.7409 218.769C95.729 218.77 95.3971 218.9 95.4953 219.963C96.1376 226.918 93.8852 233.09 90.2385 238.857C89.7446 239.638 89.7258 240.032 90.7305 240.234C93.5701 240.806 96.4401 241.109 99.3228 241.359C105.468 241.892 111.618 242.395 117.749 243.062C127.967 244.174 138.162 244.888 148.46 243.824C155.178 243.13 159.108 239.442 162.012 233.681C166.11 225.551 170.066 217.352 173.386 208.894Z" fill="#46BA00"/>
<path d="M153.379 156.609C153.263 157.655 153.522 158.643 154.609 159.287C154.627 159.279 154.644 159.275 154.663 159.267C154.656 159.258 154.654 159.247 154.648 159.238C153.951 158.564 154.103 157.408 153.379 156.609Z" fill="#46BA00"/>
<path d="M151.955 158.923C151.954 158.924 151.954 158.925 151.954 158.926C151.982 158.943 152.011 158.96 152.039 158.978C152.982 158.413 153.147 157.42 153.374 156.603C153.293 156.514 153.209 156.426 153.104 156.348C152.676 157.306 152.315 158.115 151.955 158.923Z" fill="#46BA00"/>
<path d="M2.95234 100.569C3.21139 99.0636 3.96826 97.6164 5.08388 96.4101C9.24993 91.9055 13.8016 87.848 18.9946 84.5792C20.6599 83.5309 22.2234 82.1907 24.4559 81.3771C23.8719 80.8801 23.1786 81.2963 22.6098 81.617C19.9877 83.0953 17.3895 84.6646 15.0752 86.5605C10.1098 90.6285 4.62145 94.2685 2.09732 100.617C1.86021 101.213 2.21964 104.025 1.75186 104.395C2.83247 104.588 2.68126 102.145 2.95234 100.569Z" fill="#46BA00"/>
<path d="M163.385 159.31C162.508 159.95 161.416 160.294 160.421 160.77C160.365 160.787 160.309 160.803 160.253 160.819C160.278 160.837 160.302 160.854 160.327 160.872C161.184 161.016 161.955 160.675 162.638 160.279C163.643 159.697 164.603 159.632 165.618 160.073C165.619 160.073 165.621 160.073 165.623 160.072C165.146 159.104 164.669 158.374 163.385 159.31Z" fill="#46BA00"/>
<path d="M165.624 160.072C165.622 160.073 165.62 160.073 165.618 160.074C165.62 160.075 165.623 160.076 165.626 160.077C165.625 160.075 165.624 160.074 165.624 160.072Z" fill="#46BA00"/>
<path d="M23.6716 83.5899C21.1242 88.9513 18.5223 94.2919 17.7391 100.281C17.6313 101.105 17.3493 102.093 18.4784 102.302C19.6716 102.522 19.3994 101.376 19.552 100.737C20.9253 94.9846 22.0056 89.1397 25.4429 84.1094C27.6748 80.8429 29.6696 77.464 33.4199 75.5191C38.1081 73.0878 42.6691 70.4002 47.205 67.6889C48.706 66.7917 49.1211 67.0103 49.6001 68.6653C51.2905 74.5044 54.5962 79.2693 59.7138 82.6244C60.891 83.3962 60.6953 83.8579 59.8547 84.626C58.095 86.2343 56.4452 87.9713 54.6155 89.4931C48.8286 94.3066 42.6306 98.569 36.4468 102.845C33.5689 104.836 30.6548 106.774 27.7458 108.718C27.1485 109.118 26.5032 109.638 26.8495 110.321C27.3392 111.286 28.1359 110.597 28.7978 110.349C29.0071 110.27 29.2151 110.169 29.3982 110.042C32.3966 107.96 35.3158 105.751 38.4154 103.833C40.1526 102.759 41.5006 101.068 43.7881 100.778C49.6767 100.03 55.5301 98.9873 61.4581 98.5707C67.1072 98.1739 72.7577 97.9007 78.4269 97.7981C83.3893 97.7082 88.3546 97.6816 93.2981 97.8848C97.5778 98.0606 102.013 97.6396 105.926 100.384C108.372 102.1 109.366 105.464 107.481 107.765C106.405 109.078 106.017 110.492 106.669 112.104C107.416 113.951 108.807 114.881 110.783 115.049C117.247 115.598 123.326 114.118 129.127 111.41C133.677 109.285 137.961 106.64 140.957 102.517C142.158 100.864 142.649 101.266 143.423 102.527C145.078 105.221 147.352 107.072 150.249 108.405C153.915 110.093 157.471 111.97 161.288 113.378C166.767 115.398 171.86 118.289 177.025 121.034C182.325 123.849 187.127 127.057 190.563 132.021C192.163 134.333 193.829 136.743 193.933 139.673C194.09 144.081 193.172 148.48 192.073 152.632C189.875 160.936 187.466 169.201 184.853 177.407C181.456 188.072 177.465 198.501 173.386 208.894C170.066 217.352 166.11 225.551 162.012 233.681C159.108 239.442 155.178 243.13 148.46 243.824C138.162 244.888 127.967 244.174 117.749 243.062C111.618 242.395 105.468 241.892 99.3228 241.359C96.4402 241.109 93.5701 240.806 90.7306 240.234C89.7258 240.032 89.7446 239.639 90.2385 238.857C93.8852 233.09 96.1376 226.918 95.4953 219.963C95.3971 218.9 95.729 218.771 96.7409 218.769C100.532 218.764 104.323 218.51 108.113 218.522C111.733 218.534 115.379 217.666 118.971 218.631C122.173 219.492 125.112 221.035 128.117 222.397C130.772 223.6 133.247 225.018 135.494 226.983C136.929 228.238 138.442 229.469 139.955 230.666C140.376 231 140.978 231.506 141.53 230.844C142.037 230.237 141.594 229.709 141.196 229.257C140.801 228.81 140.363 228.396 139.917 228C137.463 225.822 134.756 223.997 132.034 222.173C129.527 220.495 126.654 219.544 123.841 217.988C126.026 217.356 127.984 217.541 129.89 217.263C131.8 216.985 133.73 216.752 135.597 216.283C138.657 215.515 139.278 215.689 140.791 218.411C141.115 218.994 141.409 219.617 141.577 220.258C141.747 220.908 141.963 221.529 142.713 221.27C143.451 221.015 143.591 220.256 143.367 219.559C142.881 218.05 142.062 216.673 141.042 215.507C140.046 214.368 140.072 213.349 140.508 212.017C144.26 200.545 146.534 188.7 148.938 176.912C149.979 171.805 153.01 168.573 156.654 165.548C159.366 163.296 162.625 161.894 165.657 160.14L165.656 160.138C165.645 160.117 165.635 160.096 165.624 160.075C165.622 160.074 165.619 160.073 165.617 160.072C165.506 160.091 165.399 160.115 165.284 160.129C155.836 163.793 148.84 169.536 147.487 180.407C146.82 185.768 145.364 191.007 144.197 196.278C143.112 201.177 141.809 206.057 140.188 210.825C139.442 213.016 139.65 214.916 141.147 216.717C141.849 217.561 142.43 218.535 142.384 219.705C141.528 218.619 140.914 217.424 139.993 216.415C139.149 215.489 138.191 215.063 136.985 215.356C133.25 216.262 129.449 216.674 125.632 217.001C124.932 217.061 123.899 217.043 123.778 217.91C123.661 218.747 124.608 219.103 125.28 219.361C128.676 220.665 131.651 222.707 134.68 224.652C136.838 226.037 138.689 227.768 140.771 229.836C139.915 229.802 139.68 229.606 139.473 229.395C134.041 223.898 127.047 221.117 120.091 218.29C118.629 217.696 117.046 217.503 115.445 217.58C109.445 217.866 103.443 218.171 97.4364 218.147C95.5749 218.14 94.807 218.874 94.9421 220.693C95.3951 226.791 93.2515 232.207 90.4843 237.451C89.1119 240.052 89.3168 240.52 92.2077 241.198C92.647 241.301 93.0873 241.388 93.5386 241.42C97.3452 241.691 101.117 242.284 104.931 242.524C113.619 243.07 122.243 244.364 130.931 244.873C137.682 245.268 144.445 245.24 151.131 243.94C154.904 243.206 158.058 241.45 160.08 238.064C162.545 233.936 164.886 229.736 166.876 225.353C171.351 215.498 175.857 205.648 179.199 195.34C180.409 191.609 182.33 188.175 183.361 184.394C185.022 178.305 187.11 172.346 188.913 166.299C191.191 158.657 193.186 150.978 194.382 143.104C194.683 141.12 194.76 139.051 193.972 137.09C191.779 131.626 188.28 127.003 183.339 124.018C176.817 120.077 170.312 115.962 163.082 113.352C158.413 111.666 153.943 109.606 149.555 107.312C148.064 106.533 146.715 105.686 145.645 104.364C144.891 103.432 144.21 102.431 143.363 101.579C142.538 100.748 141.605 100.586 140.904 101.675C139.398 104.02 137.183 105.616 134.998 107.173C127.873 112.252 119.998 115.036 111.141 114.346C107.387 114.054 105.997 111.054 108.188 107.956C109.112 106.65 109.084 105.41 108.943 103.926C108.607 100.369 103.689 97.8137 100.976 97.6489C92.5161 97.1352 84.0361 96.905 75.5521 97.1566C64.8795 97.473 54.2713 98.4402 43.7336 100.192C42.4298 100.408 41.3427 100.96 40.2877 101.735C36.4339 104.566 32.3822 107.101 28.3166 109.841C28.2679 109.124 28.6869 108.995 28.9612 108.79C34.5549 104.6 40.5119 100.933 46.1352 96.783C50.852 93.3015 55.5564 89.8114 59.7055 85.6455C61.374 83.9702 61.3594 83.2469 59.7195 82.0228C55.1873 78.6395 52.0676 74.2575 50.2563 68.9023C49.4142 66.4124 48.8325 66.2542 46.4631 67.4344C42.5537 69.3817 39.0614 72.0845 35.1312 73.9441C27.7298 77.4461 24.2193 83.9399 21.4419 91.045C20.2001 94.2219 19.8278 97.6769 18.5215 100.854C18.8995 97.9652 19.2227 95.0739 20.4409 92.3696C21.7999 89.3526 23.1896 86.3483 24.4522 83.2891C24.6835 82.7288 25.0056 82.0496 24.5941 81.5277C24.1828 82.4544 23.9377 83.0299 23.6716 83.5899Z" fill="#46BA00"/>
<path d="M1.13224 106.5C1.44206 105.477 1.11216 104.185 2.57841 103.419C3.0047 109.205 6.6001 112.946 10.6279 116.4C11.0197 116.736 11.4867 117.001 11.9526 117.231C18.4804 120.447 25.2314 123.024 32.229 125.095C35.9346 126.192 39.7048 127.057 43.404 128.186C46.8605 129.241 50.5409 129.545 54.099 130.291C60.7782 131.693 67.5385 132.526 74.3088 133.305C74.5806 133.336 74.8586 133.315 75.6128 133.324C73.3078 131.533 71.1282 130.289 69.3911 128.474C65.6576 124.574 62.4858 120.34 60.8987 115.085C60.8119 114.798 60.6677 114.493 60.6982 114.212C60.7874 113.39 60.0842 112.148 61.2491 111.855C62.6764 111.496 62.3048 112.917 62.5094 113.682C63.9603 119.099 67.0161 123.515 71.0249 127.319C73.6817 129.84 76.5451 132.071 80.2518 133.374C80.7127 130.354 80.1181 127.475 80.1532 124.602C80.1644 123.681 79.8201 122.546 81.094 122.539C82.3321 122.533 82.0081 123.831 82.0201 124.592C82.1232 131.148 82.7379 137.663 83.4787 144.169C84.2283 150.751 85.3615 157.272 86.5163 163.791C86.6056 164.295 86.6322 164.816 86.6278 165.328C86.6227 165.93 86.0996 165.988 85.6796 166.081C85.1054 166.208 84.867 165.941 84.8973 165.347C84.9119 165.062 84.7345 164.77 84.7372 164.481C84.7572 162.341 84.056 161.23 81.7515 162.321C81.2146 160.42 82.1494 158.694 82.444 156.9C83.1235 152.763 81.9855 148.778 81.6027 144.73C81.3791 142.366 81.0517 140.009 80.9083 137.641C80.8297 136.342 80.3753 135.909 79.0416 135.76C72.0313 134.979 65.0127 134.214 58.0439 133.141C53.1105 132.381 48.2397 131.192 43.362 130.101C33.3164 127.854 23.5432 124.77 14.2388 120.317C9.58754 118.09 5.58108 115.09 2.87759 110.568C2.11064 109.285 1.52367 107.938 1.13224 106.5Z" fill="#243044"/>
<path d="M82.3428 173.359C82.0736 173.963 81.8044 174.566 81.518 175.208C80.5658 174.967 80.3554 174.037 79.9467 173.277C80.6237 171.363 80.063 169.217 81.0554 167.362C81.3357 168.162 81.6159 168.961 81.8962 169.76C82.7665 170.869 82.8529 172.077 82.3428 173.359Z" fill="#46BA00"/>
<path d="M110.392 169.072C109.848 170.571 111.056 171.217 111.858 172.041C112.321 172.517 113.079 172.922 112.573 173.685C112.175 174.285 111.413 174.339 110.725 174.149C109.291 173.755 108.063 173.107 107.721 171.471C107.43 170.078 107.179 168.674 106.816 167.3C106.594 166.461 106.9 165.19 105.368 165.178C105.221 165.177 105.048 164.735 104.939 164.476C104.746 164.016 106.058 159.07 106.44 158.744C107.396 157.931 108.091 157.708 108.377 159.344C108.533 160.24 108.21 161.728 109.302 161.866C110.48 162.015 111.768 161.403 112.991 161.059C113.658 160.871 113.666 160.312 113.442 159.774C112.627 157.81 113.716 156.893 115.272 156.186C115.833 156.718 115.777 157.372 115.854 157.939C116.085 159.644 116.575 160.83 118.643 159.889C119.362 159.562 119.733 159.974 119.967 160.649C120.258 161.485 119.894 161.824 119.17 162.186C118.371 162.585 116.639 162.311 117.191 163.944C117.85 165.891 116.905 168.856 120.106 169.348C121.106 169.501 121.699 169.803 121.71 170.774C121.722 171.811 120.73 171.8 120.072 171.981C118.007 172.547 116.271 171.568 115.451 169.528C114.885 168.119 114.613 166.643 114.433 165.155C114.19 163.161 112.876 163.783 111.764 164.023C110.633 164.266 108.919 163.992 109.503 166.107C109.778 167.102 109.584 168.24 110.392 169.073L110.392 169.072Z" fill="#46BA00"/>
<path d="M182.317 146.508C184.381 144.021 183.96 140.047 188.392 140.104C187.541 142.013 186.877 143.742 186.013 145.365C185.324 146.659 185.717 147.453 186.782 148.189C188.071 149.081 189.337 150.006 190.609 150.923C191.177 151.333 192.253 151.685 191.505 152.555C190.923 153.231 189.974 153.754 188.94 152.878C187.861 151.962 186.677 151.17 185.53 150.335C185.166 150.07 184.735 149.739 184.301 149.987C183.743 150.307 183.861 150.879 184.046 151.397C184.325 152.175 184.579 152.964 184.905 153.722C185.227 154.468 185.208 154.97 184.306 155.264C183.517 155.521 182.895 155.703 182.506 154.683C181.114 151.033 179.738 147.333 179.116 143.51C178.885 142.094 179.827 140.648 177.952 139.631C177.612 139.447 176.816 137.879 178.058 137.139C179.248 136.43 179.944 136.783 180.257 138.206C180.833 140.83 181.543 143.424 182.317 146.508Z" fill="#46BA00"/>
<path d="M130.385 157.678C131.72 158.328 133.349 161.441 133.084 162.81C132.93 163.609 132.217 163.567 131.698 163.722C130.12 164.196 128.513 164.571 126.927 165.019C126.365 165.178 125.676 165.319 125.845 166.168C125.987 166.882 126.363 167.451 127.169 167.48C128.405 167.525 129.599 167.32 130.392 166.249C131.184 165.177 132.307 165.441 132.931 166.012C133.719 166.734 132.801 167.483 132.248 168.043C130.38 169.933 128.025 170.233 125.57 169.845C124.252 169.637 123.232 168.859 122.905 167.424C122.655 166.328 122.366 165.241 122.109 164.146C121.62 162.065 121.553 160.104 123.608 158.713C125.714 157.288 127.937 156.734 130.385 157.678Z" fill="#46BA00"/>
<path d="M97.1148 177.008C95.4084 176.405 94.8466 174.84 94.4816 173.201C93.9767 170.934 93.6192 168.634 93.1085 166.369C92.9074 165.476 92.9234 164.905 93.985 164.773C94.8786 164.661 95.6577 164.689 95.8676 165.804C96.2275 167.719 96.5727 169.637 96.9675 171.544C97.1185 172.273 97.2994 173.022 97.6236 173.684C98.332 175.132 99.5112 175.073 100.881 174.671C102.365 174.235 102.119 173.324 101.886 172.216C101.393 169.869 101.036 167.494 100.559 165.143C100.348 164.103 100.684 163.623 101.712 163.42C102.821 163.201 103.158 163.724 103.335 164.693C103.888 167.716 104.509 170.725 105.079 173.745C105.186 174.314 105.334 174.886 104.822 175.427C103.418 176.913 99.0684 177.872 97.1148 177.008Z" fill="#46BA00"/>
<path d="M151.953 158.923C152.443 160.787 151.976 162.395 150.648 163.771C148.808 164.933 146.803 165.4 144.645 165.154C144.032 165.084 143.097 165.283 143.253 164.206C143.366 163.42 143.534 162.561 144.725 162.589C145.925 162.618 147.112 162.408 148.236 161.927C148.872 161.655 149.551 161.388 149.482 160.544C149.407 159.625 148.672 159.284 147.905 159.217C147.171 159.152 146.418 159.335 145.673 159.355C143.827 159.405 142.201 158.992 141.527 157.006C140.843 154.988 141.747 153.438 143.291 152.312C144.646 151.324 146.279 150.971 147.983 151.001C149.086 151.021 149.349 151.611 149.389 152.588C149.432 153.623 148.804 153.646 148.091 153.649C147.108 153.654 146.148 153.747 145.241 154.183C144.481 154.549 144.006 155.076 144.24 155.954C144.464 156.8 145.178 156.779 145.877 156.779C147.139 156.781 148.397 156.437 149.667 156.89C150.732 157.27 151.414 157.995 151.953 158.923Z" fill="#46BA00"/>
<path d="M170.28 145.353C171.254 145.008 172.257 144.727 173.194 144.301C174.058 143.909 174.958 143.812 175.819 143.977C176.869 144.178 178.071 144.762 177.775 145.979C177.461 147.265 176.317 147.224 175.241 146.579C174.374 146.06 173.48 146.137 172.754 146.825C172.114 147.432 171.955 148.233 172.228 149.104C172.676 150.531 173.003 152.005 173.563 153.384C174.459 155.592 176.432 155.813 177.788 153.847C178.361 153.016 178.927 152.641 179.807 153.115C180.667 153.579 180.396 154.405 180.203 155.114C179.703 156.945 178.263 157.756 176.582 158.076C175.064 158.366 173.461 158.203 172.586 156.729C170.931 153.94 170.023 150.84 169.504 147.66C169.389 146.955 169.998 146.13 170.274 145.361L170.28 145.353Z" fill="#46BA00"/>
<path d="M114.156 172.182C119.001 180.932 125.05 188.679 131.781 195.918C132.34 196.52 133.224 197.119 132.482 197.97C131.564 199.021 131.007 197.791 130.543 197.311C124.065 190.608 118.503 183.211 113.729 175.194C112.881 173.771 114.878 173.322 114.156 172.182Z" fill="#273246"/>
<path d="M161.45 140.188C166.003 133.751 166.518 133.776 168.724 132.399C169.265 132.062 169.85 130.911 170.528 131.94C170.946 132.575 169.95 133.709 169.665 134.052C167.424 136.754 161.385 144.682 160.378 146.052C155.99 152.022 153.856 160.394 153.198 160.176C153.161 160.164 152.98 160.071 152.819 159.986C152.658 159.902 152.439 159.77 152.074 159.503C152.284 158.349 152.603 157.025 153.095 155.592C153.631 154.029 154.251 152.689 154.843 151.586C157.198 146.582 159.609 142.79 161.45 140.188Z" fill="#2A3549"/>
<path d="M152.955 209.841C151.921 209.146 152.476 208.6 153.084 208.078C155.055 206.385 156.999 204.658 159.016 203.023C162.433 200.256 165.487 197.126 168.448 193.891C169.098 193.18 169.944 192.649 170.596 191.939C171.093 191.397 171.567 191.189 172.112 191.693C172.758 192.291 172.196 192.73 171.814 193.198C169.073 196.557 165.854 199.447 162.706 202.395C160.321 204.629 157.789 206.711 155.257 208.779C154.624 209.296 153.997 210.113 152.955 209.841Z" fill="#263145"/>
<path d="M144.171 115.98C143.888 116.302 143.641 116.708 143.288 116.968C136.838 121.719 129.935 125.639 122.375 128.34C121.861 128.524 121.158 128.93 120.835 128.156C120.471 127.285 121.016 126.711 121.813 126.441C129.385 123.876 136.099 119.729 142.582 115.155C143.02 114.846 143.483 114.462 144.008 114.761C144.456 115.017 144.327 115.522 144.171 115.98Z" fill="#263246"/>
<path d="M87.0481 168.714C87.7688 169.065 87.6269 169.683 87.7246 170.156C89.1856 177.223 90.611 184.297 92.0678 191.364C92.2029 192.02 92.2844 192.617 91.4663 192.738C90.5184 192.88 90.1841 192.239 90.0204 191.414C89.2549 187.558 88.462 183.708 87.6917 179.853C87.0795 176.79 86.4723 173.726 85.8961 170.656C85.7927 170.105 85.5354 169.446 86.1141 169.007C86.3834 168.803 86.7957 168.788 87.0481 168.714Z" fill="#263145"/>
<path d="M134.697 156.588C135.272 154.813 136.829 154.255 138.392 153.667C139.282 153.331 139.593 153.76 139.849 154.496C140.098 155.211 140.211 155.845 139.288 156.093C136.872 156.743 136.886 158.304 137.548 160.285C138.091 161.908 138.355 163.623 138.841 165.269C139.114 166.193 139.169 166.835 138.039 167.141C137.021 167.417 136.329 167.338 136.036 166.138C135.469 163.819 134.802 161.524 134.224 159.207C133.999 158.303 134.229 157.425 134.697 156.588Z" fill="#46BA00"/>
<path d="M82.343 173.359C82.1943 172.16 82.0456 170.96 81.8967 169.76C82.7648 168.654 82.2258 167.072 83.1894 166.004C85.2684 167.283 84.8498 167.27 84.7692 169.861C84.6976 172.164 85.7383 174.49 86.198 176.823C86.426 177.981 87.882 179.522 85.9539 180.253C83.6703 181.12 84.3852 178.731 83.8476 177.774C83.0828 176.414 83.3104 174.677 82.343 173.359Z" fill="#46BA00"/>
<path d="M89.1498 166.086C90.7085 166.667 91.4379 167.715 91.7545 168.99C92.4393 171.747 92.9637 174.545 93.6667 177.297C93.9448 178.386 93.367 178.562 92.6043 178.823C91.5668 179.179 91.2549 178.584 91.0685 177.767C90.5692 175.578 90.0347 173.396 89.5954 171.195C89.3643 170.037 89.0002 169.043 87.8882 168.459C86.9855 167.985 86.8057 167.034 87.1868 166.33C87.6798 165.421 88.624 165.941 89.1498 166.086Z" fill="#46BA00"/>
<path d="M61.438 128.958C57.5696 126.495 53.4375 123.376 49.9846 119.411C49.6243 118.998 49.4625 118.596 49.8403 118.255C50.3521 117.795 50.8909 117.985 51.4459 118.388C53.3233 119.749 54.767 121.574 56.5495 123.055C58.4686 124.649 60.4549 126.036 62.684 127.111C63.022 127.274 63.3857 127.396 63.6975 127.599C64.5177 128.131 65.552 128.843 65.0053 129.843C64.4672 130.828 63.5837 129.736 62.8523 129.578C62.5651 129.515 62.3018 129.343 61.438 128.958Z" fill="#273347"/>
<path d="M165.657 160.139C166.241 159.683 166.413 159.165 165.71 158.712C164.134 157.698 165.205 157.262 166.139 157.166C167.849 156.991 167.85 156.158 167.343 154.888C167.153 154.413 167.121 153.871 167.044 153.356C166.896 152.374 167.736 152.359 168.31 152.1C168.916 151.825 169.19 152.123 169.525 152.651C170.984 154.95 170.357 157.289 169.272 159.331C168.718 160.374 167.088 160.834 165.658 160.141C165.658 160.141 165.657 160.139 165.657 160.139Z" fill="#46BA00"/>
<path d="M108.557 125.381C108.435 125.667 108.27 125.872 107.922 125.921C107.314 126.008 106.823 125.752 106.646 125.241C105.723 122.572 105.049 119.838 104.705 117.029C104.634 116.449 104.795 115.953 105.437 115.854C106.069 115.758 106.45 116.243 106.545 116.737C107.08 119.509 107.648 122.269 108.563 124.947C108.607 125.076 108.563 125.235 108.557 125.381Z" fill="#283347"/>
<path d="M160.42 160.77C159.799 162.16 158.418 161.968 157.281 162.285C155.432 162.359 154.85 161.19 154.674 159.623C154.645 159.496 154.636 159.368 154.647 159.238C155.433 158.001 156.222 156.947 157.491 158.825C157.651 159.062 158.205 159.245 158.484 159.156C160.029 158.668 160.147 159.791 160.42 160.77Z" fill="#46BA00"/>
<path d="M158.771 149.13C159.022 148.594 159.273 148.059 159.524 147.523C160.317 147.149 161.109 146.773 161.903 146.401C163.057 145.861 163.721 146.227 163.9 147.485C163.9 147.485 163.899 147.493 163.899 147.493C162.224 148.51 161.035 150.19 159.212 150.981C158.487 150.472 159.169 149.68 158.771 149.13Z" fill="#46BA00"/>
<path d="M110.392 169.073C111.224 169.037 112.275 167.556 112.816 169.436C112.978 170 113.942 170.546 113.11 171.13C112.295 171.701 111.565 171.225 111.094 170.433C110.833 169.996 110.624 169.527 110.391 169.072C110.391 169.073 110.392 169.073 110.392 169.073Z" fill="#2E394C"/>
<path d="M86.4834 63.0866C86.2696 60.8099 85.6279 58.5809 85.7605 56.2637C85.8004 55.5672 85.8361 54.8124 86.4713 54.4705C87.1758 54.0913 87.4479 54.956 87.8864 55.2715C91.0724 57.5641 94.4306 56.7934 97.7139 55.7177C102.597 54.1178 106.359 51.1307 108.455 46.286C109.346 44.2271 110.279 42.1864 111.319 39.8548C112.566 41.7971 113.701 43.5634 114.832 45.3325C114.869 45.3915 114.84 45.5008 114.883 45.5478C115.747 46.4806 116.515 48.379 117.891 47.484C119.145 46.6684 116.956 45.8016 116.957 44.7201C116.854 43.5368 116.596 42.3146 117.785 41.4595C119.608 41.5472 120.919 42.6768 122.28 43.693C124.511 45.359 126.97 46.5222 129.697 47.1006C130.186 46.9893 130.665 46.9607 131.091 47.2937C133.695 50.2559 134.273 53.9073 134.296 57.6235C134.337 64.6922 134.146 71.7574 133.243 78.7897C132.645 83.4526 130.573 87.2989 127.171 90.466C123.529 93.857 119.707 97.0512 115.329 99.4293C112.809 100.798 109.983 100.932 107.413 99.4336C101.148 95.781 95.2916 91.6273 91.6769 85.0661C90.8931 83.6435 90.3466 82.0897 89.6908 80.5963C89.5078 79.4123 90.2368 79.4 91.0608 79.5407C92.3228 79.7564 93.511 80.2201 94.6323 80.8059C96.129 81.5879 97.1443 81.1719 97.9865 79.789C98.5302 78.8963 98.961 77.9329 99.591 77.0983C100.163 76.3411 100.639 75.4112 101.811 75.4507C103.314 75.843 104.256 77.3737 106.043 77.647C105.756 76.8445 105.096 76.7644 104.699 76.395C103.394 75.1804 102.926 73.7996 103.909 72.1886C105.276 69.9487 105.148 67.4336 105.217 64.9868C105.257 63.5479 104.564 63.9627 103.986 64.7741C103.781 65.0007 103.523 65.3103 103.259 65.2317C100.001 64.264 96.4262 63.9952 94.0035 61.1429C94.0067 59.8173 95.0439 59.9267 95.8874 59.8304C96.6729 59.7407 97.5063 60.0373 98.3368 59.5583C95.4504 58.3597 90.8863 59.2552 89.164 61.3021C88.984 62.1277 88.5534 62.8068 87.9696 63.3994C87.3086 64.0704 86.8289 63.9006 86.4834 63.0866Z" fill="#F9BFC0"/>
<path d="M48.7066 203.415C53.915 205.608 59.4759 206.567 64.9084 207.955C68.4955 208.871 71.4097 210.785 73.5694 213.609C76.4066 217.32 80.2688 218.436 84.5561 218.723C86.9941 218.886 89.4545 218.868 91.8967 218.755C93.0627 218.7 93.4037 218.972 93.5329 220.15C94.0834 225.168 92.8669 229.8 90.7473 234.279C90.2992 235.226 89.6644 235.349 88.73 235.064C82.1444 233.055 75.5185 231.221 68.7207 230.027C64.1634 229.227 59.5638 228.474 54.9734 228.601C50.0907 228.736 45.7242 227.064 41.1917 225.872C39.9605 225.548 38.7417 225.172 37.5014 224.889C31.7283 223.572 29.3166 219.139 27.6048 214.118C26.9025 212.059 25.9717 209.954 27.1588 207.184C27.5051 211.575 28.7657 215.138 30.937 218.386C31.5046 219.235 32.2029 219.842 33.102 220.251C38.2527 222.592 43.6724 224.019 49.2445 224.878C49.9288 224.983 51.0896 225.506 51.2943 224.26C51.4993 223.013 50.2287 223.159 49.5597 223.056C45.5428 222.441 41.7371 221.011 37.8074 220.117C33.3384 219.099 31.3742 215.984 29.8942 212.181C29.4871 211.134 29.2173 210.06 29.2182 208.943C29.2188 208.173 29.4107 207.301 30.2603 207.149C31.0131 207.014 31.637 207.504 32.03 208.261C33.0925 210.304 33.8924 212.488 35.2599 214.372C35.6544 214.916 35.9196 215.601 36.6497 215.764C41.854 216.927 46.999 218.635 52.3488 216.055C54.2071 215.159 55.4316 213.442 57.5433 212.804C58.5521 212.5 57.2898 211.572 56.5739 211.267C53.3989 209.914 50.2014 208.613 47.0362 207.238C45.5928 206.611 44.2044 205.857 42.7926 205.158C42.0526 204.791 41.1913 204.255 41.4164 203.426C41.6788 202.46 42.6603 202.267 43.6336 202.559C45.4293 202.227 46.9954 203.248 48.7066 203.415Z" fill="#F9BEC0"/>
<path d="M91.4815 21.1383C91.0798 22.1422 90.4768 22.7157 89.602 23.1322C85.1697 25.2428 82.1615 28.9876 79.0349 32.5718C78.5781 33.0953 77.6462 33.8969 78.6722 34.6514C79.5785 35.3179 80.0074 34.2164 80.4363 33.7532C82.6633 31.3479 84.8306 28.8993 87.3788 26.8051C90.1388 24.537 93.3951 23.7752 96.8028 23.45C97.567 23.3771 98.6753 23.4464 98.8524 24.3879C99.0258 25.3094 97.9972 25.4716 97.3028 25.6984C91.4676 27.6051 87.0617 31.6266 82.6112 35.5959C82.017 36.1259 81.7096 36.6588 82.2148 37.2894C82.8467 38.0782 83.4432 37.4256 83.9218 37.0136C85.8363 35.3657 87.7894 33.7525 89.5924 31.9875C92.369 29.2693 98.1704 30.0123 100.116 33.3979C100.312 33.7386 100.532 33.9789 100.343 34.3832C100.055 35.0008 99.5503 34.7857 99.2097 34.5823C95.5574 32.4002 92.7832 33.8805 90.036 36.4764C88.9237 37.5274 87.5387 38.3591 86.3962 39.4324C86.0288 39.7777 85.6875 40.2973 86.1199 40.8286C86.6086 41.4291 87.1927 41.2584 87.6925 40.8361C88.3185 40.3072 88.8296 39.6164 89.5085 39.1802C92.7491 37.0978 93.5633 36.5531 96.2546 39.5171C96.5013 39.7888 96.7234 40.1068 96.8698 40.4416C97.4236 41.7086 98.704 43.4386 97.3221 44.2738C95.827 45.1774 95.4248 43.0132 94.6737 42.0314C94.3231 41.5732 94.0905 40.8757 93.3671 40.9439C92.5799 41.0181 92.6768 41.7391 92.5109 42.298C91.8816 44.4185 89.7909 45.3679 88.5993 47.1095C86.0813 50.7897 83.9143 54.621 82.135 58.6886C80.8036 61.7323 78.6893 63.9494 75.4151 64.728C73.1495 65.2667 72.0921 67.1709 70.6798 68.5973C67.3871 71.9228 64.2971 75.4517 61.1736 78.9418C60.1904 80.0405 59.4161 80.2684 58.2289 79.1421C54.5616 75.663 52.1841 71.4906 50.9528 66.5969C50.6757 65.4954 51.3638 65.3523 51.9805 64.9713C55.9521 62.5179 59.9284 60.0717 63.8771 57.5817C65.7598 56.3944 67.148 54.7597 67.9193 52.6393C69.2545 48.9691 70.8634 45.3716 71.8591 41.6119C73.0294 37.1929 75.6649 33.8242 78.7075 30.7203C81.9327 27.4301 85.3958 24.3727 88.7796 21.2404C89.209 20.8429 89.7982 20.6231 90.2932 20.2908C90.7279 19.9991 91.1802 19.539 91.6635 20.0486C92.0375 20.443 91.5132 20.854 91.4815 21.1383Z" fill="#F9BEC0"/>
<path d="M141.665 57.2065C141.81 54.8301 142.157 52.4603 142.198 50.0843C142.281 45.219 141.901 40.4505 139.345 36.0755C136.786 31.6951 133.356 28.3183 129.2 25.3974C124.024 21.7597 118.528 20.4092 112.362 21.3613C110.937 21.5812 110.674 22.2987 111.442 23.4583C113.543 26.6267 113.25 30.087 112.638 33.571C112.432 34.748 112.061 35.9212 112.524 37.0865C112.574 37.2104 112.626 37.3331 112.676 37.4567C112.878 37.4355 113.091 37.4356 113.319 37.4666C114.912 37.6837 115.606 38.9862 116.526 40.1074C116.799 40.1109 117.049 40.1317 117.287 40.1758C116.666 39.3834 115.788 38.7651 115.354 37.7774C119.683 42.0019 125.31 44.1389 130.23 47.3939C130.517 47.3605 130.804 47.3272 131.091 47.2938C130.543 45.5184 129.17 44.3408 128.027 42.9887C127.636 42.5255 127.065 41.9216 128.008 41.3623C128.6 41.011 128.975 41.0067 129.494 41.6435C131.313 43.8768 132.981 46.1738 134.316 48.756C135.972 51.9586 136.198 55.4001 136.336 59.1749C137.722 58.3894 138.916 58.2179 140.2 58.5805C141.309 58.8936 141.605 58.2053 141.665 57.2065Z" fill="#725673"/>
<path d="M133.818 84.5533C136.279 89.3293 138.532 93.7288 140.814 98.1135C141.459 99.3518 140.564 100.079 139.96 100.875C136.864 104.957 132.705 107.652 128.124 109.729C123.574 111.793 118.847 113.169 113.789 113.257C112.356 113.282 111.7 113.059 111.539 111.414C111.279 108.762 110.665 106.142 110.142 103.521C110.035 102.986 109.701 102.331 110.533 102.381C115.537 102.682 118.966 99.4789 122.566 96.8555C127.029 93.6045 131.123 89.9106 133.818 84.5533Z" fill="#F9BEC0"/>
<path d="M91.7983 46.5239C92.2055 48.2012 92.5322 49.6448 92.9131 51.0739C93.0992 51.7722 93.5162 52.3812 94.3427 52.1746C95.3382 51.9257 94.927 51.2181 94.7826 50.5481C94.3815 48.6858 93.6466 46.8723 93.7506 44.9465C94.2188 44.7924 94.455 44.9666 94.596 45.2475C95.1711 46.3927 96.1743 46.9636 97.3489 46.7307C98.526 46.4972 99.3235 45.4931 99.4855 44.3368C99.8089 42.0292 100.774 43.1252 101.557 43.9036C102.125 44.4692 102.483 45.5325 103.433 44.6082C104.418 43.6506 103.506 42.9905 102.782 42.4952C99.9581 40.5629 97.5397 38.1702 95.0281 35.7109C95.8938 34.8253 96.6686 35.6727 97.3983 35.9221C99.2016 36.5384 100.934 37.3741 102.279 35.0577C102.639 34.4364 103.623 34.5058 104.359 34.5713C105.177 34.644 105.983 34.8456 106.799 34.9596C107.662 35.0802 108.676 34.9892 108.747 34.0107C108.827 32.899 107.709 33.0118 106.915 32.9242C104.872 32.6986 102.679 33.2564 100.97 31.4372C100.159 30.5735 100.304 30.1095 101.11 29.4859C102.762 28.209 104.485 27.0402 106.397 26.2043C107.312 25.8044 108.148 25.2756 107.687 24.2779C107.209 23.2408 106.362 24.1512 105.77 24.3937C103.405 25.3626 101.359 26.8467 99.3859 28.4647C97.8682 29.7096 97.8138 29.643 96.2732 28.4492C101.839 24.783 101.965 24.5235 99.5688 21.6914C105.172 18.8475 111.588 23.0755 111.166 29.6183C110.701 36.8285 108.81 43.6648 104.104 49.426C100.987 53.2412 96.5733 54.3316 92.0314 54.9445C90.8325 55.1062 89.5385 54.324 88.6365 53.3816C87.9529 52.6673 87.6001 51.8849 88.4046 50.8044C89.425 49.434 90.0898 47.7979 91.7983 46.5239Z" fill="#80A3C3"/>
<path d="M86.4842 63.0878C88.2331 63.4055 88.3885 62.1636 88.5724 60.9495C89.7482 61.0734 90.8608 60.8731 91.9755 60.4585C92.6688 60.2007 93.485 59.7295 94.1474 60.6041C95.1621 62.3486 96.9426 62.6226 98.6821 63.0933C99.8968 63.4219 101.042 64.0413 102.18 64.6087C103.036 65.0361 103.591 64.8813 103.942 63.9941C104.458 63.9568 104.613 64.3506 104.585 64.7049C104.425 66.7189 104.679 68.8639 103.892 70.7013C103.158 72.4145 102.474 74.0995 102.113 75.9204C100.661 75.6325 100.582 77.0927 99.8848 77.7405C99.4773 78.1192 99.4218 78.8509 99.0725 79.3236C96.4626 82.8563 97.5414 82.7197 93.7551 81.11C92.4623 80.5604 91.1934 79.5965 89.6916 80.5975C87.6637 74.9382 87.2539 68.9798 86.4842 63.0878Z" fill="#F9BFC0"/>
<path d="M141.206 67.9566C140.167 70.402 138.401 72.4784 137.093 74.8301C136.914 75.1516 136.716 75.5015 136.249 75.3705C135.802 75.2449 135.78 74.9097 135.797 74.4986C135.957 70.7255 136.055 66.9494 136.257 63.1787C136.351 61.4169 137.879 59.9468 139.394 60.1317C141.233 60.3563 142.058 61.6801 142.218 63.3695C142.368 64.9529 141.97 66.4831 141.206 67.9566Z" fill="#F7BEC0"/>
<path d="M154.675 159.623C155.402 160.65 156.038 161.766 157.282 162.286C155.868 164.427 153.232 165.258 151.775 167.655C151.424 164.308 153.233 162.033 154.675 159.623Z" fill="#46BA00"/>
<path d="M129.8 161.928C128.441 162.758 126.94 162.915 125.52 163.269C125.017 163.394 124.889 162.759 124.812 162.31C124.652 161.37 125.067 160.718 125.868 160.291C126.887 159.747 127.93 159.333 129.015 160.132C129.606 160.568 129.752 161.196 129.8 161.928Z" fill="#46BA00"/>
<path d="M117.94 41.5787C116.847 40.583 115.77 39.5693 114.655 38.5992C114.092 38.1094 113.613 37.5388 114.25 36.9272C114.716 36.4795 115.211 36.5442 115.905 37.1584C119.247 40.1141 122.717 42.9224 126.91 44.6672C128.258 45.2283 129.683 45.8077 130.231 47.395C129.609 48.4886 128.843 47.8358 128.119 47.5611C124.387 46.1454 121.25 43.7154 117.94 41.5787Z" fill="#232E42"/>
<path d="M102.115 75.9207C101.609 74.2573 101.954 72.9051 102.899 71.3354C104.207 69.1627 103.871 66.4905 103.943 63.9943C104.027 63.1788 104.727 63.1299 105.229 63.1979C105.802 63.2757 106.006 63.9641 105.953 64.441C105.65 67.2105 105.986 70.0961 104.291 72.6155C103.33 74.0441 103.99 75.6443 105.755 76.3811C106.451 76.6715 107.43 76.756 107.052 77.7639C106.641 78.8627 105.63 78.3714 104.938 78.0607C103.854 77.5735 102.88 76.8659 102.115 75.9207Z" fill="#212D41"/>
<path d="M119.471 76.2628C118.643 72.5518 117.323 75.7652 116.194 76.0896C115.654 76.2448 115.343 76.1442 115.052 75.7348C114.73 75.2822 114.861 74.874 115.228 74.5424C116.159 73.6998 117.069 72.8263 118.068 72.0699C118.649 71.629 119.468 71.5662 119.774 72.3892C120.692 74.854 121.839 73.3157 122.911 72.608C123.338 72.3255 123.631 71.8426 124.049 71.5389C124.524 71.1939 125.049 71.2246 125.451 71.7039C125.768 72.0811 125.906 72.6425 125.527 72.9273C123.866 74.1785 122.338 75.6639 120.26 76.2521C120.056 76.3098 119.823 76.2615 119.471 76.2628Z" fill="#F9BFC0"/>
<path d="M104.27 88.1537C104.079 87.861 103.743 87.5693 103.714 87.2494C103.668 86.733 104.178 86.5606 104.576 86.3501C106.664 85.2469 108.942 84.9827 111.224 85.079C112.925 85.1508 114.613 85.5818 116.303 85.8708C117.087 86.0049 117.534 86.5396 117.424 87.294C117.323 87.9802 116.756 88.265 116.073 88.0387C112.442 86.836 108.829 86.4817 105.218 88.1376C104.97 88.251 104.627 88.1532 104.27 88.1537Z" fill="#2E374A"/>
<path d="M111.377 56.5665C110.846 56.3486 110.174 56.1275 110.391 55.3589C110.626 54.5275 111.3 54.8312 111.889 54.9028C115.143 55.2982 118.153 56.853 121.487 56.8946C122.15 56.9029 122.982 57.0888 122.889 57.9923C122.788 58.971 121.769 59.1222 121.151 58.9682C117.897 58.1571 114.468 58.0667 111.377 56.5665Z" fill="#30384B"/>
<path d="M94.1485 60.6042C92.9314 60.3685 91.8695 60.9381 90.8497 61.4041C89.8794 61.8475 89.2058 61.7399 88.5735 60.9496C89.943 58.5712 92.5153 59.0261 94.6181 58.4734C95.7134 58.1855 96.955 58.4125 98.1261 58.4806C98.7095 58.5145 99.4072 58.6516 99.4625 59.3927C99.5288 60.2804 98.7456 60.5849 98.1124 60.5481C96.7838 60.4708 95.4679 60.255 94.1485 60.6042Z" fill="#2A3346"/>
<path d="M119.078 67.4C118.649 68.3195 118.029 69.1823 116.938 68.9302C115.882 68.6864 115.285 65.6814 115.934 64.2692C116.336 63.3949 116.81 62.3921 118.038 62.7993C119.236 63.1966 119.785 65.8673 119.078 67.4Z" fill="#273246"/>
<path d="M98.586 69.6617C98.157 70.5813 97.537 71.444 96.4455 71.1919C95.3898 70.9481 94.7928 67.9431 95.442 66.5309C95.844 65.6566 96.3175 64.6538 97.5457 65.061C98.7443 65.4583 99.293 68.129 98.586 69.6617Z" fill="#273246"/>
<path d="M132.041 31.7317C131.586 32.3581 131.033 32.4282 130.288 32.1789C126.765 30.9992 123.152 30.2468 119.43 30.0683C118.724 30.0344 118.287 29.6832 118.374 28.9346C118.473 28.0908 119.059 27.838 119.813 27.9633C122.079 28.3401 124.353 28.6861 126.599 29.1589C127.975 29.4485 129.254 30.089 130.723 30.1012C131.603 30.1085 132.299 30.6193 132.041 31.7317Z" fill="#232E42"/>
<path d="M83.502 159.941L74.0167 210.444" stroke="#232E42" stroke-width="5" stroke-miterlimit="10"/>
</g>
<defs>
<clipPath id="clip0_641_1255">
<rect width="203.646" height="223.653" fill="white" transform="translate(51.0996 -12) rotate(24.0369)"/>
</clipPath>
</defs>
</svg>
