<svg width="251" height="251" viewBox="0 0 251 251" fill="none" xmlns="http://www.w3.org/2000/svg">
<path d="M80.9933 9.60436L80.4415 8.30526L72.7373 11.5645L73.2891 12.8636L76.4048 11.5456L79.8099 19.5628L81.2953 18.9343L77.8905 10.9171L80.9933 9.60436Z" fill="#737373"/>
<path d="M94.2555 14.3841L93.8279 13.0392L88.7238 14.6549L87.7869 11.7072L92.1016 10.341L91.7001 9.0777L87.3854 10.4438L86.5132 7.69953L91.495 6.12271L91.0675 4.77775L84.5616 6.83726L87.6269 16.4826L94.2555 14.3841Z" fill="#737373"/>
<path d="M107.763 11.4089L105.773 1.48684L104.093 1.82245L102.019 8.54471L97.5122 3.13704L95.8322 3.47265L97.8219 13.3947L99.39 13.0816L97.9578 5.94051L102.011 10.7557L102.879 10.5821L104.749 4.58385L106.181 11.7249L107.763 11.4089Z" fill="#737373"/>
<path d="M113.691 10.7336L112.99 2.05399L117.972 1.6529L118.673 10.3325L120.282 10.2028L119.466 0.116891L111.268 0.777035L112.083 10.863L113.691 10.7336Z" fill="#737373"/>
<path d="M131.621 8.83572L126.267 8.7364L126.325 5.64413L130.851 5.72827L130.875 4.40324L126.35 4.3191L126.403 1.44066L131.629 1.53777L131.655 0.127013L124.83 0.000488281L124.642 10.1174L131.595 10.2465L131.621 8.83572Z" fill="#737373"/>
<path d="M142.805 2.20518C142.565 1.868 142.264 1.58331 141.902 1.35146C141.541 1.11992 141.132 0.978842 140.678 0.927915L136.449 0.455661L135.322 10.5115L136.911 10.689L137.303 7.19058L140.028 7.49519C140.482 7.5458 140.906 7.49993 141.301 7.35759C141.695 7.21525 142.042 7.00554 142.341 6.72813C142.64 6.45104 142.885 6.12461 143.076 5.74915C143.267 5.37368 143.386 4.97323 143.433 4.54842C143.479 4.1426 143.446 3.73487 143.333 3.32556C143.221 2.91625 143.045 2.54301 142.805 2.20518ZM141.816 4.36781C141.785 4.64174 141.719 4.88751 141.618 5.10577C141.517 5.32371 141.39 5.51065 141.239 5.66564C141.087 5.82095 140.914 5.93545 140.719 6.00915C140.524 6.08317 140.313 6.10721 140.086 6.08191L137.461 5.78868L137.882 2.03532L140.422 2.31906C140.63 2.34215 140.826 2.40952 141.01 2.52086C141.194 2.63252 141.352 2.77929 141.485 2.96117C141.618 3.14337 141.714 3.35245 141.774 3.58873C141.833 3.8247 141.847 4.08439 141.816 4.36781Z" fill="#737373"/>
<path d="M148.393 9.57905L152.22 10.391L152.695 13.3039L154.343 13.6535L152.54 2.92606L151.172 2.63568L145.124 11.6977L146.787 12.0504L148.393 9.57905ZM151.473 4.57942L152.16 9.1688L148.919 8.48145L151.473 4.57942Z" fill="#737373"/>
<path d="M167.24 8.51087L167.668 7.16622L159.693 4.63794L159.265 5.98258L162.49 7.00522L159.849 15.3043L161.387 15.7917L164.028 7.49266L167.24 8.51087Z" fill="#737373"/>
<path d="M177.304 11.0815L172.652 15.47L172.456 9.02013L170.867 8.34385L171.308 16.7268C170.926 17.112 170.596 17.3404 170.316 17.4128C170.037 17.4853 169.757 17.4615 169.477 17.3423C169.311 17.2718 169.149 17.1772 168.993 17.0589C168.836 16.9409 168.708 16.8292 168.608 16.7249L167.964 17.9069C168.08 18.0701 168.246 18.2207 168.461 18.3589C168.676 18.4968 168.871 18.6031 169.047 18.6775C169.327 18.7967 169.597 18.8622 169.855 18.8742C170.114 18.8862 170.382 18.8404 170.66 18.736C170.937 18.6319 171.228 18.4719 171.532 18.2552C171.837 18.0388 172.175 17.7617 172.547 17.4239L178.854 11.7407L177.304 11.0815Z" fill="#737373"/>
<path d="M187.621 20.0771C187.817 19.7184 187.94 19.3284 187.991 18.9071C188.042 18.4858 188.02 18.0736 187.925 17.6706C187.83 17.2677 187.66 16.8909 187.412 16.5401C187.164 16.1893 186.84 15.9047 186.439 15.6867L182.701 13.6566L177.855 22.5444L179.259 23.3073L180.945 20.2154L183.354 21.5233C183.755 21.7416 184.165 21.8586 184.584 21.8754C185.003 21.8921 185.403 21.8286 185.786 21.6843C186.167 21.5404 186.518 21.3304 186.836 21.0542C187.154 20.7784 187.416 20.4526 187.621 20.0771ZM186.447 18.5633C186.413 18.8043 186.328 19.0501 186.191 19.3006C186.059 19.5426 185.905 19.7453 185.729 19.9095C185.553 20.0733 185.365 20.1986 185.167 20.2853C184.967 20.3719 184.764 20.4127 184.555 20.4077C184.347 20.4026 184.142 20.3454 183.941 20.2366L181.621 18.9761L183.43 15.6589L185.675 16.8783C185.859 16.9782 186.015 17.1146 186.143 17.2866C186.271 17.4593 186.362 17.6548 186.417 17.8734C186.471 18.092 186.481 18.3219 186.447 18.5633Z" fill="#737373"/>
<path d="M186.488 27.3374L187.894 28.2899L190.316 26.6061L193.554 28.7988L192.892 31.675L194.286 32.6192L196.671 22.0057L195.513 21.2212L186.488 27.3374ZM193.959 27.644L191.218 25.7872L195.058 23.1346L193.959 27.644Z" fill="#737373"/>
<path d="M207.985 30.7434L201.287 38.34L202.488 39.3945L209.185 31.7979L207.985 30.7434Z" fill="#737373"/>
<path d="M214.201 44.646L217.569 48.4835L214.207 51.423L215.271 52.6345L222.897 45.9667L221.833 44.7552L218.644 47.5444L215.275 43.7069L218.465 40.9177L217.411 39.717L209.785 46.3848L210.839 47.5855L214.201 44.646Z" fill="#737373"/>
<path d="M221.986 61.7551L223.138 60.9368L220.032 56.583L222.557 54.7895L225.182 58.4698L226.264 57.7012L223.638 54.0206L225.988 52.3511L229.019 56.6001L230.171 55.7818L226.212 50.2324L217.953 56.1013L221.986 61.7551Z" fill="#737373"/>
<path d="M223.456 63.7301L224.33 65.3158L229.554 65.684L230.325 67.0821L226.472 69.1988L227.298 70.6969L231.151 68.5804L231.922 69.9789L229.439 74.5799L230.32 76.1783L233.218 70.5849L239.044 71.0122L238.156 69.4016L233.089 69.1099L232.414 67.8865L236.18 65.8181L235.354 64.3197L231.588 66.3881L230.92 65.1769L233.378 60.7365L232.496 59.1382L229.734 64.2672L223.456 63.7301Z" fill="#737373"/>
<path d="M231.971 80.296L240.972 82.5716L233.978 85.3428L234.573 86.8396L243.997 83.1061L243.527 81.9272L234.361 79.6248L241.488 76.8011L240.893 75.304L231.47 79.0377L231.971 80.296Z" fill="#737373"/>
<path d="M236.587 93.3224L237.025 94.8723L245.422 92.5079L246.338 95.745L247.698 95.3616L245.426 87.3238L244.065 87.7072L244.984 90.9579L236.587 93.3224Z" fill="#737373"/>
<path d="M239.335 105.085C239.423 105.561 239.574 105.99 239.789 106.371C240.004 106.752 240.273 107.07 240.595 107.325C240.918 107.58 241.294 107.757 241.724 107.858C242.153 107.958 242.63 107.96 243.155 107.864C243.67 107.77 244.108 107.6 244.47 107.356C244.831 107.111 245.118 106.815 245.33 106.467C245.542 106.119 245.68 105.724 245.744 105.283C245.808 104.841 245.796 104.377 245.707 103.892L245.337 101.873L248.932 101.216L248.642 99.6315L238.669 101.454L239.335 105.085ZM244.016 102.114L244.376 104.077C244.486 104.674 244.402 105.164 244.123 105.543C243.844 105.922 243.424 106.163 242.862 106.266C242.3 106.369 241.824 106.296 241.435 106.049C241.046 105.801 240.795 105.368 240.682 104.752L240.322 102.789L244.016 102.114Z" fill="#737373"/>
<path d="M249.594 134.617L249.235 137.976L240.56 137.052L240.389 138.653L249.064 139.577L248.706 142.922L250.112 143.071L251 134.767L249.594 134.617Z" fill="#737373"/>
<path d="M238.08 152.185L239.466 152.465L240.528 147.226L243.565 147.84L242.667 152.268L243.969 152.531L244.866 148.103L247.693 148.674L246.657 153.786L248.042 154.066L249.396 147.389L239.459 145.382L238.08 152.185Z" fill="#737373"/>
<path d="M236.73 157.294L243.681 159.511L237.495 160.71L237.226 161.552L241.572 166.095L234.622 163.878L234.131 165.412L243.788 168.492L244.31 166.863L239.428 161.79L246.353 160.483L246.874 158.854L237.216 155.774L236.73 157.294Z" fill="#737373"/>
<path d="M231.852 170.888L239.794 174.494L237.725 179.034L229.783 175.429L229.115 176.895L238.343 181.085L241.749 173.613L232.521 169.423L231.852 170.888Z" fill="#737373"/>
<path d="M223.559 186.745L224.781 187.456L227.478 182.839L230.155 184.397L227.875 188.3L229.022 188.967L231.302 185.064L233.794 186.515L231.161 191.02L232.383 191.731L235.821 185.846L227.062 180.749L223.559 186.745Z" fill="#737373"/>
<path d="M220.575 191.161L223.443 193.211L221.846 195.435C221.58 195.806 221.413 196.198 221.345 196.611C221.277 197.024 221.291 197.428 221.387 197.825C221.484 198.22 221.65 198.593 221.885 198.943C222.12 199.292 222.412 199.591 222.76 199.84C223.093 200.078 223.466 200.248 223.879 200.35C224.291 200.452 224.704 200.481 225.116 200.437C225.528 200.393 225.924 200.269 226.303 200.068C226.682 199.865 227.005 199.579 227.271 199.208L229.749 195.755L221.507 189.863L220.575 191.161ZM227.668 196.231L226.18 198.305C226.058 198.475 225.904 198.613 225.716 198.719C225.529 198.824 225.323 198.891 225.099 198.918C224.875 198.944 224.646 198.926 224.41 198.863C224.174 198.8 223.94 198.685 223.708 198.519C223.484 198.359 223.301 198.181 223.159 197.987C223.018 197.792 222.916 197.591 222.855 197.383C222.793 197.176 222.778 196.969 222.808 196.763C222.839 196.557 222.921 196.361 223.054 196.176L224.592 194.032L227.668 196.231Z" fill="#737373"/>
<path d="M214.564 199.099L215.942 201.704L213.366 204.643L210.586 203.636L209.477 204.901L219.739 208.562L220.661 207.511L215.683 197.823L214.564 199.099ZM218.814 206.826L214.464 205.186L216.646 202.698L218.814 206.826Z" fill="#737373"/>
<path d="M211.321 215.249L205.342 208.908L204.167 210.012L210.146 216.353L207.692 218.658L208.661 219.686L214.755 213.962L213.786 212.935L211.321 215.249Z" fill="#737373"/>
<path d="M198.412 217.007C198.485 216.729 198.641 216.496 198.881 216.309C199.024 216.199 199.185 216.103 199.365 216.025C199.544 215.945 199.705 215.887 199.845 215.851L199.122 214.714C198.922 214.737 198.71 214.809 198.485 214.93C198.259 215.05 198.071 215.169 197.921 215.286C197.681 215.472 197.492 215.676 197.356 215.896C197.22 216.116 197.13 216.372 197.087 216.664C197.043 216.957 197.043 217.288 197.084 217.659C197.126 218.03 197.205 218.46 197.32 218.948L199.236 227.21L200.566 226.178L198.98 219.988L204.725 222.949L206.089 221.891L198.532 218.206C198.38 217.686 198.34 217.286 198.412 217.007Z" fill="#737373"/>
<path d="M188.913 221.948L190.805 224.92L188.491 226.387C188.106 226.632 187.804 226.933 187.586 227.291C187.368 227.648 187.23 228.029 187.171 228.432C187.112 228.835 187.126 229.243 187.214 229.655C187.301 230.066 187.46 230.453 187.689 230.814C187.909 231.159 188.191 231.455 188.535 231.704C188.88 231.952 189.252 232.133 189.651 232.246C190.05 232.359 190.463 232.392 190.89 232.346C191.318 232.3 191.724 232.155 192.11 231.91L195.701 229.632L190.263 221.093L188.913 221.948ZM193.593 229.298L191.436 230.666C191.259 230.778 191.064 230.848 190.851 230.877C190.638 230.905 190.422 230.89 190.204 230.831C189.987 230.772 189.78 230.67 189.585 230.523C189.39 230.376 189.216 230.183 189.063 229.942C188.915 229.71 188.812 229.477 188.754 229.244C188.695 229.01 188.677 228.786 188.697 228.57C188.718 228.354 188.781 228.157 188.886 227.977C188.992 227.798 189.141 227.647 189.334 227.524L191.564 226.11L193.593 229.298Z" fill="#737373"/>
<path d="M180.355 227.073L180.655 230.003L177.164 231.765L174.964 229.793L173.461 230.552L181.603 237.781L182.852 237.151L181.871 226.307L180.355 227.073ZM177.979 232.679L180.935 231.187L181.397 235.825L177.979 232.679Z" fill="#737373"/>
<path d="M165.044 233.883L163.537 234.417L166.931 243.952L168.438 243.418L165.044 233.883Z" fill="#737373"/>
<path d="M152.32 237.705L153.252 242.067L148.252 243.131L147.321 238.768L145.742 239.104L147.857 249L149.435 248.665L148.55 244.525L153.55 243.461L154.434 247.601L155.999 247.268L153.885 237.372L152.32 237.705Z" fill="#737373"/>
<path d="M134.492 240.501L134.645 241.903L139.969 241.324L140.305 244.398L135.805 244.888L135.949 246.206L140.449 245.715L140.762 248.577L135.566 249.143L135.72 250.546L142.505 249.807L141.405 239.748L134.492 240.501Z" fill="#737373"/>
<path d="M130.253 240.859L127.341 245.202L125.741 245.176L125.813 240.787L124.099 240.76L124.028 245.148L122.429 245.122L119.659 240.687L117.831 240.658L121.259 245.945L117.996 250.781L119.837 250.81L122.606 246.565L124.005 246.588L123.935 250.877L125.648 250.905L125.718 246.615L127.103 246.638L129.746 250.971L131.573 251L128.483 246.062L132.066 240.888L130.253 240.859Z" fill="#737373"/>
<path d="M107.028 246.923L107.997 239.475L106.397 239.267L105.091 249.302L106.351 249.465L112.819 242.586L111.831 250.176L113.432 250.383L114.738 240.349L113.393 240.174L107.028 246.923Z" fill="#737373"/>
<path d="M99.739 237.879L98.1686 237.509L96.1646 245.984L92.8847 245.212L92.5602 246.585L100.704 248.503L101.029 247.13L97.735 246.354L99.739 237.879Z" fill="#737373"/>
<path d="M86.7582 234.34C86.3199 234.343 85.911 234.424 85.5311 234.581C85.1514 234.739 84.8132 234.981 84.5169 235.307C84.2206 235.633 83.987 236.049 83.8165 236.553C83.6488 237.048 83.5845 237.513 83.6235 237.947C83.6624 238.381 83.7829 238.775 83.9844 239.129C84.1863 239.483 84.4652 239.795 84.8205 240.066C85.1764 240.336 85.5887 240.55 86.0575 240.708L88.0056 241.365L86.8358 244.821L88.3647 245.337L91.6091 235.75L88.1051 234.569C87.645 234.414 87.1962 234.338 86.7582 234.34ZM88.4354 240.096L86.5411 239.457C85.9643 239.262 85.577 238.952 85.3799 238.524C85.1831 238.097 85.1758 237.613 85.3586 237.073C85.5415 236.533 85.8356 236.153 86.2416 235.934C86.6473 235.714 87.1477 235.705 87.7429 235.906L89.6372 236.544L88.4354 240.096Z" fill="#737373"/>
<path d="M58.2125 219.144L53.1679 226.249L50.4186 224.305L49.6012 225.456L56.4285 230.284L57.2458 229.133L54.4847 227.18L59.529 220.076L58.2125 219.144Z" fill="#737373"/>
<path d="M47.512 210.536L46.5916 211.607L50.6553 215.087L48.6374 217.434L45.2022 214.492L44.3373 215.498L47.7725 218.44L45.8941 220.625L41.928 217.228L41.0074 218.299L46.1872 222.735L52.7895 215.056L47.512 210.536Z" fill="#737373"/>
<path d="M43.706 206.878L38.3848 211.861L40.3434 205.884L39.7378 205.239L33.6461 206.82L38.9673 201.837L37.8634 200.663L30.4698 207.586L31.6421 208.834L38.4577 207.044L36.2344 213.718L37.4067 214.966L44.8004 208.042L43.706 206.878Z" fill="#737373"/>
<path d="M34.1538 195.993L27.1405 201.173L24.1674 197.163L31.1807 191.983L30.221 190.689L22.0712 196.708L26.964 203.307L35.1134 197.288L34.1538 195.993Z" fill="#737373"/>
<path d="M24.2941 181.081L23.0794 181.802L25.8176 186.395L23.1548 187.977L20.8399 184.094L19.6987 184.772L22.0135 188.655L19.5348 190.127L16.8622 185.644L15.6474 186.366L19.1377 192.22L27.8504 187.046L24.2941 181.081Z" fill="#737373"/>
<path d="M21.87 176.332L18.6829 177.84L17.5084 175.367C17.3128 174.955 17.0504 174.62 16.7215 174.36C16.3928 174.1 16.0315 173.916 15.6379 173.808C15.2443 173.7 14.837 173.664 14.4168 173.699C13.9968 173.736 13.5931 173.845 13.2058 174.028C12.8362 174.203 12.5063 174.446 12.2166 174.757C11.927 175.067 11.7016 175.413 11.54 175.794C11.379 176.176 11.295 176.581 11.288 177.01C11.2811 177.439 11.3755 177.86 11.5714 178.272L13.3943 182.109L22.5552 177.774L21.87 176.332ZM13.9864 180.062L12.8914 177.757C12.8017 177.569 12.7561 177.367 12.7541 177.152C12.7522 176.937 12.7941 176.726 12.879 176.517C12.9646 176.309 13.092 176.117 13.2616 175.942C13.4314 175.767 13.6454 175.618 13.9033 175.496C14.1528 175.378 14.3971 175.305 14.6361 175.276C14.8754 175.247 15.1007 175.256 15.3127 175.303C15.5247 175.349 15.7133 175.436 15.8787 175.563C16.0445 175.69 16.176 175.856 16.274 176.062L17.4057 178.445L13.9864 180.062Z" fill="#737373"/>
<path d="M17.8304 167.225L14.8795 167.16L13.5591 163.484L15.7919 161.55L15.2233 159.967L7.02884 167.138L7.50138 168.453L18.404 168.821L17.8304 167.225ZM8.99918 167.175L12.5494 164.178L13.6675 167.291L8.99918 167.175Z" fill="#737373"/>
<path d="M13.7366 154.43L13.3433 152.868L4.88165 154.99L4.06049 151.728L2.68945 152.072L4.72857 160.172L6.0996 159.828L5.27496 156.552L13.7366 154.43Z" fill="#737373"/>
<path d="M10.0311 144.449C10.2396 144.648 10.3667 144.898 10.4127 145.199C10.4399 145.377 10.4444 145.564 10.426 145.759C10.4076 145.954 10.3804 146.122 10.3439 146.261L11.6902 146.186C11.7679 146.002 11.8088 145.781 11.8132 145.526C11.8176 145.271 11.8056 145.049 11.7767 144.861C11.7308 144.561 11.6449 144.298 11.5191 144.071C11.3929 143.846 11.2129 143.642 10.9781 143.462C10.7436 143.281 10.4539 143.119 10.1091 142.974C9.76456 142.83 9.35034 142.688 8.86734 142.55L0.706433 140.188L0.960293 141.85L7.14737 143.489L1.7542 147.049L2.0144 148.754L8.92502 143.969C9.45397 144.09 9.82256 144.25 10.0311 144.449Z" fill="#737373"/>
<path d="M10.3458 133.753L6.82442 133.951L6.67007 131.219C6.6444 130.764 6.52809 130.354 6.32177 129.99C6.11513 129.626 5.84986 129.319 5.52596 129.071C5.20206 128.823 4.83886 128.636 4.43605 128.511C4.03323 128.387 3.61805 128.336 3.1902 128.36C2.78168 128.383 2.38457 128.484 1.99887 128.663C1.61348 128.842 1.27374 129.077 0.980576 129.37C0.687418 129.663 0.456377 130.006 0.287771 130.401C0.119482 130.796 0.0481731 131.221 0.0738443 131.676L0.313759 135.917L10.4361 135.346L10.3458 133.753ZM1.63503 134.243L1.49115 131.696C1.4791 131.488 1.51302 131.284 1.59225 131.084C1.6718 130.885 1.79033 130.704 1.94784 130.543C2.10567 130.382 2.29615 130.252 2.51926 130.154C2.7427 130.056 2.99687 129.998 3.28211 129.983C3.55784 129.967 3.8117 129.991 4.04401 130.054C4.27631 130.117 4.482 130.21 4.66043 130.333C4.83918 130.456 4.98148 130.608 5.0867 130.787C5.19224 130.967 5.2515 131.171 5.26418 131.398L5.41314 134.03L1.63503 134.243Z" fill="#737373"/>
<path d="M10.0374 123.789L7.3258 122.625L7.48236 118.724L10.2789 117.765L10.3461 116.085L0.0560963 119.668L0 121.064L9.96962 125.484L10.0374 123.789ZM6.15316 122.293L1.86861 120.439L6.28532 118.99L6.15316 122.293Z" fill="#737373"/>
<path d="M1.77601 103.897L1.51273 105.471L11.5128 107.137L11.7761 105.562L1.77601 103.897Z" fill="#737373"/>
<path d="M14.3432 94.1587L10.0688 92.8545L11.5634 87.9754L15.8375 89.2796L16.3095 87.7395L6.61398 84.781L6.14207 86.3211L10.1978 87.5585L8.70317 92.438L4.64776 91.2002L4.17997 92.7268L13.8754 95.6852L14.3432 94.1587Z" fill="#737373"/>
<path d="M20.5427 77.2629L19.2398 76.7157L17.1623 81.6413L14.3065 80.4415L16.0626 76.2776L14.8386 75.7633L13.0825 79.9272L10.4238 78.8103L12.4515 74.003L11.1486 73.4554L8.50034 79.7342L17.8447 83.66L20.5427 77.2629Z" fill="#737373"/>
<path d="M21.4602 74.9655L22.353 73.39L19.9234 68.7604L20.7106 67.3712L24.5391 69.5319L25.3825 68.043L21.554 65.8823L22.3412 64.493L27.5687 64.185L28.4681 62.5971L22.1774 63.0741L19.4816 57.9014L18.5745 59.502L20.9876 63.9582L20.2986 65.1738L16.5573 63.0624L15.7139 64.5509L19.4553 66.6626L18.7736 67.8659L13.6967 68.1113L12.7969 69.6992L18.6208 69.3513L21.4602 74.9655Z" fill="#737373"/>
<path d="M31.11 59.0335L28.3153 50.1954L34.3554 54.6754L35.3179 53.3829L27.1804 47.347L26.4223 48.3652L29.2807 57.3571L23.1259 52.7917L22.1634 54.0845L30.3009 60.1204L31.11 59.0335Z" fill="#737373"/>
<path d="M33.3485 42.3743L39.7862 48.2514L40.8755 47.063L34.4374 41.1859L36.712 38.7041L35.669 37.7517L30.0214 43.9141L31.0644 44.8665L33.3485 42.3743Z" fill="#737373"/>
<path d="M48.3392 39.7274C48.6986 39.4016 48.9835 39.047 49.1939 38.6636C49.4044 38.2803 49.5331 37.8846 49.5796 37.4765C49.6262 37.0685 49.5787 36.656 49.4373 36.2388C49.2957 35.8216 49.0456 35.4161 48.6872 35.0223C48.3351 34.6354 47.9595 34.3533 47.5602 34.1761C47.1612 33.999 46.7574 33.9123 46.3498 33.9161C45.9416 33.9202 45.5328 34.0116 45.1233 34.1903C44.7138 34.3691 44.3256 34.6246 43.9592 34.9568L42.437 36.3365L39.9796 33.6355L38.7851 34.7183L45.6012 42.2089L48.3392 39.7274ZM44.8194 35.9867C45.2704 35.578 45.7309 35.3914 46.2012 35.4274C46.6709 35.4635 47.0981 35.6925 47.4822 36.1145C47.866 36.5364 48.0555 36.978 48.0501 37.4382C48.0448 37.8988 47.8096 38.3397 47.3443 38.7614L45.8646 40.1029L43.3396 37.3282L44.8194 35.9867Z" fill="#737373"/>
</svg>
