<svg width="254" height="253" viewBox="0 0 254 253" fill="none" xmlns="http://www.w3.org/2000/svg">
<path d="M84.9646 15.2507C85.124 15.6304 85.189 16.0031 85.1607 16.3679C85.132 16.7333 85.0309 17.0741 84.8575 17.3907C84.684 17.7076 84.4436 17.9956 84.1366 18.2538C83.8298 18.5127 83.4775 18.7251 83.08 18.8918L78.5892 20.7752L74.6446 11.3691L79.4934 9.33552C79.8199 9.19873 80.1457 9.14549 80.47 9.17546C80.7942 9.20575 81.0962 9.29438 81.3761 9.44201C81.656 9.58931 81.907 9.7854 82.1289 10.0296C82.3508 10.2742 82.5229 10.542 82.6451 10.8334C82.8376 11.2929 82.9011 11.7724 82.8357 12.2724C82.77 12.7726 82.5615 13.2104 82.2105 13.586C82.8156 13.5193 83.3634 13.63 83.8528 13.9176C84.3422 14.2058 84.7127 14.6503 84.9646 15.2507ZM76.6672 12.032L77.8284 14.8008L80.5573 13.6561C80.7429 13.5783 80.8982 13.4718 81.0232 13.3363C81.1478 13.2011 81.2451 13.0484 81.3142 12.8791C81.3834 12.7101 81.416 12.5278 81.4118 12.332C81.408 12.1365 81.3633 11.9373 81.2779 11.7338C81.1076 11.328 80.8529 11.0426 80.514 10.8781C80.1751 10.7142 79.8291 10.7059 79.4759 10.8542L76.6672 12.032ZM83.3245 15.6113C83.2432 15.4171 83.1322 15.2456 82.992 15.0967C82.8517 14.9478 82.6983 14.8301 82.5325 14.744C82.3664 14.6579 82.1872 14.6082 81.995 14.5954C81.8027 14.5827 81.614 14.6152 81.4284 14.693L78.3284 15.9929L79.5339 18.8679L82.5411 17.6066C82.7353 17.5253 82.9008 17.4118 83.0372 17.2664C83.1734 17.121 83.2764 16.9584 83.3465 16.7782C83.4163 16.5984 83.4504 16.4074 83.4492 16.2056C83.4476 16.0038 83.4061 15.8058 83.3245 15.6113Z" fill="#7A7A7A"/>
<path d="M90.116 5.56586L91.4647 5.16221L98.244 13.7789L96.6202 14.2651L94.7926 11.9184L91.0221 13.0475L90.7989 16.0085L89.1614 16.4992L90.116 5.56586ZM94.148 10.8669L91.3221 7.13934L90.9552 11.8231L94.148 10.8669Z" fill="#7A7A7A"/>
<path d="M103.31 7.27006L99.3507 2.93733L101.164 2.63348L104.57 6.44713L105.945 6.21693L105.23 1.95243L106.931 1.66771L107.645 5.93221L109.033 5.69977L110.997 0.986345L112.824 0.680257L110.479 6.06931L114.835 10.6852L113.022 10.989L109.471 7.09757L107.885 7.36316L108.615 11.7271L106.915 12.0119L106.184 7.64789L104.597 7.9138L102.509 12.75L100.71 13.0513L103.31 7.27006Z" fill="#7A7A7A"/>
<path d="M119.813 4.59307L120.875 4.54589L123.911 0.0821116L125.748 0.000488281L122.322 5.08536L126.532 10.1753L124.695 10.257L121.097 5.98832L119.878 6.04252L120.074 10.4629L118.453 10.5353L117.999 0.345793L119.62 0.273416L119.813 4.59307Z" fill="#7A7A7A"/>
<path d="M137.207 9.21085L137.132 10.631L130.146 10.2637L130.682 0.0779667L137.539 0.438576L137.464 1.85901L132.214 1.5829L132.061 4.48052L136.609 4.71965L136.539 6.054L131.991 5.81487L131.827 8.92804L137.207 9.21085Z" fill="#7A7A7A"/>
<path d="M155.646 11.0139C155.562 11.4169 155.404 11.7606 155.173 12.0447C154.942 12.3291 154.665 12.5526 154.343 12.7146C154.02 12.8769 153.659 12.9773 153.259 13.0159C152.86 13.0545 152.449 13.0293 152.027 12.941L147.261 11.9414L149.355 1.95881L154.501 3.03809C154.848 3.11078 155.146 3.25171 155.396 3.46055C155.645 3.66971 155.844 3.91426 155.99 4.19452C156.137 4.47478 156.232 4.77864 156.276 5.10577C156.32 5.43322 156.309 5.75142 156.245 6.0607C156.142 6.54821 155.922 6.97896 155.585 7.35328C155.247 7.72792 154.827 7.96992 154.324 8.0796C154.86 8.36847 155.248 8.77021 155.488 9.28514C155.727 9.80039 155.78 10.3765 155.646 11.0139ZM154.091 10.3794C154.135 10.1734 154.141 9.96905 154.11 9.76691C154.079 9.56476 154.019 9.38079 153.932 9.21563C153.844 9.05047 153.725 8.90827 153.574 8.78838C153.423 8.6685 153.249 8.58815 153.052 8.5467L149.762 7.85673L149.122 10.9077L152.313 11.5773C152.52 11.6203 152.72 11.621 152.915 11.5786C153.11 11.5365 153.287 11.4609 153.447 11.3525C153.606 11.2441 153.743 11.1064 153.856 10.9393C153.97 10.7722 154.048 10.5857 154.091 10.3794ZM150.644 3.65281L150.027 6.59157L152.924 7.19896C153.12 7.24009 153.309 7.24073 153.488 7.19992C153.668 7.15943 153.835 7.08896 153.988 6.98916C154.141 6.88905 154.271 6.75737 154.379 6.59412C154.486 6.43087 154.563 6.24148 154.608 6.02563C154.698 5.59455 154.651 5.21513 154.465 4.88736C154.279 4.55991 153.999 4.35681 153.624 4.27806L150.644 3.65281Z" fill="#7A7A7A"/>
<path d="M159.46 14.826L162.362 5.04806L163.905 5.50592L161.002 15.2838L159.46 14.826Z" fill="#7A7A7A"/>
<path d="M165.401 15.1033L165.615 15.1875C165.889 15.2746 166.163 15.2899 166.438 15.2328C166.712 15.176 167.014 14.9831 167.344 14.6547C167.673 14.3263 168.043 13.8309 168.452 13.1683C168.861 12.5061 169.344 11.6101 169.9 10.4808L171.149 7.93038L176.524 10.0405L173.317 18.2111L174.761 18.778L173.286 22.5355L171.895 21.9897L172.851 19.556L166.258 16.9679L165.303 19.4016L163.926 18.8609L165.401 15.1033ZM171.819 17.6231L174.507 10.7764L172.02 9.80007L171.287 11.2722C170.945 11.9609 170.623 12.5724 170.32 13.1071C170.018 13.6418 169.723 14.1022 169.438 14.4893C169.152 14.8763 168.877 15.1974 168.612 15.4534C168.347 15.7098 168.083 15.9097 167.821 16.0535L171.819 17.6231Z" fill="#7A7A7A"/>
<path d="M183.062 13.0596L183.708 17.9353L188.079 15.6801L189.645 16.4983L183.94 19.3529L184.821 25.4858L183.255 24.6676L182.644 19.9727L178.442 22.1536L176.863 21.329L182.412 18.5548L181.483 12.2351L183.062 13.0596Z" fill="#7A7A7A"/>
<path d="M191.581 29.8603C190.976 29.456 190.505 28.9659 190.17 28.3904C189.835 27.8149 189.622 27.2062 189.533 26.5647C189.443 25.9232 189.474 25.2785 189.625 24.6303C189.776 23.9824 190.032 23.3881 190.394 22.8464C190.772 22.2811 191.237 21.8089 191.791 21.4298C192.343 21.0507 192.934 20.7832 193.563 20.6273C194.191 20.4714 194.832 20.4423 195.487 20.5399C196.141 20.6378 196.763 20.8836 197.353 21.2774C197.958 21.682 198.425 22.1759 198.755 22.7594C199.085 23.3428 199.292 23.956 199.375 24.5991C199.457 25.2419 199.425 25.8853 199.276 26.5293C199.128 27.1731 198.876 27.762 198.519 28.2954C198.141 28.8607 197.678 29.3342 197.129 29.7162C196.58 30.0978 195.991 30.3634 195.361 30.5126C194.731 30.6618 194.089 30.6877 193.434 30.5898C192.78 30.4922 192.162 30.2489 191.581 29.8603ZM191.756 23.7567C191.49 24.1549 191.295 24.5834 191.172 25.0429C191.05 25.5023 191.01 25.9535 191.053 26.3973C191.096 26.8408 191.228 27.2601 191.448 27.6548C191.668 28.0499 191.985 28.3853 192.399 28.6621C192.829 28.9497 193.269 29.1142 193.719 29.1559C194.169 29.1974 194.608 29.1483 195.036 29.008C195.464 28.868 195.86 28.6547 196.224 28.3681C196.588 28.0818 196.898 27.7473 197.154 27.3653C197.425 26.9591 197.621 26.5284 197.741 26.0731C197.861 25.6178 197.898 25.1701 197.853 24.7304C197.806 24.2911 197.675 23.875 197.459 23.4828C197.244 23.091 196.932 22.759 196.527 22.4877C196.096 22.2001 195.655 22.0343 195.201 21.99C194.746 21.9457 194.308 21.9894 193.885 22.1217C193.463 22.254 193.066 22.4641 192.695 22.7517C192.324 23.0393 192.011 23.3744 191.756 23.7567Z" fill="#7A7A7A"/>
<path d="M199.225 33.3981L199.4 33.5464C199.632 33.7176 199.887 33.8203 200.165 33.855C200.443 33.8895 200.791 33.8043 201.209 33.5996C201.627 33.3953 202.136 33.0452 202.737 32.55C203.338 32.0548 204.084 31.3623 204.975 30.4728L206.978 28.4609L211.387 32.1913L205.717 38.8918L206.901 39.8939L204.294 42.9755L203.153 42.0103L204.842 40.0144L199.436 35.4397L197.747 37.4353L196.617 36.4797L199.225 33.3981ZM204.489 37.8523L209.24 32.2375L207.2 30.5117L206.033 31.6687C205.486 32.2104 204.984 32.6855 204.525 33.094C204.067 33.5027 203.64 33.8439 203.245 34.1181C202.85 34.3923 202.486 34.6078 202.152 34.7647C201.819 34.9215 201.504 35.0258 201.21 35.0778L204.489 37.8523Z" fill="#7A7A7A"/>
<path d="M214.282 41.784L215.762 36.1044L217.004 37.4605L215.658 42.3936L216.6 43.4212L219.789 40.5013L220.953 41.7725L217.764 44.6927L218.715 45.7309L223.737 44.8133L224.989 46.1798L219.191 47.145L217.69 53.312L216.448 51.9556L217.78 46.8593L216.694 45.6725L213.431 48.6607L212.266 47.3895L215.53 44.4013L214.443 43.2146L209.249 44.0943L208.017 42.7488L214.282 41.784Z" fill="#7A7A7A"/>
<path d="M225.026 61.1411L223.87 61.9698L219.794 56.2836L228.084 50.3413L232.085 55.9223L230.928 56.751L227.865 52.4776L225.507 54.1681L228.16 57.8695L227.074 58.6478L224.421 54.9467L221.888 56.7628L225.026 61.1411Z" fill="#7A7A7A"/>
<path d="M239.165 67.7539L230.297 72.7928L229.495 71.3817L233.404 69.16L230.864 64.6885L226.954 66.9102L226.159 65.5112L235.027 60.4722L235.822 61.8709L232.113 63.9788L234.653 68.4502L238.363 66.3424L239.165 67.7539Z" fill="#7A7A7A"/>
<path d="M245.13 80.8863L235.744 84.8795L235.109 83.3857L239.246 81.6254L237.233 76.8928L233.096 78.6531L232.465 77.1728L241.851 73.1796L242.481 74.6603L238.555 76.3304L240.568 81.0629L244.494 79.3925L245.13 80.8863Z" fill="#7A7A7A"/>
<path d="M238.916 94.585L242.615 93.4665L242.038 91.5554L237.665 90.4458L237.137 88.6995L241.752 89.9156C241.779 89.6076 241.851 89.3078 241.968 89.0174C242.085 88.7269 242.242 88.4591 242.438 88.2149C242.634 87.9703 242.865 87.758 243.131 87.5778C243.397 87.3974 243.695 87.2574 244.025 87.1576C244.41 87.0412 244.808 87.0029 245.221 87.0434C245.633 87.0839 246.019 87.1946 246.379 87.376C246.739 87.5574 247.06 87.808 247.342 88.1281C247.624 88.4479 247.831 88.828 247.964 89.268L249.149 93.1872L239.386 96.1387L238.916 94.585ZM247.332 92.0406L246.658 89.8129C246.595 89.6021 246.492 89.4131 246.352 89.2454C246.211 89.0776 246.043 88.9434 245.847 88.8427C245.652 88.7416 245.438 88.6788 245.205 88.6542C244.972 88.6294 244.737 88.6529 244.499 88.725C244.26 88.7971 244.051 88.9004 243.872 89.0346C243.692 89.1688 243.548 89.3276 243.438 89.5109C243.328 89.6943 243.258 89.8929 243.228 90.1072C243.197 90.3214 243.216 90.5386 243.282 90.7586L243.977 93.0552L247.332 92.0406Z" fill="#7A7A7A"/>
<path d="M242.871 115.456L250.156 114.55L244.265 112.228L244.155 111.345L249.296 107.636L242.011 108.542L241.813 106.945L251.934 105.687L252.147 107.398L246.377 111.517L252.98 114.098L253.193 115.809L243.071 117.067L242.871 115.456Z" fill="#7A7A7A"/>
<path d="M243.264 126.124C243.253 125.396 243.388 124.73 243.67 124.128C243.953 123.524 244.332 123.003 244.809 122.565C245.285 122.126 245.833 121.784 246.451 121.539C247.07 121.294 247.705 121.167 248.356 121.156C249.036 121.145 249.689 121.259 250.316 121.498C250.942 121.737 251.498 122.07 251.984 122.499C252.47 122.926 252.859 123.437 253.151 124.031C253.443 124.625 253.595 125.276 253.607 125.985C253.619 126.713 253.479 127.378 253.187 127.982C252.894 128.585 252.508 129.104 252.027 129.538C251.545 129.972 250.997 130.311 250.384 130.556C249.77 130.801 249.142 130.928 248.5 130.938C247.821 130.949 247.167 130.838 246.541 130.604C245.915 130.37 245.361 130.036 244.88 129.603C244.399 129.171 244.012 128.657 243.72 128.063C243.428 127.469 243.276 126.823 243.264 126.124ZM248.383 122.794C247.904 122.802 247.441 122.886 246.993 123.046C246.546 123.207 246.152 123.431 245.812 123.719C245.471 124.007 245.202 124.354 245.002 124.759C244.803 125.165 244.707 125.617 244.715 126.115C244.724 126.632 244.839 127.087 245.061 127.481C245.283 127.875 245.573 128.208 245.932 128.48C246.29 128.752 246.692 128.956 247.134 129.093C247.577 129.229 248.028 129.294 248.488 129.286C248.976 129.278 249.442 129.194 249.885 129.034C250.328 128.873 250.717 128.649 251.052 128.361C251.387 128.073 251.655 127.729 251.854 127.328C252.053 126.927 252.149 126.483 252.141 125.994C252.133 125.477 252.018 125.019 251.796 124.621C251.574 124.222 251.288 123.886 250.939 123.615C250.59 123.342 250.191 123.136 249.744 122.994C249.296 122.853 248.842 122.786 248.383 122.794Z" fill="#7A7A7A"/>
<path d="M248.738 137.476L248.628 138.533L252.595 142.195L252.406 144.024L247.881 139.886L242.227 143.3L242.416 141.471L247.169 138.541L247.295 137.326L242.894 136.87L243.061 135.255L253.206 136.308L253.039 137.922L248.738 137.476Z" fill="#7A7A7A"/>
<path d="M241.61 146.846L251.599 148.906L250.735 153.099C250.642 153.549 250.462 153.945 250.197 154.286C249.931 154.627 249.617 154.902 249.256 155.111C248.895 155.32 248.504 155.462 248.083 155.537C247.662 155.611 247.25 155.607 246.847 155.524C246.424 155.437 246.033 155.281 245.674 155.055C245.315 154.829 245.01 154.554 244.759 154.228C244.509 153.903 244.33 153.536 244.224 153.128C244.117 152.719 244.11 152.29 244.203 151.84L244.76 149.139L241.285 148.422L241.61 146.846ZM246.153 149.426L245.616 152.029C245.57 152.254 245.575 152.467 245.631 152.67C245.687 152.872 245.786 153.056 245.928 153.222C246.069 153.389 246.245 153.532 246.455 153.654C246.664 153.775 246.905 153.864 247.177 153.92C247.459 153.978 247.72 153.988 247.963 153.95C248.205 153.912 248.424 153.835 248.62 153.719C248.814 153.602 248.976 153.457 249.105 153.283C249.234 153.109 249.32 152.919 249.362 152.713L249.881 150.194L246.153 149.426Z" fill="#7A7A7A"/>
<path d="M237.72 162.062C237.943 161.369 238.285 160.782 238.746 160.301C239.207 159.821 239.734 159.449 240.326 159.187C240.918 158.925 241.547 158.777 242.211 158.744C242.875 158.711 243.518 158.794 244.138 158.993C244.785 159.201 245.367 159.519 245.884 159.946C246.4 160.374 246.82 160.868 247.142 161.43C247.465 161.991 247.669 162.6 247.755 163.256C247.841 163.912 247.776 164.578 247.559 165.253C247.336 165.945 246.99 166.531 246.519 167.008C246.049 167.486 245.516 167.853 244.921 168.109C244.325 168.366 243.698 168.511 243.038 168.546C242.378 168.58 241.743 168.499 241.132 168.303C240.484 168.095 239.902 167.78 239.384 167.357C238.866 166.934 238.449 166.44 238.132 165.876C237.816 165.311 237.614 164.701 237.528 164.044C237.442 163.388 237.506 162.727 237.72 162.062ZM243.637 160.553C243.181 160.406 242.715 160.337 242.24 160.345C241.764 160.353 241.32 160.439 240.905 160.603C240.49 160.766 240.123 161.008 239.804 161.328C239.485 161.648 239.25 162.045 239.097 162.519C238.939 163.011 238.902 163.48 238.985 163.924C239.069 164.368 239.237 164.777 239.489 165.15C239.742 165.523 240.056 165.845 240.431 166.116C240.807 166.388 241.213 166.594 241.651 166.735C242.116 166.884 242.584 166.954 243.055 166.944C243.526 166.934 243.966 166.847 244.376 166.682C244.786 166.517 245.15 166.277 245.468 165.961C245.785 165.646 246.019 165.256 246.168 164.791C246.326 164.298 246.364 163.828 246.282 163.379C246.2 162.93 246.037 162.521 245.794 162.151C245.551 161.781 245.24 161.457 244.861 161.18C244.483 160.902 244.075 160.693 243.637 160.553Z" fill="#7A7A7A"/>
<path d="M239.699 181.036L241.075 177.938L233.053 174.376L233.712 172.892L241.733 176.454L243.115 173.343L244.415 173.92L240.998 181.614L239.699 181.036Z" fill="#7A7A7A"/>
<path d="M231.241 183.607L235.134 192.283L234.494 193.389L225.666 188.282L226.479 186.877L233.032 190.668L229.219 182.139L229.903 180.958L238.732 186.066L237.919 187.47L231.241 183.607Z" fill="#7A7A7A"/>
<path d="M226.192 205.146L218.002 199.066L218.97 197.763L222.58 200.443L225.646 196.313L222.035 193.633L222.994 192.341L231.184 198.421L230.225 199.713L226.799 197.17L223.734 201.299L227.159 203.842L226.192 205.146Z" fill="#7A7A7A"/>
<path d="M216.598 215.905L209.149 208.937L210.258 207.751L213.542 210.823L217.055 207.067L213.772 203.995L214.871 202.82L222.319 209.788L221.22 210.963L218.104 208.048L214.591 211.804L217.707 214.719L216.598 215.905Z" fill="#7A7A7A"/>
<path d="M201.553 215.782L204.076 218.709L205.588 217.405L204.828 212.959L206.21 211.768L206.971 216.479C207.264 216.379 207.566 216.323 207.88 216.312C208.193 216.301 208.501 216.336 208.804 216.416C209.107 216.496 209.395 216.621 209.667 216.791C209.94 216.961 210.189 217.176 210.414 217.437C210.676 217.742 210.873 218.091 211.004 218.484C211.134 218.877 211.189 219.275 211.17 219.678C211.15 220.08 211.051 220.476 210.873 220.863C210.695 221.251 210.432 221.594 210.084 221.895L206.982 224.568L200.323 216.842L201.553 215.782ZM207.293 222.441L209.055 220.922C209.223 220.778 209.354 220.608 209.45 220.411C209.546 220.215 209.601 220.007 209.613 219.787C209.626 219.567 209.597 219.346 209.525 219.123C209.453 218.9 209.336 218.695 209.173 218.506C209.011 218.318 208.832 218.169 208.636 218.059C208.441 217.95 208.237 217.882 208.025 217.856C207.813 217.83 207.603 217.847 207.395 217.906C207.187 217.965 206.995 218.07 206.821 218.22L205.004 219.787L207.293 222.441Z" fill="#7A7A7A"/>
<path d="M168.933 237.867C168.775 237.487 168.711 237.114 168.74 236.749C168.77 236.384 168.872 236.043 169.047 235.727C169.221 235.411 169.462 235.124 169.77 234.866C170.078 234.608 170.43 234.397 170.828 234.232L175.325 232.361L179.242 241.779L174.388 243.798C174.061 243.934 173.735 243.986 173.41 243.955C173.086 243.924 172.785 243.834 172.505 243.686C172.226 243.538 171.975 243.341 171.754 243.096C171.533 242.851 171.362 242.583 171.24 242.291C171.049 241.831 170.987 241.351 171.054 240.851C171.121 240.351 171.33 239.914 171.683 239.54C171.077 239.605 170.53 239.492 170.041 239.203C169.553 238.914 169.183 238.468 168.933 237.867ZM170.574 237.511C170.655 237.706 170.766 237.878 170.906 238.027C171.046 238.176 171.198 238.294 171.364 238.381C171.53 238.467 171.709 238.517 171.901 238.531C172.093 238.544 172.282 238.512 172.468 238.435L175.571 237.144L174.374 234.266L171.364 235.518C171.169 235.599 171.003 235.712 170.866 235.857C170.73 236.002 170.626 236.164 170.556 236.344C170.485 236.524 170.451 236.715 170.452 236.917C170.453 237.118 170.493 237.317 170.574 237.511ZM177.221 241.11L176.068 238.338L173.336 239.474C173.15 239.551 172.995 239.658 172.869 239.793C172.744 239.928 172.646 240.08 172.577 240.249C172.507 240.418 172.474 240.6 172.478 240.796C172.481 240.991 172.525 241.191 172.61 241.394C172.779 241.801 173.033 242.087 173.371 242.252C173.71 242.418 174.056 242.426 174.409 242.279L177.221 241.11Z" fill="#7A7A7A"/>
<path d="M163.762 247.534L162.412 247.934L155.657 239.298L157.282 238.817L159.103 241.169L162.877 240.05L163.108 237.089L164.747 236.604L163.762 247.534ZM159.745 242.222L162.561 245.957L162.941 241.275L159.745 242.222Z" fill="#7A7A7A"/>
<path d="M150.578 245.792L154.526 250.136L152.712 250.434L149.316 246.612L147.941 246.838L148.643 251.104L146.942 251.385L146.24 247.118L144.851 247.347L142.874 252.054L141.046 252.356L143.406 246.973L139.063 242.345L140.877 242.046L144.417 245.948L146.004 245.686L145.285 241.32L146.986 241.04L147.705 245.406L149.293 245.145L151.394 240.314L153.194 240.018L150.578 245.792Z" fill="#7A7A7A"/>
<path d="M134.061 248.424L132.999 248.468L129.95 252.924L128.113 253L131.553 247.925L127.357 242.823L129.194 242.747L132.78 247.025L134 246.974L133.816 242.554L135.438 242.486L135.863 252.677L134.241 252.744L134.061 248.424Z" fill="#7A7A7A"/>
<path d="M116.68 243.759L116.759 242.339L123.744 242.726L123.18 252.91L116.324 252.53L116.403 251.11L121.652 251.401L121.813 248.503L117.266 248.251L117.34 246.917L121.887 247.169L122.059 244.057L116.68 243.759Z" fill="#7A7A7A"/>
<path d="M98.2325 241.9C98.318 241.497 98.4771 241.154 98.7086 240.871C98.9404 240.587 99.2177 240.365 99.5407 240.203C99.864 240.042 100.226 239.942 100.625 239.905C101.025 239.868 101.435 239.894 101.857 239.984L106.62 240.997L104.497 250.974L99.3545 249.879C99.0079 249.805 98.7102 249.663 98.4608 249.454C98.2118 249.244 98.0141 248.999 97.8684 248.718C97.7224 248.438 97.628 248.133 97.585 247.806C97.5423 247.479 97.5537 247.161 97.6194 246.852C97.723 246.364 97.9446 245.934 98.2832 245.561C98.6222 245.187 99.0433 244.947 99.5458 244.838C99.0105 244.548 98.6237 244.145 98.3859 243.629C98.148 243.114 98.0967 242.537 98.2325 241.9ZM103.213 249.276L103.838 246.339L100.944 245.723C100.747 245.681 100.559 245.68 100.379 245.72C100.199 245.76 100.032 245.83 99.879 245.93C99.7256 246.029 99.5949 246.161 99.4868 246.324C99.3787 246.487 99.3016 246.676 99.256 246.891C99.1642 247.322 99.2107 247.702 99.3953 248.03C99.5803 248.358 99.8602 248.562 100.234 248.642L103.213 249.276ZM99.7856 242.539C99.7416 242.745 99.7349 242.949 99.7652 243.152C99.7958 243.354 99.8544 243.538 99.9415 243.703C100.029 243.869 100.148 244.011 100.298 244.132C100.449 244.252 100.623 244.333 100.82 244.375L104.107 245.074L104.756 242.025L101.567 241.347C101.361 241.303 101.16 241.302 100.965 241.343C100.77 241.385 100.593 241.46 100.433 241.568C100.273 241.676 100.136 241.813 100.022 241.98C99.9083 242.147 99.8293 242.333 99.7856 242.539Z" fill="#7A7A7A"/>
<path d="M94.4333 238.077L91.5026 247.847L89.9613 247.385L92.8924 237.615L94.4333 238.077Z" fill="#7A7A7A"/>
<path d="M88.4966 237.784L88.283 237.7C88.0088 237.611 87.7346 237.596 87.4598 237.652C87.1853 237.708 86.8827 237.9 86.5521 238.227C86.2217 238.554 85.8509 239.049 85.4396 239.71C85.0287 240.372 84.5434 241.266 83.9835 242.394L82.728 244.941L77.3588 242.815L80.5895 234.654L79.1468 234.083L80.6326 230.329L82.0217 230.879L81.0595 233.31L87.6444 235.917L88.6066 233.486L89.9824 234.031L88.4966 237.784ZM82.0855 235.246L79.378 242.085L81.8623 243.068L82.5988 241.598C82.9432 240.911 83.2674 240.3 83.5713 239.766C83.8754 239.233 84.1707 238.773 84.4573 238.387C84.7443 238.001 85.0207 237.68 85.2863 237.425C85.5522 237.169 85.8165 236.97 86.0789 236.827L82.0855 235.246Z" fill="#7A7A7A"/>
<path d="M70.8326 239.778L70.2 234.901L65.8231 237.144L64.2592 236.321L69.972 233.483L69.1086 227.348L70.6725 228.17L71.27 232.867L75.4783 230.698L77.0549 231.527L71.498 234.285L72.4092 240.608L70.8326 239.778Z" fill="#7A7A7A"/>
<path d="M62.3624 222.955C62.9666 223.361 63.4356 223.852 63.7691 224.429C64.1026 225.005 64.3134 225.614 64.4011 226.256C64.4887 226.898 64.4562 227.543 64.3035 228.19C64.1508 228.838 63.8928 229.432 63.529 229.972C63.1496 230.536 62.6832 231.007 62.129 231.385C61.5749 231.762 60.9838 232.028 60.3547 232.182C59.726 232.337 59.0842 232.364 58.4299 232.264C57.7757 232.165 57.1546 231.917 56.5664 231.521C55.9625 231.115 55.4963 230.62 55.1679 230.036C54.8399 229.451 54.6349 228.837 54.5539 228.194C54.4729 227.551 54.5076 226.908 54.6575 226.264C54.8077 225.621 55.0618 225.033 55.4195 224.5C55.7992 223.936 56.2638 223.464 56.8141 223.084C57.3641 222.703 57.9542 222.44 58.5843 222.292C59.2143 222.145 59.8567 222.12 60.511 222.22C61.1652 222.32 61.7825 222.565 62.3624 222.955ZM62.1702 229.058C62.4377 228.661 62.6334 228.233 62.7572 227.774C62.8815 227.315 62.9223 226.863 62.8802 226.419C62.8385 225.976 62.7081 225.556 62.489 225.161C62.2703 224.765 61.9543 224.429 61.5408 224.151C61.1116 223.862 60.6723 223.696 60.2221 223.653C59.7722 223.61 59.3332 223.659 58.9047 223.798C58.4768 223.936 58.0799 224.149 57.7148 224.434C57.3497 224.719 57.0389 225.053 56.7825 225.434C56.5099 225.84 56.3129 226.27 56.1914 226.725C56.0702 227.18 56.032 227.627 56.0763 228.067C56.1213 228.507 56.251 228.923 56.4656 229.316C56.6808 229.709 56.9907 230.041 57.396 230.314C57.8251 230.602 58.2667 230.769 58.7207 230.815C59.1747 230.861 59.6131 230.818 60.0359 230.687C60.459 230.556 60.8563 230.347 61.228 230.061C61.5998 229.774 61.9138 229.44 62.1702 229.058Z" fill="#7A7A7A"/>
<path d="M54.7292 219.396L54.5542 219.247C54.3227 219.075 54.0683 218.972 53.7903 218.936C53.5122 218.901 53.1641 218.985 52.7454 219.188C52.3271 219.392 51.817 219.741 51.2144 220.234C50.6124 220.728 49.8648 221.418 48.9711 222.305L46.9621 224.311L42.5641 220.569L48.2524 213.884L47.0708 212.878L49.6872 209.804L50.8248 210.773L49.1305 212.764L54.5239 217.354L56.2185 215.363L57.3453 216.321L54.7292 219.396ZM49.4777 214.927L44.7111 220.528L46.7459 222.26L47.9167 221.106C48.4645 220.566 48.9679 220.092 49.4277 219.685C49.8874 219.278 50.3153 218.937 50.711 218.665C51.107 218.391 51.472 218.177 51.8058 218.021C52.14 217.865 52.454 217.762 52.749 217.711L49.4777 214.927Z" fill="#7A7A7A"/>
<path d="M39.6873 210.959L38.191 216.635L36.953 215.275L38.3128 210.346L37.3748 209.315L34.1775 212.226L33.017 210.952L36.2142 208.041L35.2666 207L30.2412 207.903L28.9939 206.533L34.7938 205.584L36.3134 199.422L37.5511 200.782L36.204 205.874L37.2871 207.064L40.559 204.085L41.7192 205.36L38.4477 208.339L39.5307 209.528L44.7271 208.664L45.9552 210.013L39.6873 210.959Z" fill="#7A7A7A"/>
<path d="M29.0057 191.58L30.164 190.754L34.2237 196.452L25.9172 202.371L21.9327 196.779L23.0907 195.953L26.1419 200.236L28.5051 198.551L25.8626 194.843L26.9505 194.068L29.593 197.776L32.1319 195.967L29.0057 191.58Z" fill="#7A7A7A"/>
<path d="M14.8842 184.927L23.7663 179.913L24.5643 181.327L20.6487 183.537L23.1768 188.016L27.0924 185.805L27.8834 187.206L19.0013 192.22L18.2103 190.819L21.926 188.722L19.3976 184.243L15.6823 186.34L14.8842 184.927Z" fill="#7A7A7A"/>
<path d="M8.95582 171.774L18.3525 167.808L18.9838 169.304L14.8412 171.052L16.8409 175.791L20.9835 174.042L21.6091 175.524L12.2124 179.49L11.5868 178.008L15.5174 176.349L13.5177 171.611L9.58711 173.27L8.95582 171.774Z" fill="#7A7A7A"/>
<path d="M15.2078 158.09L11.5055 159.198L12.0778 161.111L16.4471 162.233L16.97 163.981L12.3587 162.751C12.331 163.059 12.2583 163.359 12.14 163.649C12.022 163.939 11.8645 164.206 11.6675 164.45C11.4705 164.694 11.2393 164.906 10.9728 165.085C10.7069 165.265 10.4084 165.404 10.0781 165.503C9.69265 165.618 9.2941 165.655 8.88153 165.613C8.4696 165.572 8.08381 165.46 7.72417 165.277C7.36484 165.095 7.04473 164.844 6.76352 164.523C6.48263 164.202 6.27634 163.821 6.14466 163.381L4.97104 159.458L14.7427 156.535L15.2078 158.09ZM6.7852 160.61L7.4522 162.84C7.51533 163.051 7.61704 163.24 7.75701 163.408C7.89729 163.576 8.065 163.711 8.26045 163.812C8.45589 163.914 8.66951 163.978 8.90226 164.003C9.13469 164.028 9.37031 164.005 9.60879 163.934C9.8476 163.862 10.0568 163.76 10.2366 163.626C10.4164 163.492 10.5615 163.334 10.6715 163.151C10.7818 162.968 10.8526 162.769 10.8832 162.556C10.9144 162.341 10.8966 162.124 10.8309 161.904L10.1432 159.605L6.7852 160.61Z" fill="#7A7A7A"/>
<path d="M11.3152 137.221L4.02792 138.107L9.91232 140.445L10.0198 141.33L4.86837 145.023L12.1556 144.138L12.3495 145.735L2.2246 146.965L2.01672 145.254L7.79845 141.151L1.2021 138.552L0.994217 136.84L11.1191 135.61L11.3152 137.221Z" fill="#7A7A7A"/>
<path d="M10.9504 126.569C10.9622 127.296 10.8271 127.962 10.5446 128.565C10.2621 129.168 9.88267 129.689 9.40602 130.128C8.92968 130.567 8.38192 130.908 7.76338 131.153C7.14484 131.398 6.51005 131.525 5.85867 131.536C5.17891 131.547 4.52562 131.433 3.89911 131.194C3.27292 130.955 2.71656 130.622 2.23066 130.194C1.74507 129.766 1.35578 129.255 1.06372 128.661C0.771671 128.067 0.619588 127.416 0.60811 126.707C0.596313 125.98 0.736281 125.314 1.02833 124.711C1.32038 124.107 1.70681 123.589 2.18825 123.154C2.66969 122.72 3.21745 122.381 3.8312 122.136C4.44528 121.892 5.07306 121.764 5.71456 121.754C6.39431 121.743 7.0476 121.854 7.67379 122.089C8.3003 122.323 8.8538 122.656 9.33492 123.089C9.81604 123.522 10.2031 124.035 10.4952 124.629C10.7872 125.223 10.939 125.87 10.9504 126.569ZM5.8322 129.899C6.31109 129.891 6.77404 129.807 7.22168 129.646C7.66933 129.486 8.06309 129.261 8.40328 128.973C8.74348 128.685 9.01321 128.338 9.21248 127.933C9.41207 127.527 9.50741 127.076 9.49943 126.577C9.49114 126.06 9.37573 125.605 9.15382 125.211C8.93191 124.817 8.64177 124.484 8.28276 124.212C7.92439 123.94 7.5233 123.736 7.08044 123.6C6.6379 123.463 6.18643 123.399 5.72667 123.406C5.23854 123.414 4.77304 123.498 4.33018 123.659C3.88732 123.819 3.49834 124.043 3.16293 124.331C2.82783 124.619 2.56033 124.964 2.36074 125.364C2.16147 125.765 2.0655 126.21 2.07347 126.698C2.08176 127.215 2.19686 127.673 2.41909 128.072C2.641 128.47 2.92667 128.806 3.27579 129.078C3.62492 129.35 4.02346 129.557 4.4711 129.698C4.91875 129.839 5.37245 129.906 5.8322 129.899Z" fill="#7A7A7A"/>
<path d="M5.50795 115.184L5.6205 114.127L1.66313 110.455L1.85794 108.627L6.37103 112.777L12.0351 109.379L11.8403 111.207L7.0798 114.124L6.95068 115.338L11.3503 115.807L11.1781 117.421L1.0363 116.34L1.20816 114.726L5.50795 115.184Z" fill="#7A7A7A"/>
<path d="M12.6629 105.828L2.67957 103.74L3.55573 99.5497C3.64979 99.0998 3.83056 98.7044 4.09711 98.3642C4.36429 98.0237 4.67834 97.7495 5.0399 97.5413C5.40146 97.3331 5.79299 97.1925 6.21417 97.1191C6.63567 97.0458 7.04792 97.0512 7.45093 97.1354C7.87274 97.2237 8.263 97.3812 8.62168 97.6079C8.98037 97.8346 9.28454 98.111 9.53419 98.4369C9.78383 98.7634 9.96142 99.1307 10.067 99.5391C10.1722 99.9479 10.1779 100.377 10.0839 100.827L9.5192 103.527L12.9923 104.253L12.6629 105.828ZM8.12717 103.235L8.6711 100.634C8.71829 100.409 8.71415 100.196 8.65835 99.9932C8.60319 99.7907 8.50435 99.6064 8.36311 99.4397C8.22187 99.2732 8.04651 99.1291 7.83735 99.0067C7.62788 98.8849 7.38748 98.7953 7.11551 98.7385C6.8343 98.6795 6.57254 98.669 6.32991 98.7063C6.08727 98.7436 5.86823 98.8202 5.67279 98.9359C5.47734 99.0516 5.31506 99.1961 5.18593 99.3695C5.05648 99.5433 4.9704 99.7333 4.92735 99.9393L4.40096 102.456L8.12717 103.235Z" fill="#7A7A7A"/>
<path d="M16.5983 90.617C16.3735 91.3095 16.0301 91.8956 15.5675 92.3745C15.1049 92.8537 14.5772 93.2235 13.9838 93.4843C13.3911 93.7448 12.7624 93.8909 12.0976 93.9218C11.4332 93.953 10.7913 93.8679 10.1715 93.667C9.52494 93.4572 8.94403 93.1378 8.42879 92.7086C7.91355 92.2798 7.49524 91.7843 7.17418 91.2219C6.85343 90.6597 6.65097 90.0504 6.5668 89.3936C6.48295 88.7374 6.55022 88.072 6.76894 87.3977C6.9934 86.7055 7.34157 86.121 7.81344 85.6447C8.285 85.1687 8.81872 84.8033 9.41494 84.5485C10.0112 84.2941 10.6389 84.1503 11.2989 84.1178C11.9589 84.0852 12.5944 84.1678 13.2046 84.3658C13.8515 84.5759 14.4331 84.8929 14.9499 85.3172C15.4667 85.7419 15.8825 86.2368 16.1975 86.8021C16.5122 87.3674 16.7118 87.9786 16.796 88.6348C16.8798 89.2916 16.8138 89.9522 16.5983 90.617ZM10.6772 92.1092C11.1328 92.2571 11.598 92.3276 12.0734 92.3206C12.5491 92.3139 12.9942 92.2294 13.4093 92.0668C13.8244 91.9048 14.192 91.6638 14.5121 91.3449C14.8323 91.0258 15.0688 90.6294 15.2225 90.1556C15.3822 89.6637 15.4208 89.1956 15.3386 88.7508C15.256 88.3067 15.0892 87.8976 14.838 87.5239C14.5868 87.1506 14.2737 86.8273 13.899 86.5547C13.5244 86.2821 13.1182 86.0748 12.6811 85.9329C12.2165 85.7821 11.7488 85.711 11.2779 85.7193C10.807 85.7276 10.3663 85.8137 9.95569 85.9776C9.54535 86.1414 9.1806 86.3806 8.86208 86.6949C8.54357 87.0096 8.30891 87.3989 8.1581 87.8635C7.99868 88.3555 7.95915 88.8261 8.04013 89.275C8.1208 89.7243 8.28244 90.134 8.52444 90.5048C8.76675 90.8753 9.07666 91.1999 9.45448 91.4785C9.8323 91.7572 10.2398 91.9673 10.6772 92.1092Z" fill="#7A7A7A"/>
<path d="M14.6623 71.6616L13.2779 74.7563L21.2902 78.3404L20.6274 79.8223L12.6151 76.2382L11.225 79.346L9.92667 78.7654L13.364 71.081L14.6623 71.6616Z" fill="#7A7A7A"/>
<path d="M23.1366 69.0956L19.2682 60.4094L19.9116 59.3043L28.7254 64.437L27.9086 65.8399L21.3664 62.03L25.1542 70.5696L24.4674 71.749L15.6536 66.6163L16.4704 65.2137L23.1366 69.0956Z" fill="#7A7A7A"/>
<path d="M28.2459 47.5732L36.4183 53.6755L35.4471 54.9763L31.8443 52.2859L28.7675 56.407L32.3704 59.097L31.4075 60.3864L23.2351 54.2838L24.1977 52.9947L27.6162 55.5474L30.6933 51.4264L27.2747 48.8737L28.2459 47.5732Z" fill="#7A7A7A"/>
<path d="M37.8693 36.8422L45.2981 43.8306L44.186 45.0132L40.911 41.9322L37.3872 45.6783L40.6623 48.7589L39.5597 49.931L32.1309 42.9423L33.2331 41.7706L36.3408 44.6937L39.8646 40.948L36.7569 38.0245L37.8693 36.8422Z" fill="#7A7A7A"/>
<path d="M52.9138 37.0065L50.3988 34.0725L48.8828 35.3721L49.6308 39.8205L48.2454 41.0079L47.4978 36.2945C47.2047 36.394 46.9015 36.4491 46.5884 36.4587C46.2753 36.4689 45.9674 36.4332 45.6645 36.3519C45.3616 36.2712 45.0743 36.1456 44.802 35.975C44.5297 35.8047 44.2817 35.5886 44.0572 35.3268C43.7955 35.0213 43.6 34.6719 43.4706 34.2781C43.3414 33.8844 43.2869 33.4864 43.308 33.0837C43.3287 32.6814 43.4288 32.2866 43.6077 31.8996C43.7868 31.5125 44.0512 31.1694 44.4 30.8704L47.5086 28.2058L54.1461 35.9501L52.9138 37.0065ZM47.1923 30.3312L45.4253 31.8457C45.2579 31.9892 45.1263 32.1591 45.0297 32.3552C44.9331 32.5516 44.8779 32.7598 44.8645 32.9795C44.8508 33.1992 44.8798 33.4204 44.9509 33.643C45.022 33.8662 45.1387 34.0718 45.3007 34.2609C45.463 34.45 45.6415 34.5998 45.8366 34.7098C46.0321 34.8198 46.2355 34.8881 46.4475 34.9145C46.6592 34.941 46.8693 34.9251 47.0779 34.8664C47.286 34.8077 47.4773 34.7035 47.6518 34.5539L49.4733 32.9926L47.1923 30.3312Z" fill="#7A7A7A"/>
</svg>
