<svg width="247" height="247" viewBox="0 0 247 247" fill="none" xmlns="http://www.w3.org/2000/svg">
<path d="M77.6793 20.1584L75.9621 16.0793L77.088 15.6056L81.9437 18.3636L83.6389 17.6498L77.9246 14.3337L79.3763 8.375L77.6811 9.08847L76.3792 14.3294L75.3993 14.7418L73.7212 10.7555L72.2246 11.3854L76.1827 20.7886L77.6793 20.1584Z" fill="#6B6B6B"/>
<path d="M85.6015 6.28375L84.7812 17.2305L86.4133 16.7197L86.5999 13.7554L90.3572 12.5797L92.2139 14.9045L93.8324 14.398L86.9455 5.86328L85.6015 6.28375ZM86.5179 12.5314L86.827 7.8425L89.6994 11.5358L86.5179 12.5314Z" fill="#6B6B6B"/>
<path d="M104.029 1.87321L105.667 10.4989L102.406 11.118L100.768 2.49263L99.1727 2.79553L100.811 11.4209L97.5496 12.04L95.9117 3.41463L94.3164 3.71753L96.2195 13.7408L107.527 11.5936L105.624 1.57031L104.029 1.87321Z" fill="#6B6B6B"/>
<path d="M117.935 9.30998L112.562 9.72519L112.322 6.61605L116.864 6.2652L116.761 4.93293L112.219 5.28379L111.996 2.38999L117.239 1.98468L117.129 0.566406L110.281 1.09548L111.067 11.2675L118.044 10.7283L117.935 9.30998Z" fill="#6B6B6B"/>
<path d="M126.674 10.7273L128.298 10.7536L128.463 0.552732L122.687 0.458984L122.397 3.28533C122.271 4.56747 122.13 5.59467 121.974 6.36847C121.817 7.14197 121.642 7.73787 121.449 8.15617C121.255 8.57479 121.032 8.85355 120.781 8.9934C120.53 9.13294 120.246 9.20998 119.93 9.2239L120.092 10.7211C120.695 10.7307 121.215 10.6075 121.65 10.351C122.086 10.0949 122.456 9.67934 122.763 9.10448C123.069 8.52993 123.318 7.78428 123.51 6.86753C123.702 5.95079 123.862 4.84222 123.988 3.5412L124.144 1.90542L126.816 1.94873L126.674 10.7273Z" fill="#6B6B6B"/>
<path d="M136.961 11.3003C137.39 11.2013 137.774 11.0323 138.113 10.7938C138.451 10.5549 138.73 10.2428 138.949 9.85633C139.168 9.4702 139.306 9.01043 139.362 8.47703C139.418 7.95322 139.378 7.4817 139.245 7.06277C139.111 6.64416 138.906 6.28278 138.63 5.97896C138.354 5.67513 138.011 5.42947 137.603 5.24166C137.194 5.05386 136.741 4.9335 136.246 4.88121L134.189 4.66309L134.576 1.00508L132.962 0.833984L131.887 10.9794L135.588 11.3714C136.073 11.4231 136.531 11.3993 136.961 11.3003ZM135.649 9.97637L133.648 9.76443L134.046 6.00649L136.047 6.21843C136.656 6.28278 137.105 6.50369 137.393 6.88116C137.68 7.25831 137.794 7.73262 137.733 8.30439C137.673 8.87584 137.467 9.31426 137.117 9.61902C136.767 9.92408 136.277 10.0429 135.649 9.97637Z" fill="#6B6B6B"/>
<path d="M163.846 13.5423L164.984 13.9851L166.554 19.3441L168.269 20.0106L166.47 13.6531L171.658 10.3818L169.943 9.71537L165.363 12.5751L164.372 12.1899L165.939 8.15848L164.426 7.57031L160.729 17.079L162.242 17.6675L163.846 13.5423Z" fill="#6B6B6B"/>
<path d="M173.106 19.2703L176.624 21.0385L176.341 24.0004L177.857 24.7618L178.844 13.8394L177.585 13.207L169.383 20.5026L170.911 21.2705L173.106 19.2703ZM177.382 15.1794L176.877 19.8309L173.899 18.3337L177.382 15.1794Z" fill="#6B6B6B"/>
<path d="M193.882 22.8349L189.066 30.1757L186.29 28.3549L191.106 21.0141L189.749 20.1234L184.933 27.4644L182.157 25.6436L186.974 18.3026L185.616 17.4121L180.02 25.9422L189.643 32.2561L195.239 23.7257L193.882 22.8349Z" fill="#6B6B6B"/>
<path d="M198.723 37.8506L194.571 34.4169L196.558 32.0138L200.068 34.9165L200.92 33.8866L197.409 30.9838L199.259 28.7468L203.312 32.0982L204.218 31.002L198.925 26.625L192.424 34.4877L197.817 38.9468L198.723 37.8506Z" fill="#6B6B6B"/>
<path d="M202.033 39.4579C201.604 39.6253 201.25 39.6717 200.972 39.5981C200.694 39.5241 200.436 39.3827 200.199 39.1736L199.277 40.3648C199.705 40.7905 200.165 41.0618 200.657 41.1788C201.148 41.2961 201.703 41.254 202.322 41.0523C202.942 40.8508 203.638 40.4864 204.412 39.9592C205.187 39.4319 206.07 38.7438 207.064 37.8942L208.311 36.824L210.206 38.7086L204.015 44.934L205.166 46.079L212.36 38.8447L208.264 34.7715L206.095 36.6065C205.115 37.4425 204.301 38.0848 203.652 38.5338C203.002 38.9827 202.463 39.2909 202.033 39.4579Z" fill="#6B6B6B"/>
<path d="M209.968 51.5988C210.282 51.9738 210.627 52.2752 211.005 52.5026C211.382 52.7303 211.775 52.876 212.185 52.9397C212.594 53.0035 213.011 52.9732 213.437 52.8478C213.863 52.7228 214.282 52.4883 214.694 52.1443C215.098 51.8064 215.398 51.4404 215.593 51.0465C215.788 50.6524 215.892 50.2505 215.905 49.8402C215.918 49.4296 215.843 49.015 215.68 48.5958C215.517 48.1766 215.275 47.7756 214.956 47.3935L213.629 45.806L216.452 43.4471L215.411 42.2012L207.582 48.7431L209.968 51.5988ZM213.883 48.2155C214.276 48.6858 214.444 49.1567 214.389 49.6279C214.333 50.0989 214.085 50.5187 213.643 50.8872C213.203 51.256 212.75 51.428 212.286 51.4036C211.823 51.3791 211.388 51.1242 210.983 50.6391L209.693 49.0952L212.593 46.672L213.883 48.2155Z" fill="#6B6B6B"/>
<path d="M228.773 72.7895L229.285 73.8984L226.694 78.8454L227.465 80.5152L230.585 74.6911L236.589 75.9395L235.818 74.2697L230.536 73.1466L230.091 72.1813L234.018 70.3685L233.337 68.8945L224.074 73.1701L224.755 74.6444L228.773 72.7895Z" fill="#6B6B6B"/>
<path d="M228.496 83.2659L231.464 83.3516L232.767 87.0668L230.507 89.0015L231.068 90.6017L239.364 83.4286L238.898 82.0997L227.93 81.6523L228.496 83.2659ZM237.382 83.3775L233.788 86.3737L232.685 83.2281L237.382 83.3775Z" fill="#6B6B6B"/>
<path d="M234.338 104.189L244.291 101.947L243.934 100.363L235.369 102.293L234.64 99.0545L243.205 97.1248L242.848 95.541L234.283 97.4704L233.553 94.2323L242.118 92.3029L241.761 90.7188L231.809 92.961L234.338 104.189Z" fill="#6B6B6B"/>
<path d="M235.555 114.671L236.969 114.513L236.373 109.158L239.472 108.813L239.975 113.34L241.304 113.193L240.8 108.665L243.685 108.345L244.266 113.572L245.68 113.414L244.921 106.588L234.781 107.716L235.555 114.671Z" fill="#6B6B6B"/>
<path d="M240.037 118.451C239.259 118.323 238.657 118.169 238.232 117.99C237.807 117.811 237.52 117.599 237.372 117.353C237.223 117.106 237.137 116.825 237.111 116.51L235.621 116.725C235.633 117.329 235.774 117.843 236.046 118.269C236.318 118.695 236.746 119.051 237.331 119.337C237.916 119.622 238.67 119.845 239.593 120.005C240.516 120.164 241.63 120.284 242.934 120.365L244.575 120.462L244.626 123.135L235.848 123.303L235.879 124.927L246.079 124.731L245.969 118.956L243.134 118.766C241.848 118.685 240.816 118.58 240.037 118.451Z" fill="#6B6B6B"/>
<path d="M235.495 132.234C235.46 132.721 235.499 133.178 235.612 133.604C235.725 134.029 235.907 134.407 236.157 134.738C236.407 135.068 236.729 135.336 237.122 135.542C237.515 135.748 237.979 135.87 238.515 135.909C239.04 135.947 239.51 135.892 239.924 135.744C240.338 135.596 240.692 135.379 240.986 135.093C241.281 134.807 241.515 134.456 241.689 134.042C241.863 133.627 241.968 133.171 242.004 132.674L242.153 130.611L245.822 130.875L245.938 129.255L235.763 128.521L235.495 132.234ZM236.891 132.248L237.036 130.241L240.805 130.513L240.661 132.52C240.617 133.131 240.411 133.587 240.043 133.887C239.676 134.187 239.206 134.316 238.632 134.275C238.059 134.234 237.614 134.043 237.298 133.704C236.981 133.364 236.846 132.878 236.891 132.248Z" fill="#6B6B6B"/>
<path d="M230.109 159.076L234.286 160.538L233.883 161.691L228.58 163.443L227.973 165.179L234.265 163.164L237.711 168.238L238.319 166.502L235.305 162.021L235.656 161.018L239.738 162.447L240.275 160.914L230.646 157.543L230.109 159.076Z" fill="#6B6B6B"/>
<path d="M226.804 167.858L228.878 169.984L227.23 173.56L224.26 173.378L223.551 174.918L234.5 175.533L235.089 174.254L227.519 166.305L226.804 167.858ZM233.111 174.118L228.445 173.772L229.841 170.744L233.111 174.118Z" fill="#6B6B6B"/>
<path d="M216.451 186.964L225.165 192.269L226.009 190.882L218.511 186.316L220.237 183.481L227.736 188.047L228.58 186.661L221.081 182.095L222.808 179.259L230.307 183.826L231.151 182.439L222.437 177.133L216.451 186.964Z" fill="#6B6B6B"/>
<path d="M210.043 195.352L211.169 196.221L214.461 191.956L216.93 193.861L214.147 197.467L215.205 198.283L217.988 194.677L220.286 196.451L217.072 200.614L218.199 201.483L222.395 196.046L214.318 189.812L210.043 195.352Z" fill="#6B6B6B"/>
<path d="M210.65 201.175C210.18 200.542 209.854 200.013 209.672 199.589C209.491 199.165 209.432 198.814 209.497 198.533C209.561 198.253 209.694 197.991 209.895 197.746L208.674 196.865C208.262 197.307 208.007 197.775 207.906 198.271C207.805 198.766 207.866 199.319 208.089 199.932C208.311 200.544 208.698 201.228 209.251 201.984C209.804 202.74 210.521 203.6 211.404 204.564L212.515 205.775L210.695 207.732L204.266 201.753L203.16 202.942L210.631 209.89L214.565 205.659L212.658 203.553C211.79 202.601 211.121 201.809 210.65 201.175Z" fill="#6B6B6B"/>
<path d="M197.805 207.924C197.441 208.25 197.152 208.605 196.937 208.99C196.722 209.375 196.589 209.773 196.539 210.184C196.489 210.595 196.534 211.011 196.673 211.433C196.812 211.855 197.061 212.265 197.419 212.665C197.77 213.058 198.146 213.345 198.546 213.527C198.946 213.709 199.352 213.799 199.762 213.798C200.173 213.797 200.585 213.708 200.998 213.531C201.412 213.354 201.804 213.1 202.176 212.768L203.718 211.388L206.17 214.13L207.38 213.048L200.579 205.443L197.805 207.924ZM201.318 211.723C200.861 212.131 200.396 212.316 199.923 212.276C199.451 212.236 199.023 212.002 198.64 211.573C198.256 211.145 198.069 210.698 198.078 210.234C198.087 209.77 198.327 209.327 198.798 208.906L200.298 207.565L202.817 210.382L201.318 211.723Z" fill="#6B6B6B"/>
<path d="M175.268 223.482L177.258 227.435L176.167 227.984L171.135 225.563L169.492 226.389L175.418 229.31L174.374 235.354L176.017 234.527L176.96 229.21L177.91 228.732L179.855 232.595L181.305 231.865L176.718 222.752L175.268 223.482Z" fill="#6B6B6B"/>
<path d="M166.804 230.477L163.136 231.906L161.125 229.713L159.545 230.328L166.996 238.375L168.309 237.864L168.382 226.887L166.789 227.507L166.804 230.477ZM166.98 236.392L163.863 232.903L166.97 231.693L166.98 236.392Z" fill="#6B6B6B"/>
<path d="M146.061 234.061L148.639 243.932L150.21 243.522L147.991 235.027L151.203 234.188L153.422 242.683L154.993 242.272L152.774 233.778L155.985 232.939L158.204 241.434L159.776 241.023L157.197 231.152L146.061 234.061Z" fill="#6B6B6B"/>
<path d="M135.639 235.631L135.843 237.039L141.176 236.263L141.625 239.348L137.117 240.004L137.31 241.326L141.817 240.671L142.235 243.543L137.031 244.3L137.236 245.708L144.033 244.719L142.563 234.623L135.639 235.631Z" fill="#6B6B6B"/>
<path d="M132.069 236.24C131.653 236.525 131.312 236.965 131.045 237.56C130.779 238.154 130.582 238.916 130.453 239.843C130.325 240.771 130.242 241.888 130.206 243.194L130.163 244.837L127.493 244.978L127.032 236.21L125.41 236.296L125.947 246.484L131.715 246.18L131.81 243.34C131.848 242.052 131.918 241.018 132.021 240.235C132.123 239.453 132.257 238.846 132.421 238.416C132.586 237.985 132.789 237.691 133.03 237.535C133.271 237.378 133.549 237.282 133.864 237.246L133.598 235.764C132.996 235.795 132.486 235.954 132.069 236.24Z" fill="#6B6B6B"/>
<path d="M116.728 236.319C116.306 236.447 115.934 236.641 115.613 236.902C115.291 237.162 115.034 237.493 114.841 237.893C114.648 238.293 114.542 238.761 114.521 239.297C114.501 239.823 114.571 240.291 114.733 240.7C114.895 241.109 115.123 241.456 115.419 241.74C115.715 242.025 116.073 242.247 116.494 242.407C116.914 242.567 117.373 242.657 117.871 242.676L119.938 242.755L119.797 246.431L121.42 246.494L121.812 236.299L118.093 236.156C117.605 236.137 117.15 236.192 116.728 236.319ZM120.136 237.629L119.99 241.406L117.98 241.328C117.368 241.305 116.905 241.114 116.593 240.757C116.281 240.4 116.136 239.934 116.158 239.36C116.18 238.786 116.356 238.334 116.685 238.007C117.013 237.679 117.494 237.528 118.126 237.552L120.136 237.629Z" fill="#6B6B6B"/>
<path d="M89.7506 235.906L88.5848 235.542L86.6535 230.302L84.8977 229.754L87.125 235.974L82.1719 239.591L83.9277 240.139L88.3029 236.974L89.318 237.291L88.0288 241.42L89.5785 241.904L92.6199 232.166L91.0698 231.681L89.7506 235.906Z" fill="#6B6B6B"/>
<path d="M82.1757 228.674L80.121 230.819L76.4914 229.293L76.5722 226.319L75.0091 225.662L74.7656 236.627L76.0639 237.172L83.7521 229.337L82.1757 228.674ZM76.1329 235.19L76.3207 230.515L79.3939 231.807L76.1329 235.19Z" fill="#6B6B6B"/>
<path d="M57.7266 227.865L59.1411 228.662L63.4513 221.013L66.343 222.642L62.0331 230.291L63.4476 231.089L67.7575 223.44L70.6495 225.069L66.3393 232.718L67.7538 233.515L72.7624 224.627L62.7351 218.977L57.7266 227.865Z" fill="#6B6B6B"/>
<path d="M54.1377 212.859L53.307 214.014L57.6812 217.161L55.8604 219.692L52.1625 217.032L51.3822 218.117L55.0801 220.777L53.385 223.133L49.1156 220.062L48.2852 221.217L53.8608 225.228L59.8183 216.946L54.1377 212.859Z" fill="#6B6B6B"/>
<path d="M49.8874 212.625C50.3048 212.429 50.6547 212.359 50.9369 212.414C51.2194 212.469 51.4861 212.593 51.737 212.786L52.5764 211.535C52.1209 211.139 51.6442 210.899 51.146 210.815C50.6479 210.731 50.0966 210.811 49.4923 211.053C48.888 211.296 48.2173 211.706 47.48 212.284C46.743 212.862 45.9076 213.608 44.9732 214.522L43.8009 215.673L41.7837 213.92L47.5434 207.294L46.3179 206.229L39.625 213.929L43.9847 217.718L46.0261 215.742C46.9481 214.842 47.7173 214.147 48.3348 213.655C48.9524 213.164 49.47 212.821 49.8874 212.625Z" fill="#6B6B6B"/>
<path d="M41.1605 201.043C40.8226 200.69 40.4578 200.413 40.0658 200.211C39.6741 200.009 39.2719 199.89 38.8595 199.854C38.447 199.818 38.0324 199.876 37.6157 200.03C37.1989 200.183 36.7967 200.445 36.409 200.816C36.0285 201.18 35.7537 201.566 35.5857 201.972C35.4174 202.378 35.3407 202.786 35.3552 203.196C35.3698 203.607 35.4725 204.016 35.6634 204.423C35.8543 204.83 36.1219 205.214 36.4663 205.574L37.8963 207.069L35.2383 209.612L36.3608 210.785L43.7328 203.733L41.1605 201.043ZM37.482 204.682C37.0582 204.239 36.8583 203.78 36.8824 203.306C36.9066 202.833 37.1259 202.397 37.5414 202C37.9566 201.603 38.3966 201.4 38.8607 201.394C39.3251 201.387 39.7756 201.612 40.2128 202.069L41.6032 203.523L38.8725 206.135L37.482 204.682Z" fill="#6B6B6B"/>
<path d="M20.9644 181.158L20.3787 180.086L22.6295 174.975L21.7474 173.361L19.0285 179.383L12.9531 178.543L13.8349 180.157L19.181 180.921L19.6906 181.854L15.8952 183.928L16.6739 185.353L25.6267 180.46L24.8479 179.036L20.9644 181.158Z" fill="#6B6B6B"/>
<path d="M20.5382 170.701L17.5701 170.817L16.0179 167.199L18.1413 165.115L17.4727 163.557L9.68359 171.277L10.239 172.571L21.2124 172.272L20.5382 170.701ZM11.6647 171.193L15.0464 167.96L16.361 171.023L11.6647 171.193Z" fill="#6B6B6B"/>
<path d="M13.2854 150.211L3.50781 153.124L3.97129 154.68L12.3857 152.173L13.3333 155.354L4.91897 157.861L5.38245 159.417L13.7968 156.911L14.7445 160.092L6.33014 162.598L6.79392 164.154L16.5715 161.242L13.2854 150.211Z" fill="#6B6B6B"/>
<path d="M11.365 139.842L9.96499 140.094L10.921 145.397L7.85243 145.95L7.04428 141.467L5.72903 141.705L6.53718 146.187L3.68051 146.702L2.74768 141.526L1.34766 141.779L2.56606 148.538L12.6063 146.729L11.365 139.842Z" fill="#6B6B6B"/>
<path d="M6.6412 136.377C7.42645 136.454 8.0372 136.567 8.47314 136.717C8.90939 136.867 9.20951 137.06 9.37411 137.296C9.53871 137.531 9.64421 137.806 9.69031 138.119L11.163 137.805C11.1114 137.203 10.9356 136.699 10.6361 136.293C10.3366 135.886 9.88554 135.559 9.28253 135.313C8.67951 135.067 7.91221 134.895 6.98092 134.798C6.04932 134.7 4.93023 134.655 3.62303 134.662L1.97982 134.673L1.75025 132.011L10.4975 131.257L10.358 129.639L0.193359 130.515L0.689633 136.27L3.53114 136.271C4.81916 136.265 5.85564 136.301 6.6412 136.377Z" fill="#6B6B6B"/>
<path d="M10.2612 122.359C10.2689 121.871 10.2045 121.417 10.0675 120.998C9.93073 120.579 9.72838 120.212 9.46045 119.896C9.19251 119.58 8.8565 119.33 8.45212 119.147C8.04805 118.963 7.57776 118.867 7.04127 118.858C6.51467 118.849 6.04841 118.93 5.64341 119.101C5.2381 119.272 4.89652 119.508 4.61868 119.81C4.34054 120.112 4.12643 120.476 3.97576 120.899C3.82508 121.323 3.74587 121.784 3.73783 122.282L3.70442 124.351L0.0262988 124.291L0 125.915L10.2008 126.08L10.2612 122.359ZM8.8333 124.434L5.05494 124.373L5.08742 122.362C5.09732 121.749 5.27739 121.282 5.62763 120.962C5.97756 120.642 6.44011 120.486 7.01466 120.496C7.58952 120.505 8.04433 120.67 8.3791 120.992C8.71418 121.314 8.8763 121.791 8.86609 122.423L8.8333 124.434Z" fill="#6B6B6B"/>
<path d="M13.8178 95.1635L9.55092 93.9881L9.87517 92.8109L15.0464 90.7026L15.5347 88.9295L9.39375 91.3666L5.61106 86.5391L5.12252 88.3122L8.434 92.5779L8.15183 93.6029L3.98177 92.4544L3.55078 94.02L13.3865 96.7288L13.8178 95.1635Z" fill="#6B6B6B"/>
<path d="M16.5209 86.1787L14.3074 84.198L15.7087 80.5186L18.6842 80.4985L19.2875 78.9141L8.32123 79.0431L7.82031 80.3589L15.9123 87.7768L16.5209 86.1787ZM9.80293 80.3608L14.4816 80.3896L13.2951 83.5052L9.80293 80.3608Z" fill="#6B6B6B"/>
<path d="M25.5476 66.429L16.4949 61.7246L15.7462 63.1655L23.5368 67.2139L22.0062 70.1591L14.2156 66.1109L13.4668 67.5518L21.2575 71.6L19.7269 74.5454L11.9362 70.497L11.1875 71.9378L20.2405 76.6422L25.5476 66.429Z" fill="#6B6B6B"/>
<path d="M27.1916 61.3205L24.6001 59.586L27.1337 55.8008L26.0233 55.0574L23.4897 58.8428L21.0776 57.2284L24.0026 52.8578L22.8207 52.0664L19 57.7745L27.4784 63.4491L31.3709 57.6337L30.1887 56.8426L27.1916 61.3205Z" fill="#6B6B6B"/>
<path d="M31.7262 50.9515C31.1238 50.2343 30.3503 49.4246 29.4054 48.5212L28.2151 47.3885L29.8995 45.3134L36.7158 50.8473L37.739 49.5868L29.8187 43.1562L26.1777 47.641L28.2213 49.6146C29.1517 50.5057 29.8726 51.2513 30.3843 51.8519C30.8964 52.4527 31.2571 52.9583 31.4663 53.3688C31.676 53.7797 31.758 54.1272 31.7125 54.4109C31.6671 54.6949 31.5523 54.9656 31.3679 55.2231L32.6457 56.0201C33.0262 55.5513 33.2499 55.0668 33.3171 54.5662C33.3842 54.0653 33.2864 53.5174 33.0238 52.9211C32.7608 52.3256 32.3282 51.669 31.7262 50.9515Z" fill="#6B6B6B"/>
<path d="M42.7508 44.2558C43.0921 43.9065 43.3572 43.5324 43.5457 43.1342C43.7344 42.7357 43.8396 42.3298 43.8622 41.9161C43.8845 41.5028 43.8121 41.0906 43.645 40.6791C43.4776 40.268 43.2022 39.8747 42.8186 39.4994C42.442 39.1312 42.0476 38.8698 41.6361 38.7154C41.2243 38.561 40.8137 38.4979 40.4044 38.526C39.9947 38.5545 39.5897 38.6708 39.189 38.8754C38.7881 39.0796 38.4137 39.3599 38.0656 39.716L36.6192 41.1958L33.9887 38.6244L32.8535 39.7856L40.1491 46.9172L42.7508 44.2558ZM38.9913 40.7014C39.4199 40.263 39.8713 40.048 40.3456 40.056C40.8196 40.0644 41.2626 40.2692 41.6735 40.6708C42.0844 41.0727 42.3013 41.5055 42.3232 41.9693C42.3455 42.4331 42.1357 42.891 41.6936 43.3431L40.2874 44.7818L37.5851 42.1401L38.9913 40.7014Z" fill="#6B6B6B"/>
</svg>
