<svg width="248" height="249" viewBox="0 0 248 249" fill="none" xmlns="http://www.w3.org/2000/svg">
<path d="M80.9108 18.0435C81.1032 17.6596 81.1673 17.2757 81.2314 16.8918C81.2314 16.5079 81.1673 16.06 80.9749 15.6122C80.7185 15.0364 80.3338 14.5885 79.8209 14.3326C79.308 14.0766 78.7951 14.0127 78.154 14.2046C78.6028 13.8847 78.8592 13.4368 78.9233 12.989C78.9874 12.5411 78.9233 12.0293 78.731 11.5174C78.4104 10.8136 77.9616 10.3658 77.2564 10.1738C76.6152 9.98188 75.8459 10.1098 74.9483 10.4937C74.3072 10.7496 73.7943 11.0696 73.4737 11.4534C73.089 11.8373 72.8326 12.2852 72.7043 12.861L73.9866 13.3729C74.0507 12.989 74.2431 12.6691 74.4995 12.4131C74.756 12.1572 75.0765 11.9013 75.4612 11.7094C75.8459 11.5174 76.2306 11.4534 76.6152 11.5814C76.9999 11.7094 77.1923 11.9013 77.3846 12.2852C77.5769 12.6691 77.5128 13.1169 77.3205 13.5008C77.1282 13.8847 76.6794 14.2046 76.0382 14.4605L75.2689 14.7804L75.7818 15.9321L76.6152 15.5482C77.3205 15.2283 77.8975 15.1643 78.4104 15.2923C78.9233 15.4202 79.2439 15.7401 79.4362 16.188C79.5645 16.4439 79.5645 16.6359 79.5645 16.8918C79.5645 17.1477 79.5003 17.3397 79.3721 17.5316C79.2439 17.7235 79.1157 17.9155 78.9233 18.1074C78.731 18.2994 78.5386 18.4273 78.2822 18.4913C77.8334 18.6833 77.4487 18.7472 77.064 18.6833C76.6794 18.6193 76.2947 18.4913 75.9741 18.2994L75.3971 19.707C75.91 20.0269 76.487 20.1548 77.064 20.2188C77.6411 20.2828 78.2822 20.0908 78.9233 19.8349C79.3721 19.643 79.8209 19.387 80.1415 19.0671C80.462 18.7472 80.7185 18.4273 80.9108 18.0435Z" fill="#6B6B6B"/>
<path d="M86.4887 13.8847L90.1431 12.733L92.0024 14.9724L93.6052 14.4605L86.7451 6.14303L85.3988 6.5909L84.6935 17.3397L86.2963 16.8278L86.4887 13.8847ZM86.681 8.12644L89.502 11.7094L86.3605 12.733L86.681 8.12644Z" fill="#6B6B6B"/>
<path d="M98.5419 13.3089L96.6186 4.9274L100.914 3.96769L100.594 2.62409L94.7593 3.90371L96.9391 13.6928L98.5419 13.3089Z" fill="#6B6B6B"/>
<path d="M107.582 8.89421L111.429 8.38236L112.839 10.9416L114.506 10.7496L109.313 1.34448L107.967 1.53642L105.21 11.9013L106.877 11.7094L107.582 8.89421ZM108.8 3.19992L110.916 7.23071L107.646 7.61459L108.8 3.19992Z" fill="#6B6B6B"/>
<path d="M119.507 8.95819C119.763 8.38236 120.02 7.61459 120.148 6.71886C120.276 5.82313 120.405 4.73546 120.469 3.45584L120.533 1.85632L123.161 1.79234L123.354 10.3658L124.957 10.3018L124.764 0.384766L119.122 0.512727L118.93 3.2639C118.866 4.54351 118.738 5.50323 118.609 6.27099C118.481 7.03876 118.353 7.61459 118.161 8.06246C117.968 8.51032 117.776 8.76624 117.519 8.89421C117.263 9.02217 117.007 9.15013 116.686 9.15013L116.878 10.6217C117.455 10.6217 117.968 10.4937 118.417 10.1738C118.93 9.98188 119.251 9.53401 119.507 8.95819Z" fill="#6B6B6B"/>
<path d="M134.509 10.6857C134.958 10.5577 135.279 10.3658 135.599 10.1738C135.92 9.9179 136.176 9.59799 136.369 9.21411C136.561 8.83022 136.689 8.38236 136.753 7.87051C136.818 7.35867 136.753 6.9108 136.561 6.46294C136.433 6.07905 136.176 5.69517 135.92 5.43924C135.663 5.11934 135.279 4.9274 134.894 4.73546C134.509 4.54351 134.061 4.47953 133.548 4.41555L131.56 4.22361L131.817 0.640689L130.214 0.512727L129.509 10.4937L133.163 10.7496C133.612 10.8136 134.061 10.7496 134.509 10.6857ZM131.496 5.56721L133.484 5.69517C134.061 5.75915 134.509 5.95109 134.83 6.27099C135.151 6.65488 135.279 7.10274 135.215 7.67857C135.151 8.2544 134.958 8.70226 134.638 8.95819C134.317 9.27809 133.804 9.40605 133.227 9.34207L131.24 9.21411L131.496 5.56721Z" fill="#6B6B6B"/>
<path d="M148.294 12.925L150.025 3.07196L148.486 2.75205L147.717 6.9108L142.78 6.01507L143.485 1.9203L141.947 1.6004L140.216 11.4534L141.754 11.7094L142.524 7.42265L147.46 8.2544L146.691 12.6051L148.294 12.925Z" fill="#6B6B6B"/>
<path d="M159.642 14.5245L154.513 13.053L155.41 10.1098L159.706 11.3255L160.026 10.0459L155.731 8.83022L156.5 6.14303L161.501 7.55061L161.886 6.20701L155.41 4.35157L152.653 13.9487L159.257 15.8041L159.642 14.5245Z" fill="#6B6B6B"/>
<path d="M170.349 20.2188C170.798 20.4107 171.246 20.5387 171.759 20.6027C172.208 20.6667 172.657 20.6027 173.041 20.4747C173.426 20.3468 173.811 20.1548 174.131 19.8989C174.452 19.643 174.708 19.2591 174.901 18.8752C175.157 18.2994 175.221 17.7235 175.029 17.2117C174.901 16.6999 174.516 16.252 174.003 15.8681C174.516 15.9321 175.029 15.8681 175.414 15.6122C175.798 15.3563 176.119 14.9724 176.375 14.4605C176.696 13.7567 176.696 13.053 176.375 12.4771C176.055 11.9013 175.478 11.3895 174.58 11.0056C173.939 10.7496 173.362 10.5577 172.849 10.6217C172.336 10.6857 171.823 10.7496 171.31 11.0056L171.759 12.2852C172.08 12.0932 172.464 12.0293 172.849 12.0293C173.234 12.0293 173.618 12.0932 174.003 12.2852C174.388 12.4771 174.708 12.7331 174.901 12.989C175.093 13.3089 175.093 13.6288 174.901 14.0127C174.708 14.3965 174.388 14.6525 174.003 14.7804C173.554 14.8444 173.041 14.7804 172.464 14.5245L171.695 14.2046L171.182 15.3563L172.016 15.7401C172.721 16.06 173.17 16.4439 173.426 16.8918C173.683 17.3397 173.683 17.7875 173.49 18.2994C173.362 18.5553 173.234 18.7472 173.106 18.8752C172.913 19.0032 172.721 19.1311 172.529 19.1951C172.336 19.2591 172.08 19.2591 171.823 19.2591C171.567 19.2591 171.31 19.1951 171.054 19.0671C170.605 18.8752 170.285 18.6193 170.028 18.2994C169.772 17.9795 169.643 17.5956 169.579 17.2117L168.169 17.7235C168.297 18.2994 168.554 18.8112 168.938 19.2591C169.195 19.515 169.708 19.8989 170.349 20.2188Z" fill="#6B6B6B"/>
<path d="M180.607 20.2188L184.967 22.714L182.787 26.5529L184.197 27.3207L189.134 18.6193L187.723 17.8515L185.672 21.4984L181.312 19.0032L183.364 15.3563L182.017 14.5885L177.016 23.2899L178.427 24.0576L180.607 20.2188Z" fill="#6B6B6B"/>
<path d="M193.494 33.7827L194.327 32.6311L190.031 29.56L191.827 27.0647L195.417 29.6879L196.186 28.6003L192.532 25.9771L194.199 23.6738L198.43 26.6809L199.2 25.5292L193.75 21.6264L187.916 29.7519L193.494 33.7827Z" fill="#6B6B6B"/>
<path d="M201.572 43.9557L204.2 41.0125L203.046 39.9888L208.753 33.5268L204.521 29.8159L202.534 31.7353C201.636 32.5671 200.867 33.2709 200.29 33.7187C199.713 34.1666 199.2 34.5505 198.751 34.7424C198.366 34.9344 197.981 34.9983 197.725 34.9983C197.469 34.9344 197.212 34.8704 196.956 34.6784L196.763 34.5505L194.135 37.4936L195.225 38.4533L196.892 36.5339L202.085 41.1405L200.418 43.0599L201.572 43.9557ZM201.828 38.9652L198.687 36.214C199.007 36.15 199.264 36.086 199.648 35.8941C199.969 35.7661 200.354 35.5742 200.738 35.2543C201.123 34.9984 201.572 34.6784 202.021 34.2946C202.469 33.9107 202.982 33.4628 203.495 32.951L204.649 31.8633L206.637 33.5908L201.828 38.9652Z" fill="#6B6B6B"/>
<path d="M208.24 45.0433C207.983 44.9793 207.727 44.8514 207.534 44.6594C207.406 44.5315 207.278 44.4035 207.214 44.2116C207.15 44.0196 207.021 43.8917 207.021 43.7637L205.932 44.5955C205.996 44.7874 206.06 44.9793 206.188 45.2353C206.316 45.4272 206.444 45.6192 206.573 45.7471C206.765 45.9391 207.021 46.131 207.214 46.259C207.47 46.3869 207.727 46.4509 207.983 46.4509C208.304 46.4509 208.624 46.4509 208.945 46.3869C209.33 46.3229 209.714 46.195 210.227 46.067L218.241 43.5078L217.087 42.2922L211.125 44.4035L213.561 38.5173L212.407 37.2377L209.394 44.9793C208.945 44.9793 208.56 45.0433 208.24 45.0433Z" fill="#6B6B6B"/>
<path d="M213.497 53.1689L218.626 52.913L219.588 54.1926L216.061 56.6878L217.023 58.0954L220.549 55.5362L221.511 56.8158L219.652 61.6143L220.678 63.0859L222.857 57.2637L228.563 56.9437L227.538 55.4722L222.537 55.7921L221.703 54.7044L225.165 52.2092L224.14 50.8656L220.742 53.2968L219.908 52.2092L221.767 47.5386L220.678 46.131L218.626 51.5054L212.407 51.6973L213.497 53.1689Z" fill="#6B6B6B"/>
<path d="M222.537 66.4129L225.422 66.029L227.281 69.42L225.422 71.6593L226.255 73.1309L233.116 64.8134L232.474 63.5977L221.767 65.0053L222.537 66.4129ZM231.128 65.0693L228.179 68.5882L226.576 65.7091L231.128 65.0693Z" fill="#6B6B6B"/>
<path d="M228.371 77.6095L232.41 75.882L234.398 80.5526L230.295 82.2801L230.936 83.6877L240.168 79.8488L239.527 78.3773L235.68 79.9768L233.693 75.3702L237.539 73.7067L236.962 72.2351L227.73 76.138L228.371 77.6095Z" fill="#6B6B6B"/>
<path d="M232.859 89.382L237.091 88.1664L238.565 92.9649L234.334 94.2445L234.782 95.7801L244.399 92.9009L243.951 91.4294L239.912 92.581L238.501 87.7825L242.476 86.5668L242.027 85.0313L232.41 87.9104L232.859 89.382Z" fill="#6B6B6B"/>
<path d="M242.54 98.5952C242.22 98.6592 241.899 98.7872 241.643 98.9151C241.386 99.0431 241.13 99.235 240.873 99.4909C240.681 99.6829 240.489 99.9388 240.296 100.195C240.168 100.451 240.04 100.771 239.976 101.026L235.616 99.363L235.936 101.09L240.104 102.626L240.489 104.545L236.77 105.249L237.091 106.785L246.964 104.993L246.259 101.026C246.195 100.579 246.002 100.195 245.746 99.8748C245.489 99.5549 245.233 99.235 244.912 99.0431C244.592 98.8511 244.207 98.6592 243.822 98.5952C243.309 98.5312 242.925 98.4673 242.54 98.5952ZM244.592 100.835C244.72 101.026 244.784 101.218 244.848 101.41L245.233 103.65L241.835 104.289L241.386 101.986C241.322 101.794 241.322 101.538 241.386 101.346C241.45 101.154 241.514 100.962 241.643 100.771C241.771 100.579 241.899 100.451 242.091 100.323C242.284 100.195 242.476 100.131 242.732 100.067C242.989 100.003 243.181 100.003 243.438 100.067C243.694 100.131 243.887 100.195 244.015 100.323C244.143 100.451 244.464 100.707 244.592 100.835Z" fill="#6B6B6B"/>
<path d="M247.477 136.664C247.349 136.152 247.028 135.704 246.643 135.32L245.553 136.152C245.81 136.408 246.002 136.728 246.13 137.048C246.259 137.432 246.259 137.815 246.259 138.199C246.195 138.647 246.066 138.967 245.81 139.223C245.553 139.479 245.233 139.607 244.848 139.543C244.399 139.479 244.079 139.287 243.887 138.903C243.694 138.519 243.63 138.007 243.694 137.368L243.822 136.536L242.54 136.408L242.348 137.304C242.284 138.071 242.027 138.647 241.707 138.967C241.322 139.351 240.937 139.479 240.424 139.415C240.168 139.415 239.976 139.287 239.783 139.159C239.591 139.031 239.399 138.903 239.334 138.711C239.206 138.519 239.142 138.327 239.078 138.071C239.014 137.815 239.014 137.559 239.078 137.304C239.142 136.856 239.27 136.408 239.527 136.152C239.783 135.832 240.04 135.576 240.424 135.384L239.527 134.232C239.014 134.552 238.565 134.936 238.245 135.448C237.924 135.96 237.732 136.536 237.668 137.24C237.603 137.751 237.603 138.199 237.732 138.647C237.86 139.095 237.988 139.479 238.245 139.799C238.501 140.119 238.757 140.439 239.142 140.631C239.527 140.822 239.911 141.014 240.36 141.014C241.001 141.078 241.578 140.95 242.027 140.631C242.476 140.311 242.797 139.863 242.989 139.287C243.053 139.799 243.31 140.247 243.694 140.567C244.079 140.886 244.528 141.078 245.041 141.142C245.81 141.206 246.451 141.014 246.964 140.567C247.413 140.055 247.733 139.351 247.797 138.455C247.669 137.751 247.669 137.176 247.477 136.664Z" fill="#6B6B6B"/>
<path d="M236.449 145.109L238.886 146.709L238.116 150.484L235.231 150.931L234.911 152.531L245.553 150.74L245.81 149.396L236.834 143.446L236.449 145.109ZM239.976 147.221L243.822 149.716L239.27 150.42L239.976 147.221Z" fill="#6B6B6B"/>
<path d="M233.436 157.394L241.643 159.953L240.36 164.111L241.707 164.495L243.438 158.865L233.885 155.858L233.436 157.394Z" fill="#6B6B6B"/>
<path d="M230.679 165.391L232.795 167.375L231.32 170.957L228.371 170.893L227.73 172.429L238.501 172.621L239.014 171.341L231.32 163.856L230.679 165.391ZM237.091 171.341L232.474 171.149L233.757 168.142L237.091 171.341Z" fill="#6B6B6B"/>
<path d="M229.461 178.315C228.884 177.803 228.435 177.419 228.115 177.036C227.794 176.652 227.666 176.332 227.666 176.076C227.666 175.82 227.73 175.5 227.858 175.244L226.512 174.732C226.255 175.244 226.127 175.756 226.127 176.268C226.127 176.78 226.32 177.292 226.704 177.803C227.089 178.315 227.602 178.891 228.307 179.467C229.012 180.043 229.91 180.683 231 181.386L232.346 182.282L231.064 184.585L223.499 180.491L222.729 181.898L231.513 186.697L234.205 181.706L231.897 180.171C230.936 179.403 230.102 178.827 229.461 178.315Z" fill="#6B6B6B"/>
<path d="M218.369 188.616C218.113 189 217.921 189.448 217.792 189.832C217.664 190.216 217.664 190.664 217.728 191.047C217.792 191.431 217.921 191.815 218.177 192.199C218.434 192.583 218.754 192.903 219.203 193.223C219.652 193.543 220.036 193.671 220.485 193.799C220.934 193.863 221.319 193.863 221.703 193.799C222.088 193.671 222.473 193.543 222.793 193.223C223.114 192.967 223.434 192.647 223.755 192.199L224.909 190.536L227.922 192.583L228.82 191.239L220.549 185.609L218.369 188.616ZM223.755 189.768L222.665 191.367C222.344 191.879 221.96 192.135 221.447 192.199C220.998 192.263 220.549 192.135 220.036 191.815C219.588 191.495 219.267 191.111 219.203 190.663C219.075 190.216 219.203 189.768 219.588 189.256L220.678 187.656L223.755 189.768Z" fill="#6B6B6B"/>
<path d="M213.24 195.59L216.638 198.405L213.369 202.244L210.035 199.429L209.009 200.645L216.638 207.107L217.664 205.827L214.459 203.14L217.728 199.301L220.934 201.988L221.96 200.772L214.266 194.374L213.24 195.59Z" fill="#6B6B6B"/>
<path d="M200.995 208.642L201.957 209.666L205.739 205.955L207.855 208.194L204.649 211.265L205.547 212.225L208.753 209.09L210.74 211.137L207.086 214.72L208.047 215.744L212.856 211.073L205.867 203.908L200.995 208.642Z" fill="#6B6B6B"/>
<path d="M197.597 222.334C197.404 222.654 197.148 222.974 196.827 223.23C196.443 223.486 196.122 223.614 195.738 223.614C195.417 223.614 195.096 223.422 194.84 223.102C194.583 222.718 194.519 222.334 194.648 221.95C194.776 221.566 195.096 221.118 195.673 220.734L196.379 220.223L195.609 219.199L194.904 219.711C194.263 220.159 193.75 220.351 193.237 220.351C192.724 220.351 192.34 220.095 192.019 219.711C191.891 219.519 191.763 219.263 191.763 219.071C191.698 218.815 191.698 218.623 191.763 218.431C191.827 218.239 191.891 217.983 192.083 217.791C192.211 217.599 192.404 217.407 192.66 217.216C193.045 216.96 193.429 216.768 193.814 216.704C194.199 216.64 194.583 216.704 194.968 216.832L195.225 215.36C194.648 215.168 194.071 215.168 193.494 215.232C192.917 215.36 192.34 215.616 191.763 216C191.378 216.32 190.993 216.64 190.737 217.024C190.48 217.407 190.288 217.791 190.224 218.175C190.16 218.559 190.096 219.007 190.224 219.391C190.288 219.775 190.48 220.159 190.737 220.543C191.121 221.054 191.57 221.374 192.147 221.502C192.724 221.63 193.237 221.566 193.814 221.246C193.494 221.694 193.301 222.142 193.365 222.59C193.365 223.102 193.558 223.55 193.878 223.934C194.327 224.573 194.904 224.893 195.609 224.893C196.25 224.893 197.02 224.637 197.789 224.061C198.366 223.678 198.751 223.23 199.007 222.782C199.264 222.334 199.392 221.822 199.456 221.246L198.11 220.99C197.917 221.63 197.789 222.014 197.597 222.334Z" fill="#6B6B6B"/>
<path d="M184.325 221.182L186.569 224.957L182.21 227.516L179.966 223.742L178.619 224.509L183.684 233.147L185.095 232.315L182.915 228.732L187.275 226.173L189.39 229.756L190.801 228.988L185.672 220.351L184.325 221.182Z" fill="#6B6B6B"/>
<path d="M168.361 229.436L168.938 230.715L173.747 228.476L175.029 231.291L170.99 233.147L171.503 234.298L175.542 232.443L176.76 235.066L172.08 237.178L172.657 238.457L178.748 235.642L174.58 226.557L168.361 229.436Z" fill="#6B6B6B"/>
<path d="M165.091 235.258C164.963 234.49 164.963 233.914 164.963 233.467C165.027 233.019 165.091 232.699 165.284 232.443C165.476 232.251 165.668 232.059 165.925 231.931L166.117 231.867L164.835 228.092L163.489 228.54L164.322 230.971L157.718 233.275L156.885 230.843L155.474 231.291L156.757 235.066L158.167 234.554L160.924 242.68L166.31 240.824L165.604 238.137C165.412 236.986 165.156 236.026 165.091 235.258ZM162.078 240.888L159.77 234.042L163.745 232.699C163.617 232.955 163.553 233.275 163.553 233.659C163.553 234.042 163.489 234.426 163.553 234.874C163.553 235.322 163.681 235.898 163.745 236.474C163.809 237.05 164.002 237.753 164.194 238.457L164.579 239.993L162.078 240.888Z" fill="#6B6B6B"/>
<path d="M151.243 236.602C151.435 236.41 151.692 236.218 151.948 236.154C152.141 236.09 152.333 236.09 152.525 236.09C152.718 236.09 152.91 236.09 153.038 236.154L152.846 234.81C152.653 234.746 152.461 234.746 152.205 234.746C151.948 234.746 151.756 234.81 151.564 234.81C151.243 234.874 150.987 235.002 150.794 235.13C150.602 235.258 150.41 235.45 150.217 235.706C150.025 235.962 149.897 236.218 149.768 236.602C149.64 236.922 149.512 237.369 149.448 237.881L147.717 246.071L149.32 245.687L150.474 239.481L154.385 244.535L156.051 244.151L150.858 237.689C150.922 237.178 151.051 236.794 151.243 236.602Z" fill="#6B6B6B"/>
<path d="M143.293 236.858L141.562 236.986L139.19 241.592L137.651 241.784L137.202 237.497L135.471 237.625L135.92 241.976L134.381 242.104L131.111 238.137L129.316 238.329L133.355 243.064L130.727 248.182L132.522 247.99L134.702 243.512L136.112 243.384L136.561 247.606L138.228 247.414L137.779 243.192L139.126 243.064L142.267 246.967L144.062 246.775L140.408 242.296L143.293 236.858Z" fill="#6B6B6B"/>
<path d="M124.444 240.952L120.597 240.888L119.571 238.137H117.904L121.687 248.182H123.097L127.265 238.265H125.598L124.444 240.952ZM122.392 246.391L120.853 242.104L124.123 242.168L122.392 246.391Z" fill="#6B6B6B"/>
<path d="M112.39 242.04L107.325 241.464L107.902 237.05L106.3 236.858L105.081 246.775L106.684 246.967L107.197 242.872L112.198 243.448L111.685 247.606L113.288 247.798L114.442 237.881L112.903 237.689L112.39 242.04Z" fill="#6B6B6B"/>
<path d="M99.3754 240.057L94.4387 238.905L95.4645 234.618L93.9258 234.234L91.6177 243.959L93.1564 244.343L94.1181 240.249L99.0549 241.4L98.0932 245.495L99.6319 245.815L101.94 236.09L100.401 235.77L99.3754 240.057Z" fill="#6B6B6B"/>
<path d="M88.6685 232.635L85.2705 235.45L83.4112 234.81L84.6935 231.227L83.2189 230.715L79.885 240.121L83.6677 241.464C84.1165 241.592 84.5012 241.656 84.95 241.656C85.3988 241.592 85.7834 241.528 86.104 241.336C86.4246 241.144 86.7451 240.888 87.0657 240.632C87.3222 240.313 87.5145 239.993 87.6427 239.609C87.7709 239.289 87.8351 238.969 87.8351 238.649C87.8351 238.329 87.8351 238.009 87.7068 237.753C87.6427 237.433 87.5145 237.178 87.3222 236.922C87.1298 236.666 86.9375 236.41 86.7451 236.218L90.3996 233.275L88.6685 232.635ZM86.104 239.033C86.0399 239.289 85.9117 239.481 85.7193 239.609C85.5911 239.801 85.3988 239.929 85.2064 239.993C85.0141 240.121 84.8217 240.121 84.5653 240.185C84.3729 240.185 84.1165 240.185 83.9241 240.121L81.7443 239.353L82.8983 236.09L85.1423 236.858C85.3346 236.922 85.527 237.05 85.7193 237.178C85.8475 237.305 85.9758 237.497 86.0399 237.689C86.104 237.881 86.1681 238.073 86.1681 238.329C86.1681 238.585 86.1681 238.777 86.104 239.033Z" fill="#6B6B6B"/>
<path d="M56.5478 215.936C56.1631 215.616 55.7144 215.424 55.2656 215.296C54.8168 215.168 54.4321 215.104 53.9833 215.104C53.5345 215.104 53.1498 215.232 52.8293 215.424C52.4446 215.616 52.124 215.872 51.8676 216.256C51.4829 216.768 51.2905 217.343 51.3547 217.855C51.4188 218.431 51.6111 218.943 52.0599 219.391C51.547 219.199 51.0341 219.199 50.5853 219.391C50.1365 219.583 49.7518 219.839 49.4313 220.287C48.9825 220.926 48.7901 221.566 48.9825 222.206C49.1748 222.846 49.6236 223.486 50.393 223.997C50.97 224.381 51.4829 224.637 51.9958 224.765C52.5087 224.893 53.0216 224.893 53.5986 224.701L53.4063 223.358C53.0216 223.486 52.701 223.486 52.3163 223.422C51.9317 223.358 51.6111 223.166 51.2264 222.91C50.8418 222.654 50.6494 222.334 50.5212 222.014C50.393 221.694 50.5212 221.374 50.7135 220.99C50.97 220.606 51.3547 220.479 51.8034 220.479C52.2522 220.479 52.701 220.67 53.278 221.054L53.9833 221.566L54.7527 220.543L54.0474 220.031C53.4063 219.583 53.0857 219.135 52.8934 218.623C52.7651 218.111 52.8293 217.663 53.1498 217.279C53.278 217.088 53.4704 216.896 53.6627 216.832C53.8551 216.768 54.0474 216.64 54.3039 216.64C54.4962 216.64 54.7527 216.64 55.0091 216.704C55.2656 216.768 55.4579 216.896 55.7144 217.088C56.099 217.343 56.3555 217.663 56.5478 218.047C56.7402 218.431 56.8043 218.815 56.7402 219.199L58.2148 219.007C58.2148 218.431 58.0865 217.855 57.8301 217.343C57.5095 216.832 57.1248 216.384 56.5478 215.936Z" fill="#6B6B6B"/>
<path d="M50.2006 211.073L47.6361 212.417L44.751 209.858L45.7768 207.107L44.5587 206.019L40.8401 216.064L41.8659 216.96L51.547 212.161L50.2006 211.073ZM42.507 215.168L44.174 210.881L46.6103 213.057L42.507 215.168Z" fill="#6B6B6B"/>
<path d="M41.0965 202.372L34.7493 208.194L31.8001 204.995L30.7743 205.955L34.8135 210.306L42.1224 203.524L41.0965 202.372Z" fill="#6B6B6B"/>
<path d="M35.4546 195.974L32.6336 196.806L30.2614 193.735L31.8001 191.239L30.7743 189.896L25.2606 199.109L26.0941 200.197L36.4804 197.254L35.4546 195.974ZM27.1199 198.597L29.5562 194.694L31.5437 197.254L27.1199 198.597Z" fill="#6B6B6B"/>
<path d="M27.6328 188.104C27.8892 188.232 28.0816 188.424 28.2739 188.68L29.4279 187.784C29.1074 187.273 28.7227 186.889 28.2739 186.697C27.8251 186.505 27.3122 186.377 26.6711 186.441C26.0299 186.505 25.2606 186.697 24.4271 187.017C23.5936 187.337 22.5678 187.784 21.4138 188.36L20.0033 189.064L18.6569 186.825L25.9658 182.282L25.1324 180.938L16.6053 186.185L19.5545 190.983L22.0549 189.704C23.209 189.128 24.1066 188.68 24.8118 188.424C25.517 188.168 26.0941 187.976 26.5429 187.912C27.0558 187.976 27.3763 187.976 27.6328 188.104Z" fill="#6B6B6B"/>
<path d="M21.3497 173.773C21.1573 173.325 20.9009 173.005 20.5803 172.685C20.2598 172.365 19.9392 172.173 19.5545 171.981C19.1698 171.853 18.7852 171.725 18.3364 171.789C17.8876 171.789 17.4388 171.917 16.99 172.173C16.5412 172.429 16.1565 172.685 15.9001 173.005C15.6436 173.325 15.4513 173.709 15.323 174.092C15.1948 174.476 15.1948 174.86 15.2589 175.308C15.323 175.756 15.4513 176.204 15.6436 176.652L16.5412 178.443L13.2714 180.043L13.9767 181.45L22.9525 177.036L21.3497 173.773ZM17.6952 177.867L16.7977 176.076C16.5412 175.564 16.4771 175.052 16.6694 174.604C16.8618 174.156 17.1823 173.837 17.6952 173.581C18.2081 173.325 18.6569 173.261 19.1057 173.389C19.5545 173.517 19.8751 173.837 20.1957 174.412L21.0932 176.204L17.6952 177.867Z" fill="#6B6B6B"/>
<path d="M17.8876 165.903L13.7202 167.439L11.9892 162.704L16.1565 161.168L15.5795 159.697L6.21898 163.088L6.73188 164.623L10.7069 163.152L12.438 167.886L8.46294 169.358L9.03996 170.829L18.4005 167.375L17.8876 165.903Z" fill="#6B6B6B"/>
<path d="M12.6303 148.756L11.2839 149.076L12.5662 154.194L9.61698 154.962L8.52705 150.612L7.24479 150.931L8.33471 155.282L5.57785 155.986L4.29558 150.995L2.94921 151.315L4.61615 157.841L14.2972 155.41L12.6303 148.756Z" fill="#6B6B6B"/>
<path d="M2.4363 139.031C2.24396 138.711 2.11573 138.327 2.05162 137.879C1.98751 137.432 2.05162 137.048 2.24396 136.728C2.4363 136.408 2.69275 136.28 3.14155 136.216C3.59034 136.152 3.97502 136.28 4.23147 136.664C4.55204 136.984 4.68026 137.496 4.74438 138.135L4.80849 138.967L6.09075 138.839V137.943C6.02664 137.176 6.09075 136.6 6.3472 136.152C6.60366 135.704 6.98834 135.448 7.50124 135.384C7.75769 135.384 8.01415 135.384 8.20649 135.448C8.39883 135.512 8.59117 135.64 8.78351 135.768C8.97585 135.896 9.10407 136.088 9.16818 136.344C9.29641 136.6 9.36052 136.792 9.36052 137.112C9.42464 137.559 9.36052 138.007 9.16818 138.391C8.97585 138.775 8.7835 139.095 8.46294 139.351L9.61698 140.311C10.0658 139.927 10.3863 139.415 10.5787 138.903C10.771 138.327 10.8351 137.687 10.771 137.048C10.7069 136.536 10.5787 136.088 10.3863 135.704C10.194 135.32 9.93754 134.936 9.61698 134.68C9.29641 134.424 8.97584 134.169 8.59117 134.041C8.20649 133.913 7.75769 133.849 7.3089 133.913C6.66777 133.977 6.15487 134.232 5.77019 134.616C5.38551 135 5.19317 135.512 5.12905 136.152C4.93671 135.64 4.61615 135.256 4.16736 135.064C3.84679 134.744 3.33389 134.68 2.82098 134.744C2.05162 134.808 1.4746 135.128 1.08992 135.704C0.769358 136.28 0.641132 137.048 0.705245 137.943C0.769358 138.647 0.961698 139.223 1.21815 139.671C1.4746 140.119 1.85928 140.503 2.30807 140.823L3.20566 139.735C2.88509 139.607 2.62864 139.351 2.4363 139.031Z" fill="#6B6B6B"/>
<path d="M10.1299 128.09L5.70607 128.154L5.64196 123.1L10.0658 123.036L10.0017 121.436L0 121.628V123.164L4.23147 123.1L4.29558 128.154L0.128226 128.218V129.818L10.1299 129.626V128.09Z" fill="#6B6B6B"/>
<path d="M10.8992 110.176L9.48875 110.048L9.03996 115.294L5.96253 115.038L6.3472 110.56L5.06494 110.432L4.68026 114.91L1.79517 114.654L2.30807 109.536L0.897584 109.408L0.320566 116.126L10.2581 117.022L10.8992 110.176Z" fill="#6B6B6B"/>
<path d="M7.43713 104.417C8.14237 104.673 8.71939 104.993 9.03996 105.249C9.36052 105.505 9.68109 105.761 9.7452 106.017C9.87343 106.273 9.87343 106.529 9.87343 106.849L9.80932 107.041L13.7202 107.808L13.9767 106.401L11.4763 105.889L12.8226 99.1071L15.3872 99.5549L15.6436 98.1474L11.7327 97.3796L11.4121 98.8511L2.94921 97.1876L1.9234 102.754L4.61615 103.522C5.77019 103.842 6.73188 104.162 7.43713 104.417ZM4.03913 98.9791L11.1557 100.387L10.3222 104.545C10.1299 104.29 9.87343 104.098 9.61698 103.906C9.29641 103.714 8.97585 103.458 8.52705 103.266C8.07826 103.074 7.62947 102.882 7.05245 102.69C6.47543 102.498 5.8343 102.306 5.12905 102.114L3.59034 101.666L4.03913 98.9791Z" fill="#6B6B6B"/>
<path d="M13.2073 91.7493C13.3355 92.0052 13.3355 92.2611 13.2073 92.581C13.1432 92.773 13.0791 92.9009 12.9509 93.0929C12.8226 93.2848 12.7585 93.4128 12.6944 93.4768L13.9126 93.9886C14.0408 93.8606 14.169 93.6687 14.2972 93.4768C14.4255 93.2208 14.4896 93.0289 14.5537 92.9009C14.6178 92.645 14.6819 92.3251 14.6819 92.0692C14.6819 91.8133 14.6178 91.5573 14.4896 91.3014C14.3614 91.0455 14.169 90.7896 13.9126 90.4697C13.6561 90.2137 13.3355 89.8938 13.015 89.5739L6.73188 84.0076L6.21898 85.6071L11.0275 89.7019L4.68026 90.5976L4.16736 92.1971L12.3738 90.8535C12.8226 91.2374 13.0791 91.4934 13.2073 91.7493Z" fill="#6B6B6B"/>
<path d="M16.9259 84.8394L17.6311 83.1758L14.746 78.8891L15.3872 77.4176L19.3622 79.1451L20.0674 77.6095L16.0924 75.882L16.7335 74.4105L21.8626 73.6427L22.5678 71.9792L16.413 73.0669L13.2714 68.2044L12.5662 69.8679L15.323 74.0266L14.8101 75.3062L10.8992 73.5787L10.194 75.1143L14.1049 76.8418L13.5279 78.1214L8.59117 78.8252L7.88592 80.4887L13.5279 79.5929L16.9259 84.8394Z" fill="#6B6B6B"/>
<path d="M24.5553 68.6522L22.7602 66.3489L24.7477 63.0219L27.6328 63.5338L28.4663 62.1262L17.8235 60.3987L17.1182 61.6143L23.6578 70.1238L24.5553 68.6522ZM19.0416 61.9342L23.5295 62.766L21.8626 65.5811L19.0416 61.9342Z" fill="#6B6B6B"/>
<path d="M31.3513 58.0954L27.761 55.4082L30.8384 51.3774L34.3647 54.0646L35.3264 52.785L27.3122 46.7708L26.3505 48.0504L29.6844 50.5457L26.6711 54.5765L23.3372 52.0812L22.3755 53.2968L30.3896 59.311L31.3513 58.0954Z" fill="#6B6B6B"/>
<path d="M39.2373 48.1784L36.0316 45.1713L39.4937 41.5244L42.6994 44.5315L43.7893 43.3798L36.4804 36.5339L35.3905 37.6855L38.4679 40.5647L35.0058 44.2116L31.9284 41.3964L30.9026 42.4841L38.1473 49.33L39.2373 48.1784Z" fill="#6B6B6B"/>
<path d="M42.3147 35.3183C42.507 35.5742 42.7635 35.7661 43.0199 35.9581C43.2764 36.15 43.597 36.278 43.8534 36.3419C44.174 36.4059 44.4304 36.4699 44.751 36.4699C45.0716 36.4699 45.328 36.4059 45.6486 36.278L46.4179 40.8846L47.7643 39.7329L46.995 35.3822L48.4696 34.1026L50.97 36.9818L52.1881 35.9581L45.6486 28.2804L42.6353 30.9036C42.3147 31.2235 42.0582 31.5434 41.8659 31.9273C41.6736 32.3112 41.6095 32.695 41.5453 33.0789C41.5453 33.4628 41.6095 33.8467 41.7377 34.2306C41.8659 34.6145 42.0582 34.9983 42.3147 35.3183ZM43.2764 32.3751C43.3405 32.1832 43.4687 31.9913 43.6611 31.8633L45.3921 30.3917L47.6361 33.0149L45.8409 34.5505C45.6486 34.6784 45.4562 34.8064 45.2639 34.8704C45.0716 34.9344 44.8792 34.9344 44.6228 34.9344C44.4304 34.9344 44.2381 34.8704 44.0457 34.7424C43.8534 34.6145 43.6611 34.4865 43.5328 34.2946C43.4046 34.1026 43.2764 33.9107 43.2123 33.7187C43.1482 33.5268 43.0841 33.2709 43.1482 33.0789C43.0841 32.759 43.1482 32.5671 43.2764 32.3751Z" fill="#6B6B6B"/>
</svg>
